<?xml version="1.0" encoding="utf-8"?>
<!-- Generator: Adobe Illustrator 25.2.0, SVG Export Plug-In . SVG Version: 6.00 Build 0)  -->
<svg version="1.1" id="Layer_1" xmlns="http://www.w3.org/2000/svg" xmlns:xlink="http://www.w3.org/1999/xlink" x="0px" y="0px"
	 viewBox="0 0 802 839" style="enable-background:new 0 0 802 839;" xml:space="preserve">
<style type="text/css">
	.st0{fill:none;}
	.st1{opacity:0.3;fill:#DAF4FB;}
	.st2{opacity:0.37;fill:#DAF4FB;}
	.st3{opacity:0.29;fill:#DAF4FB;}
	.st4{opacity:0.2;fill:#DAF4FB;}
	.st5{opacity:0.18;}
	.st6{fill:#DAF4FB;}
	.st7{opacity:0.19;fill:#DAF4FB;}
	.st8{clip-path:url(#SVGID_2_);}
	.st9{opacity:0.12;fill:#DAF4FB;}
	.st10{opacity:0.1;fill:#DAF4FB;}
	.st11{opacity:0.27;fill:#DAF4FB;}
	.st12{opacity:0.34;fill:#DAF4FB;}
	.st13{opacity:0.15;fill:#DAF4FB;}
	.st14{opacity:0.13;fill:#DAF4FB;}
	.st15{opacity:0.25;fill:#DAF4FB;}
	.st16{opacity:0.36;fill:#DAF4FB;}
	.st17{opacity:0.18;fill:#DAF4FB;}
	.st18{opacity:0.43;fill:#DAF4FB;}
	.st19{opacity:0.51;fill:#DAF4FB;}
	.st20{opacity:0.35;fill:#DAF4FB;}
	.st21{opacity:0.47;fill:#DAF4FB;}
	.st22{opacity:0.38;fill:#DAF4FB;}
</style>
<g>
	<g>
		<path class="st0" d="M686.72,154.33c0.97-4.07-0.03-8.56-2.64-11.83c-5.52,11.84-8.64,24.8-9.13,37.85
			c-0.41,11.01,1.34,22.76,8.52,31.12c6.82,7.94,17.87,11.6,28.29,10.61c10.42-0.99,20.14-6.25,27.71-13.48
			c9.03-8.62,15.38-20.57,15.33-33.06c-0.05-12.49-7.32-25.18-18.92-29.8c-10.78-4.3-23.55-1.13-32.75,5.94
			c-9.21,7.07-15.28,17.52-19.49,28.33"/>
		<path class="st1" d="M482.95,160.61c14.86,3.35,30.4,3.68,45.39,0.96c14.27-2.59,29.13-7.86,42.81-3.06
			c8.77,3.08,15.64,9.91,21.91,16.78c10.58,11.6,20.38,23.92,29.3,36.84c2.04-24.97,14.72-48.89,34.24-64.59
			c-2.34,3.48,1.63,7.87,5.52,9.45c3.88,1.58,8.72,2.83,10.05,6.81c-12.27,2.77-22.34,13.52-24.29,25.95
			c-1.95,12.43,4.34,25.75,15.17,32.14c13.34,7.87,30.78,5.18,44.54,12.31c12.47,6.46,19.8,20.03,23.14,33.67
			c1.54,6.27,2.39,12.91,0.69,19.13c-1.71,6.28-5.84,11.57-9.89,16.67c-11.37,14.33-23.25,28.96-39.27,37.78
			c-16.02,8.82-37.38,10.51-51.78-0.76c-4.54-3.55-8.29-8.26-13.54-10.63c-5.25-2.37-12.9-1.04-14.58,4.47
			c-0.4,1.31-0.42,2.74-0.99,3.99c-1.29,2.85-5.03,3.83-8.07,3.09c-3.04-0.74-5.58-2.75-8.16-4.51
			c-12.07-8.26-26.58-11.96-40.77-15.51c-3.17-0.8-6.52-1.59-9.67-0.72c-3.23,0.9-5.74,3.41-7.88,5.98
			c-9.12,10.91-14.61,24.79-15.42,38.99c-23.73,0.31-39.75-27.04-63.28-30.16c-3.86-0.51-7.83-0.34-11.59-1.32
			c-6.43-1.68-11.49-6.46-16.63-10.68c-19.42-15.94-44.2-26.37-58.11-47.29c-7.37-11.08-10.98-24.17-14.47-37
			c-1.33-4.9-2.68-9.92-2.24-14.98c0.72-8.35,6.14-15.47,11.49-21.92c10.82-13.03,22.49-25.69,36.89-34.6
			c5.22-3.23,10.81-5.91,16.63-7.86c5.84-1.96,11.94-3.19,18.1-3.44c2.91-0.12,5.8,0,8.69-0.42c1.97-0.28,3.89-0.8,5.85-1.16
			c6.06-1.11,12.27-0.75,18.3,0.33c6.58,1.18,12.99,3.11,19.48,4.68C481.32,160.23,482.13,160.42,482.95,160.61z"/>
		<path class="st2" d="M608.78,331.21c3.89-1.73,8.2,0.93,11.82,3.17c13.27,8.18,29.26,11.88,44.77,10.36
			c1.05-0.1,2.14-0.22,3.12,0.15c0.98,0.38,1.8,1.43,1.51,2.44c-0.13,0.47-0.47,0.86-0.81,1.21c-6.66,7.05-16.22,11.28-25.92,11.46
			c-10.07,0.19-19.71-3.74-29.01-7.6c-2.18-0.9-4.41-1.85-6.09-3.5c-1.34-1.31-2.23-2.99-2.91-4.73c-0.5-1.27-1.39-2.87-1.57-4.22
			c-0.2-1.56,0.75-3.64,1.44-5C605.95,333.37,607.12,331.95,608.78,331.21z"/>
		<path class="st3" d="M720.05,356.85c14.47,1.02,29.01-0.25,43.52,0.17c-0.31,2.55-2.73,4.26-5,5.46
			c-10.78,5.67-23.32,7.29-35.48,6.53c-12.15-0.76-24.04-3.78-35.8-6.95c-8.4-2.27-16.92-4.69-24.17-9.5
			c3.88-1.73,7.77-3.45,11.62-5.26c2.21-1.04,4.42-1.98,6.9-1.43c3.64,0.81,6.93,3.35,10.35,4.8c4.15,1.75,8.48,3.07,12.87,4.04
			C709.86,355.82,714.95,356.49,720.05,356.85z"/>
		<path class="st4" d="M551.59,252.24c2.48,0.08,4.65-0.69,7.03-1c0.98-0.13,1.78,0.07,2.67,0.5c3.16,1.5,5.87,1.82,9.36,1.68
			c3.49-0.14,6.98-0.27,10.47-0.41c-3.36,6.23-7.29,12.15-11.72,17.67c-0.84,1.04-1.71,2.09-2.85,2.8
			c-1.54,0.96-3.41,1.21-5.22,1.37c-3.32,0.3-6.81,0.35-9.79-1.13c-4.21-2.09-6.57-7.03-6.33-11.72c0.07-1.38,0.35-2.78,1.11-3.94
			c0.85-1.3,2.23-2.16,3.58-2.93c2.05-1.17,4.16-2.24,6.32-3.21c1.93-0.87,4.09-1.38,5.94-2.34c2.78-1.44,5.64-3.4,8.73-2.93
			c3.12,0.47,5.28,3.22,7.58,5.37c2.3,2.15,5.91,3.86,8.47,2.03c-0.34-5.56-4.23-10.21-8.25-14.07c-2.48-2.38-5.41-4.78-8.85-4.76
			c-1.77,0.01-3.46,0.67-5.1,1.32c-3.93,1.55-7.87,3.11-11.8,4.66c-3.07,1.21-6.68,2.33-9.35,4.32c-2.74,2.04,0.48,4.67,2.5,5.52
			C547.82,251.79,549.7,252.18,551.59,252.24z"/>
		<g class="st5">
			<path class="st6" d="M642.93,264.99c-11.41,9.86-18.85,24.18-20.37,39.18c-3.27-3.07-2.72-8.37-1.41-12.65
				c2.24-7.31,5.94-14.08,10.3-20.33c2.18-3.12,4.53-6.12,6.97-9.04c1.58-1.89,3.39-4.77,6.3-3.81
				C648.51,259.6,644.45,263.67,642.93,264.99z"/>
			<path class="st6" d="M655.01,267.93c-0.56,1.17-1.55,2.06-2.49,2.95c-8.51,8.12-13.97,19.37-15.08,31.08
				c-0.61,6.42,0.02,13-1.69,19.22c-0.17,0.61-0.41,1.29-0.99,1.56c-0.62,0.29-1.36-0.02-1.95-0.38c-3.54-2.17-5.6-6.24-6.16-10.36
				c-0.56-4.11,0.2-8.29,1.25-12.31c2.62-10.01,7.1-19.52,13.13-27.93c1.97-2.74,4.33-4.63,6.85-6.79c1.73-1.49,3.89-2.29,6.12-1.09
				C655.5,264.67,655.7,266.5,655.01,267.93z"/>
			<path class="st6" d="M661.21,272.67c-6.72,11.01-10.6,23.74-11.16,36.63c-0.23,5.26,0.08,10.59-0.96,15.76
				c-3.37-1.07-4.21-5.37-4.36-8.9c-0.34-8.4,0.14-16.92,2.13-25.11c1.9-7.81,5.29-15.37,10.58-21.49c0.95-1.1,2.04-1.67,3.49-1.07
				C662.82,269.26,662.03,271.32,661.21,272.67z"/>
			<path class="st6" d="M632.91,263.15c-3.72,0.59-6.34,3.85-8.51,6.93c-7.9,11.19-14.77,23.11-20.49,35.56
				c9.93-10.01,14.29-24.49,24.05-34.66c1-1.04,7.41-6.57,4.18-7.67c-5.02-1.73-9.91,5.55-12.29,8.1c-3.05,3.27-6.11,6.53-9.17,9.79
				c-2.26,2.41-4.94,5-8.25,4.92c2.56-12.52,14.9-20.15,22.69-30.27c-5.44,1.34-9.24,6.08-13.63,9.57c-5.74,4.57-13,7.2-20.33,7.36
				c10.08-9.15,21.54-16.77,33.87-22.54c-8.29,1.88-16.59,3.77-24.88,5.65c-2.37,0.54-5.19,0.96-6.94-0.73
				c1.93-3.57,6.5-4.55,10.46-5.42c6.97-1.53,13.76-3.9,20.17-7.05c-5.48,1.06-11.18,1.03-16.65-0.08c3.3-1.85,7.05-2.89,10.83-3.01
				c-0.46,0.32-1.11-0.28-1.04-0.83c0.06-0.56,0.53-0.97,0.96-1.33c1.76-1.46,3.53-2.93,5.29-4.39c-2.98,0.44-6.07,0.12-8.9-0.91
				c2.78-0.78,5.65-1.53,8.51-1.2c2.87,0.33,5.76,1.98,6.74,4.69c-1.17,0.93-2.53,1.61-3.98,1.99c2.73,0.1,5.45,0.21,8.18,0.31
				c-2.97,1.4-5.94,2.8-8.91,4.19c1.5,0.46,3.01,0.92,4.51,1.39c-0.76,0.79-1.53,1.59-2.29,2.38c0.88-0.18,1.48,1.06,1.08,1.87
				c-0.39,0.81-1.3,1.2-2.13,1.53c3.52-1.79,7.42-2.81,11.37-2.96c-4.19,1.63-7.91,4.43-10.64,8c1.81-0.76,3.68-1.45,5.45-2.29
				c1.17-0.55,1.78-1.45,2.76-2.21c0.99-0.77,2.37-0.69,3.4,0.02c1.13,0.78,0.36,1.21-0.37,2c-0.67,0.73-1.34,1.45-2.02,2.18
				c-1.92,2.07-3.83,4.14-5.75,6.21"/>
			<path class="st6" d="M657.16,306.74c0.28,3.32,0.64,6.67,1.69,9.84c0.66,2,1.65,3.99,3.33,5.26c1.68,1.27,4.19,1.63,5.88,0.38
				c1.47-1.08,2.01-3.09,1.84-4.91c-0.17-1.82-0.93-3.52-1.6-5.22c-3.83-9.69-5.06-20.38-3.6-30.69c0.33-2.31,0.85-4.45,1.56-6.66
				c0.52-1.62,0.21-3.08-1.78-1.74c-2.03,1.36-3.41,4.43-4.38,6.58c-1.15,2.55-1.94,5.25-2.46,8
				C656.44,293.88,656.63,300.37,657.16,306.74z"/>
			<path class="st6" d="M669.73,276.34c0.62-2.23,1.57-4.56,3.54-5.76c1.31,1.1,1.24,3.09,1.23,4.8
				c-0.02,5.73,1.96,11.19,4.05,16.44c1.07,2.68,2.18,5.35,3.13,8.07c0.92,2.64,2.23,5.87,1.64,8.7c-0.9,4.3-5.45,4.13-8.43,2.05
				c-4.27-2.98-5.02-9.18-5.84-13.93C667.89,289.97,667.88,282.97,669.73,276.34z"/>
			<path class="st6" d="M645.72,185.75c-0.43,0.34-0.87,0.69-1.3,1.03c0.79,0.1,0.89,1.28,0.47,1.96c-0.42,0.68-1.13,1.2-1.32,1.98
				c-0.47,1.99,2.77,3.68,1.91,5.53c-0.32,0.68-1.09,1.03-1.48,1.66c-0.53,0.86-0.17,2.05,0.54,2.77s1.7,1.09,2.65,1.43
				c-1.25,0.66-1.79,2.41-1.11,3.66c0.23,0.43,0.58,0.8,0.75,1.26c0.31,0.86-0.08,1.81-0.03,2.72c0.05,0.91,1.1,1.89,1.78,1.28
				c0.19,1.31-1.44,2.04-2.73,2.31c-6.53,1.32-13.17,2.05-19.83,2.18c4.26-2.83,9.11-4.77,14.14-5.66
				c-3.4-0.73-6.86-1.19-10.33-1.36c2.49-0.73,4.98-1.45,7.47-2.18c-1.21-0.53-2.42-1.05-3.62-1.58c1.14-0.48,2.27-0.95,3.41-1.43
				c-0.63-0.11-1.19-0.53-1.49-1.09c1.05-0.11,2.07-0.53,2.88-1.2c-1.04-0.44-2.07-0.88-3.11-1.33c0.94-0.18,1.81-0.68,2.44-1.39
				c-1.88-0.67-3.77-1.35-5.65-2.02c2.43-0.36,4.87-0.71,7.3-1.07c-2.74-0.59-5.37-1.65-7.76-3.11c2.97-0.17,5.95-0.34,8.92-0.51
				c-0.82-1.13-2.07-1.93-3.44-2.2c0.67-0.64,1.62-0.99,2.55-0.93c-0.38-0.55-0.75-1.09-1.13-1.64c0.29,0.39,0.97,0.38,1.26-0.01
				c-0.47-0.58-0.95-1.16-1.42-1.74c0.53-0.2,1.07-0.4,1.6-0.61c-0.89-0.51-1.62-1.29-2.07-2.21c0.74,0.07,1.48,0.14,2.21,0.21
				c-1.54-1.35-3.08-2.69-4.63-4.04c1.51-1.03,2.96-0.56,4.45,0.15c1.2,0.57,2.22,0.61,3.46,0.18c0.71-0.24,1.64-0.9,2.42-0.71
				c1,0.24,1.33,1.57,1.26,2.46c-0.11,1.46-1.12,2.58-2.48,2.98C644.71,183.72,645.78,185.71,645.72,185.75z"/>
			<path class="st6" d="M633.38,220.91c6.31-2.65,13.34-3.59,20.13-2.68c-0.92,1.62-1.85,3.24-2.77,4.86
				c2.12-0.69,4.25-1.38,6.37-2.08c-3.07,3.81-5.69,7.97-7.79,12.39c2.59-3.79,6.1-6.95,10.14-9.12c-2.77,4.03-4.42,8.82-4.73,13.69
				c1.44-4.52,4.44-8.53,8.37-11.19c-2.33,4.27-3.84,8.98-4.41,13.81c2.31-4.54,5.48-8.65,9.3-12.03c-1.13,2.93-1.93,5.98-2.37,9.09
				c2.62-3.2,5.61-6.09,8.88-8.62c-1.77,3.04-2.4,6.73-1.76,10.19c2.1-3.52,5.18-6.44,8.8-8.36c-0.34,2.1-0.69,4.2-1.03,6.31
				c1.36-1.67,3.34-2.83,5.46-3.2c0.88,0.9,1.01,2.44,0.29,3.47c1.14-1.66,2.89-2.89,4.84-3.4c0,0.88-0.01,1.76-0.01,2.64
				c1.97-2.3,5.16-3.49,8.16-3.03c-2.44,2.51-4.42,5.48-5.78,8.7c2.56-3.15,6.36-5.27,10.38-5.79c-0.63,1.57-1.26,3.15-1.9,4.72
				c2.06-1.21,4.83-1.04,6.73,0.4c-8.73,6.15-17.45,12.29-26.18,18.44c3.38-4.91,6.76-9.82,10.15-14.72
				c-4.85,3.3-9.21,7.32-12.89,11.88c3.62-5.41,6.86-11.07,9.69-16.92c-4.96,5.22-9.48,10.85-13.52,16.81
				c1.83-5.36,3.66-10.72,5.49-16.08c-4.25,4.97-8.13,10.25-11.6,15.79c-0.67-5.24,0.37-10.68,2.91-15.31
				c-3.53,5.09-7.06,10.19-10.59,15.28c2-4.89,3.31-10.06,3.89-15.3c-1.76,0.82-3.13,2.43-3.67,4.29c0.57-1.33,0.53-2.9-0.11-4.2
				c-3.15,4.97-6.29,9.95-9.44,14.92c-0.45-5.09,0.21-10.27,1.9-15.09c-1.41,3.42-3.67,6.48-6.53,8.84c2-3.32,3.37-7.02,4.03-10.84
				c-2.72,2.75-5.23,5.71-7.49,8.86c1.76-3.83,3.1-7.86,3.96-11.99c-2.14,1.77-3.96,3.93-5.34,6.34c0.87-2.39,1.75-4.77,2.62-7.16
				c-1.16,2.4-3.75,4.05-6.42,4.08c1.5-2.53,3-5.06,4.5-7.59c-1.83,0.83-3.67,1.67-5.5,2.5c2.28-2.65,4.56-5.3,6.84-7.95
				c-4.47,2.51-9.55,3.94-14.67,4.13c4.59-3.54,9.7-6.41,15.11-8.5c-5.32,2.31-11.45,2.69-17.01,1.07
				c3.14-2.45,7.22-3.65,11.19-3.28"/>
			<path class="st6" d="M713.55,303.74c0.87,0.04,2.06-0.27,1.99-1.13c-0.03-0.35-0.28-0.64-0.52-0.89
				c-6.98-7.21-17.49-9.84-25.26-16.19c-1.77-1.44-3.37-3.06-5.02-4.64c-0.71-0.68-2.1-2.74-3.12-1.6c-2,2.23,1.18,6.31,2.38,7.99
				c4.36,6.11,10.5,10.96,17.45,13.78C705.29,302.61,709.39,303.55,713.55,303.74z"/>
			<path class="st6" d="M708.36,288.68c2.33,0.55,4.74,0.93,7.13,0.65c2.9-0.35,5.59-1.66,8.21-2.95c-0.5-1.86-2.86-2.36-4.77-2.56
				c-7.47-0.8-14.85-2.39-21.99-4.71c-1.59-0.52-3.53-1.65-5.17-1.82c-0.95-0.1-1.15,0.39-1.03,1.3c0.38,2.94,3.28,4.33,5.59,5.55
				C700.11,286.16,704.17,287.7,708.36,288.68z"/>
			<path class="st6" d="M717.5,276.71c2.22,0.18,5.05-0.1,5.77-2.21c-10.08-0.28-20.12-2.11-29.66-5.39
				c-0.5-0.17-1.72-0.31-2.08,0.24c-0.46,0.71,0.7,1.2,1.17,1.65c1.29,1.24,2.31,1.68,4.08,2.15c4.39,1.17,8.84,2.08,13.33,2.73
				C712.55,276.24,715.02,276.55,717.5,276.71z"/>
			<path class="st6" d="M719.88,269.3c0.56,0.07,1.16,0.14,1.66-0.13s0.76-1.02,0.35-1.41c-0.28-0.27-2.12-0.07-2.55-0.09
				c-0.88-0.04-1.77-0.08-2.65-0.13c-1.8-0.1-3.6-0.23-5.4-0.39c-3.6-0.32-7.18-0.74-10.76-1.27c-1.21-0.18-2.83-0.76-4.03-0.56
				c1.24,1.01,3.65,1.34,5.19,1.58c3.82,0.59,7.68,1.02,11.52,1.52C715.44,268.71,717.66,269,719.88,269.3z"/>
			<path class="st6" d="M695.49,261.81c-0.75,0.48-1.22,1.36-1.2,2.25c7.56,1.21,15.23,1.72,22.88,1.53
				c1.32-0.03,2.87-0.22,3.54-1.36c-5.38-1.54-11.02-2.15-16.61-1.79c5.51-1.69,11.25-3.51,15.33-7.57
				c-0.84-1.37-2.89-1.03-4.41-0.53c-1.45,0.48-2.9,0.97-4.35,1.47c-5.25,1.79-10.3,3.88-15.88,4.31c-0.97,0.08-3.79,0.56-4.6-0.24
				c-0.33-0.33-0.31-0.33-0.09-0.75c0.13-0.25,0.58-0.44,0.81-0.57c2.49-1.52,5.29-2.73,7.91-4.04c3.41-1.71,6.85-3.34,10.34-4.89
				c0.64-0.28,1.31-0.57,2-0.51s1.4,0.6,1.39,1.3c-0.01,0.73-0.73,1.22-1.37,1.57c-3.57,1.94-7.28,3.6-11.1,4.98
				c-1.85,0.67-3.72,1.27-5.61,1.8"/>
		</g>
		<path class="st7" d="M730.92,272.62c-1.35-9.66-7.1-18.06-12.7-26.05c-2.56-3.66-7.63-7.65-10.78-4.47
			c-0.49-5.52-5.56-9.65-10.86-11.27c-5.3-1.62-10.96-1.37-16.46-1.98c-11.18-1.24-22.25-6.43-28.9-15.5
			c-5.91-8.06-7.9-18.87-5.23-28.51c2.67-9.63,9.92-17.89,19.14-21.77c-4.81-2-9.24-4.92-12.99-8.54
			c-6.92,6.08-11.23,14.51-15.38,22.74c-4.86,9.64-9.83,19.67-10.23,30.46c-0.26,6.95,1.4,13.81,3.06,20.57
			c1.45-0.44,2.9-0.87,4.35-1.31c-1.34,2.08-1.9,4.64-1.55,7.08c1.82,0.33,3.77-0.17,5.21-1.33c-1.36,1.57-2.81,3.47-2.39,5.51
			c0.39,1.9,3.5,2.69,4.25,1.14c-0.46,1.37-0.84,2.84-0.35,4.17c0.54,1.46,2.67,2.34,3.7,1.18c-0.89,1.64-0.79,3.78,0.27,5.32
			c1.21-1.31,2.43-2.61,3.64-3.92c-0.16,2.42,0.29,4.89,1.32,7.09c1.14-1.46,2.28-2.92,3.41-4.37c0.17,3.13,2.28,6.07,5.19,7.23
			c0.56-2.34,1.11-4.68,1.67-7.02c0.75,3.81,2.97,7.31,6.09,9.6c1.06-2.57,2.13-5.13,3.19-7.7c0.01,2.75,1.93,5.39,4.54,6.25
			c0.58-1.42,1.16-2.84,1.74-4.27c0.25,2.08,1.94,3.92,4,4.32c1.08-1.52,2.17-3.04,3.25-4.56c-0.74,1.91-0.21,4.25,1.28,5.66
			c2.12-1.7,3.96-3.76,5.41-6.05c-1.15,2.38-1.8,5-1.88,7.64c2-2.42,4.77-4.2,7.8-5.03c-2.31,2.96-4.61,5.92-6.92,8.88
			c1.9,0.35,3.95-0.13,5.49-1.31c-1.76,1.88-3.51,3.77-5.27,5.65c1.72,1.13,3.72,1.82,5.77,2.04c-1.99,0.27-3.97,0.55-5.96,0.82
			c2.88,1.26,5.18,3.79,6.14,6.78c-4.58-2.21-9.51-3.69-14.55-4.38c1.08,3.21,2.16,6.42,3.24,9.63c-1.01-2.87-2.13-5.88-4.49-7.79
			c-2-1.61-5.18-1.97-7.13-0.52c-0.05-0.83-0.61-1.93-1.43-2.35c-3.26-1.66-7.24-1.85-10.65-0.51c1.66-0.84,2.58-2.92,2.08-4.71
			c-4.22-2.77-8.17-5.96-11.76-9.52c-10.66-10.55-17.91-23.97-25.31-37.02c-11.44-20.19-24.08-40.55-42.9-54.14
			c-3.81-2.75-7.98-5.25-12.63-5.98c-8.08-1.26-15.94,2.97-24.07,3.87c-5.26,0.58-10.63-0.25-15.85,0.6
			c-5.22,0.85-10.67,4.08-11.64,9.29c0.49-2.86,0.98-5.72,1.47-8.58c-2.95,6.7-5.9,13.4-8.86,20.1c0.93-5.92,1.86-11.85,2.79-17.77
			c-1.25,2.71-5.85,2.79-7.19,0.13c-0.47,1.32-0.94,2.63-1.42,3.95c-0.29-0.22-0.79-0.43-1.11,0.01c-2.61,3.6-5.22,7.2-7.82,10.79
			c1.04-4.97,2.08-9.94,3.12-14.91c-1.04,4.75-3.04,9.29-5.83,13.28c1.42-3.77,0.69-8.61-1.82-11.95
			c-3.74-4.97-10.01-7.27-16.04-8.81c-33-8.43-69.74-0.72-96.56,20.27c-0.75,0.59-1.88,1.6-1.52,2.69c0.31,0.92,0.95,0.68,1.65,0.3
			c1.9-1.04,3.66-2.52,5.49-3.69c3.78-2.44,7.62-4.8,11.58-6.96c7.72-4.21,15.99-7.76,24.74-9.09c4.8-0.73,9.71-0.75,14.5,0.1
			c14.8,2.61,26.79,13.1,37.95,23.17c7.67,6.92,15.61,14.23,19.22,23.91c4.14,11.13,1.97,23.91,6.47,34.89
			c3.99,9.72,12.74,16.83,16.97,26.44c4.67,10.61,3.28,22.74,2.86,34.32c-0.12,3.38,0.07,7.27,2.72,9.37
			c1.62,1.29,3.81,1.57,5.88,1.69c10.34,0.63,20.83-1.48,30.12-6.06c2.7-1.33,5.69-2.91,8.57-2.02c3.76,1.16,5.03,5.67,6.49,9.32
			c3.45,8.64,11.15,15.46,20.14,17.84c1.89,0.5,3.92,0.81,5.77,0.18c3.93-1.34,5.45-6.23,8.97-8.45c4.32-2.73,10.15-0.55,14.02,2.79
			c3.87,3.34,6.82,7.76,11.15,10.46c4.34,2.7,11.03,2.85,13.67-1.52c2.71,3.18,6.41,6.04,10.58,5.84c2.12-0.1,4.11-0.99,6.03-1.89
			c13.75-6.41,26.95-14.01,39.41-22.67c8.37-5.82,16.53-12.24,22.54-20.48C728.61,293.04,732.33,282.72,730.92,272.62z
			 M570.49,253.24c-1.28-0.13-2.61-0.44-3.57-1.29c-0.96-0.85-1.42-2.38-0.74-3.47l-0.34,0.7c-0.12-1.43,1.27-2.63,2.69-2.79
			c1.42-0.16,2.81,0.45,4.06,1.15c1.99,1.12,4.06,3.2,3.29,5.34C574.12,253.3,572.29,253.42,570.49,253.24z"/>
	</g>
	<g>
		<defs>
			<path id="SVGID_1_" d="M499.88,356.01c3.34,1.39,7.4,2.69,10.35,0.6c2.71-1.92,3.07-5.7,3.67-8.97
				c3.6-19.66,25.56-32.7,45.33-29.73c19.76,2.98,35.9,19.18,42.55,38.03c2.19,6.21,3.62,12.95,7.9,17.95
				c6.3,7.37,16.95,8.98,26.64,9.39c22,0.93,44.14-1.76,66.02,0.74s44.51,11.28,56.7,29.62c3.68,5.53,6.33,12.37,4.54,18.77
				c-1.7,6.09-6.99,10.41-12.13,14.08c-14,9.99-29.18,18.32-45.12,24.77c-10.27,4.16-21.94,8.5-26.45,18.62
				c-3.75,8.41-1.16,18.42,3.52,26.36c9.19,15.6,25.27,25.59,38.54,37.91s24.58,30.28,19.58,47.68
				c-3.91,13.59-16.76,22.71-29.85,28.06c-16.71,6.83-35.2,9.27-53.11,7.02c-22.88-2.87-48.92-12.42-66.92,1.99
				c-8.33,6.67-12.57,17.06-16.47,26.99c-16.66,42.39-33.31,84.79-49.97,127.18c-1.94,4.94-4.09,10.15-8.42,13.22
				c-6,4.24-14.23,3.04-21.21,0.75c-42.31-13.88-66.7-57.08-101.24-85.19c-34.09-27.74-78.77-41.04-110.18-71.78
				c-23.46-22.96-40.03-55.79-71.1-66.41c-7.06-2.41-14.81-3.49-22.01-1.51c-19.81,5.43-27.2,30.03-44.08,41.73
				c2.96-3.54,5.91-7.09,8.87-10.63c-44.23-12.9-86.06-33.99-122.73-61.88c-3.04-2.31-6.18-4.84-7.6-8.39
				c-2-4.99-0.12-10.64,2.2-15.49c20.98-43.85,72.33-61.96,117.13-80.85c36.37-15.34,71.42-33.82,104.62-55.17
				c7.07-4.54,14.84-10.6,14.83-19.01c-0.01-4.82-2.67-9.18-5.24-13.26c-18.91-30.06-37.23-60.5-54.92-91.29
				c-8.33-14.49-16.76-31.6-10.75-47.19c4.73-12.27,17.03-19.64,25.43-29.75c12.51-15.06,15.83-35.45,19.75-54.63
				c8.4-41.06,26.81-86.62,66.73-99.38c13.1-4.19,29.27-3.43,38.34,6.9c7.14,8.13,8.05,19.85,8.28,30.66
				c0.83,38.32-2.44,76.73-9.76,114.35c-2.12,10.89-4.58,21.87-4.04,32.95c0.63,12.93,5.38,25.2,11.79,36.32
				c3.32,5.75,7.07,11.24,11.02,16.58c3.36,4.54,6.64,9.93,11.82,12.55c12.7,6.41,24.19,14.94,36.33,22.38
				c13.7,8.4,27.71,16.3,41.99,23.67s28.83,14.22,43.62,20.51C496.4,354.55,498.14,355.29,499.88,356.01z"/>
		</defs>
		<clipPath id="SVGID_2_">
			<use xlink:href="#SVGID_1_"  style="overflow:visible;"/>
		</clipPath>
		<g class="st8">
			<path class="st9" d="M369.68,320.02c9.34-14.81,24.68-24.89,40.64-32.11c14.22-6.44,29.47-11.01,45.07-11.56
				c19.04-0.67,37.73,4.64,56.04,9.89c12.98,3.73,26.17,7.55,37.48,14.93c10.84,7.08,19.4,17.09,27.68,27.05
				c6.26,7.53,12.55,15.26,16.34,24.29c5.02,11.96,5.33,25.37,4.22,38.29c-1.87,21.63-7.53,42.93-16.66,62.63
				c-3.31,7.14-7.18,14.23-13.05,19.48c-9.23,8.26-22.45,10.94-34.77,9.67c-12.32-1.27-23.98-6.09-35.21-11.31
				c-39.72-18.47-76.74-42.72-109.53-71.77c-8.31-7.36-16.53-16.68-21.13-26.94c-4.26-9.49-6.16-21.64-4.71-31.87
				C363.12,333.38,365.74,326.27,369.68,320.02z"/>
			<path class="st10" d="M423.22,297.62c27.48-10.74,58.31-8.39,87.29-2.87c2.8,0.53,5.9,1.29,7.46,3.67
				c1.63,2.48,0.98,5.76,0.24,8.63c-8.23,31.88-20.27,62.77-35.79,91.81c10-8.9,15.81-21.46,21.35-33.64
				c7.09-15.6,14.18-31.19,21.28-46.79c0.6-1.32,1.26-2.72,2.49-3.51c1.19-0.77,2.69-0.82,4.1-0.78
				c22.72,0.64,42.24,19.1,49.44,40.66c7.2,21.56,4.02,45.34-3.01,66.95c-3.8,11.7-8.8,23.2-16.6,32.71s-18.68,16.92-30.86,18.63
				c-7.2,1.01-14.53,0.03-21.64-1.48c-14.67-3.12-28.84-8.53-41.86-15.98c-2.29-1.31-4.61-2.74-6.15-4.89
				c-4.61-6.43-0.24-15.24,4.11-21.85c-3.55,9.31-15.79,12.66-25.31,9.73c-9.52-2.93-16.88-10.34-23.81-17.49
				c-9.53-9.82-19.06-19.64-28.59-29.46c-4.64-4.78-9.8-9.38-13.8-14.74c-2.15-2.88-4.07-6.22-3.86-9.94
				c0.18-3.15,1.77-6.05,3.04-8.87c1.9-4.2,3.03-8.45,4.33-12.85c3.05-10.3,8.88-19.65,16.22-27.44
				C401.6,309.04,411.93,302.04,423.22,297.62z"/>
			<path class="st11" d="M410.01,370.22c-0.11-1.66,0.44-3.29,1.1-4.81c7.15-16.6,25.67-24.64,42.54-31.14
				c7.98-3.08,15.96-6.15,23.94-9.23c5-1.93,10.48-3.88,15.59-2.26c-0.65,6.09,5.37,11.1,11.39,12.21
				c6.03,1.11,12.18-0.42,18.3-0.73c25.7-1.29,48.97,20.95,53.21,46.33s-7.97,51.65-27.14,68.81c-5.8,5.19-12.41,9.78-19.99,11.55
				c-9.02,2.11-18.48,0.03-27.33-2.7c-8.48-2.61-16.97-5.92-23.66-11.74c-1.69-1.47-3.3-3.16-4.06-5.27
				c-2.9-8.04,7.08-14.15,12.19-21.01c4.92-6.6,5.46-15.68,3.32-23.63s-6.62-15.04-11.12-21.93c-2.44-3.74-5.04-7.58-8.86-9.9
				c-8.06-4.88-17.7-1.21-25.88,1.36c-4.3,1.35-8.93,2.14-12.91,4.33c-3.42,1.87-6.46,4.4-10.24,5.59
				C416.22,377.38,410.35,375.16,410.01,370.22z"/>
			<path class="st3" d="M505.15,435.85c5.87-1.66,13.65-1.67,16.39,3.77c2.18,4.33,0.24,10.78,4.26,13.51
				c3.4,2.31,7.89-0.3,11.12-2.84c5.56-4.35,11.55-9.46,12.33-16.47c1-8.95-6.99-16.77-7.03-25.78c-0.02-3.98,1.53-7.78,2.13-11.71
				c0.59-3.93-0.09-8.55-3.39-10.77c-2.94-1.98-6.81-1.36-10.33-1.74c-8.63-0.92-15.85-9.12-15.68-17.8
				c0.05-2.62,0.69-5.3,0.02-7.84c-1.48-5.63-8.38-7.77-14.2-7.8s-12.07,1-17.12-1.9c-3.56-2.05-6.3-5.97-10.4-6.33
				c-1.75-0.15-3.48,0.4-5.15,0.94c-13.62,4.43-27.23,8.87-40.85,13.3c-3.22,1.05-7.11,3-6.92,6.38c14.85,5.86,30.8-9.45,46.51-6.61
				c9.01,1.63,15.8,8.86,21.89,15.69c5.44,6.09,11.08,12.56,12.82,20.54c3.08,14.05-6.63,27.35-15.42,38.74
				c-1.86,2.41-3.76,4.97-4.23,7.97c-0.27,1.73,0.17,5.72,2.33,6.27c1.71,0.43,4.21-2.1,5.56-2.9
				C494.59,439.61,499.77,437.37,505.15,435.85z"/>
			<path class="st12" d="M426.83,414.8c4.77,6.49,12.04,11.09,19.94,12.63c-1.29,2.19-4.33,2.56-6.83,2.1
				c-5.51-1-10.18-4.7-13.86-8.93c-3.68-4.23-6.59-9.06-10.17-13.37c-3.95-4.75-8.71-8.83-14.01-12.01
				c-2.66-1.6-7.37-2.93-4.22-6.52c7.51-8.53,16.48,2.31,20.02,8.88C420.8,403.31,422.96,409.54,426.83,414.8z"/>
			<path class="st13" d="M345.81,391.27c-21.92,15.45-38.45,37.68-50.18,61.8c-11.73,24.12-18.94,50.18-24.83,76.34
				c-3.39,15.03-6.38,30.56-3.91,45.77c3.88,23.92,20.64,43.66,38.52,60.02c13.39,12.25,28.26,23.63,45.69,28.69
				c15.3,4.45,31.62,3.75,47.43,1.8c10.93-1.35,21.96-3.32,31.86-8.14c9.73-4.73,17.96-12,26.06-19.17
				c21.18-18.77,42.53-37.72,59.34-60.48c16.81-22.77,28.95-49.95,29.14-78.24c0.01-2.07-0.05-4.21-0.88-6.1
				c-1.61-3.67-5.63-5.54-9.3-7.13c-52.31-22.68-102.06-51.29-147.97-85.1c-5.53-4.07-12.13-7.29-16.9-12.23
				c-4.05-4.19-8.48-4.74-14.1-2.96C352.2,387.24,348.86,389.11,345.81,391.27z"/>
			<path class="st14" d="M339.88,467.32c-13.57,29.61-26.17,59.67-37.77,90.11c-2.23,5.86-4.45,12.28-2.57,18.26
				c4.43-5.55,8.22-11.61,11.27-18.03c-1.02,14.32-2.04,28.64-3.06,42.96c6.35-12.28,13.24-24.28,20.65-35.94
				c-7.85,15.07-13.2,31.44-15.77,48.24c2.73-4.19,6.49-7.7,10.86-10.14c-0.9,2.89-1.8,5.79-2.71,8.68
				c0.89,3.19,1.78,6.39,2.67,9.58c1.55-2.55,3.11-5.1,4.66-7.65c-3.45,8.89-3.95,18.89-1.39,28.07
				c13.71-14.62,26.04-30.53,36.78-47.45c-10.6,16.82-21.36,34.01-26.2,53.29c3.42-6.6,7.98-12.61,13.41-17.69
				c-0.88,3.74-1.75,7.49-2.63,11.23c1.68-3.79,4.95-6.83,8.85-8.23c0.94,2.55,1.33,5.31,1.11,8.03c1.24-2.59,3.03-4.91,5.22-6.77
				c-0.06,3.05-0.12,6.1-0.18,9.15c0.98-2.13,2.11-4.42,4.22-5.45c2.11-1.03,5.35,0.21,5.27,2.55c1.14-4,5.23-6.95,9.38-6.78
				c-0.9,2.78-1.8,5.56-2.7,8.34c11.36-13.94,24.8-26.18,39.73-36.19c-10.04,10.22-18.1,22.39-23.59,35.63
				c5.77-6.34,12.15-12.12,19.01-17.26c-2.1,2.93-3.25,6.52-3.23,10.12c2.59-4.26,5.93-8.07,9.82-11.19
				c-1.09,2.32-1.79,4.83-2.04,7.38c3.66-4.75,7.81-9.14,12.35-13.06c1.02-0.88,2.37-1.79,3.61-1.26c1.24,0.53,0.56,3.07-0.6,2.39
				c19.12-20.02,43.67-34.03,63.95-52.89c20.27-18.86,36.77-45.63,32-72.91c-8.18,10.39-16.36,20.78-24.54,31.17
				c4.69-11.25,9.38-22.49,14.07-33.74c-6.61,11.38-14.43,22.05-23.31,31.77c6.83-12.06,10.27-26.01,9.83-39.86
				c-6.61,10.92-13.41,21.71-20.39,32.39c5.78-11.22,9.85-23.33,12.01-35.77c-7.85,7.25-14.35,15.95-19.1,25.53
				c5.75-9.45,8.79-20.53,8.65-31.59c-6.03,9.25-12.07,18.5-18.1,27.75c2.99-6.22,5.98-12.43,8.98-18.65
				c-12.53,21.34-29.46,40.08-49.43,54.71c13.68-15.32,25.03-32.73,33.54-51.42c-17.64,20.73-35.28,41.46-52.92,62.19
				c10.34-14.63,20.69-29.26,31.03-43.89c3.91-5.53,7.95-11.38,8.7-18.12c-36.24,34.82-67.84,74.45-93.73,117.53
				c11.67-46.97,48.07-85.4,56.87-132.99c-11.36,25.01-26.28,48.41-44.15,69.27c6.04-10.9,12.08-21.8,18.12-32.71
				c-6.93,10.29-15.48,19.49-25.25,27.14c0.09-7.39,1.38-14.76,3.82-21.74c-3.31,6.21-7.95,11.7-13.53,15.98
				c2.29-5.31,4.58-10.62,6.87-15.93c-2.48,3.07-4.96,6.14-7.44,9.22c0.9-5.47,1.8-10.94,2.69-16.42c-2.29,4.4-5.47,8.32-9.3,11.47
				c9.21-25,18.52-50.18,32.51-72.85c-14.33,23.07-28.67,46.14-43,69.21c1.22-13.9,5.55-27.52,12.58-39.58
				c0.94-1.62,1.03-4.5,1.54-6.33c0.62-2.22,1.33-4.42,2.12-6.59c1.57-4.34,3.45-8.57,5.63-12.65c4.35-8.15,9.84-15.69,16.3-22.3
				c1.01-1.04,7.23-5.78,6.4-7.84c-0.5-1.22-7.02,4.09-8.02,4.93c-6.55,5.46-11.92,12.21-16.53,19.35
				C348.39,449.41,344,458.33,339.88,467.32z"/>
			<path class="st0" d="M558.64,629.84c-0.07,0.67-0.14,1.34-0.2,2.01"/>
			<path class="st15" d="M420.66,460.65c0.77,4.01,2.11,7.96,2.13,12.05c0.03,5.69-2.49,11.05-4.99,16.16
				c-11.04,22.59-22.7,44.88-34.98,66.83c12.63-13.56,23.6-28.68,32.58-44.9c5.75-10.39,11.6-22.11,22.62-26.56
				c2.98-1.2,6.16-1.78,9.24-2.7c9.94-2.97,18.73-9.63,24.28-18.4c-9.84-6.69-20.05-12.82-30.58-18.36
				c-5.05-2.66-17.66-10.87-20.17-1.15C419.38,449.04,419.61,455.22,420.66,460.65z"/>
			<path class="st0" d="M664.64,526.71c-1.09,0.03-2.17,0.05-3.26,0.08"/>
			<path class="st16" d="M442.5,469.58c0.66-1.99,2.99-3.25,5.02-2.73c1.01,0.26,1.88,0.89,2.83,1.33c3.43,1.61,7.93,0.49,10.2-2.54
				c1.17-1.94-0.82-4.22-2.62-5.59c-3.56-2.71-7.18-5.32-10.87-7.85c-1.9-1.31-3.83-2.59-5.76-3.85c-1.41-0.92-3.6-2.99-5.28-3.26
				c-2.23-0.35-3.52,2.25-3.18,4.21c0.49,2.84,4.09,5.69,5.53,8.24C440.47,461.26,441.9,465.36,442.5,469.58z"/>
			<path class="st15" d="M427.23,464.5c2.77,5.68,4.83,13.38,0.11,17.58c3.92-4.55,10.3-5.9,16.21-6.98c5.46-1,10.92-2,16.38-3
				c-6.97,9.04-21.81,6.13-31.15,12.69c-7.02,4.93-9.44,14.06-14.3,21.12c4.89-7.48,7.49-16.43,7.39-25.37
				c-0.07-6.31-1.46-12.54-1.58-18.84c-0.06-3.14-0.15-8.68,1.9-11.26c1.38,1.01,1.32,4.23,1.73,5.81
				C424.64,459.12,425.93,461.84,427.23,464.5z"/>
			<path class="st17" d="M401.67,416.89c-5.71,7.91-10.21,16.68-13.32,25.92c2.9-2.41,5.64-5.02,8.19-7.79
				c-1.26,3.45-1.48,7.28-0.62,10.85c3.2-4.18,6.39-8.37,9.59-12.55c-0.81,2.81-1.62,5.69-1.41,8.61s1.67,5.92,4.32,7.16
				c1.94-0.76,2.25-3.43,1.7-5.44c-0.55-2.01-1.64-3.99-1.32-6.06c0.3-1.91,1.77-3.5,1.94-5.42c0.17-1.92-2.6-3.86-3.53-2.16
				c1.48-3.04,2.97-6.08,4.45-9.11c-4.05,3.82-8.1,7.63-12.15,11.45c0.49-5.12,2.33-10.1,5.29-14.3c-0.78-1.3-2.83-1.58-3.93-0.53"
				/>
			<path class="st11" d="M306.82,561.17c4.88-5.2,9.31-10.81,13.22-16.77c-4.31,9.46-7.55,19.41-9.65,29.59
				c5.61-9.6,10.59-19.57,14.88-29.83c-5.2,11.98-9.61,24.31-13.2,36.87c8.57-10.66,15.78-22.42,21.4-34.9
				c-4.64,10.71-8.63,21.7-11.93,32.89c-1.83,6.21-3.42,13.06-0.8,18.98c9.1-14.27,17.18-29.2,24.13-44.64
				c-6.7,18.38-13.4,36.76-20.11,55.14c-0.63,1.73-0.51,4.55,1.32,4.41c4.89-9.92,10.35-19.57,16.34-28.87
				c-4.45,6.78-6.97,14.82-7.17,22.93c3.24-0.97,5.34-4.02,7.14-6.88c15.15-24.05,27.74-49.71,37.48-76.41
				c-11.42,14.18-21.7,29.23-31.97,44.26c6.3-12.11,10.66-25.22,12.85-38.69c-4.58,7.71-9.15,15.41-13.73,23.12
				c3.02-7.09,4.13-14.98,3.2-22.63c-5.52,6.35-10.33,13.32-14.3,20.74c3.31-9.16,6.63-18.32,9.94-27.48
				c-5.51,8.24-11.02,16.47-16.53,24.71c1.32-2.08,1.84-5.34,2.64-7.68c0.93-2.7,1.86-5.4,2.79-8.1c1.84-5.35,3.87-10.67,5.52-16.08
				c-3.31,4.97-6.38,10.13-9.56,15.19c-0.33,0.52-2.55,5.47-3.78,5.01c-1.49-0.56-0.28-7.64-0.19-8.73c0.3-3.49,1.57-8.13,0.82-11.6
				c-0.18-0.84,0.07-1.39-0.79-1.21c-0.57,0.12-1.42,2.4-1.56,2.68c-1.35,2.58-2.67,5.19-3.94,7.82
				C315.64,536.72,310.79,548.81,306.82,561.17z"/>
			<path class="st18" d="M365.12,605.81c14.63-20.02,29.26-40.03,43.9-60.05c-8.51,15.45-17.02,30.9-25.52,46.35
				c15.24-18.25,30.47-36.5,45.71-54.74c-11.62,17.15-23.25,34.3-34.87,51.45c9.16-6.61,16.63-15.26,24-23.82
				c20.2-23.47,40.41-46.93,60.61-70.4c-12.82,17.28-25.64,34.56-38.47,51.84c20.6-9.49,29.66-33.68,46.6-48.77
				c-2.52,11.36-8.02,22.04-15.8,30.69c-6.9,7.67-15.42,13.66-23.45,20.13c-15.71,12.66-29.74,27.4-41.61,43.72
				c-6.59,9.07-12.99,19.03-23.04,24c6.92-10.66,13.84-21.32,20.76-31.99c-12.17,11.84-23.86,24.16-35.04,36.94
				c5.11-7.02,11.69-20.72,16.8-27.74c-8.97,8.14-17.94,16.29-26.91,24.43C360.65,613.68,362.43,609.5,365.12,605.81z"/>
			<path class="st18" d="M622.4,448.74c4.94,1.28,10.15,0.54,15.2-0.22c30.87-4.62,61.73-9.33,92.58-14.12
				c-8.97,3.31-17.93,6.62-26.9,9.94c-2.66,0.98-5.96,1.86-8.07-0.03c-3.63,2.01-7.25,4.02-10.88,6.03
				c-2.59-1.75-7.62-2.26-7.41,0.86c-8.88,0.64-17.57,3.75-24.83,8.91c-11.41,5.34-23.9,8.35-36.49,8.8
				c-10.15-3.96-20.3-7.92-30.44-11.89c-1.33-0.52-2.74-1.09-3.6-2.24c-2.05-2.72,0.11-6.51,2.22-9.17
				c2.82-3.57,5.64-7.14,8.46-10.7c1.77-2.24,4.14-7.1,7.61-6.4c2.99,0.6,4.8,4.26,6.28,6.55c1.91,2.95,4.05,5.78,6.64,8.18
				C615.29,445.59,618.86,448.24,622.4,448.74z"/>
			<path class="st19" d="M317.49,217.04c-4.07-12.4-8.15-24.86-10.44-37.71c-4.54-25.46-1.82-52.17,7.77-76.18
				c-2.08,1.42-4.44,2.45-6.9,2.99c2.43-0.9,2.54,3.83,0.37,5.25c-2.17,1.42-5.44,2.66-5.08,5.23c0.84,3.85-0.25,8.06-2.84,11.03
				c2.74-1.24,4,3.81,2.15,6.18s-4.98,4.47-4.49,7.44c1.65,3.5-0.24,8.21-3.86,9.59c1.77,1.8,3.54,3.6,5.31,5.4
				c-3.91,2.61-2.79,9.82,1.73,11.12c-1.07,1.67-2.14,3.33-3.21,5c1.29,1.6,2.58,3.2,3.87,4.8c2.83,4.47,2.06,10.88-1.74,14.56
				c1.43,0.99,2.86,1.97,4.29,2.96c-1.88,2.89-3.76,5.78-5.64,8.68c1.6,0.64,3.21,1.27,4.81,1.91c-3.44,2.46-6.87,4.93-10.31,7.39
				c3.75,1.31,7.5,2.63,11.25,3.94c-0.88,1.54-1.77,3.08-2.65,4.61c2.56,1.28,5.13,2.55,7.69,3.83c-1.66,1.64-2.44,4.13-2.01,6.43
				c1.46,0.87,3.32,1.04,4.92,0.46c-1.38,2.63-2.77,5.26-4.15,7.89c2.47,0.67,4.94,1.34,7.41,2.01c-1.22,2.77,0.11,5.94,1.42,8.66
				c1.95,4.06,3.9,8.11,5.85,12.17c0.73,1.52,1.47,3.08,1.59,4.76c0.14,1.97-0.59,3.93-0.41,5.89s1.99,4.06,3.84,3.38
				c-1.95,4.09-1.92,9.07,0.07,13.14c6.54-0.22,11.6,8.12,8.39,13.82c1.73-0.74,3.45-1.49,5.18-2.23c0.35,2.49,0.81,5.21,2.69,6.89
				c1.88,1.68,5.62,1.25,6.11-1.23c3.32,7.63,7.74,15.86,13.56,21.89c-1.34-12.67-3.18-26.38-10.52-37.09
				c-4.82-7.04-10.08-13.62-14.29-21.08c-4.45-7.89-8.17-16.17-11.49-24.59C323.95,236.62,320.7,226.84,317.49,217.04z"/>
			<path class="st20" d="M617.61,541.44c-0.88,2.26-1.77,4.52-2.65,6.78c4.62-0.9,8.9,2.89,11.13,7.03s3.29,8.91,6.1,12.69
				c2.23,3.01,5.41,5.15,8.52,7.24c11.46,7.69,23.12,15.48,36.27,19.64c3.33,1.06,6.83,1.91,9.63,4c2.81,2.08,4.75,5.83,3.54,9.11
				c-17.24-10.52-34.48-21.04-51.72-31.56c-4.37-2.67-9.84-5.38-14.32-2.9c-10.19,5.65,1.7,26.14-8.59,31.61
				c6.79-18.69-1.28-40.22-15.03-54.59c-8.86-9.26-19.8-16.19-31.14-22c-5.76-2.95-11.65-5.63-17.57-8.25
				c-2.73-1.21-5.52-2.15-6.3-5.33c-0.4-1.64-0.44-3.74-0.05-5.4c1.47-6.33,8.97-2.58,12.65-0.64c7.4,3.9,14.11,8.98,21.32,13.2
				c6.23,3.65,12.78,6.48,19.53,9.01C605.58,533.57,612.57,536.18,617.61,541.44z"/>
			<path class="st21" d="M341.25,348.59c-9.38-5.09-16.86-13.02-23.91-21.03c-6.33-7.2-12.7-14.77-21.28-19.05
				c-3.04-1.52-6.29-2.58-9.3-4.16c-5.07-2.65-9.29-6.65-13.35-10.67c-10.74-10.62-20.92-21.81-30.5-33.48
				c-3.62,1.81-2.28,7.28-0.21,10.76c11.32,19.04,29.04,34.2,49.61,42.42c-10.9,6.76-21.04,14.74-30.17,23.75
				c10.83-1,17.98-14.36,28.84-13.91c2.9,0.12,5.66,1.27,8.27,2.54c7.93,3.85,15.21,9.03,21.46,15.24
				c10.93,10.87,18.83,24.98,31.69,33.49c5.71,3.78,13.06,2.59,13.06-5.49c0-5.39-6.96-10.38-10.88-13.07
				C350.41,353.03,345.71,351.01,341.25,348.59z"/>
			<path class="st2" d="M185.91,526.03c-13.72,4.41-28.57,9.21-36.87,20.99c-2.81,3.99-4.73,8.63-8.07,12.18
				c-3.84,4.09-9.17,6.37-14.35,8.53c-24.59,10.3-49.18,20.6-73.77,30.9c23.24-9.89,47.35-17.71,71.97-23.34
				c1.33-0.3,2.89-0.55,3.92,0.34c1.02,0.89,1,2.44,0.91,3.79c-0.97,13.51-1.93,27.03-2.9,40.54c3.56-13.87,7.23-28.02,15.06-40.02
				c5.81-8.91,13.71-16.29,22.15-22.77c16.17-12.44,34.6-21.94,54.12-27.88c8.79-2.67,18.18-4.64,27.11-2.49
				c6.83,1.64,13.79,5.63,20.42,3.32c10.45-3.63,18.95-31.79,3.46-33.78c-3.94-0.51-7.84,1.91-11.34,3.36
				c-4.46,1.84-8.94,3.65-13.42,5.43c-9.04,3.58-18.14,7.01-27.29,10.31C206.7,519.16,196.34,522.69,185.91,526.03z"/>
			<path class="st22" d="M528.97,594.81c-2.55,23.57-5.09,47.15-7.64,70.72c-0.6-2.86-1.2-5.73-1.8-8.59
				c-2.82,7.32-5.64,14.65-8.45,21.97c-0.89-1.78-1.29-3.79-1.15-5.77c-1.78,5.01-3.56,10.03-5.34,15.04
				c-1.37-2.29-4.92-0.67-6.7,1.32c-11.29,12.65-11.18,31.56-9.54,48.43c1.64,16.87,3.92,35.06-4.48,49.79
				c0.87-30.35-0.81-60.77-5.01-90.84c-10.25,8.7-21.78,15.89-34.1,21.27c29.44-22.11,55.36-50.52,67.95-85.13
				c2.59-7.11,4.61-14.77,3.09-22.18c-1.52-7.41-7.55-14.36-15.11-14.66c0.42,0.02,2.82-4,3.22-4.5c1.23-1.56,2.53-3.07,3.9-4.51
				c2.54-2.67,5.3-5.24,8.36-7.31c5.35-3.62,10.85-4.32,12.42,3.1C529.41,586.84,529.39,590.89,528.97,594.81z"/>
		</g>
	</g>
</g>
</svg>
