<?xml version="1.0" encoding="utf-8"?>
<!-- Generator: Adobe Illustrator 25.2.0, SVG Export Plug-In . SVG Version: 6.00 Build 0)  -->
<svg version="1.1" id="Layer_1" xmlns="http://www.w3.org/2000/svg" xmlns:xlink="http://www.w3.org/1999/xlink" x="0px" y="0px"
	 viewBox="0 0 749 708" style="enable-background:new 0 0 749 708;" xml:space="preserve">
<style type="text/css">
	.st0{opacity:0.11;fill:#DAF4FB;}
	.st1{opacity:0.07;fill:#DAF4FB;}
	.st2{opacity:0.19;fill:#DAF4FB;}
	.st3{opacity:0.15;fill:#DAF4FB;}
	.st4{opacity:0.13;fill:#DAF4FB;}
	.st5{opacity:0.2;}
	.st6{fill:none;}
	.st7{fill:#DAF4FB;}
	.st8{opacity:0.17;fill:#DAF4FB;}
	.st9{opacity:0.16;fill:#DAF4FB;}
	.st10{opacity:0.26;fill:#DAF4FB;}
	.st11{opacity:0.1;fill:#DAF4FB;}
	.st12{opacity:0.28;fill:#DAF4FB;}
	.st13{opacity:0.21;fill:#DAF4FB;}
	.st14{opacity:0.05;fill:#DAF4FB;}
	.st15{opacity:0.03;fill:#DAF4FB;}
	.st16{opacity:0.09;fill:#DAF4FB;}
	.st17{opacity:0.08;fill:#DAF4FB;}
	.st18{opacity:0.04;fill:#DAF4FB;}
	.st19{opacity:0.12;fill:#DAF4FB;}
	.st20{opacity:0.3;fill:#DAF4FB;}
	.st21{opacity:0.52;fill:#DAF4FB;}
	.st22{opacity:0.56;fill:#DAF4FB;}
	.st23{opacity:0.22;fill:#DAF4FB;}
	.st24{opacity:0.27;}
	.st25{opacity:0.17;fill:#DAF4FB;stroke:#DAF4FB;stroke-miterlimit:10;}
	.st26{opacity:0.12;fill:#DAF4FB;stroke:#DAF4FB;stroke-miterlimit:10;}
	.st27{opacity:0.11;fill:#DAF4FB;stroke:#DAF4FB;stroke-miterlimit:10;}
	.st28{fill:none;stroke:#DAF4FB;stroke-miterlimit:10;}
	.st29{opacity:0.35;fill:#DAF4FB;stroke:#DAF4FB;stroke-miterlimit:10;}
	.st30{opacity:0.46;fill:#DAF4FB;stroke:#DAF4FB;stroke-miterlimit:10;}
	.st31{opacity:0.19;fill:#DAF4FB;stroke:#DAF4FB;stroke-miterlimit:10;}
	.st32{opacity:0.14;fill:#DAF4FB;stroke:#DAF4FB;stroke-miterlimit:10;}
	.st33{opacity:0.09;fill:#DAF4FB;stroke:#DAF4FB;stroke-miterlimit:10;}
	.st34{opacity:0.05;fill:#DAF4FB;stroke:#DAF4FB;stroke-miterlimit:10;}
	.st35{opacity:0.03;fill:#DAF4FB;stroke:#DAF4FB;stroke-miterlimit:10;}
	.st36{opacity:0.06;fill:#DAF4FB;}
</style>
<g>
	<path class="st0" d="M448.16,278.83c-4.87-24.15-9.55-48.36-15.73-72.21c-6.07-23.44-13.65-46.6-24.32-68.38
		c-1.31-2.68-2.67-5.34-4.08-7.97c-22.58-42.28-60.27-79.06-107.19-88.83c-28.63-5.96-59.34-1.31-84.91,12.87
		c-25.57,14.18-45.79,37.76-55.9,65.2c-7.6,20.62-9.59,43.01-17.61,63.47c-3.61,9.22-8.49,19.35-4.76,28.53
		c3.51,8.65,13.79,13.5,16.17,22.52c1.63,6.18-0.92,12.57-2.59,18.74c-3.56,13.15-3.03,26.92-2.07,40.38
		c0.84,11.85,2.96,23.83,5.7,35.37c3.12,13.16,7.52,26.05,13.53,38.18c0.72,1.46,1.47,2.9,2.23,4.33
		c13.07,24.4,33.51,45.44,59.11,56c10,4.12,20.58,6.6,31.11,9.06c6.72,1.57,13.53,3.15,20.44,3.03
		c15.08-0.28,28.74-8.56,41.18-17.09c19.35-13.27,37.82-27.82,55.27-43.5c17.45-15.68,33.89-32.49,49.16-50.3
		c7.35-8.57,14.27-17.47,21.34-26.28c2.19-2.72,4.44-5.54,5.19-9.04C450.44,288.26,449.08,283.36,448.16,278.83z M195.34,263.51
		c2.28-1.51,5.18-1.64,7.82-1.78c3.55-0.19,7.13-0.37,10.65,0.16c0.96,0.14,1.93,0.35,2.73,0.9c0.8,0.54,1.39,1.49,1.26,2.45
		c-0.23,1.68-2.3,2.32-4,2.44c-5.01,0.34-10-0.7-15.01-0.31c-1.18,0.09-2.4,0.53-3.56,0.56c-0.62,0.02-1.03-0.2-1.29-0.78
		C193.37,265.79,194.23,264.25,195.34,263.51z M162.89,223.82c-0.29,0.22-0.66,0.39-1.01,0.29c-0.4-0.12-0.63-0.54-0.79-0.93
		c-0.31-0.72-0.6-1.51-0.41-2.28c0-0.01,0.01-0.03,0.01-0.04l-0.4,0.24c0.11-0.51,0.49-0.86,0.95-1.05c0.35-0.28,0.8-0.4,1.2-0.21
		l-0.14,0.08c0.39,0.05,0.77,0.21,1.04,0.5C164.21,221.37,163.91,223.03,162.89,223.82z M163.87,210.57
		c-2.73,0.07-5.45,0.2-8.17,0.43c-0.31,0.05-0.62,0.09-0.93,0.14c-1.28,0.2-2.6,0.42-3.68,1.14c-1.59,1.06-2.34,3.01-2.84,4.86
		c-0.36,1.34-0.65,2.7-0.85,4.07c-0.17,1.13,0,2.78-0.43,3.8c-1.08-0.38-0.97-3.17-1.02-4.1c-0.08-1.72,0.03-3.45,0.36-5.14
		c0.26-1.38,0.75-2.86,1.94-3.6c0.69-0.43,1.52-0.54,2.33-0.64c1.7-0.21,3.41-0.38,5.12-0.53c2.52-0.39,5.06-0.72,7.59-0.5
		C163.49,210.51,163.68,210.54,163.87,210.57c3.16-0.08,6.33-0.07,9.49,0.08c0.64,0.03,1.32,0.08,1.84,0.46
		c0.52,0.38,0.75,1.22,0.29,1.67c-0.37,0.37-0.98,0.31-1.5,0.21C170.59,212.3,167.31,210.98,163.87,210.57z M174.03,277.83
		l1.22,0.03c0-2.56,2.5-4.83,5.05-4.59c2.55,0.24,4.58,2.93,4.11,5.45c-2.28-0.72-4.89-1.41-6.97-0.2
		c-0.41,0.24-0.78,0.54-1.23,0.67C175.28,279.45,174.2,278.77,174.03,277.83z M267.54,314.58c-5.86-5.46-14.26-7.53-22.26-7.22
		c-8,0.31-15.75,2.77-23.32,5.37c-12.33,4.24-24.51,8.91-36.51,14.02c-1.66,0.71-3.37,1.45-4.6,2.77c-1.65,1.75-2.22,4.22-2.67,6.58
		c-0.44,2.31-0.82,4.63-1.15,6.96c-0.16,1.16-0.05,3.57-1.35,4.25c-0.52,0.27-0.39,0.29-0.57-0.16c-0.24-0.6,0.38-2.29,0.49-2.95
		c0.72-3.94,1.64-7.84,2.78-11.68c0.52-1.74,1.09-3.51,2.18-4.97c1.49-2.01,3.79-3.23,6.05-4.32c18.07-8.71,38-12.62,57.69-16.45
		c5.23-1.02,10.66-2.03,15.83-0.77c5.5,1.35,10.13,5.19,13.52,9.73c3.39,4.54,5.68,9.78,7.94,14.97
		C275.68,326.68,272.79,319.46,267.54,314.58z M247.08,196.31c0.19-0.14,0.42-0.2,0.66-0.22c0.93-0.41,2.14-0.28,2.79,0.53
		c1.13,1.41-0.23,3.91-2.03,3.76C246.7,200.22,245.78,197.56,247.08,196.31z M280.54,196.84c-5.22-2.03-10.03-4.97-15.14-7.26
		c-5.11-2.28-10.75-3.9-16.28-3.04c-3.58,0.56-6.92,2.13-10.16,3.75c-3.21,1.61-6.53,3.42-8.49,6.43c-0.87,1.34-1.42,2.86-2.12,4.29
		c-0.9,1.85-2.09,3.03-3.87,4.04c-0.76,0.43-2.2,1.39-3.13,1.2c0.14-0.42,0.82-0.7,1.17-0.95c3.61-2.6,5.6-6.78,8.56-9.99
		c2.59-2.82,5.9-4.89,9.28-6.69c6.8-3.64,14.89-6.38,22.11-3.67c5.98,2.24,10.46,7.95,16.75,9.06c7.61,1.34,14.81-4.51,22.54-4.39
		c-5.92,2.43-11.83,4.86-17.75,7.29c7.33-1.29,14.69-2.38,22.08-3.24c-6.23,1.35-12.46,2.71-18.69,4.06
		c8.63-0.65,17.74-1.22,25.51,2.59C301.97,201.04,290.73,200.8,280.54,196.84z"/>
	<path class="st1" d="M382.08,208.11c-2.57-6.37-8.87-10.31-14.86-13.67c-13.59-7.61-28.43-15.24-35.8-28.96
		c-2.04-3.8-3.45-8-6.17-11.36c-2.75-3.41-6.62-5.68-10.41-7.88c-5.51-3.21-11.03-6.41-16.54-9.62c-1.85-1.08-3.78-2.23-4.89-4.06
		c-1.2-1.98-1.24-4.43-1.18-6.74c0.35-13.92,2.71-29.3-5.5-40.55c-6.12-8.38-16.98-12.23-27.36-12.38
		c-10.38-0.15-20.5,2.89-30.44,5.9c-8.81,2.67-17.61,5.34-26.42,8c-17.3,5.24-36.4,11.94-44.56,28.07
		c-1.9,3.76-3.07,7.83-4.23,11.88c-6.48,22.63-12.84,45.29-19.1,67.98c-1.03,3.73-2.06,7.58-1.58,11.42
		c1.11,8.73,9.45,14.54,13.51,22.35c5.46,10.48,2.67,23.1,1.2,34.83c-3.62,28.93,1.72,58.2,8.11,86.65
		c1.99,8.88,4.48,18.39,11.48,24.21c3.11,2.59,6.83,4.27,10.17,6.52c3.04,2.05,4.83,5.28,7.89,7.09
		c8.48,5.01,16.64,10.07,26.32,12.52c5.28,1.33,10.76,1.88,16.18,1.29c8.69-0.94,16.83-4.7,24.42-9.05
		c14.06-8.06,26.76-18.24,39.39-28.38c3.82-3.07,7.67-6.16,10.85-9.89c6.12-7.18,9.42-16.28,14.3-24.34
		c11.51-18.99,31.31-31.51,44.39-49.45c11.82-16.2,17.58-36.04,21.12-55.79C383.38,219.19,384.18,213.31,382.08,208.11z
		 M195.34,263.51c2.28-1.51,5.18-1.64,7.82-1.78c3.55-0.19,7.13-0.37,10.65,0.16c0.96,0.14,1.93,0.35,2.73,0.9
		c0.8,0.54,1.39,1.49,1.26,2.45c-0.23,1.68-2.3,2.32-4,2.44c-5.01,0.34-10-0.7-15.01-0.31c-1.18,0.09-2.4,0.53-3.56,0.56
		c-0.62,0.02-1.03-0.2-1.29-0.78C193.37,265.79,194.23,264.25,195.34,263.51z M162.89,223.82c-0.29,0.22-0.66,0.39-1.01,0.29
		c-0.4-0.12-0.63-0.54-0.79-0.93c-0.31-0.72-0.6-1.51-0.41-2.28c0-0.01,0.01-0.03,0.01-0.04l-0.4,0.24
		c0.11-0.51,0.49-0.86,0.95-1.05c0.35-0.28,0.8-0.4,1.2-0.21l-0.14,0.08c0.39,0.05,0.77,0.21,1.04,0.5
		C164.21,221.37,163.91,223.03,162.89,223.82z M163.87,210.57c-2.73,0.07-5.45,0.2-8.17,0.43c-0.31,0.05-0.62,0.09-0.93,0.14
		c-1.28,0.2-2.6,0.42-3.68,1.14c-1.59,1.06-2.34,3.01-2.84,4.86c-0.36,1.34-0.65,2.7-0.85,4.07c-0.17,1.13,0,2.78-0.43,3.8
		c-1.08-0.38-0.97-3.17-1.02-4.1c-0.08-1.72,0.03-3.45,0.36-5.14c0.26-1.38,0.75-2.86,1.94-3.6c0.69-0.43,1.52-0.54,2.33-0.64
		c1.7-0.21,3.41-0.38,5.12-0.53c2.52-0.39,5.06-0.72,7.59-0.5C163.49,210.51,163.68,210.54,163.87,210.57
		c3.16-0.08,6.33-0.07,9.49,0.08c0.64,0.03,1.32,0.08,1.84,0.46c0.52,0.38,0.75,1.22,0.29,1.67c-0.37,0.37-0.98,0.31-1.5,0.21
		C170.59,212.3,167.31,210.98,163.87,210.57z M174.03,277.83l1.22,0.03c0-2.56,2.5-4.83,5.05-4.59c2.55,0.24,4.58,2.93,4.11,5.45
		c-2.28-0.72-4.89-1.41-6.97-0.2c-0.41,0.24-0.78,0.54-1.23,0.67C175.28,279.45,174.2,278.77,174.03,277.83z M267.54,314.58
		c-5.86-5.46-14.26-7.53-22.26-7.22c-8,0.31-15.75,2.77-23.32,5.37c-12.33,4.24-24.51,8.91-36.51,14.02
		c-1.66,0.71-3.37,1.45-4.6,2.77c-1.65,1.75-2.22,4.22-2.67,6.58c-0.44,2.31-0.82,4.63-1.15,6.96c-0.16,1.16-0.05,3.57-1.35,4.25
		c-0.52,0.27-0.39,0.29-0.57-0.16c-0.24-0.6,0.38-2.29,0.49-2.95c0.72-3.94,1.64-7.84,2.78-11.68c0.52-1.74,1.09-3.51,2.18-4.97
		c1.49-2.01,3.79-3.23,6.05-4.32c18.07-8.71,38-12.62,57.69-16.45c5.23-1.02,10.66-2.03,15.83-0.77c5.5,1.35,10.13,5.19,13.52,9.73
		c3.39,4.54,5.68,9.78,7.94,14.97C275.68,326.68,272.79,319.46,267.54,314.58z M247.08,196.31c0.19-0.14,0.42-0.2,0.66-0.22
		c0.93-0.41,2.14-0.28,2.79,0.53c1.13,1.41-0.23,3.91-2.03,3.76C246.7,200.22,245.78,197.56,247.08,196.31z M280.54,196.84
		c-5.22-2.03-10.03-4.97-15.14-7.26c-5.11-2.28-10.75-3.9-16.28-3.04c-3.58,0.56-6.92,2.13-10.16,3.75
		c-3.21,1.61-6.53,3.42-8.49,6.43c-0.87,1.34-1.42,2.86-2.12,4.29c-0.9,1.85-2.09,3.03-3.87,4.04c-0.76,0.43-2.2,1.39-3.13,1.2
		c0.14-0.42,0.82-0.7,1.17-0.95c3.61-2.6,5.6-6.78,8.56-9.99c2.59-2.82,5.9-4.89,9.28-6.69c6.8-3.64,14.89-6.38,22.11-3.67
		c5.98,2.24,10.46,7.95,16.75,9.06c7.61,1.34,14.81-4.51,22.54-4.39c-5.92,2.43-11.83,4.86-17.75,7.29
		c7.33-1.29,14.69-2.38,22.08-3.24c-6.23,1.35-12.46,2.71-18.69,4.06c8.63-0.65,17.74-1.22,25.51,2.59
		C301.97,201.04,290.73,200.8,280.54,196.84z"/>
	<path class="st2" d="M397.03,173.48c7.39-6.14,20.09-5.82,25.5,2.11c1.84,2.71,2.71,5.94,3.55,9.11
		c2.49,9.42,4.99,18.85,7.48,28.27c0.81,3.06,1.63,6.21,1.34,9.36c-0.33,3.57-2.04,6.83-3.56,10.07
		c-4.04,8.61-6.91,17.76-8.53,27.13c-1.12,6.51-2.17,14.01-7.72,17.58c-5.01,3.22-12.09,1.59-16.34-2.58s-6.07-10.28-6.53-16.21
		c-0.46-5.94,0.28-11.9,0.35-17.85c0.12-10.81-2.08-21.37-4.31-31.89c-1.61-7.6-1.07-14.2,0.84-21.73
		C390.41,181.71,392.92,176.9,397.03,173.48z"/>
	<path class="st3" d="M411.98,178.99c6.81,2.45,8.99,11.29,15.06,15.23c0.66-5.04-0.08-10.25-2.12-14.9
		c-0.62-1.42-1.39-2.82-2.56-3.85c-1.37-1.19-3.15-1.76-4.89-2.29c-3.56-1.1-7.17-2.21-10.89-2.33c-4.55-0.15-9.18,1.4-11.82,5.29
		c-2.78,4.09-3.63,9.71-4.23,14.51c-0.24,1.93-0.1,3.51,1.24,5.05c0.76,0.87,1.6,1.65,2.36,0.6c0.47-0.65,0.31-2.72,0.46-3.55
		c0.23-1.27,0.54-2.52,0.97-3.73c0.79-2.26,1.95-4.41,3.6-6.17C402.35,179.48,407.41,177.35,411.98,178.99z"/>
	<path class="st3" d="M420.25,238.97c-0.86,1.02-1.83,1.97-2.51,3.12c-2.24,3.8-0.71,8.79,1.96,12.3
		c9.35-10.4,13.23-25.23,10.92-38.95c-0.58-3.43-1.55-6.8-2.91-10c-0.51-1.2-2.68-6.02-4.81-4.82c-2.19,1.23,1.66,11.54,2.01,13.41
		C426.47,222.34,425.89,232.22,420.25,238.97z"/>
	<path class="st3" d="M399,272.42c3.27-2.82,6.55-5.64,9.82-8.46c0.55-0.48,1.13-0.96,1.82-1.17c1.6-0.48,3.32,0.72,4,2.25
		c0.68,1.53,0.59,3.27,0.49,4.94c-0.17,2.82-0.77,6.24-3.42,7.22c-0.95,0.35-2,0.29-3.01,0.16c-4.76-0.63-9.3-2.84-12.72-6.22"/>
	<path class="st3" d="M404.22,214.6c3.5,2.78,5.87,6.94,6.48,11.36c0.37,2.66,0.03,5.59-1.75,7.59c-1.2,1.34-2.9,2.12-4.25,3.31
		c-1.34,1.2-2.32,3.2-1.44,4.77c1.42,2.52,5.36,1.06,7.38-1.01c5.36-5.47,7.95-13.23,8.3-20.88c0.35-7.65-1.38-15.25-3.7-22.55
		c-0.78-2.45-1.79-5.09-4.02-6.37c-2.23-1.28-5.88-0.04-5.83,2.53c0.03,1.61,1.38,2.82,2.33,4.11c1.72,2.35,2.24,5.53,1.35,8.31
		c-2.02-0.09-14.7-1.62-14.87,0.24c-0.12,1.33,2.52,3.29,3.38,3.99C399.66,211.74,402.11,212.93,404.22,214.6z"/>
	<path class="st3" d="M391.33,219.54c2.35,0.23,4.14,2.51,4.4,4.85s-0.71,4.68-2.04,6.63c-1.1,1.62-2.47,3.06-4.03,4.25
		c-0.06-4.64-0.13-9.29-0.19-13.93c-0.01-0.98,0.02-2.08,0.74-2.74c0.72-0.66,2.27-0.17,2.06,0.78"/>
	<path class="st4" d="M133.19,153.93c5.01-3.67,8.51-9.35,9.53-15.47c0.57-3.42,0.39-6.91,0.22-10.37
		c-0.28-5.42-0.55-10.84-0.83-16.26c5.39-4.96,9.04-11.78,10.16-19.02c2.4-4.88,4.8-9.75,7.21-14.63c2.06-3.1,4.13-6.2,6.19-9.3
		c0.18,1.36,0.37,2.73,0.55,4.09c4.36-6.39,9.96-11.93,16.39-16.23c0.36,1.69,0.72,3.38,1.08,5.08c3.41-6.12,10.36-10.1,17.37-9.92
		c7.01-5.3,15.03-9.26,23.51-11.58c2.91,0.53,4.87-2.74,7.17-4.59c2.3-1.85,7.34,0.18,5.43,2.44c3.6-1.5,7.2-2.99,10.8-4.49
		c-1.13,0.51-0.81,2.39,0.27,3c1.08,0.61,2.43,0.35,3.64,0.08c4.85-1.09,9.7-2.18,14.55-3.28c-1.06-0.05-1.34,1.69-0.52,2.37
		c0.82,0.68,2.01,0.57,3.07,0.43c9.59-1.33,19.17-2.66,28.76-3.99c-2.57,0.44-5.14,0.88-7.7,1.33c18.53-5.1,38.89-3.24,56.2,5.12
		c1.07,0.52,2.19,1.12,2.74,2.18c0.59,1.13,0.37,2.53,0.84,3.72c0.68,1.71,2.55,2.55,4.23,3.3c8.49,3.76,16.26,9.15,22.76,15.79
		c15.92,16.25,24.02,39.51,42,53.43c5.56,8.61,10.02,17.94,13.23,27.68c1.86,5.63,3.65,11.9,8.62,15.15
		c1.2,0.79,2.65,1.48,3.11,2.85c0.45,1.36-1.36,3.1-2.31,2.03c4.47,3.97,9.33,10.14,6.16,15.21c-0.79,1.26-2.02,2.28-2.38,3.71
		c-1.22,4.88,7.92,6.66,8.28,11.68c1.56,13.97,6.33,27.57,13.82,39.46c-5.27-0.37-6.88,7.59-4.24,12.16s7.43,7.99,8.64,13.13
		c-2.54-0.76-4.48,2.65-4.03,5.26c0.44,2.61,2.12,4.94,2.26,7.58c0.14,2.64-2.77,5.6-4.89,4.02c1.89,2.56,1.11,6.35-0.9,8.81
		c-2.02,2.46-4.99,3.9-7.87,5.26c-1.37,0.65-2.74,1.3-4.11,1.95c0.19-9.75-4.43-19.49-12.11-25.51c-1.9-1.49-3.99-2.78-5.61-4.57
		c-10.56-11.67,5.94-31.8-1.79-45.51c-1.7-3.01-4.58-5.73-4.43-9.19c0.1-2.31,1.58-4.3,2.38-6.48c1.44-3.9,0.66-8.25-0.57-12.22
		c-3.1-9.96-9.93-19.72-20.07-22.14s-22.49,6.35-20.4,16.56c0.94,0.41,0.82-1.73-0.2-1.61c-1.02,0.11-1.48,1.31-1.72,2.31
		c-1.46,6.03-2.92,12.06-4.38,18.1c1.48-11.33-1.89-23.21-9.11-32.07c1.35,10.51,0.8,21.27-1.62,31.59
		c-2.34-4.19-3.67-8.94-3.85-13.73c-1.07,1.88-2.13,3.75-3.2,5.63c-1.97-2.27-3.95-4.55-5.92-6.82c-1.74,4.03-7.64,4.62-11.34,2.26
		c-3.7-2.35-5.7-6.57-7.52-10.56c-1.49,3.33-2.99,6.66-4.48,10c-1.03-13.59-5.1-26.94-11.82-38.8c0.66,1.67-2.41,1.91-3.89,0.89
		c-5.22-3.59-9.3-8.81-11.51-14.74c-3.46-3.56-6.91-7.11-10.37-10.67c2.26-0.78,4.68-1.06,7.06-0.84c-0.71-2.43-2.15-4.65-4.08-6.29
		c1.19-1.09,2.38-2.18,3.56-3.26c1.45-3.41,2.94-7.05,2.38-10.72c-0.56-3.67-4.04-7.15-7.64-6.27c2.9-1.52,4.84-4.72,4.84-8
		c-0.59,1.43-2.92,1.17-3.78-0.12c-0.86-1.29-0.69-2.97-0.49-4.51c-3.4,1.49-6.81,2.98-10.21,4.46c2.51-5.52,3.78-11.59,3.68-17.65
		c-2.54,2.72-5.87,4.68-9.48,5.57c0.34-5.01,0.68-10.02,1.02-15.03c-1.73,4.38-4.12,8.5-7.05,12.18c-0.62-1.39-1.25-2.78-1.87-4.17
		c-1.53,0.44-2.92,1.4-3.87,2.67c-1.03-1.2-2.06-2.39-3.09-3.59c-1.19,1.81-2.38,3.62-3.57,5.43c-0.5-2.74-5.16-3.19-6.17-0.6
		c-1.3-1.22-2.59-2.44-3.89-3.66c-1.1,1.5-2.19,3.01-3.29,4.51c-2.76-3.39-9.41-1.38-9.83,2.97c-1.67-0.44-3.09-1.73-3.68-3.35
		c-0.53,1.73-1.05,3.46-1.58,5.18c-2.21-1.03-4.41-2.07-6.62-3.1c-1.14,1.91-2.29,3.81-3.43,5.72c-1.02-1.51-2.03-3.02-3.05-4.53
		c-2,4.66-3.26,9.65-3.7,14.71c-1.13-5.04-2.88-9.94-5.22-14.55c-0.93,4.78-1.23,9.68-0.9,14.54c-3.4-6.54-5.26-13.86-5.38-21.23
		c0.49,6.14,0.27,12.34-0.63,18.44c-0.47-4.6-0.94-9.2-1.41-13.79c-1.46,5.95-2.92,11.89-4.38,17.84c-0.45-2.74-0.91-5.48-1.36-8.22
		c-1.03,1.8-2.51,3.35-4.26,4.46c-1.27-1.64-2.54-3.29-3.82-4.93c-1.24,1.8-2.48,3.6-3.72,5.4c0.78-2.25-2.21-4.69-4.26-3.49
		c-2.05,1.2-1.38,5,0.96,5.42c-2.11-0.9-4.22-1.81-6.33-2.71c-0.74,1.7-1.48,3.4-2.22,5.1c-0.45-1.41-2.03-2.36-3.49-2.08
		c-1.61,2.45-3.23,4.9-4.84,7.35c-1.71-0.25-3.18-1.66-3.5-3.35c-0.81,2.6-1.63,5.21-2.44,7.81c0.5-2.18-3.42-0.95-4.38,1.07
		c-3.88,8.11-7.74,16.26-10.67,24.77c-1.43,4.15-2.64,8.38-3.48,12.7c-0.43,2.2-0.77,4.41-0.99,6.64c-0.15,1.51,0.01,3.52-0.9,4.84
		C140.99,158.8,135.22,155.94,133.19,153.93z"/>
	<g class="st5">
		<path class="st6" d="M464.55,122.88c-0.74,0.25-1.48,0.49-2.22,0.74"/>
		<path class="st6" d="M449.77,94.06c-0.25,0.49-0.49,0.99-0.74,1.48"/>
		<path class="st6" d="M483.02,96.28c-0.25,0-0.49,0-0.74,0"/>
		<g>
			<g>
				<path class="st7" d="M170.91,91.84c0.3-5.94,2.4-11.51,5.11-16.75c0.3-0.57-0.57-1.08-0.86-0.5c-2.79,5.4-4.93,11.13-5.24,17.25
					C169.87,92.49,170.88,92.49,170.91,91.84L170.91,91.84z"/>
			</g>
		</g>
		<g>
			<g>
				<path class="st7" d="M175.34,90.37c-0.18-1.35,0.18-2.66,0.53-3.96c0.36-1.37,0.77-2.72,1.24-4.06
					c0.95-2.73,2.12-5.38,3.34-7.99c0.27-0.58-0.59-1.09-0.86-0.5c-1.26,2.69-2.46,5.42-3.44,8.23c-0.48,1.37-0.89,2.76-1.26,4.16
					c-0.36,1.34-0.72,2.73-0.54,4.13C174.43,90.99,175.43,91,175.34,90.37L175.34,90.37z"/>
			</g>
		</g>
		<g>
			<g>
				<path class="st7" d="M182.73,88.15c-0.33-8.08,3.62-15.38,8.27-21.71c1.33-1.8,2.73-3.55,4.15-5.28c0.41-0.49-0.3-1.2-0.71-0.71
					c-5.08,6.17-10.19,12.89-12.05,20.82c-0.53,2.25-0.76,4.56-0.66,6.88C181.76,88.79,182.76,88.79,182.73,88.15L182.73,88.15z"/>
			</g>
		</g>
		<g>
			<g>
				<path class="st7" d="M202.67,63.33c-0.3,0.23-0.57,0.49-0.74,0.83c-0.17,0.34-0.25,0.7-0.25,1.08c0,0.26,0.23,0.51,0.5,0.5
					c0.27-0.01,0.5-0.22,0.5-0.5c0-0.1,0.01-0.19,0.02-0.29c-0.01,0.04-0.01,0.09-0.02,0.13c0.02-0.15,0.06-0.3,0.12-0.44
					c-0.02,0.04-0.03,0.08-0.05,0.12c0.06-0.13,0.13-0.26,0.22-0.38c-0.03,0.03-0.05,0.07-0.08,0.1c0.11-0.13,0.23-0.25,0.36-0.36
					c-0.03,0.03-0.07,0.05-0.1,0.08c0.01,0,0.01-0.01,0.02-0.01c0.11-0.08,0.19-0.16,0.23-0.3c0.03-0.12,0.02-0.28-0.05-0.39
					c-0.07-0.11-0.17-0.2-0.3-0.23C202.94,63.25,202.78,63.25,202.67,63.33L202.67,63.33z"/>
			</g>
		</g>
		<g>
			<g>
				<path class="st7" d="M201.14,72.88c2.46-4.31,4.68-8.75,6.65-13.3c0.25-0.58-0.61-1.09-0.86-0.5c-1.98,4.55-4.2,8.99-6.65,13.3
					C199.96,72.94,200.82,73.44,201.14,72.88L201.14,72.88z"/>
			</g>
		</g>
		<g>
			<g>
				<path class="st7" d="M207.1,83.11c1.29-3.68,1.61-7.61,2.57-11.38c0.95-3.76,2.14-7.46,3.55-11.07c0.83-2.12,1.73-4.2,2.7-6.25
					c0.27-0.58-0.59-1.09-0.86-0.5c-3.35,7.1-5.96,14.59-7.36,22.32c-0.4,2.23-0.81,4.47-1.56,6.62
					C205.92,83.45,206.89,83.71,207.1,83.11L207.1,83.11z"/>
			</g>
		</g>
		<g>
			<g>
				<path class="st7" d="M215.23,79.41c1.23-4.91,2.7-9.8,4.57-14.5c0.91-2.27,2.1-4.47,3.31-6.59c1.2-2.11,2.5-4.15,3.89-6.13
					c0.37-0.53-0.5-1.03-0.86-0.5c-2.2,3.13-4.16,6.42-5.86,9.84c-1.74,3.52-3.01,7.24-4.16,10.98c-0.68,2.2-1.29,4.41-1.85,6.64
					C214.11,79.77,215.08,80.04,215.23,79.41L215.23,79.41z"/>
			</g>
		</g>
		<g>
			<g>
				<path class="st7" d="M224.84,74.98c0.66-2.63,1.5-5.22,2.73-7.65c1.24-2.45,2.85-4.68,4.66-6.73c3.65-4.15,7.87-7.75,12.6-10.6
					c2.71-1.63,5.56-3.02,8.48-4.23c0.59-0.24,0.33-1.21-0.27-0.96c-5.26,2.18-10.25,4.93-14.7,8.52c-4.35,3.52-8.5,7.77-11.21,12.7
					c-1.5,2.73-2.51,5.68-3.26,8.69C223.72,75.34,224.68,75.6,224.84,74.98L224.84,74.98z"/>
			</g>
		</g>
		<g>
			<g>
				<path class="st7" d="M229.22,78.79c4.19-7.57,9.98-14.29,16.52-19.94c3.17-2.74,6.57-5.24,10.02-7.61
					c3.44-2.36,7.02-4.54,10.79-6.34c4.24-2.03,8.72-3.54,13.36-4.32c0.63-0.11,0.36-1.07-0.27-0.96
					c-8.4,1.41-16.12,5.24-23.16,9.92c-7.19,4.78-13.95,10.21-19.63,16.74c-3.22,3.7-6.13,7.7-8.51,11.99
					C228.05,78.85,228.91,79.36,229.22,78.79L229.22,78.79z"/>
			</g>
		</g>
		<g>
			<g>
				<path class="st7" d="M249.1,63.37c3.67-3.34,7.57-6.41,11.69-9.17c2.07-1.38,4.17-2.68,6.39-3.81c2.26-1.15,4.57-2.21,6.92-3.18
					c2.64-1.09,5.32-2.06,8.04-2.92c0.61-0.19,0.35-1.16-0.27-0.96c-4.89,1.55-9.67,3.46-14.27,5.74
					c-4.51,2.23-8.68,5.06-12.66,8.12c-2.26,1.74-4.44,3.57-6.55,5.49C247.92,63.1,248.62,63.81,249.1,63.37L249.1,63.37z"/>
			</g>
		</g>
		<g>
			<g>
				<path class="st7" d="M267.47,63.45c5.37-3.69,10.94-7.14,16.89-9.82c6.01-2.71,12.38-4.52,18.86-5.66
					c3.74-0.66,7.51-1.1,11.29-1.44c0.64-0.06,0.64-1.06,0-1c-6.66,0.6-13.31,1.53-19.77,3.31c-6.41,1.77-12.51,4.42-18.28,7.72
					c-3.26,1.86-6.4,3.9-9.49,6.03C266.44,62.95,266.94,63.82,267.47,63.45L267.47,63.45z"/>
			</g>
		</g>
		<g>
			<g>
				<path class="st7" d="M289.09,66.23c1-1.89,2.86-2.86,4.69-3.8c2.08-1.07,4.23-1.98,6.43-2.77c4.35-1.58,8.84-2.74,13.39-3.61
					c9.9-1.88,20.1-2.41,30.1-1.04c5.63,0.77,11.17,2.14,16.52,4.06c0.61,0.22,0.87-0.75,0.27-0.96c-9.74-3.49-20.06-5.08-30.4-4.84
					c-9.86,0.22-19.88,1.87-29.21,5.11c-2.5,0.87-4.96,1.86-7.32,3.06c-2.07,1.05-4.2,2.17-5.32,4.3
					C287.92,66.29,288.79,66.8,289.09,66.23L289.09,66.23z"/>
			</g>
		</g>
		<g>
			<g>
				<path class="st7" d="M313.78,68.69c11.3,1.1,22.62,2.66,33.56,5.79c3.1,0.89,6.17,1.9,9.18,3.06c0.6,0.23,0.86-0.73,0.27-0.96
					c-10.71-4.13-22.04-6.36-33.4-7.82c-3.19-0.41-6.4-0.76-9.6-1.07C313.14,67.63,313.15,68.63,313.78,68.69L313.78,68.69z"/>
			</g>
		</g>
		<g>
			<g>
				<path class="st7" d="M311.08,86.36c4.51-3.33,9.78-5.09,15.28-5.95c5.6-0.88,11.57-1.35,17.15-0.12
					c5.97,1.31,11.27,4.95,16.31,8.25c5.46,3.57,10.92,7.15,16.5,10.52c5.62,3.4,11.86,5.89,16.94,10.13
					c0.49,0.41,1.2-0.29,0.71-0.71c-4.59-3.82-10.07-6.22-15.22-9.15c-5.78-3.29-11.33-7.01-16.89-10.65
					c-5.17-3.38-10.46-7.16-16.45-8.94c-5.58-1.66-11.63-1.32-17.33-0.59c-6.27,0.8-12.36,2.54-17.5,6.33
					C310.06,85.88,310.56,86.75,311.08,86.36L311.08,86.36z"/>
			</g>
		</g>
		<g>
			<g>
				<path class="st7" d="M322.04,96.76c7.76-2.27,15.76-4.05,23.88-3.84c4.02,0.1,8.05,0.65,11.98,1.51
					c3.77,0.83,7.46,1.94,10.91,3.7c3.71,1.88,7.11,4.3,10.48,6.72c0.52,0.38,1.02-0.49,0.5-0.86c-3.05-2.19-6.12-4.37-9.43-6.17
					c-3.39-1.83-6.97-3.09-10.7-4c-3.95-0.96-8.01-1.58-12.07-1.82c-4.1-0.24-8.21,0.04-12.26,0.66c-4.6,0.7-9.11,1.84-13.57,3.15
					C321.16,95.98,321.42,96.94,322.04,96.76L322.04,96.76z"/>
			</g>
		</g>
		<g>
			<g>
				<path class="st7" d="M328.7,103.41c5.93-0.89,11.88-1.76,17.87-2c5.93-0.24,11.87,0.19,17.65,1.6
					c5.06,1.24,9.88,3.23,14.38,5.87c4.98,2.93,9.68,6.39,14.4,9.71c5.49,3.86,10.97,7.75,16.61,11.38c0.54,0.35,1.04-0.52,0.5-0.86
					c-5.11-3.29-10.08-6.78-15.04-10.28c-4.84-3.41-9.65-6.92-14.68-10.04c-4.47-2.77-9.27-4.94-14.34-6.34
					c-5.68-1.57-11.58-2.2-17.46-2.1c-6.76,0.11-13.47,1.1-20.15,2.1C327.8,102.54,328.07,103.51,328.7,103.41L328.7,103.41z"/>
			</g>
		</g>
		<g>
			<g>
				<path class="st7" d="M335.35,129.28c9.82-3.95,20.27-5.9,30.86-5.5c9.51,0.36,18.93,2.34,27.29,7.02
					c4.54,2.54,8.64,5.76,12.31,9.44c0.45,0.46,1.16-0.25,0.71-0.71c-6.54-6.57-14.5-11.54-23.41-14.18
					c-4.75-1.41-9.68-2.13-14.62-2.46c-5.3-0.35-10.63-0.16-15.89,0.61c-6.01,0.88-11.88,2.54-17.51,4.81
					C334.49,128.55,334.75,129.52,335.35,129.28L335.35,129.28z"/>
			</g>
		</g>
		<g>
			<g>
				<path class="st7" d="M358.86,144.08c6.43-0.03,12.86-0.23,19.29-0.12c6.49,0.1,12.94,0.6,19.34,1.71
					c3.6,0.62,7.18,1.37,10.76,2.09c0.63,0.13,0.9-0.84,0.27-0.96c-6.4-1.28-12.79-2.64-19.3-3.27c-6.42-0.62-12.87-0.64-19.31-0.57
					c-3.68,0.04-7.36,0.11-11.04,0.13C358.22,143.08,358.22,144.08,358.86,144.08L358.86,144.08z"/>
			</g>
		</g>
		<g>
			<g>
				<path class="st7" d="M374.64,161.75c3.57-1.77,7.28-3.22,11.11-4.32c1.91-0.55,3.9-1.13,5.88-1.38c2.12-0.27,4.3-0.31,6.44-0.24
					c2.43,0.08,4.84,0.36,7.23,0.82c0.63,0.12,0.9-0.84,0.27-0.96c-4.31-0.83-8.71-1.08-13.08-0.7c-2.07,0.18-4.11,0.71-6.12,1.26
					c-1.97,0.54-3.92,1.16-5.84,1.88c-2.18,0.82-4.31,1.75-6.39,2.78C373.55,161.17,374.06,162.03,374.64,161.75L374.64,161.75z"/>
			</g>
		</g>
		<g>
			<g>
				<path class="st7" d="M392.12,158.86c8.04,0.68,16.19,1.19,23.74,4.32c2.15,0.89,4.24,1.95,6.31,3c0.57,0.29,1.08-0.57,0.5-0.86
					c-3.69-1.88-7.42-3.67-11.43-4.79c-3.92-1.09-7.97-1.65-12.02-2.06c-2.36-0.23-4.73-0.42-7.1-0.62
					C391.48,157.8,391.48,158.8,392.12,158.86L392.12,158.86z"/>
			</g>
		</g>
		<g>
			<g>
				<path class="st7" d="M399.38,148.49c5.74,1.71,11.46,3.55,16.94,6c5.09,2.27,10.31,4.94,14.43,8.74
					c2.22,2.05,4.04,4.45,5.28,7.2c0.27,0.59,1.13,0.08,0.86-0.5c-2.24-4.94-6.31-8.63-10.85-11.46c-5.16-3.2-10.73-5.68-16.44-7.73
					c-3.28-1.18-6.62-2.22-9.96-3.22C399.03,147.34,398.76,148.31,399.38,148.49L399.38,148.49z"/>
			</g>
		</g>
		<g>
			<g>
				<path class="st7" d="M423.55,169.06c3.74,3.81,7.03,8.01,9.69,12.64c2.89,5.03,4.83,10.47,6.91,15.87
					c1.28,3.3,2.58,6.59,4.01,9.82c0.26,0.59,1.12,0.08,0.86-0.5c-2.58-5.85-4.66-11.88-7.08-17.79c-2.01-4.89-4.54-9.55-7.71-13.8
					c-1.83-2.45-3.84-4.76-5.98-6.94C423.8,167.89,423.09,168.6,423.55,169.06L423.55,169.06z"/>
			</g>
		</g>
		<g>
			<g>
				<path class="st7" d="M437.46,209.48c2.71,7.31,5.55,14.78,10.73,20.74c1.51,1.73,3.19,3.29,5.02,4.69
					c0.51,0.39,1.01-0.48,0.5-0.86c-6.2-4.74-10.01-11.52-12.91-18.63c-0.84-2.05-1.61-4.13-2.38-6.2
					C438.2,208.62,437.24,208.88,437.46,209.48L437.46,209.48z"/>
			</g>
		</g>
		<g>
			<g>
				<path class="st7" d="M438.2,227.96c2.5,6.31,6.34,12.92,12.79,15.82c0.58,0.26,1.09-0.6,0.5-0.86
					c-6.22-2.79-9.92-9.13-12.33-15.22C438.93,227.1,437.96,227.36,438.2,227.96L438.2,227.96z"/>
			</g>
		</g>
		<g>
			<g>
				<path class="st7" d="M440.47,239.17c2.89,3.97,6.72,7.12,9.61,11.09c0.37,0.52,1.24,0.02,0.86-0.5
					c-2.89-3.97-6.72-7.12-9.61-11.09C440.95,238.15,440.09,238.64,440.47,239.17L440.47,239.17z"/>
			</g>
		</g>
		<g>
			<g>
				<path class="st7" d="M441.89,242.74c1.25,3.68,2.28,7.44,3.8,11.03c0.74,1.74,1.58,3.45,2.67,5c1.19,1.7,2.65,3.19,4.23,4.51
					c1.83,1.52,3.81,2.84,5.79,4.15c0.54,0.36,1.04-0.51,0.5-0.86c-3.42-2.28-6.92-4.6-9.41-7.95c-2.26-3.04-3.55-6.72-4.72-10.28
					c-0.64-1.95-1.24-3.92-1.9-5.87C442.65,241.87,441.69,242.13,441.89,242.74L441.89,242.74z"/>
			</g>
		</g>
		<g>
			<g>
				<path class="st7" d="M436.72,249.39c1.06,4.36,2.17,8.74,3.97,12.86c1.77,4.04,4.21,7.91,7.87,10.47
					c2.01,1.41,4.22,2.54,6.02,4.23c0.47,0.44,1.18-0.27,0.71-0.71c-1.53-1.43-3.33-2.49-5.08-3.62c-1.86-1.2-3.49-2.54-4.85-4.3
					c-2.73-3.53-4.46-7.7-5.76-11.94c-0.73-2.4-1.34-4.83-1.93-7.27C437.53,248.5,436.57,248.77,436.72,249.39L436.72,249.39z"/>
			</g>
		</g>
	</g>
	<path class="st8" d="M190.2,359.19c6.51-5.98,15.67-7.9,24.35-9.57c5.77-1.12,11.55-2.23,17.32-3.35c6.8-1.31,13.74-2.63,20.6-1.7
		c6.86,0.94,13.74,4.54,16.79,10.76c2.63,5.37,1.98,11.98-0.81,17.27c-2.8,5.29-7.52,9.36-12.73,12.31
		c-12.93,7.34-28.45,8.14-43.32,8.43c-4,0.08-8.03,0.13-11.98-0.54c-5.51-0.93-13.67-3.63-16.89-8.64c-2.58-4.01-1-11.51,0.49-15.6
		C185.31,365.02,187.41,361.75,190.2,359.19z"/>
	<path class="st9" d="M197.25,323.39c2.21-0.01,4.39,0.52,6.59,0.57c7.19,0.16,13.41-4.59,19.89-7.7c9.49-4.56,20.2-5.74,30.67-6.85
		c1.63-0.17,3.54-0.25,4.63,0.99c1.86,2.12-0.57,5.23-2.81,6.95c-8.71,6.68-17.73,13.51-28.34,16.32
		c-6.99,1.85-14.34,1.84-21.55,1.34c-1.8-0.12-3.68-0.27-5.36,0.42c-1.56,0.64-2.75,1.93-4.14,2.9c-2.96,2.05-11.02,3.43-12.88-0.91
		c-1.64-3.82,2.84-9.32,5.62-11.37C191.79,324.42,194.48,323.4,197.25,323.39z"/>
	<path class="st6" d="M333.74,282.52c-0.49,0.25-0.99,0.49-1.48,0.74"/>
	<path class="st10" d="M186.06,315.25c0.39-0.85,0.84-1.7,1.55-2.3c1.13-0.96,2.72-1.14,4.21-1.22c4.7-0.24,9.54,0.12,13.97-1.47
		c3.3-1.18,6.15-3.37,9.38-4.71c8.94-3.72,19.1-0.55,28.24,2.64c-10.82,0.58-21.7,1.16-32.29,3.47c-5.93,1.29-11.76,3.14-17.24,5.75
		c-1.36,0.65-2.71,1.35-4.02,2.1c-1.11,0.63-2.63,2.12-3.84,2.39C182.61,322.68,185.45,316.59,186.06,315.25z"/>
	<path class="st11" d="M238.1,223.66c7.43,1.06,15.16-0.04,21.99-3.15c7.08-3.22,13.08-8.46,20.12-11.76
		c7.84-3.67,16.6-4.77,25.19-5.83c9.53-1.17,19.07-2.34,28.6-3.52c3.04-0.37,6.18-0.74,9.14,0.04c7.79,2.06,11.56,11.69,9.77,19.55
		c-1.79,7.86-7.6,14.12-13.56,19.54c-5.96,5.42-12.45,10.57-16.41,17.59c-2.55,4.52-3.91,9.59-5.92,14.37
		c-3.28,7.82-8.47,15.04-15.68,19.5c-7.21,4.46-16.58,5.81-24.32,2.35c-4.66-2.09-8.43-5.7-12.11-9.25
		c-8.33-8.04-16.65-16.08-24.98-24.11c-5.86-5.66-11.33-11.62-15.78-18.47c-3.24-4.99-4.96-14.57,2.05-17.13
		C229.96,222.01,234.29,223.12,238.1,223.66z"/>
	<path class="st6" d="M369.21,317.25c-0.25,0.99-0.49,1.97-0.74,2.96"/>
	<path class="st6" d="M202.07,246.2c2.88-4.66,9.86-5.42,14.6-2.67c4.73,2.75,7.46,8.05,8.8,13.36c0.46,1.83,0.72,4-0.53,5.42
		c-1.99,2.27-5.64,0.75-8.4-0.47c-7.42-3.28-16.31-3.05-23.55,0.59"/>
	<path class="st6" d="M500.08,246.42c-0.51,0.25-0.56,1.09-0.08,1.4"/>
	<path class="st12" d="M240.98,163.68c4.07-0.83,8.22-1.67,12.35-1.18c10.6,1.25,18.33,10.69,28.39,14.25
		c3.86,1.37,8.02,1.85,11.72,3.59c3.7,1.74,7.03,5.3,6.7,9.38c-6.5-0.23-12.98-1.27-19.22-3.09c-6.3-1.84-12.36-4.47-18.71-6.15
		c-15.25-4.02-31.49-2.36-46.76,1.58c-5.42,1.4-21.44,5.93-20.48-4.82c0.4-4.48,5.22-5.21,8.83-5.96c5.9-1.21,11.8-2.41,17.69-3.62
		C227.98,166.33,234.48,165,240.98,163.68z"/>
	<path class="st13" d="M131.49,190.55c-0.68,0.58-1.34,1.21-1.73,2.01c-1.34,2.72,1.14,6.05,4.08,6.79s6-0.28,8.89-1.2
		c2.2-0.7,4.45-1.34,6.74-1.64c2.07-0.27,4.12,0.09,6.18-0.15c2.54-0.29,6.75-1.84,6.97-4.92c0.25-3.55-5.22-5.57-7.89-6.28
		c-3.8-1.01-7.87-1.04-11.71-0.23C138.79,185.83,134.78,187.75,131.49,190.55z"/>
	<path class="st1" d="M179.8,179.74c11.07,6.04,22.14,12.08,33.21,18.11c1.31,0.71,2.65,1.46,3.59,2.62
		c2.41,2.99,1.27,7.32,0.65,11.11c-2.57,15.73,6.01,30.84,9.93,46.28c0.69,2.73,0.97,6.23-1.38,7.78c-0.9,0.59-2,0.75-3.06,0.93
		c-5.64,0.98-11.07,3.13-15.86,6.26c-1.01,0.66-2.03,1.41-2.62,2.47c-0.87,1.58-0.67,3.63-1.72,5.09c-1.64,2.29-5.18,1.82-7.74,0.66
		s-5.28-2.79-7.99-2.04c-0.96,0.27-1.81,0.82-2.74,1.16c-3.47,1.29-7.51-0.51-9.79-3.43c-2.28-2.91-6.81-10.42-7.28-14.09
		c-1.14-8.88,3.27-14.27,5.82-22.85c1.92-6.44,4.85-12.59,6.29-19.15c1.37-6.24,1.31-12.73-0.04-18.96
		c-0.93-4.28-1.87-8.21-1.79-12.62C177.33,185.73,177.81,182.56,179.8,179.74z"/>
	<path class="st0" d="M196.29,208.93c2.7,4.98,2.07,11.09,0.67,16.58c-1.41,5.49-3.53,10.9-3.61,16.56c-0.02,1.37,0.16,2.9,1.2,3.78
		c1.83,1.55,4.53,0.01,6.62-1.17c5.29-3,12.07-3.44,17.51-0.73c5.44,2.71,9.24,8.66,8.96,14.73c-0.05,1.13-0.25,2.29-0.86,3.24
		c-1.21,1.9-3.78,2.53-6.01,2.2c-2.23-0.32-4.28-1.39-6.39-2.19c-8.76-3.33-20.27-1.03-24.7,7.23c4.03,1.8,7.82,4.13,11.25,6.91
		c-7.84,0.63-15.81-0.46-23.19-3.17c-3.2-1.18-6.43-2.76-8.43-5.53c-3.61-4.99-2.1-11.89-0.41-17.82c2.85-9.26,5.39-18.61,8.2-27.88
		c1.41-4.67,2.93-9.31,4.29-13.99c0.33-1.12,0.39-2.64,1.27-3.49c1.05-1.01,2.96-1.21,4.34-1.15
		C190.78,203.22,194.49,205.62,196.29,208.93z"/>
	<path class="st6" d="M121.77,300.78c0.45,0.15,0.9,0.3,1.34,0.45"/>
	<path class="st14" d="M188.46,213.48c1.07,13.79-2.96,27.38-6.36,40.79c-0.56,2.22-0.69,5.3,1.47,6.06
		c1.11,0.39,2.32-0.1,3.39-0.59c6.51-3,13.04-6.58,20.2-6.92s15.19,3.84,16.29,10.92c-6.8,0.6-13.38-3.35-20.2-2.84
		c-6.02,0.44-11.18,4.25-16.67,6.76s-12.78,3.44-16.9-0.97c-4.19-4.48-2.71-11.62-0.97-17.51c2.58-8.69,5.16-17.38,7.73-26.07
		c1.06-3.59,2.37-7.15,2.79-10.88c0.26-2.35,0.62-4.21,3-5.23C186.63,205.12,188.2,210.06,188.46,213.48z"/>
	<path class="st15" d="M227.66,197.89c3.41-6.04,10.37-9.42,17.27-10.12c6.9-0.7,13.82,0.92,20.48,2.84
		c6.66,1.93,13.3,4.19,20.2,4.82c0.81,0.07,1.7,0.1,2.33-0.41c0.91-0.74,0.73-2.28-0.07-3.15c-0.8-0.87-1.99-1.23-3.12-1.55
		c-9.57-2.72-19.25-5.04-29.01-6.95c-9.58-1.87-19.99-3.24-28.69,1.19c-1.85,0.95-3.63,2.19-4.72,3.97
		c-1.91,3.14-1.18,6.97-0.02,10.24c0.35,0.99,1.1,3.61,2.6,3.29C226.19,201.81,227.1,198.9,227.66,197.89z"/>
	<path class="st6" d="M292.81,158.85c0.15,0.15,0.3,0.3,0.45,0.45"/>
	<path class="st16" d="M259.52,188.62c5.7,0.94,10.81,4,15.72,7.05c-1.6,0.24-3.21-0.19-4.77-0.57c-6.75-1.62-13.74-2.24-20.68-1.83
		c-3.22,0.19-6.56,0.65-9.27,2.41c-3.2,2.09-5,5.6-7.61,8.29c-1.16,1.19-5.32,4.35-4.68,0.55c0.49-2.89,2.23-5.93,3.81-8.35
		c1.26-1.94,3.29-2.54,5.35-3.36c2.21-0.88,4.43-1.73,6.7-2.45C249.04,188.77,254.31,187.77,259.52,188.62z"/>
	<path class="st6" d="M272.66,206.31c-0.15,0.3-0.3,0.6-0.45,0.9"/>
	<path class="st16" d="M261.93,201.05c1.77-0.93,3.53-1.95,5.49-2.4c4.33-0.98,8.8,1.05,13.23,0.8c0.49,1.45-1.2,2.62-2.61,3.2
		c-6.16,2.57-12.38,5.01-18.64,7.34c-4.65,1.73-9.4,3.4-14.34,3.83c-3.41,0.29-6.93-0.04-10.12-1.31c-1.35-0.53-4.72-1.9-2.23-3.29
		c2.07-1.15,4.86-1.39,7.17-1.68c3.54-0.43,7.02-0.98,10.46-1.93C254.34,204.5,258.24,202.98,261.93,201.05z"/>
	<path class="st17" d="M176.4,208.55c0-0.15,0-0.3,0-0.45c1.43,1.38,1.32,4.24-0.49,5.05c-0.87,0.39-1.87,0.35-2.83,0.3
		c-4.89-0.26-9.77-0.51-14.66-0.77c-2-0.11-4.15-0.17-5.85,0.9c-1.36,0.86-2.22,2.34-3.52,3.3c-2.8,2.07-7.42,0.76-8.72-2.48
		c-1.45-3.62,1.26-7.82,4.81-9.41c3.55-1.59,7.63-1.28,11.51-0.94c5.28,0.47,10.56,0.94,15.84,1.4c0.75,0.07,1.54,0.15,2.16,0.58
		C175.26,206.45,176.83,207.93,176.4,208.55z"/>
	<path class="st18" d="M174.81,222.97c-1.36,5.77-4.72,11.05-9.37,14.73c-2.33,1.84-4.95,3.28-7.32,5.06
		c-2.67,2.01-5.02,4.45-6.93,7.2c0-3.11-0.36-6.27-0.53-9.38c-0.11-1.86-1.02-5.02,0.85-6.26c1.99-1.31,4.86-1.8,7.07-2.71
		c2.68-1.1,5.32-2.33,7.88-3.68C169.33,226.42,172.11,224.77,174.81,222.97z"/>
	<path class="st6" d="M154.46,268.55c0.15-0.3,0.3-0.6,0.45-0.9"/>
	<path class="st0" d="M173.95,223.24c0.38,1.27-0.41,2.57-1.26,3.59c-4.22,5.05-10.95,8.66-17.1,10.8
		c-2.66,0.93-1.53-2.12-0.61-3.35c0.83-1.12,1.86-1.53,3.1-2.07c1.74-0.75,3.46-1.56,5.14-2.42c1.9-0.97,3.76-2.02,5.57-3.13
		C169.3,226.36,174.06,223.62,173.95,223.24z"/>
	<path class="st19" d="M151.87,221.67c0.4-1.78,1.14-3.69,2.77-4.51c1.03-0.51,2.22-0.5,3.37-0.48c5.86,0.12,11.72,0.24,17.59,0.35
		c0.43,0.01,0.91,0.01,1.25-0.25c0.59-0.44,0.48-1.43-0.04-1.96c-0.51-0.53-1.28-0.72-2-0.88c-5.13-1.14-10.34-1.88-15.58-2.22
		c-1.49-0.1-3.09-0.13-4.34,0.68c-0.77,0.5-1.31,1.26-1.99,1.87c-1.3,1.18-3.12,1.83-4.03,3.33c-0.55,0.9-0.69,1.98-0.76,3.03
		c-0.24,3.65,0.22,7.41,1.43,10.87c1.67-0.09,1.85-1.59,1.81-2.93C151.29,226.24,151.36,223.96,151.87,221.67z"/>
	<path class="st20" d="M237.28,205.41c0.46-3.06,2.4-5.87,5.1-7.39c-0.98,2.88,0.42,6.37,3.11,7.78c-2.42,0.85-5.2,0.62-7.44-0.63"
		/>
	<path class="st21" d="M253.71,203.79c1.19-2.51,1.87-5.27,1.96-8.04c3.63,1.21,7.5,1.68,11.31,1.37c-3.38,3.98-8.78,6.15-13.98,5.6
		"/>
	<path class="st22" d="M154.3,230.96c-0.43-2.52-0.06-5.17,1.03-7.48c0.1,2.47,1.24,4.88,3.1,6.51c-1.24-0.17-2.54,0.17-3.53,0.93"
		/>
	<path class="st23" d="M168.39,219.26c1.04,1.41,1.45,3.27,1.1,4.99c1.03-1.71,2.64-3.06,4.5-3.77c-2.16-0.64-4.34-1.22-6.53-1.75"
		/>
	<path class="st0" d="M180.25,325.07c9.07-6.6,18.47-13.36,29.4-15.89c5.09-1.18,10.35-1.39,15.58-1.6c6.9-0.27,13.8-0.55,20.7-0.82
		c4.04-0.16,8.1-0.32,12.12,0.1c3.57,0.38,8.27,0.61,9.59-2.74c1.27-3.23-2.09-6.28-5.02-8.14c-3.98-2.53-7.96-5.06-11.94-7.59
		c-9.26-5.89-19.1-11.97-30.06-12.45c-4.08-0.18-8.32,0.5-11.73,2.74c-3.91,2.57-6.87,7.19-11.54,7.61
		c3.39,2.11,6.73,5.08,7.19,9.04c0.47,3.96-3.75,8.27-7.32,6.48c-2.34-1.18-3.1-4.14-3.24-6.76c-0.18-3.28,0.09-7.51-3.27-9.34
		c-2.85-1.55-5.45,0.8-6.81,3.19c-1.91,3.36-2.95,7.55-3.95,11.26c-1.05,3.9-1.79,7.9-1.91,11.94
		C177.89,316.54,178.54,320.98,180.25,325.07z"/>
	<path class="st3" d="M246.35,196.95c0,0.97,0,1.98,0.42,2.85c0.41,0.88,1.37,1.58,2.32,1.39c2.5-0.51,1.8-5.69,4.35-5.66
		c0.28,2.04,0.2,4.13-0.22,6.14c-0.27,1.25-0.75,2.58-1.86,3.23c-0.64,0.38-1.42,0.46-2.16,0.46c-2.2-0.03-4.47-0.93-5.73-2.73
		c-1.27-1.8-1.25-4.52,0.35-6.04c0.95,0.29,1.91,0.58,2.86,0.86"/>
	<path class="st9" d="M156.74,225.11c-0.24-1.46-0.15-2.97,0.26-4.39c0.32-1.1,1.58-2.32,2.39-1.51c0.23,0.23,0.32,0.55,0.39,0.86
		c0.31,1.37,0.45,2.9,1.44,3.9c0.99,1,3.2,0.71,3.25-0.7c0.02-0.52-0.26-0.99-0.44-1.47c-0.5-1.32-0.22-2.9,0.7-3.98
		c2.8,0.05,4.74,3.42,3.93,6.1c-0.8,2.68-3.61,4.41-6.39,4.67c-0.62,0.06-1.25,0.06-1.84-0.13c-2.04-0.63-2.83-3.04-3.33-5.12"/>
	<path class="st11" d="M168.14,240.57c-3.67,11.74-4.45,24.2-4.35,36.5c0.03,3.91,0.16,7.86,1.18,11.63
		c0.71,2.6,1.85,5.12,2.08,7.81c0.33,3.83-1.2,7.63-0.95,11.47c0.22,3.4,1.81,6.56,2.36,9.92c0.99,6.04-1.45,12.08-1.79,18.19
		c-0.56,9.79,4.05,20.55-1.11,28.88c-4.54-3.08-5.71-9.15-6.51-14.57c-3.71-25.23-7.41-50.45-11.12-75.68
		c-0.85-5.79-2.03-12.89,0.23-18.54c0.76-1.9,2.05-3.5,3.37-5.04c2-2.32,3.97-4.82,6.42-6.67c1.47-1.11,3.09-2.02,4.8-2.69
		C163.29,241.56,168.12,240.63,168.14,240.57z"/>
	<path class="st16" d="M175.56,129.7c6.63-1.42,13.25-2.84,19.88-4.25c16.13-3.45,32.64-6.92,49-4.82c5.64,0.72,11.21,2.1,16.89,2.3
		c5.68,0.19,11.69-0.96,15.99-4.68c4.26-3.69,6.3-9.6,5.81-15.21c-0.49-5.61-3.33-10.88-7.34-14.84
		c-4.44-4.39-10.48-7.31-16.72-7.33c-6.31-0.01-12.21,2.83-18.23,4.72c-11.18,3.51-23.07,3.77-34.63,5.67
		c-8,1.31-15.87,3.41-23.45,6.26c-4.61,1.73-9.17,3.77-13.08,6.76c-6.7,5.13-10.96,12.64-14.24,20.26c-0.83,1.94-1.61,3.9-2.36,5.87
		c-0.49,1.28-2.21,4.15-1.8,5.5c0.88,2.9,7.7-1.42,8.98-1.94C165.17,131.94,170.38,130.81,175.56,129.7z"/>
	<path class="st16" d="M206.09,126.27c5.93-1.42,11.88-2.84,17.93-3.6c15.55-1.96,32.42,0.9,44.28,11.15
		c3.48,3.01,6.86,6.79,11.43,7.3c-4.73-0.05-9.32-1.52-13.85-2.88c-9.37-2.82-18.86-5.25-28.44-7.28
		c-5.77-1.23-11.64-2.32-17.52-1.92c-9.8,0.66-18.8,5.35-28.08,8.6c-10.64,3.72-21.81,5.56-32.96,6.97
		c-3.11,0.39-6.51,1.19-9.63,1.11c-1.18-2.61,0.16-5.18,2.6-6.24c3.53-1.53,7.63-2.07,11.35-2.96c9.15-2.19,18.31-4.38,27.46-6.56
		C195.81,128.72,200.95,127.5,206.09,126.27z"/>
	<path class="st16" d="M164.76,146.26c6.34-0.32,12.72,0.43,19.02-0.29c17.26-1.97,33.18-14.78,50.25-11.55
		c4.37,0.83,8.47,2.69,12.77,3.84c5.49,1.47,11.22,1.78,16.76,3.02c10.59,2.39,20.35,8.32,27.34,16.63
		c-12.33-1.26-22.31-12.01-34.69-12.56c9.98,3.59,19.2,9.26,26.9,16.55c-11.57-4.08-23.34-8.19-35.59-8.8
		c7.1,2.92,14.2,5.83,21.31,8.75c1.88,0.77,4.15,2.53,3.17,4.31c-5.47-2.77-11.04-5.58-17.09-6.55c-4.51-0.73-9.12-0.4-13.66,0.05
		c-14.21,1.41-28.3,4.06-42.05,7.91c-1,0.28-2.12,0.56-3.05,0.08c-1.45-0.75-1.45-2.99-0.42-4.25s2.7-1.79,4.27-2.25
		c13.55-4.02,27.09-8.03,40.64-12.05c-12.76,2.31-25.53,4.63-38.29,6.94c-3.68,0.67-7.59,1.45-10.26,4.07
		c-2.67,2.62-3.2,7.72-0.08,9.77c-1.34,1.56-3.62,1.85-5.67,2.02c-15.27,1.26-30.8,2.22-45.22,7.39c8.07-4.46,16.14-8.92,24.2-13.37
		c-7.33,2.85-15.04,4.73-22.86,5.58c-0.28,0.03,0.99-7.96,1.19-8.66c0.74-2.71,1.93-5.18,3.09-7.72c0.64-1.39,1.19-2.85,2.32-3.92
		c1.63-1.55,3.98-2.52,6.07-3.23C158.23,146.91,161.51,146.43,164.76,146.26z"/>
	<g class="st24">
		<g>
			<g>
				<path class="st7" d="M198.28,181.45c0.01,0.07,0.01,0.13,0.02,0.2c0.31-0.08,0.62-0.17,0.93-0.25c-0.92-1.67-0.6-3.95,0.28-5.56
					c0.31-0.57-0.56-1.07-0.86-0.5c-1.05,1.94-1.37,4.58-0.28,6.57c0.23,0.42,0.97,0.25,0.93-0.25c-0.01-0.07-0.01-0.13-0.02-0.2
					C199.24,180.81,198.24,180.81,198.28,181.45L198.28,181.45z"/>
			</g>
		</g>
		<g>
			<g>
				<path class="st7" d="M201.05,180.57c0-2.17,0.64-4.24,1.16-6.32c0.16-0.62-0.81-0.89-0.96-0.27c-0.54,2.17-1.19,4.33-1.19,6.59
					C200.04,181.22,201.04,181.22,201.05,180.57L201.05,180.57z"/>
			</g>
		</g>
		<g>
			<g>
				<path class="st7" d="M203.98,179.69c0.05-2.32,1.32-4.34,2.57-6.21c0.36-0.54-0.51-1.04-0.86-0.5c-1.35,2.02-2.66,4.2-2.71,6.71
					C202.97,180.33,203.97,180.33,203.98,179.69L203.98,179.69z"/>
			</g>
		</g>
		<g>
			<g>
				<path class="st7" d="M207.5,179.1c-0.03-1.27,1.07-2.37,1.92-3.2c1.07-1.03,2.25-1.96,3.44-2.85c2.68-1.98,5.55-3.69,8.48-5.27
					c0.57-0.31,0.06-1.17-0.5-0.86c-3.2,1.72-6.32,3.6-9.2,5.82c-1.18,0.91-2.38,1.86-3.41,2.95c-0.87,0.92-1.76,2.08-1.73,3.41
					C206.52,179.75,207.52,179.75,207.5,179.1L207.5,179.1z"/>
			</g>
		</g>
		<g>
			<g>
				<path class="st7" d="M212.93,177.7c3.6-3.74,8.11-6.36,12.52-9.02c0.55-0.33,0.05-1.2-0.5-0.86c-4.48,2.71-9.06,5.38-12.72,9.18
					C211.78,177.45,212.49,178.16,212.93,177.7L212.93,177.7z"/>
			</g>
		</g>
		<g>
			<g>
				<path class="st7" d="M218.7,174.84c1.5-1.08,3.13-1.96,4.87-2.59c0.25-0.09,0.42-0.34,0.35-0.62c-0.07-0.24-0.36-0.44-0.62-0.35
					c-1.82,0.66-3.54,1.56-5.11,2.69c-0.22,0.16-0.32,0.44-0.18,0.68C218.15,174.88,218.48,175,218.7,174.84L218.7,174.84z"/>
			</g>
		</g>
		<g>
			<g>
				<path class="st7" d="M220.27,175.05c2.82-2.25,6-3.87,9.47-4.86c0.62-0.18,0.35-1.14-0.27-0.96c-3.64,1.04-6.95,2.76-9.91,5.12
					C219.06,174.75,219.77,175.45,220.27,175.05L220.27,175.05z"/>
			</g>
		</g>
		<g>
			<g>
				<path class="st7" d="M222.33,176.23c3.29-2.63,7.14-4.46,10.99-6.1c4.09-1.75,8.2-3.67,12.57-4.63c0.63-0.14,0.36-1.1-0.27-0.96
					c-4.45,0.98-8.64,2.95-12.81,4.73c-3.94,1.68-7.83,3.57-11.19,6.26C221.12,175.92,221.83,176.63,222.33,176.23L222.33,176.23z"
					/>
			</g>
		</g>
		<g>
			<g>
				<path class="st7" d="M231.07,174.03c0.64,0,0.64-1,0-1C230.43,173.03,230.43,174.03,231.07,174.03L231.07,174.03z"/>
			</g>
		</g>
		<g>
			<g>
				<path class="st7" d="M239.29,170.8c0.64,0,0.64-1,0-1C238.65,169.8,238.65,170.8,239.29,170.8L239.29,170.8z"/>
			</g>
		</g>
		<g>
			<g>
				<path class="st7" d="M241.89,171.02c1.82-0.84,3.63-1.75,5.53-2.4c1.88-0.64,3.84-1.01,5.8-1.37c0.63-0.12,0.36-1.08-0.27-0.96
					c-2.02,0.37-4.06,0.75-6,1.44c-1.91,0.67-3.73,1.58-5.57,2.43C240.8,170.43,241.31,171.29,241.89,171.02L241.89,171.02z"/>
			</g>
		</g>
		<g>
			<g>
				<path class="st7" d="M242.95,171.95c2.82-0.92,5.63-1.9,8.53-2.58c3.04-0.71,6.13-0.97,9.25-0.93c0.64,0.01,0.64-0.99,0-1
					c-3.12-0.04-6.24,0.22-9.28,0.91c-2.97,0.68-5.86,1.69-8.76,2.63C242.07,171.19,242.33,172.15,242.95,171.95L242.95,171.95z"/>
			</g>
		</g>
		<g>
			<g>
				<path class="st7" d="M231.37,174.03c0.63,0.01,1.06-0.4,1.55-0.74c0.58-0.41,1.16-0.82,1.75-1.2c1.24-0.81,2.55-1.51,3.84-2.22
					c2.65-1.46,5.33-2.87,8.09-4.12c0.59-0.27,0.08-1.13-0.5-0.86c-2.61,1.18-5.15,2.51-7.67,3.89c-1.21,0.66-2.43,1.31-3.6,2.03
					c-0.57,0.35-1.13,0.72-1.68,1.11c-0.28,0.19-0.55,0.39-0.82,0.58c-0.27,0.19-0.6,0.55-0.95,0.54
					C230.72,173.02,230.72,174.02,231.37,174.03L231.37,174.03z"/>
			</g>
		</g>
		<g>
			<g>
				<path class="st7" d="M236.61,173.37c2.4-1.45,4.93-2.68,7.51-3.77c0.25-0.11,0.42-0.33,0.35-0.62
					c-0.06-0.24-0.37-0.45-0.62-0.35c-2.67,1.12-5.28,2.37-7.75,3.87C235.55,172.84,236.06,173.71,236.61,173.37L236.61,173.37z"/>
			</g>
		</g>
		<g>
			<g>
				<path class="st7" d="M248.35,173.08c4.04-1.71,8.24-3.07,12.66-3.16c0.64-0.01,0.64-1.01,0-1c-4.61,0.09-8.96,1.51-13.17,3.3
					C247.25,172.46,247.76,173.33,248.35,173.08L248.35,173.08z"/>
			</g>
		</g>
		<g>
			<g>
				<path class="st7" d="M253.67,173.15c4.79-0.41,9.57-1.06,14.38-1.17c0.64-0.01,0.64-1.01,0-1c-4.81,0.11-9.59,0.76-14.38,1.17
					C253.04,172.2,253.03,173.2,253.67,173.15L253.67,173.15z"/>
			</g>
		</g>
		<g>
			<g>
				<path class="st7" d="M259.84,174.61c4.7-0.02,9.41,0.04,14.09,0.59c0.64,0.07,0.63-0.93,0-1c-4.68-0.55-9.39-0.6-14.09-0.59
					C259.2,173.62,259.19,174.62,259.84,174.61L259.84,174.61z"/>
			</g>
		</g>
		<g>
			<g>
				<path class="st7" d="M267.18,176.38c4.49-0.33,9-0.48,13.5-0.29c0.64,0.03,0.64-0.97,0-1c-4.5-0.18-9.01-0.03-13.5,0.29
					C266.54,175.42,266.53,176.42,267.18,176.38L267.18,176.38z"/>
			</g>
		</g>
		<g>
			<g>
				<path class="st7" d="M272.46,177.55c4.83-0.56,9.75-0.56,14.54,0.28c0.63,0.11,0.9-0.85,0.27-0.96
					c-4.89-0.85-9.89-0.89-14.81-0.31C271.83,176.62,271.82,177.62,272.46,177.55L272.46,177.55z"/>
			</g>
		</g>
		<g>
			<g>
				<path class="st7" d="M277.45,180.78c3.9-0.39,7.82-0.45,11.74-0.29c0.64,0.03,0.64-0.97,0-1c-3.92-0.16-7.84-0.09-11.74,0.29
					C276.82,179.84,276.81,180.84,277.45,180.78L277.45,180.78z"/>
			</g>
		</g>
		<g>
			<g>
				<path class="st7" d="M293.3,182.25c0.78,0,1.57,0,2.35,0c0.26,0,0.51-0.23,0.5-0.5c-0.01-0.27-0.22-0.5-0.5-0.5
					c-0.78,0-1.57,0-2.35,0c-0.26,0-0.51,0.23-0.5,0.5C292.81,182.02,293.02,182.25,293.3,182.25L293.3,182.25z"/>
			</g>
		</g>
		<g>
			<g>
				<path class="st7" d="M155.4,190.79c-0.69-0.7-1.39-1.39-2.19-1.95c-0.89-0.63-1.87-1-2.91-1.28c-2.37-0.65-4.84-0.93-7.29-1.02
					c-0.64-0.02-0.64,0.98,0,1c2.29,0.08,4.58,0.35,6.81,0.93c0.98,0.26,1.9,0.57,2.74,1.14c0.79,0.53,1.47,1.22,2.13,1.9
					C155.15,191.95,155.85,191.24,155.4,190.79L155.4,190.79z"/>
			</g>
		</g>
		<g>
			<g>
				<path class="st7" d="M152.66,191.88c-3.48-1.6-7.33-1.87-11.11-1.83c-0.64,0.01-0.64,1.01,0,1c3.59-0.04,7.3,0.17,10.61,1.69
					C152.73,193.01,153.24,192.15,152.66,191.88L152.66,191.88z"/>
			</g>
		</g>
		<g>
			<g>
				<path class="st7" d="M143.6,190.64c-1.53-0.07-3.06-0.2-4.6-0.17c-1.51,0.03-3,0.34-4.5,0.46c-0.64,0.05-0.64,1.05,0,1
					c1.51-0.12,2.99-0.43,4.5-0.46c1.53-0.03,3.07,0.1,4.6,0.17C144.24,191.67,144.24,190.67,143.6,190.64L143.6,190.64z"/>
			</g>
		</g>
		<g>
			<g>
				<path class="st7" d="M139.78,191.81c-1.81,0-3.63-0.06-5.42,0.31c-0.63,0.13-0.36,1.1,0.27,0.96c1.69-0.36,3.43-0.28,5.15-0.28
					C140.43,192.81,140.43,191.81,139.78,191.81L139.78,191.81z"/>
			</g>
		</g>
		<g>
			<g>
				<path class="st7" d="M134.96,192.71c-0.31,0.13-0.63,0.21-0.96,0.26c0.04-0.01,0.09-0.01,0.13-0.02
					c-0.17,0.02-0.34,0.03-0.51,0.04c-0.26,0-0.51,0.23-0.5,0.5c0.01,0.27,0.22,0.5,0.5,0.5c0.55,0,1.09-0.11,1.6-0.31
					c0.13-0.05,0.23-0.11,0.3-0.23c0.06-0.11,0.09-0.27,0.05-0.39c-0.04-0.12-0.11-0.24-0.23-0.3
					C135.23,192.7,135.08,192.66,134.96,192.71L134.96,192.71z"/>
			</g>
		</g>
		<g>
			<g>
				<path class="st7" d="M175.6,196.04c0.61-0.01,1-0.46,1.35-0.91c0.47-0.61,1.02-1.14,1.56-1.69c0.61-0.62,1.18-1.28,2.02-1.58
					c0.7-0.25,1.44-0.33,2.17-0.42c1.83-0.22,3.65-0.55,5.5-0.65c0.96-0.05,1.93-0.03,2.89,0.01c0.51,0.02,1.02,0.06,1.53,0.03
					c0.5-0.02,0.98-0.1,1.48-0.07c0.64,0.04,0.64-0.96,0-1c-0.46-0.03-0.9,0.04-1.36,0.07c-0.51,0.03-1.02,0-1.52-0.02
					c-0.96-0.03-1.93-0.06-2.89-0.02c-1.89,0.09-3.74,0.43-5.62,0.66c-1.36,0.17-2.78,0.33-3.85,1.26c-0.68,0.6-1.29,1.28-1.92,1.93
					c-0.24,0.25-0.46,0.49-0.67,0.76c-0.13,0.17-0.41,0.64-0.66,0.65C174.95,195.06,174.95,196.06,175.6,196.04L175.6,196.04z"/>
			</g>
		</g>
		<g>
			<g>
				<path class="st7" d="M180.19,196.85c0.07-0.25,0.55-0.46,0.75-0.58c0.32-0.19,0.62-0.38,0.93-0.58c0.81-0.51,1.67-0.99,2.6-1.26
					c0.98-0.28,2.05-0.32,3.06-0.38c1.11-0.06,2.23-0.07,3.34-0.07c0.64,0,0.64-1,0-1c-1.25,0-2.5,0.01-3.75,0.1
					c-1.15,0.08-2.35,0.15-3.44,0.57c-1,0.38-1.89,0.94-2.79,1.5c-0.58,0.36-1.47,0.7-1.66,1.44
					C179.06,197.21,180.02,197.47,180.19,196.85L180.19,196.85z"/>
			</g>
		</g>
		<g>
			<g>
				<path class="st7" d="M181.36,199.78c0.01-0.08,0.03-0.16,0.04-0.24c-0.12,0.12-0.23,0.23-0.35,0.35c0.58-0.1,1.1-0.34,1.63-0.56
					c0.59-0.25,1.18-0.39,1.82-0.47c1.28-0.16,2.59-0.16,3.84-0.5c0.62-0.16,0.36-1.13-0.27-0.96c-1.26,0.33-2.56,0.32-3.85,0.49
					c-0.61,0.08-1.19,0.21-1.76,0.45c-0.55,0.23-1.09,0.48-1.69,0.58c-0.16,0.03-0.32,0.2-0.35,0.35c-0.01,0.08-0.03,0.16-0.04,0.24
					C180.28,200.15,181.24,200.42,181.36,199.78L181.36,199.78z"/>
			</g>
		</g>
		<g>
			<g>
				<path class="st7" d="M180.42,203.95c0.85-0.19,1.51-0.8,2.31-1.13c0.85-0.34,1.76-0.48,2.65-0.68c0.85-0.19,1.7-0.4,2.57-0.46
					c0.96-0.06,1.89,0.12,2.84,0.25c0.95,0.13,1.91,0.24,2.84,0.48c0.89,0.23,1.73,0.6,2.58,0.95c1.7,0.69,3.39,1.29,5.21,1.5
					c0.64,0.07,0.63-0.93,0-1c-1.88-0.21-3.62-0.92-5.36-1.63c-0.93-0.38-1.85-0.73-2.84-0.93c-0.93-0.18-1.87-0.28-2.81-0.41
					c-0.9-0.13-1.76-0.26-2.68-0.18c-0.85,0.08-1.69,0.27-2.52,0.46c-0.88,0.2-1.78,0.34-2.62,0.65c-0.84,0.31-1.58,0.99-2.44,1.18
					C179.53,203.12,179.8,204.09,180.42,203.95L180.42,203.95z"/>
			</g>
		</g>
	</g>
	<path class="st25" d="M62.97,496.36c19.29-20.62,44.66-34.33,69.55-47.68c16.24-8.71,32.48-17.42,48.72-26.12
		c7.12-3.82,14.6-7.73,22.68-7.83c10.51-0.12,19.84,6.15,29.02,11.26c10.46,5.82,21.63,10.38,33.18,13.54
		c6,1.64,12.27,2.92,18.4,1.92c6.24-1.02,11.85-4.31,17.23-7.63c53.8-33.26,101.37-76.57,139.53-127.02
		c1.91-2.52,4.06-5.25,7.15-5.92c3.07-0.67,6.13,0.87,9.16,1.68c6.28,1.67,12.99,0.18,19.41,1.22c21.11,3.41,28.42,29.76,43.9,44.51
		c10.67,10.17,25.4,14.69,39.69,18.31c38.19,9.68,78.07,15.55,112.73,34.28c8.56,4.63,16.98,10.26,22.17,18.49
		c4.7,7.46,6.35,16.39,7.74,25.1c5.42,33.84,8.46,68.06,9.09,102.33c0.11,5.73,0.08,11.73-2.6,16.79
		c-4.52,8.51-14.91,11.69-24.28,13.91c-58.89,13.92-119.45,20.8-179.96,20.45c-59.95-0.35-119.78-7.76-179.71-6.02
		c-50.78,1.47-101.17,9.49-151.93,11.47c-20.59,0.8-41.47,0.58-61.45-4.46c-11.92-3.01-23.32-7.66-34.85-11.86
		c-5.85-2.13-11.74-4.16-17.74-5.79c-4.87-1.33-10.08-1.87-14.79-3.73c-7.42-2.93-8.92-9.66-9.11-17
		c-0.29-11.14,2.16-22.24,6.41-32.5c4.31-10.42,10.46-20.07,17.84-28.58C61.08,498.43,62.02,497.38,62.97,496.36z"/>
	<path class="st26" d="M188.17,465.62c-0.49,3.52-0.6,7.19-2.17,10.38c-1.97,4-5.92,6.6-9.85,8.71
		c-12.58,6.76-27.28,10.9-36.51,21.79c-6.05,7.14-8.98,16.34-11.54,25.34c-5.2,18.25-9.51,36.76-12.89,55.44
		c-0.25,1.36-0.48,2.81,0.09,4.07c0.89,1.97,3.31,2.64,5.43,3.08c14.75,3.05,29.5,6.1,44.25,9.16c1.7,0.35,3.52,0.69,5.1-0.02
		c1.37-0.62,2.29-1.91,3.1-3.18c10.43-16.33,12.39-36.45,18-55c5.83-19.31,15.73-37.11,23.12-55.87
		c6.18-15.68,10.71-32.66,9.13-49.65c-0.28-2.99-0.27-9.7-2.73-11.78c-1.97-1.67-6.34,1.84-8.25,2.88
		c-6.05,3.28-11.33,7.93-15.44,13.45C192.38,450.62,189.23,457.94,188.17,465.62z"/>
	<path class="st27" d="M478.31,326.25c-15.74,20.49-38.94,34.39-54.11,55.3c-7.33,10.11-12.56,21.56-18.14,32.73
		c-15.69,31.39-34.49,61.11-53.26,90.76c-16.52,26.09-33.03,52.18-49.55,78.27c19.22,4.45,38.44,8.89,57.66,13.34
		c2.89,0.67,6.18,1.27,8.61-0.43c1.2-0.84,2-2.14,2.76-3.39c16.27-26.85,32.54-53.69,48.8-80.54c10.73-17.7,21.53-35.56,28.4-55.09
		c-2.6-2.36-5.21-4.72-7.81-7.08c14.04-7.28,28.09-14.55,42.13-21.83c2.03-1.05,4.13-2.16,5.5-3.98c1.33-1.77,1.84-4.01,2.29-6.17
		c3.22-15.71,5.47-32.78,16.38-44.53c4.39-4.72,10.3-8.85,11.43-15.2c0.62-3.5-0.38-7.08-1.65-10.41c-3.39-8.94-8.65-17-14.23-24.7
		c-3.17-4.38-11.3-18.75-16.96-10.23C483.67,317.4,481.52,322.07,478.31,326.25z"/>
	<path class="st28" d="M308.68,678.96c0,0.26,0,0.52,0,0.78"/>
	<path class="st29" d="M466.79,324.91c0.57,1.2,1.14,2.5,0.96,3.82c-0.23,1.72-1.63,3.01-2.93,4.16
		c-24.33,21.44-44.45,47.63-58.9,76.66c-6.64,13.34-12.11,27.3-19.79,40.07c-7.21,11.98-16.27,22.73-24.82,33.8
		c-26.19,33.89-47.93,71.23-64.46,110.74c-0.61,1.47-1.26,2.99-2.43,4.06c-1.2,1.09-2.81,1.59-4.36,2.05
		c-34.63,10.16-70.8,15.06-106.89,14.49c-1.87-0.03-4.08-0.26-5.02-1.89c-0.65-1.13-0.42-2.53-0.17-3.81
		c5.1-26.23,11.08-52.37,20.23-77.47c11.97-32.8,29.51-64.48,31.78-99.32c11.86,3.11,23.8,5.9,35.81,8.36
		c4.31,0.88,8.71,1.73,13.1,1.3c5.91-0.58,11.33-3.43,16.52-6.31c13.2-7.32,26.09-15.21,38.62-23.63
		c12.67-8.52,24.97-17.58,36.86-27.15c11.85-9.54,23.29-19.58,34.28-30.09c11.03-10.55,21.61-21.57,31.69-33.03
		c5.02-5.71,9.66-11.76,14.7-17.45c2.85-3.22,4.77,1.82,6.21,4.14c2.22,3.56,4.31,7.21,6.25,10.94
		C464.99,321.19,465.91,323.04,466.79,324.91z"/>
	<path class="st30" d="M224.59,498.95c-0.12,4.91,0.27,10.25,3.48,13.96c-0.53-0.61,2.01-6.56,2.31-7.47
		c0.87-2.58,1.82-5.13,2.85-7.66c2.05-5.02,4.44-9.92,7.25-14.56c9.85-16.28,25.27-29.64,44.73-32.2c1.85-0.24,3.77-0.38,5.56,0.16
		c1.9,0.57,3.49,1.84,5.01,3.1c17.64,14.57,33.38,31.43,46.72,50.01c9-21.87,27.65-38,42.16-56.68
		c10.15-13.07,18.36-27.52,27.6-41.24c16.13-23.93,35.45-45.68,50.31-70.42c1.01-1.68,2.02-3.44,2.22-5.39
		c0.26-2.48-0.83-4.88-1.89-7.14c-1.97-4.21-3.94-8.42-5.92-12.62c-1-2.13-2.35-4.53-4.68-4.87c-2.23-0.32-4.16,1.44-5.71,3.06
		c-21.49,22.37-42.58,45.28-66.52,65c-15.52,12.79-32.17,24.17-47.6,37.07c-11.9,9.94-23.06,20.77-33.36,32.36
		c-2.96,3.34-6.05,6.87-10.24,8.39c-6.46,2.34-13.49-0.7-19.79-3.46c-6.53-2.86-13.17-5.46-19.89-7.81
		c-3.39-1.18-6.81-2.3-10.25-3.35c-2.19-0.67-5.7-2.54-7.82-0.88c-1.8,1.41-1.78,4.39-1.72,6.43c0.1,3.52,0.21,7,0.04,10.51
		c-0.35,7.15-1.36,14.25-2.36,21.33C225.94,482.67,224.79,490.78,224.59,498.95z"/>
	<path class="st31" d="M257.7,490.53c2.21-5.61,4.43-11.95,2.02-17.47c-0.96-2.2-2.6-4.79-1.19-6.73c0.55-0.75,1.43-1.16,2.28-1.53
		c5.08-2.26,10.17-4.52,15.25-6.79c2.6-1.16,5.39-2.34,8.2-1.92c2.24,0.34,4.19,1.66,6.02,2.99c6.05,4.39,11.73,9.28,16.96,14.62
		c0.88,0.89,1.79,1.89,1.92,3.14c0.16,1.51-0.88,2.86-1.79,4.07c-7.85,10.38-10.94,23.47-14.52,35.98
		c-7.77,27.14-18.75,53.37-32.63,77.96c-1.28,2.26-2.66,4.6-4.87,5.98c-2.17,1.36-4.83,1.61-7.39,1.76
		c-5.07,0.32-10.14,0.43-15.22,0.35c-4.45-0.07-9.59,0.28-13.91-0.94c-4.39-1.23-3.56-4.06-2.18-7.57
		c1.89-4.79,3.79-9.59,5.68-14.38c7.57-19.17,15.15-38.35,22.72-57.52C249.28,511.86,253.49,501.2,257.7,490.53z"/>
	<path class="st28" d="M350.56,629.32c0-0.26,0-0.52,0-0.78"/>
	<path class="st32" d="M257,470.67c1.84-4.03,5.95-6.56,10.11-8.11c4.16-1.55,8.58-2.38,12.58-4.28c2.18-1.04,4.43-2.44,6.82-2.09
		c2.05,0.3,3.68,1.81,5.17,3.24c5.99,5.79,11.98,11.58,17.97,17.37c0.53,0.51,1.09,1.07,1.22,1.8c0.16,0.9-0.38,1.77-0.9,2.52
		c-4.47,6.54-8.94,13.08-13.42,19.63c-0.59,0.87-1.26,1.79-2.26,2.12c-0.83,0.27-1.73,0.08-2.59-0.12
		c-9.45-2.17-19.16-3.88-28.47-6.55c-6.01-1.73-6.47-6.32-6.91-11.83C255.95,479.86,255.04,474.94,257,470.67z"/>
	<path class="st28" d="M383.91,643.29c0.26,1.03,0.52,2.07,0.78,3.1"/>
	<path class="st33" d="M632.37,498.56c-15.11,26.83-24.51,56.43-33.8,85.78c-2.36,7.46-4.72,15.59-1.98,22.92
		c14.48-8.52,29.83-15.55,45.75-20.93c19.98-6.76,41.15-11.06,59.07-22.19c2.18-1.35,4.38-2.89,5.57-5.16
		c1.42-2.73,1.13-5.99,0.81-9.05c-3.16-29.57-6.32-59.13-9.49-88.7c-0.66-6.18-0.15-14.36-2.95-20.04
		c-2.89-5.88-7.94-1.93-11.89,0.61c-10.09,6.49-19.18,14.47-27.24,23.34C647,475.29,639.1,486.62,632.37,498.56z"/>
	<path class="st34" d="M622.88,488.88c-14.95,25.26-25.41,52.86-36.29,80.11c-1.02,2.55-2.12,5.21-4.26,6.94
		c-1.68,1.36-3.82,1.99-5.9,2.59c-35.44,10.2-71.07,20.44-107.7,24.72c-21.72,2.54-45.64,2.38-63.01-10.92
		c-1.81-1.39-3.63-3.06-4.15-5.28c-0.54-2.29,0.39-4.64,1.33-6.79c10.38-23.78,24.41-45.97,41.46-65.54
		c16.4-18.83,36.61-37.36,39.4-62.17c-8.08,2.15-16.15,4.3-24.23,6.45c1.47-6.07,8.41-8.66,13.99-11.47
		c12.07-6.08,21.04-17.17,27.02-29.29c5.98-12.12,9.28-25.36,12.53-38.48c25.39,4.58,51.64,4.33,76.95-0.72
		c-6.66,9.27-19.17,11.61-30.34,13.99c-14.94,3.19-29.58,7.74-43.7,13.58c-2.67,1.11-5.76,4.36-3.55,6.24
		c21.32-3.43,42.21-9.51,62.04-18.07c6.42-2.77,12.93-5.85,19.92-6.12c5.17-0.2,10.26,1.17,15.23,2.61
		c15.99,4.64,31.71,10.21,47.07,16.66c7.14,3,14.33,6.3,20.36,11.25c1.97,1.62,7.59,5.55,5.1,8.01c-2.58,2.55-6.99,4.23-10.02,6.33
		c-13.07,9.08-24.39,20.49-34.12,33.04C632.48,473.64,627.46,481.13,622.88,488.88z"/>
	<path class="st35" d="M96.65,478.65c-8.2,25.12-16.4,50.24-24.6,75.36c-1.56,4.77-2.77,10.86,1.07,14.08
		c9.92-20.32,15.19-42.57,23.83-63.46s21.66-41.31,41.79-51.61c-19.68,39.97-39.74,81.42-41.61,125.92
		c5.54-10.98,8.09-23.17,11.58-34.95c13.06-44.03,40.29-83.73,76.67-111.76c-4.2,21.57-22.28,37.14-35.73,54.52
		c-22.75,29.41-33.24,66.49-39.17,103.2c-0.63,3.87-1.81,8.49-5.56,9.65c-2.42,0.75-4.99-0.33-7.3-1.38
		c-12.87-5.86-25.74-11.73-38.61-17.59c-5.41-2.47-12.41-4.48-16.35-9.2c-2.98-3.58-5.61-8.34-5.69-13.1
		c-0.15-8.63,7.71-16.06,12.16-22.74c6.62-9.94,11.7-20.55,19.19-29.96c4.07-5.11,8.49-9.95,13.22-14.47
		c2.41-2.3,4.9-4.52,7.47-6.64c1.28-1.06,2.59-2.1,3.91-3.12C93.71,480.81,96.38,479.49,96.65,478.65z"/>
	<path class="st36" d="M393.41,275.71c-2.96-5.42-3-11.76-3.04-17.77c-0.03-5.21,0.26-11.26-1.93-16.13
		c-2.36-5.25-8.09,5.32-9.24,7.56c-4.66,9.14-6.37,19.54-11.61,28.42c-8.36,14.16-24.41,21.82-35.21,34.22
		c-7.05,8.1-11.69,18.02-18.34,26.46c-8.2,10.41-19.17,18.21-29.06,27.04c-18.47,16.49-34.24,37.4-57.24,46.56
		c12.51,12.6,29.78,20.36,47.5,21.36c17.73,1,35.76-4.76,49.61-15.86c4.67-3.74,8.87-8.05,13.58-11.76
		c9.02-7.1,19.74-11.83,28.66-19.06c23.72-19.22,30.62-51.93,36-81.98c0.9-5,1.77-10.3-0.01-15.06
		C401.09,284.39,396.14,280.71,393.41,275.71z M323.86,357.71c-2.64,3.56-5.27,7.12-7.91,10.68c-4.79,6.47-9.67,13.03-16.02,17.99
		c-3.8,2.96-8.04,5.29-12.27,7.6c-7.29,3.98-14.57,7.97-21.86,11.95c3.77-4.48,8.53-8.13,13.83-10.61
		c3.71-1.73,7.68-2.91,11.23-4.94c5.03-2.88,8.96-7.31,12.75-11.69c12.38-14.29,24.37-28.91,35.99-43.82
		c1.61-2.07,3.22-4.15,4.82-6.23c1.32-1.72,2.56-3.9,4.16-5.35c-0.4,2.23-2.51,4.41-3.81,6.16c-2.31,3.13-4.63,6.25-6.94,9.38
		C333.18,345.13,328.52,351.42,323.86,357.71z M354.02,355.49c-2.18,4.72-4.37,9.43-6.55,14.15c-4.33,9.35-10.01,19.82-20.1,21.88
		c19.35-16.73,22.56-45.42,36.88-66.61c4.36-6.46,9.34-12.31,12.86-19.32C369.53,322.28,361.72,338.86,354.02,355.49z"/>
</g>
</svg>
