<?xml version="1.0" encoding="utf-8"?>
<!-- Generator: Adobe Illustrator 25.2.0, SVG Export Plug-In . SVG Version: 6.00 Build 0)  -->
<svg version="1.1" id="Layer_1" xmlns="http://www.w3.org/2000/svg" xmlns:xlink="http://www.w3.org/1999/xlink" x="0px" y="0px"
	 viewBox="0 0 933 638" style="enable-background:new 0 0 933 638;" xml:space="preserve">
<style type="text/css">
	.st0{fill:none;stroke:#EBCEC7;stroke-miterlimit:10;}
	.st1{fill:none;stroke:#000000;stroke-miterlimit:10;}
	.st2{fill:#EBCEC7;}
	.st3{fill:#5773EF;}
	.st4{fill:#DAF4FB;}
</style>
<g>
	<line class="st0" x1="130.3" y1="525.22" x2="791.82" y2="525.22"/>
	<g>
		<g>
			<line class="st0" x1="130.3" y1="525.22" x2="130.3" y2="515.81"/>
			<line class="st1" x1="177.55" y1="525.22" x2="177.55" y2="515.81"/>
			<line class="st1" x1="224.8" y1="525.22" x2="224.8" y2="515.81"/>
			<line class="st1" x1="272.05" y1="525.22" x2="272.05" y2="515.81"/>
			<line class="st1" x1="319.3" y1="525.22" x2="319.3" y2="515.81"/>
			<line class="st0" x1="366.55" y1="525.22" x2="366.55" y2="515.81"/>
			<line class="st1" x1="413.81" y1="525.22" x2="413.81" y2="515.81"/>
			<line class="st1" x1="461.06" y1="525.22" x2="461.06" y2="515.81"/>
			<line class="st1" x1="508.31" y1="525.22" x2="508.31" y2="515.81"/>
			<line class="st1" x1="555.56" y1="525.22" x2="555.56" y2="515.81"/>
			<line class="st1" x1="602.81" y1="525.22" x2="602.81" y2="515.81"/>
			<line class="st1" x1="650.06" y1="525.22" x2="650.06" y2="515.81"/>
			<line class="st1" x1="697.32" y1="525.22" x2="697.32" y2="515.81"/>
			<line class="st1" x1="744.57" y1="525.22" x2="744.57" y2="515.81"/>
			<line class="st0" x1="791.82" y1="525.22" x2="791.82" y2="515.81"/>
		</g>
	</g>
</g>
<g>
	<g>
		<g>
			<path class="st2" d="M111.85,523.83c0-2.94,1.52-4.77,3.68-4.77c2.16,0,3.68,1.83,3.68,4.77s-1.52,4.77-3.68,4.77
				C113.37,528.6,111.85,526.77,111.85,523.83z M118.54,523.83c0-2.62-1.22-4.14-3-4.14s-3,1.52-3,4.14s1.22,4.14,3,4.14
				S118.54,526.45,118.54,523.83z"/>
		</g>
		<g>
			<path class="st2" d="M110.57,478.76c0,1.57-1.09,2.78-3.29,2.78c-1.37,0-2.65-0.51-3.31-1.26l0.35-0.52
				c0.56,0.66,1.68,1.16,2.94,1.16c1.73,0,2.62-0.87,2.62-2.12c0-1.34-0.82-2.16-3.37-2.16h-1.91l0.5-4.56h4.99v0.62h-4.41
				l-0.36,3.32h1.34C109.52,476,110.57,477.09,110.57,478.76z"/>
			<path class="st2" d="M111.85,476.77c0-2.94,1.52-4.77,3.68-4.77c2.16,0,3.68,1.83,3.68,4.77s-1.52,4.77-3.68,4.77
				C113.37,481.54,111.85,479.72,111.85,476.77z M118.54,476.77c0-2.62-1.22-4.14-3-4.14s-3,1.52-3,4.14s1.22,4.14,3,4.14
				S118.54,479.39,118.54,476.77z"/>
		</g>
		<g>
			<path class="st2" d="M100.63,425.01v9.41h-0.69v-8.79h-2.3v-0.62H100.63z"/>
			<path class="st2" d="M103.01,429.71c0-2.94,1.52-4.77,3.68-4.77c2.16,0,3.68,1.83,3.68,4.77c0,2.94-1.52,4.77-3.68,4.77
				C104.53,434.49,103.01,432.66,103.01,429.71z M109.69,429.71c0-2.62-1.22-4.14-3-4.14s-3,1.52-3,4.14c0,2.62,1.22,4.14,3,4.14
				S109.69,432.34,109.69,429.71z"/>
			<path class="st2" d="M111.85,429.71c0-2.94,1.52-4.77,3.68-4.77c2.16,0,3.68,1.83,3.68,4.77c0,2.94-1.52,4.77-3.68,4.77
				C113.37,434.49,111.85,432.66,111.85,429.71z M118.54,429.71c0-2.62-1.22-4.14-3-4.14s-3,1.52-3,4.14c0,2.62,1.22,4.14,3,4.14
				S118.54,432.34,118.54,429.71z"/>
		</g>
		<g>
			<path class="st2" d="M101.98,377.95v9.41h-0.69v-8.79h-2.3v-0.62H101.98z"/>
			<path class="st2" d="M110.57,384.65c0,1.57-1.09,2.78-3.29,2.78c-1.37,0-2.65-0.51-3.31-1.26l0.35-0.52
				c0.56,0.66,1.68,1.16,2.94,1.16c1.73,0,2.62-0.87,2.62-2.12c0-1.34-0.82-2.16-3.37-2.16h-1.91l0.5-4.56h4.99v0.62h-4.41
				l-0.36,3.32h1.34C109.52,381.89,110.57,382.98,110.57,384.65z"/>
			<path class="st2" d="M111.85,382.66c0-2.94,1.52-4.77,3.68-4.77c2.16,0,3.68,1.83,3.68,4.77c0,2.94-1.52,4.77-3.68,4.77
				C113.37,387.43,111.85,385.6,111.85,382.66z M118.54,382.66c0-2.62-1.22-4.14-3-4.14s-3,1.52-3,4.14c0,2.62,1.22,4.14,3,4.14
				S118.54,385.28,118.54,382.66z"/>
		</g>
		<g>
			<path class="st2" d="M101.78,339.69v0.62h-6.47v-0.48l3.98-3.95c1.12-1.12,1.33-1.77,1.33-2.49c0-1.18-0.82-1.92-2.38-1.92
				c-1.18,0-2.06,0.35-2.7,1.09l-0.48-0.43c0.71-0.82,1.83-1.29,3.24-1.29c1.84,0,3.02,0.96,3.02,2.49c0,0.9-0.3,1.69-1.53,2.92
				l-3.47,3.46H101.78z"/>
			<path class="st2" d="M103.01,335.6c0-2.94,1.52-4.77,3.68-4.77c2.16,0,3.68,1.83,3.68,4.77c0,2.94-1.52,4.77-3.68,4.77
				C104.53,340.38,103.01,338.55,103.01,335.6z M109.69,335.6c0-2.62-1.22-4.14-3-4.14s-3,1.52-3,4.14c0,2.62,1.22,4.14,3,4.14
				S109.69,338.23,109.69,335.6z"/>
			<path class="st2" d="M111.85,335.6c0-2.94,1.52-4.77,3.68-4.77c2.16,0,3.68,1.83,3.68,4.77c0,2.94-1.52,4.77-3.68,4.77
				C113.37,340.38,111.85,338.55,111.85,335.6z M118.54,335.6c0-2.62-1.22-4.14-3-4.14s-3,1.52-3,4.14c0,2.62,1.22,4.14,3,4.14
				S118.54,338.23,118.54,335.6z"/>
		</g>
		<g>
			<path class="st2" d="M103.07,292.63v0.62H96.6v-0.48l3.98-3.95c1.12-1.12,1.33-1.77,1.33-2.49c0-1.18-0.82-1.92-2.38-1.92
				c-1.18,0-2.06,0.35-2.7,1.09l-0.48-0.43c0.71-0.82,1.83-1.29,3.24-1.29c1.84,0,3.02,0.96,3.02,2.49c0,0.9-0.3,1.69-1.53,2.92
				l-3.47,3.46H103.07z"/>
			<path class="st2" d="M110.57,290.54c0,1.57-1.09,2.78-3.29,2.78c-1.37,0-2.65-0.51-3.31-1.26l0.35-0.52
				c0.56,0.66,1.68,1.16,2.94,1.16c1.73,0,2.62-0.87,2.62-2.12c0-1.34-0.82-2.16-3.37-2.16h-1.91l0.5-4.56h4.99v0.62h-4.41
				l-0.36,3.32h1.34C109.52,287.78,110.57,288.87,110.57,290.54z"/>
			<path class="st2" d="M111.85,288.55c0-2.94,1.52-4.77,3.68-4.77c2.16,0,3.68,1.83,3.68,4.77c0,2.94-1.52,4.77-3.68,4.77
				C113.37,293.32,111.85,291.49,111.85,288.55z M118.54,288.55c0-2.62-1.22-4.14-3-4.14s-3,1.52-3,4.14c0,2.62,1.22,4.14,3,4.14
				S118.54,291.17,118.54,288.55z"/>
		</g>
		<g>
			<path class="st2" d="M101.56,243.55c0,1.56-1.13,2.72-3.29,2.72c-1.38,0-2.66-0.51-3.32-1.26l0.35-0.52
				c0.58,0.66,1.68,1.16,2.97,1.16c1.69,0,2.59-0.81,2.59-2.08c0-1.26-0.86-2.08-2.74-2.08h-0.59v-0.5l2.78-3.56H95.3v-0.62h5.9
				v0.48l-2.82,3.62C100.51,240.94,101.56,242.02,101.56,243.55z"/>
			<path class="st2" d="M103.01,241.49c0-2.94,1.52-4.77,3.68-4.77c2.16,0,3.68,1.83,3.68,4.77c0,2.94-1.52,4.77-3.68,4.77
				C104.53,246.26,103.01,244.44,103.01,241.49z M109.69,241.49c0-2.62-1.22-4.14-3-4.14s-3,1.52-3,4.14c0,2.62,1.22,4.14,3,4.14
				S109.69,244.11,109.69,241.49z"/>
			<path class="st2" d="M111.85,241.49c0-2.94,1.52-4.77,3.68-4.77c2.16,0,3.68,1.83,3.68,4.77c0,2.94-1.52,4.77-3.68,4.77
				C113.37,246.26,111.85,244.44,111.85,241.49z M118.54,241.49c0-2.62-1.22-4.14-3-4.14s-3,1.52-3,4.14c0,2.62,1.22,4.14,3,4.14
				S118.54,244.11,118.54,241.49z"/>
		</g>
		<g>
			<path class="st2" d="M103.04,196.49c0,1.56-1.13,2.72-3.29,2.72c-1.38,0-2.66-0.51-3.32-1.26l0.35-0.52
				c0.58,0.66,1.68,1.16,2.97,1.16c1.69,0,2.59-0.81,2.59-2.08c0-1.26-0.86-2.08-2.74-2.08h-0.59v-0.5l2.78-3.56h-5.01v-0.62h5.9
				v0.48l-2.82,3.62C101.99,193.89,103.04,194.96,103.04,196.49z"/>
			<path class="st2" d="M110.57,196.43c0,1.57-1.09,2.78-3.29,2.78c-1.37,0-2.65-0.51-3.31-1.26l0.35-0.52
				c0.56,0.66,1.68,1.16,2.94,1.16c1.73,0,2.62-0.87,2.62-2.12c0-1.34-0.82-2.16-3.37-2.16h-1.91l0.5-4.56h4.99v0.62h-4.41
				l-0.36,3.32h1.34C109.52,193.67,110.57,194.76,110.57,196.43z"/>
			<path class="st2" d="M111.85,194.44c0-2.94,1.52-4.77,3.68-4.77c2.16,0,3.68,1.83,3.68,4.77c0,2.94-1.52,4.77-3.68,4.77
				C113.37,199.21,111.85,197.38,111.85,194.44z M118.54,194.44c0-2.62-1.22-4.14-3-4.14s-3,1.52-3,4.14c0,2.62,1.22,4.14,3,4.14
				S118.54,197.06,118.54,194.44z"/>
		</g>
		<g>
			<path class="st2" d="M102.07,149.48h-1.98v2.61h-0.67v-2.61h-5.36v-0.5l5.11-6.3h0.77l-5.01,6.2h4.52v-2.3h0.66v2.3h1.98V149.48z
				"/>
			<path class="st2" d="M103.01,147.38c0-2.94,1.52-4.77,3.68-4.77c2.16,0,3.68,1.83,3.68,4.77c0,2.94-1.52,4.77-3.68,4.77
				C104.53,152.15,103.01,150.33,103.01,147.38z M109.69,147.38c0-2.62-1.22-4.14-3-4.14s-3,1.52-3,4.14c0,2.62,1.22,4.14,3,4.14
				S109.69,150,109.69,147.38z"/>
			<path class="st2" d="M111.85,147.38c0-2.94,1.52-4.77,3.68-4.77c2.16,0,3.68,1.83,3.68,4.77c0,2.94-1.52,4.77-3.68,4.77
				C113.37,152.15,111.85,150.33,111.85,147.38z M118.54,147.38c0-2.62-1.22-4.14-3-4.14s-3,1.52-3,4.14c0,2.62,1.22,4.14,3,4.14
				S118.54,150,118.54,147.38z"/>
		</g>
	</g>
	<line class="st0" x1="130.3" y1="525.22" x2="130.3" y2="148.78"/>
	<g>
		<g>
			<line class="st0" x1="130.3" y1="525.22" x2="146.83" y2="525.22"/>
			<line class="st0" x1="130.3" y1="478.17" x2="146.83" y2="478.17"/>
			<line class="st0" x1="130.3" y1="431.11" x2="146.83" y2="431.11"/>
			<line class="st0" x1="130.3" y1="384.06" x2="146.83" y2="384.06"/>
			<line class="st0" x1="130.3" y1="337" x2="146.83" y2="337"/>
			<line class="st0" x1="130.3" y1="289.94" x2="146.83" y2="289.94"/>
			<line class="st0" x1="130.3" y1="242.89" x2="146.83" y2="242.89"/>
			<line class="st0" x1="130.3" y1="195.83" x2="146.83" y2="195.83"/>
			<line class="st0" x1="130.3" y1="148.78" x2="146.83" y2="148.78"/>
		</g>
	</g>
</g>
<g>
	<g>
		<polygon class="st3" points="768.19,525.22 153.92,525.22 153.92,347.35 201.17,484.76 248.42,329.47 295.68,459.35 
			342.93,338.88 390.18,189.25 437.43,385.94 484.68,392.53 531.93,496.99 579.19,326.65 626.44,235.36 673.69,428.29 
			720.94,503.58 768.19,476.29 		"/>
	</g>
	<g>
		<polygon class="st4" points="768.19,525.22 153.92,525.22 153.92,511.11 201.17,506.4 248.42,480.05 295.68,511.11 342.93,487.58 
			390.18,454.64 437.43,477.23 484.68,480.99 531.93,511.11 579.19,380.29 626.44,480.05 673.69,464.05 720.94,524.28 
			768.19,511.11 		"/>
	</g>
</g>
<g>
	<g>
		<path class="st2" d="M749.03,544.95h3.72c2.98,0,5,1.96,5,4.71s-2.02,4.71-5,4.71h-3.72V544.95z M752.7,553.74
			c2.66,0,4.37-1.69,4.37-4.09s-1.71-4.09-4.37-4.09h-2.98v8.17H752.7z"/>
		<path class="st2" d="M764.98,549.91v4.45h-0.65v-1.25c-0.44,0.81-1.3,1.3-2.53,1.3c-1.57,0-2.53-0.81-2.53-2
			c0-1.06,0.67-1.96,2.62-1.96h2.41v-0.56c0-1.3-0.71-2-2.08-2c-0.97,0-1.84,0.36-2.42,0.89l-0.34-0.48c0.7-0.62,1.72-1,2.81-1
			C764.02,547.29,764.98,548.18,764.98,549.91z M764.31,552.29v-1.32h-2.39c-1.45,0-1.96,0.61-1.96,1.41c0,0.92,0.71,1.48,1.95,1.48
			C763.09,553.87,763.91,553.3,764.31,552.29z"/>
		<path class="st2" d="M773.25,547.34l-3.6,7.97c-0.56,1.29-1.26,1.71-2.19,1.71c-0.63,0-1.22-0.22-1.63-0.63l0.34-0.51
			c0.36,0.38,0.78,0.55,1.3,0.55c0.64,0,1.12-0.3,1.55-1.25l0.38-0.85l-3.16-6.99h0.71l2.81,6.28l2.81-6.28H773.25z"/>
		<path class="st2" d="M779.85,544.95v9.41h-0.69v-8.79h-2.3v-0.62H779.85z"/>
		<path class="st2" d="M790.08,551.75h-1.98v2.61h-0.67v-2.61h-5.36v-0.5l5.11-6.3h0.77l-5.01,6.2h4.52v-2.3h0.66v2.3h1.98V551.75z"
			/>
	</g>
	<g>
		<path class="st2" d="M702.42,544.95h3.72c2.98,0,5,1.96,5,4.71s-2.02,4.71-5,4.71h-3.72V544.95z M706.09,553.74
			c2.66,0,4.37-1.69,4.37-4.09s-1.71-4.09-4.37-4.09h-2.98v8.17H706.09z"/>
		<path class="st2" d="M718.38,549.91v4.45h-0.65v-1.25c-0.44,0.81-1.3,1.3-2.53,1.3c-1.57,0-2.53-0.81-2.53-2
			c0-1.06,0.67-1.96,2.62-1.96h2.41v-0.56c0-1.3-0.71-2-2.08-2c-0.97,0-1.84,0.36-2.42,0.89l-0.34-0.48c0.7-0.62,1.72-1,2.81-1
			C717.41,547.29,718.38,548.18,718.38,549.91z M717.71,552.29v-1.32h-2.39c-1.45,0-1.96,0.61-1.96,1.41c0,0.92,0.71,1.48,1.95,1.48
			C716.48,553.87,717.3,553.3,717.71,552.29z"/>
		<path class="st2" d="M726.64,547.34l-3.6,7.97c-0.56,1.29-1.26,1.71-2.19,1.71c-0.63,0-1.22-0.22-1.63-0.63l0.34-0.51
			c0.36,0.38,0.78,0.55,1.3,0.55c0.64,0,1.12-0.3,1.55-1.25l0.38-0.85l-3.16-6.99h0.71l2.81,6.28l2.81-6.28H726.64z"/>
		<path class="st2" d="M733.24,544.95v9.41h-0.69v-8.79h-2.3v-0.62H733.24z"/>
		<path class="st2" d="M741.67,551.71c0,1.56-1.13,2.72-3.29,2.72c-1.38,0-2.66-0.51-3.32-1.26l0.35-0.52
			c0.58,0.66,1.68,1.16,2.97,1.16c1.69,0,2.59-0.81,2.59-2.08c0-1.26-0.86-2.08-2.74-2.08h-0.59v-0.5l2.78-3.56h-5.01v-0.62h5.9
			v0.48l-2.82,3.62C740.62,549.11,741.67,550.18,741.67,551.71z"/>
	</g>
	<g>
		<path class="st2" d="M655.14,544.95h3.72c2.98,0,5,1.96,5,4.71s-2.02,4.71-5,4.71h-3.72V544.95z M658.81,553.74
			c2.66,0,4.37-1.69,4.37-4.09s-1.71-4.09-4.37-4.09h-2.98v8.17H658.81z"/>
		<path class="st2" d="M671.09,549.91v4.45h-0.65v-1.25c-0.44,0.81-1.3,1.3-2.53,1.3c-1.57,0-2.53-0.81-2.53-2
			c0-1.06,0.67-1.96,2.62-1.96h2.41v-0.56c0-1.3-0.71-2-2.08-2c-0.97,0-1.84,0.36-2.42,0.89l-0.34-0.48c0.7-0.62,1.72-1,2.81-1
			C670.12,547.29,671.09,548.18,671.09,549.91z M670.42,552.29v-1.32h-2.39c-1.45,0-1.96,0.61-1.96,1.41c0,0.92,0.71,1.48,1.95,1.48
			C669.2,553.87,670.02,553.3,670.42,552.29z"/>
		<path class="st2" d="M679.36,547.34l-3.6,7.97c-0.56,1.29-1.26,1.71-2.19,1.71c-0.63,0-1.22-0.22-1.63-0.63l0.34-0.51
			c0.36,0.38,0.78,0.55,1.3,0.55c0.64,0,1.12-0.3,1.55-1.25l0.38-0.85l-3.16-6.99h0.71l2.81,6.28l2.81-6.28H679.36z"/>
		<path class="st2" d="M685.96,544.95v9.41h-0.69v-8.79h-2.3v-0.62H685.96z"/>
		<path class="st2" d="M694.61,553.74v0.62h-6.47v-0.48l3.98-3.95c1.12-1.12,1.33-1.77,1.33-2.49c0-1.18-0.82-1.92-2.38-1.92
			c-1.18,0-2.06,0.35-2.7,1.09l-0.48-0.43c0.71-0.82,1.83-1.29,3.24-1.29c1.84,0,3.03,0.96,3.03,2.49c0,0.9-0.3,1.69-1.53,2.92
			l-3.47,3.46H694.61z"/>
	</g>
	<g>
		<path class="st2" d="M609.3,544.95h3.72c2.98,0,5,1.96,5,4.71s-2.02,4.71-5,4.71h-3.72V544.95z M612.97,553.74
			c2.66,0,4.37-1.69,4.37-4.09s-1.71-4.09-4.37-4.09h-2.98v8.17H612.97z"/>
		<path class="st2" d="M625.25,549.91v4.45h-0.65v-1.25c-0.44,0.81-1.3,1.3-2.53,1.3c-1.57,0-2.53-0.81-2.53-2
			c0-1.06,0.67-1.96,2.62-1.96h2.41v-0.56c0-1.3-0.71-2-2.08-2c-0.97,0-1.84,0.36-2.42,0.89l-0.34-0.48c0.7-0.62,1.72-1,2.81-1
			C624.28,547.29,625.25,548.18,625.25,549.91z M624.58,552.29v-1.32h-2.39c-1.45,0-1.96,0.61-1.96,1.41c0,0.92,0.71,1.48,1.95,1.48
			C623.35,553.87,624.17,553.3,624.58,552.29z"/>
		<path class="st2" d="M633.52,547.34l-3.6,7.97c-0.56,1.29-1.26,1.71-2.19,1.71c-0.63,0-1.22-0.22-1.63-0.63l0.34-0.51
			c0.36,0.38,0.78,0.55,1.3,0.55c0.64,0,1.12-0.3,1.55-1.25l0.38-0.85l-3.16-6.99h0.71l2.81,6.28l2.81-6.28H633.52z"/>
		<path class="st2" d="M640.11,544.95v9.41h-0.69v-8.79h-2.3v-0.62H640.11z"/>
		<path class="st2" d="M644.86,544.95v9.41h-0.69v-8.79h-2.3v-0.62H644.86z"/>
	</g>
	<g>
		<path class="st2" d="M560,544.95h3.72c2.98,0,5,1.96,5,4.71s-2.02,4.71-5,4.71H560V544.95z M563.67,553.74
			c2.66,0,4.37-1.69,4.37-4.09s-1.71-4.09-4.37-4.09h-2.98v8.17H563.67z"/>
		<path class="st2" d="M575.95,549.91v4.45h-0.65v-1.25c-0.44,0.81-1.3,1.3-2.53,1.3c-1.57,0-2.53-0.81-2.53-2
			c0-1.06,0.67-1.96,2.62-1.96h2.41v-0.56c0-1.3-0.71-2-2.08-2c-0.97,0-1.84,0.36-2.42,0.89l-0.34-0.48c0.7-0.62,1.72-1,2.81-1
			C574.98,547.29,575.95,548.18,575.95,549.91z M575.28,552.29v-1.32h-2.39c-1.45,0-1.96,0.61-1.96,1.41c0,0.92,0.71,1.48,1.95,1.48
			C574.06,553.87,574.88,553.3,575.28,552.29z"/>
		<path class="st2" d="M584.22,547.34l-3.6,7.97c-0.56,1.29-1.26,1.71-2.19,1.71c-0.63,0-1.22-0.22-1.63-0.63l0.34-0.51
			c0.36,0.38,0.78,0.55,1.3,0.55c0.64,0,1.12-0.3,1.55-1.25l0.38-0.85l-3.16-6.99h0.71l2.81,6.28l2.81-6.28H584.22z"/>
		<path class="st2" d="M590.81,544.95v9.41h-0.69v-8.79h-2.3v-0.62H590.81z"/>
		<path class="st2" d="M593.19,549.66c0-2.94,1.52-4.77,3.68-4.77s3.68,1.83,3.68,4.77s-1.52,4.77-3.68,4.77
			S593.19,552.6,593.19,549.66z M599.87,549.66c0-2.62-1.22-4.14-3-4.14s-3,1.52-3,4.14s1.22,4.14,3,4.14
			S599.87,552.28,599.87,549.66z"/>
	</g>
	<g>
		<path class="st2" d="M515.49,544.95h3.72c2.98,0,5,1.96,5,4.71s-2.02,4.71-5,4.71h-3.72V544.95z M519.16,553.74
			c2.66,0,4.37-1.69,4.37-4.09s-1.71-4.09-4.37-4.09h-2.98v8.17H519.16z"/>
		<path class="st2" d="M531.45,549.91v4.45h-0.65v-1.25c-0.44,0.81-1.3,1.3-2.53,1.3c-1.57,0-2.53-0.81-2.53-2
			c0-1.06,0.67-1.96,2.62-1.96h2.41v-0.56c0-1.3-0.71-2-2.08-2c-0.97,0-1.84,0.36-2.42,0.89l-0.34-0.48c0.7-0.62,1.72-1,2.81-1
			C530.48,547.29,531.45,548.18,531.45,549.91z M530.77,552.29v-1.32h-2.39c-1.45,0-1.96,0.61-1.96,1.41c0,0.92,0.71,1.48,1.95,1.48
			C529.55,553.87,530.37,553.3,530.77,552.29z"/>
		<path class="st2" d="M539.71,547.34l-3.6,7.97c-0.56,1.29-1.26,1.71-2.19,1.71c-0.63,0-1.22-0.22-1.63-0.63l0.34-0.51
			c0.36,0.38,0.78,0.55,1.3,0.55c0.64,0,1.12-0.3,1.55-1.25l0.38-0.85l-3.16-6.99h0.71l2.81,6.28l2.81-6.28H539.71z"/>
		<path class="st2" d="M550.56,549.6c0,3.19-1.69,4.83-4.18,4.83c-0.81,0-1.56-0.13-2.14-0.48l0.28-0.55
			c0.48,0.31,1.14,0.43,1.86,0.43c2.11,0,3.5-1.38,3.5-4.11c0-0.28-0.01-0.7-0.08-1.13c-0.39,1.24-1.57,1.94-3,1.94
			c-1.88,0-3.15-1.1-3.15-2.8c0-1.72,1.33-2.84,3.13-2.84C549.25,544.88,550.56,546.66,550.56,549.6z M549.5,547.68
			c0-1.1-0.93-2.2-2.69-2.2c-1.46,0-2.47,0.87-2.47,2.23c0,1.34,0.97,2.22,2.55,2.22C548.43,549.93,549.5,548.94,549.5,547.68z"/>
	</g>
	<g>
		<path class="st2" d="M468.04,544.95h3.72c2.98,0,5,1.96,5,4.71s-2.02,4.71-5,4.71h-3.72V544.95z M471.71,553.74
			c2.66,0,4.37-1.69,4.37-4.09s-1.71-4.09-4.37-4.09h-2.98v8.17H471.71z"/>
		<path class="st2" d="M483.99,549.91v4.45h-0.65v-1.25c-0.44,0.81-1.3,1.3-2.53,1.3c-1.57,0-2.53-0.81-2.53-2
			c0-1.06,0.67-1.96,2.62-1.96h2.41v-0.56c0-1.3-0.71-2-2.08-2c-0.97,0-1.84,0.36-2.42,0.89l-0.34-0.48c0.7-0.62,1.72-1,2.81-1
			C483.03,547.29,483.99,548.18,483.99,549.91z M483.32,552.29v-1.32h-2.39c-1.45,0-1.96,0.61-1.96,1.41c0,0.92,0.71,1.48,1.95,1.48
			C482.1,553.87,482.92,553.3,483.32,552.29z"/>
		<path class="st2" d="M492.26,547.34l-3.6,7.97c-0.56,1.29-1.26,1.71-2.19,1.71c-0.63,0-1.22-0.22-1.63-0.63l0.34-0.51
			c0.36,0.38,0.78,0.55,1.3,0.55c0.64,0,1.12-0.3,1.55-1.25l0.38-0.85l-3.16-6.99h0.71l2.81,6.28l2.81-6.28H492.26z"/>
		<path class="st2" d="M503.56,551.78c0,1.64-1.36,2.65-3.58,2.65c-2.22,0-3.55-1.01-3.55-2.65c0-1.18,0.73-2,2-2.34
			c-1.08-0.35-1.67-1.09-1.67-2.12c0-1.51,1.26-2.43,3.21-2.43s3.24,0.93,3.24,2.43c0,1.04-0.61,1.77-1.69,2.12
			C502.82,549.78,503.56,550.61,503.56,551.78z M502.88,551.78c0-1.25-1.08-2.04-2.89-2.04c-1.81,0-2.86,0.79-2.86,2.04
			c0,1.26,1.05,2.06,2.86,2.06C501.8,553.84,502.88,553.04,502.88,551.78z M499.99,549.17c1.6,0,2.55-0.71,2.55-1.83
			c0-1.16-1-1.87-2.55-1.87s-2.53,0.71-2.53,1.86C497.46,548.46,498.39,549.17,499.99,549.17z"/>
	</g>
	<g>
		<path class="st2" d="M421.13,544.95h3.72c2.98,0,5,1.96,5,4.71s-2.02,4.71-5,4.71h-3.72V544.95z M424.8,553.74
			c2.66,0,4.37-1.69,4.37-4.09s-1.71-4.09-4.37-4.09h-2.98v8.17H424.8z"/>
		<path class="st2" d="M437.08,549.91v4.45h-0.65v-1.25c-0.44,0.81-1.3,1.3-2.53,1.3c-1.57,0-2.53-0.81-2.53-2
			c0-1.06,0.67-1.96,2.62-1.96h2.41v-0.56c0-1.3-0.71-2-2.08-2c-0.97,0-1.84,0.36-2.42,0.89l-0.34-0.48c0.7-0.62,1.72-1,2.81-1
			C436.12,547.29,437.08,548.18,437.08,549.91z M436.41,552.29v-1.32h-2.39c-1.45,0-1.96,0.61-1.96,1.41c0,0.92,0.71,1.48,1.95,1.48
			C435.19,553.87,436.01,553.3,436.41,552.29z"/>
		<path class="st2" d="M445.35,547.34l-3.6,7.97c-0.56,1.29-1.26,1.71-2.19,1.71c-0.63,0-1.22-0.22-1.63-0.63l0.34-0.51
			c0.36,0.38,0.78,0.55,1.3,0.55c0.65,0,1.12-0.3,1.55-1.25l0.38-0.85l-3.16-6.99h0.71l2.81,6.28l2.81-6.28H445.35z"/>
		<path class="st2" d="M456.05,544.95v0.48l-4.05,8.93h-0.75l4.01-8.79h-5.28v1.8h-0.67v-2.42H456.05z"/>
	</g>
	<g>
		<path class="st2" d="M373.74,544.95h3.72c2.98,0,5,1.96,5,4.71s-2.02,4.71-5,4.71h-3.72V544.95z M377.41,553.74
			c2.66,0,4.37-1.69,4.37-4.09s-1.71-4.09-4.37-4.09h-2.98v8.17H377.41z"/>
		<path class="st2" d="M389.69,549.91v4.45h-0.65v-1.25c-0.44,0.81-1.3,1.3-2.53,1.3c-1.57,0-2.53-0.81-2.53-2
			c0-1.06,0.67-1.96,2.62-1.96h2.41v-0.56c0-1.3-0.71-2-2.08-2c-0.97,0-1.84,0.36-2.42,0.89l-0.34-0.48c0.7-0.62,1.72-1,2.81-1
			C388.72,547.29,389.69,548.18,389.69,549.91z M389.02,552.29v-1.32h-2.39c-1.45,0-1.96,0.61-1.96,1.41c0,0.92,0.71,1.48,1.95,1.48
			C387.8,553.87,388.62,553.3,389.02,552.29z"/>
		<path class="st2" d="M397.96,547.34l-3.6,7.97c-0.56,1.29-1.26,1.71-2.19,1.71c-0.63,0-1.22-0.22-1.63-0.63l0.34-0.51
			c0.36,0.38,0.78,0.55,1.3,0.55c0.65,0,1.12-0.3,1.55-1.25l0.38-0.85l-3.16-6.99h0.71l2.81,6.28l2.81-6.28H397.96z"/>
		<path class="st2" d="M409.1,551.59c0,1.72-1.33,2.84-3.13,2.84c-2.47,0-3.78-1.77-3.78-4.72c0-3.19,1.69-4.83,4.18-4.83
			c0.81,0,1.56,0.13,2.14,0.48l-0.28,0.55c-0.48-0.31-1.14-0.43-1.86-0.43c-2.11,0-3.5,1.38-3.5,4.11c0,0.28,0.01,0.7,0.08,1.13
			c0.39-1.24,1.57-1.94,3-1.94C407.84,548.8,409.1,549.9,409.1,551.59z M408.41,551.61c0-1.34-0.97-2.22-2.55-2.22
			c-1.55,0-2.61,0.98-2.61,2.25c0,1.1,0.93,2.2,2.69,2.2C407.41,553.84,408.41,552.96,408.41,551.61z"/>
	</g>
	<g>
		<path class="st2" d="M326.78,544.95h3.72c2.98,0,5,1.96,5,4.71s-2.02,4.71-5,4.71h-3.72V544.95z M330.45,553.74
			c2.66,0,4.37-1.69,4.37-4.09s-1.71-4.09-4.37-4.09h-2.98v8.17H330.45z"/>
		<path class="st2" d="M342.74,549.91v4.45h-0.65v-1.25c-0.44,0.81-1.3,1.3-2.53,1.3c-1.57,0-2.53-0.81-2.53-2
			c0-1.06,0.67-1.96,2.62-1.96h2.41v-0.56c0-1.3-0.71-2-2.08-2c-0.97,0-1.84,0.36-2.42,0.89l-0.34-0.48c0.7-0.62,1.72-1,2.81-1
			C341.77,547.29,342.74,548.18,342.74,549.91z M342.06,552.29v-1.32h-2.39c-1.45,0-1.96,0.61-1.96,1.41c0,0.92,0.71,1.48,1.95,1.48
			C340.84,553.87,341.66,553.3,342.06,552.29z"/>
		<path class="st2" d="M351,547.34l-3.6,7.97c-0.56,1.29-1.26,1.71-2.19,1.71c-0.63,0-1.22-0.22-1.63-0.63l0.34-0.51
			c0.36,0.38,0.78,0.55,1.3,0.55c0.65,0,1.12-0.3,1.55-1.25l0.38-0.85l-3.16-6.99h0.71l2.81,6.28l2.81-6.28H351z"/>
		<path class="st2" d="M361.44,551.65c0,1.57-1.09,2.78-3.29,2.78c-1.37,0-2.65-0.51-3.31-1.26l0.35-0.52
			c0.56,0.66,1.68,1.16,2.94,1.16c1.73,0,2.62-0.87,2.62-2.12c0-1.34-0.82-2.16-3.37-2.16h-1.91l0.5-4.56h4.99v0.62h-4.41
			l-0.36,3.32h1.34C360.4,548.89,361.44,549.98,361.44,551.65z"/>
	</g>
	<g>
		<path class="st2" d="M278.89,544.95h3.72c2.98,0,5,1.96,5,4.71s-2.02,4.71-5,4.71h-3.72V544.95z M282.56,553.74
			c2.66,0,4.37-1.69,4.37-4.09s-1.71-4.09-4.37-4.09h-2.98v8.17H282.56z"/>
		<path class="st2" d="M294.84,549.91v4.45h-0.65v-1.25c-0.44,0.81-1.3,1.3-2.53,1.3c-1.57,0-2.53-0.81-2.53-2
			c0-1.06,0.67-1.96,2.62-1.96h2.41v-0.56c0-1.3-0.71-2-2.08-2c-0.97,0-1.84,0.36-2.42,0.89l-0.34-0.48c0.7-0.62,1.72-1,2.81-1
			C293.87,547.29,294.84,548.18,294.84,549.91z M294.17,552.29v-1.32h-2.39c-1.45,0-1.96,0.61-1.96,1.41c0,0.92,0.71,1.48,1.95,1.48
			C292.94,553.87,293.76,553.3,294.17,552.29z"/>
		<path class="st2" d="M303.1,547.34l-3.6,7.97c-0.56,1.29-1.26,1.71-2.19,1.71c-0.63,0-1.22-0.22-1.63-0.63l0.34-0.51
			c0.36,0.38,0.78,0.55,1.3,0.55c0.65,0,1.12-0.3,1.55-1.25l0.38-0.85l-3.16-6.99h0.71l2.81,6.28l2.81-6.28H303.1z"/>
		<path class="st2" d="M315.19,551.75h-1.98v2.61h-0.67v-2.61h-5.36v-0.5l5.11-6.3h0.77l-5.01,6.2h4.52v-2.3h0.66v2.3h1.98V551.75z"
			/>
	</g>
	<g>
		<path class="st2" d="M232.28,544.95H236c2.98,0,5,1.96,5,4.71s-2.02,4.71-5,4.71h-3.72V544.95z M235.95,553.74
			c2.66,0,4.37-1.69,4.37-4.09s-1.71-4.09-4.37-4.09h-2.98v8.17H235.95z"/>
		<path class="st2" d="M248.23,549.91v4.45h-0.65v-1.25c-0.44,0.81-1.3,1.3-2.53,1.3c-1.57,0-2.53-0.81-2.53-2
			c0-1.06,0.67-1.96,2.62-1.96h2.41v-0.56c0-1.3-0.71-2-2.08-2c-0.97,0-1.84,0.36-2.42,0.89l-0.34-0.48c0.7-0.62,1.72-1,2.81-1
			C247.26,547.29,248.23,548.18,248.23,549.91z M247.56,552.29v-1.32h-2.39c-1.45,0-1.96,0.61-1.96,1.41c0,0.92,0.71,1.48,1.95,1.48
			C246.34,553.87,247.16,553.3,247.56,552.29z"/>
		<path class="st2" d="M256.5,547.34l-3.6,7.97c-0.56,1.29-1.26,1.71-2.19,1.71c-0.63,0-1.22-0.22-1.63-0.63l0.34-0.51
			c0.36,0.38,0.78,0.55,1.3,0.55c0.65,0,1.12-0.3,1.55-1.25l0.38-0.85l-3.16-6.99h0.71l2.81,6.28l2.81-6.28H256.5z"/>
		<path class="st2" d="M266.78,551.71c0,1.56-1.13,2.72-3.29,2.72c-1.38,0-2.66-0.51-3.32-1.26l0.35-0.52
			c0.58,0.66,1.68,1.16,2.97,1.16c1.69,0,2.59-0.81,2.59-2.08c0-1.26-0.86-2.08-2.74-2.08h-0.59v-0.5l2.78-3.56h-5.01v-0.62h5.9
			v0.48l-2.82,3.62C265.73,549.11,266.78,550.18,266.78,551.71z"/>
	</g>
	<g>
		<path class="st2" d="M184.99,544.95h3.72c2.98,0,5,1.96,5,4.71s-2.02,4.71-5,4.71h-3.72V544.95z M188.66,553.74
			c2.66,0,4.37-1.69,4.37-4.09s-1.71-4.09-4.37-4.09h-2.98v8.17H188.66z"/>
		<path class="st2" d="M200.95,549.91v4.45h-0.65v-1.25c-0.44,0.81-1.3,1.3-2.53,1.3c-1.57,0-2.53-0.81-2.53-2
			c0-1.06,0.67-1.96,2.62-1.96h2.41v-0.56c0-1.3-0.71-2-2.08-2c-0.97,0-1.84,0.36-2.42,0.89l-0.34-0.48c0.7-0.62,1.72-1,2.81-1
			C199.98,547.29,200.95,548.18,200.95,549.91z M200.27,552.29v-1.32h-2.39c-1.45,0-1.96,0.61-1.96,1.41c0,0.92,0.71,1.48,1.95,1.48
			C199.05,553.87,199.87,553.3,200.27,552.29z"/>
		<path class="st2" d="M209.21,547.34l-3.6,7.97c-0.56,1.29-1.26,1.71-2.19,1.71c-0.63,0-1.22-0.22-1.63-0.63l0.34-0.51
			c0.36,0.38,0.78,0.55,1.3,0.55c0.65,0,1.12-0.3,1.55-1.25l0.38-0.85l-3.16-6.99h0.71l2.81,6.28l2.81-6.28H209.21z"/>
		<path class="st2" d="M219.72,553.74v0.62h-6.47v-0.48l3.98-3.95c1.12-1.12,1.33-1.77,1.33-2.49c0-1.18-0.82-1.92-2.38-1.92
			c-1.18,0-2.06,0.35-2.7,1.09l-0.48-0.43c0.71-0.82,1.83-1.29,3.24-1.29c1.84,0,3.02,0.96,3.02,2.49c0,0.9-0.3,1.69-1.53,2.92
			l-3.47,3.46H219.72z"/>
	</g>
	<g>
		<path class="st2" d="M139.15,544.95h3.72c2.98,0,5,1.96,5,4.71s-2.02,4.71-5,4.71h-3.72V544.95z M142.82,553.74
			c2.66,0,4.37-1.69,4.37-4.09s-1.71-4.09-4.37-4.09h-2.98v8.17H142.82z"/>
		<path class="st2" d="M155.11,549.91v4.45h-0.65v-1.25c-0.44,0.81-1.3,1.3-2.53,1.3c-1.57,0-2.53-0.81-2.53-2
			c0-1.06,0.67-1.96,2.62-1.96h2.41v-0.56c0-1.3-0.71-2-2.08-2c-0.97,0-1.84,0.36-2.42,0.89l-0.34-0.48c0.7-0.62,1.72-1,2.81-1
			C154.14,547.29,155.11,548.18,155.11,549.91z M154.43,552.29v-1.32h-2.39c-1.45,0-1.96,0.61-1.96,1.41c0,0.92,0.71,1.48,1.95,1.48
			C153.21,553.87,154.03,553.3,154.43,552.29z"/>
		<path class="st2" d="M163.37,547.34l-3.6,7.97c-0.56,1.29-1.26,1.71-2.19,1.71c-0.63,0-1.22-0.22-1.63-0.63l0.34-0.51
			c0.36,0.38,0.78,0.55,1.3,0.55c0.65,0,1.12-0.3,1.55-1.25l0.38-0.85l-3.16-6.99h0.71l2.81,6.28l2.81-6.28H163.37z"/>
		<path class="st2" d="M169.97,544.95v9.41h-0.69v-8.79h-2.3v-0.62H169.97z"/>
	</g>
	<g>
		<path class="st2" d="M98.35,127.46l-0.02-9.2l-4.5,7.78h-0.38l-4.5-7.74v9.17h-0.77V116.7h0.66l4.81,8.31l4.81-8.31h0.65
			l0.02,10.76H98.35z"/>
		<path class="st2" d="M102.37,116.87c0-0.34,0.28-0.63,0.63-0.63c0.35,0,0.63,0.28,0.63,0.61c0,0.35-0.28,0.63-0.63,0.63
			C102.65,117.48,102.37,117.21,102.37,116.87z M102.62,119.43h0.77v8.02h-0.77V119.43z"/>
		<path class="st2" d="M113.8,122.77v4.69h-0.77v-4.62c0-1.81-0.97-2.77-2.6-2.77c-1.89,0-3.04,1.21-3.04,3.12v4.27h-0.77v-8.02
			h0.74v1.74c0.54-1.12,1.66-1.8,3.18-1.8C112.49,119.37,113.8,120.53,113.8,122.77z"/>
		<path class="st2" d="M123.98,119.43v8.02h-0.74v-1.72c-0.52,1.12-1.61,1.78-3.03,1.78c-2.04,0-3.35-1.15-3.35-3.4v-4.69h0.77v4.63
			c0,1.81,0.97,2.77,2.64,2.77c1.81,0,2.93-1.21,2.93-3.12v-4.27H123.98z"/>
		<path class="st2" d="M131.22,126.95c-0.4,0.38-1.04,0.57-1.64,0.57c-1.41,0-2.18-0.83-2.18-2.18v-5.24h-1.48v-0.66h1.48v-1.75
			h0.77v1.75h2.55v0.66h-2.55v5.16c0,1.03,0.51,1.6,1.49,1.6c0.48,0,0.92-0.15,1.24-0.45L131.22,126.95z"/>
		<path class="st2" d="M139.83,123.63h-6.9c0.08,1.91,1.48,3.2,3.4,3.2c1.01,0,1.95-0.37,2.57-1.12l0.45,0.51
			c-0.71,0.86-1.81,1.31-3.03,1.31c-2.43,0-4.13-1.69-4.13-4.07c0-2.38,1.64-4.07,3.84-4.07s3.83,1.66,3.83,4.04
			C139.85,123.48,139.83,123.55,139.83,123.63z M132.95,123.03h6.15c-0.11-1.74-1.37-2.98-3.07-2.98S133.07,121.28,132.95,123.03z"
			/>
		<path class="st2" d="M141.05,126.49l0.35-0.61c0.61,0.52,1.71,0.97,2.89,0.97c1.69,0,2.37-0.6,2.37-1.51
			c0-2.34-5.32-0.61-5.32-3.77c0-1.21,1.01-2.2,3.04-2.2c1.01,0,2.12,0.31,2.75,0.78l-0.35,0.61c-0.68-0.49-1.55-0.72-2.41-0.72
			c-1.57,0-2.26,0.65-2.26,1.51c0,2.41,5.32,0.71,5.32,3.76c0,1.31-1.12,2.2-3.17,2.2C142.94,127.52,141.68,127.07,141.05,126.49z"
			/>
	</g>
	<g>
		<path class="st3" d="M681.78,356.28v10.76h-0.65l-7.33-9.34v9.34h-0.78v-10.76h0.66l7.31,9.34v-9.34H681.78z"/>
		<path class="st3" d="M685.03,356.44c0-0.34,0.28-0.63,0.63-0.63s0.63,0.28,0.63,0.62c0,0.35-0.28,0.63-0.63,0.63
			S685.03,356.78,685.03,356.44z M685.28,359.01h0.77v8.02h-0.77V359.01z"/>
		<path class="st3" d="M696.51,359.01v7.16c0,2.69-1.31,3.9-3.89,3.9c-1.46,0-2.86-0.46-3.67-1.28l0.42-0.58
			c0.8,0.74,1.95,1.17,3.24,1.17c2.14,0,3.13-0.98,3.13-3.12v-1.35c-0.66,1.17-1.89,1.83-3.33,1.83c-2.27,0-4-1.61-4-3.9
			c0-2.29,1.72-3.89,4-3.89c1.47,0,2.72,0.68,3.37,1.88v-1.81H696.51z M695.76,362.84c0-1.89-1.38-3.2-3.29-3.2
			c-1.89,0-3.27,1.31-3.27,3.2c0,1.89,1.38,3.21,3.27,3.21C694.38,366.05,695.76,364.73,695.76,362.84z"/>
		<path class="st3" d="M706.94,362.34v4.69h-0.77v-4.62c0-1.81-0.97-2.77-2.6-2.77c-1.89,0-3.04,1.21-3.04,3.12v4.27h-0.77v-11.4
			h0.77v5.06c0.55-1.09,1.66-1.74,3.15-1.74C705.63,358.95,706.94,360.1,706.94,362.34z"/>
		<path class="st3" d="M714.08,366.52c-0.4,0.38-1.04,0.57-1.64,0.57c-1.41,0-2.18-0.83-2.18-2.18v-5.24h-1.47v-0.66h1.47v-1.75
			h0.77v1.75h2.55v0.66h-2.55v5.16c0,1.03,0.51,1.6,1.49,1.6c0.48,0,0.92-0.15,1.25-0.45L714.08,366.52z"/>
		<path class="st3" d="M728.6,359.9c0,2.26-1.63,3.61-4.33,3.61h-3.07v3.52h-0.78v-10.76h3.86
			C726.97,356.28,728.6,357.63,728.6,359.9z M727.8,359.9c0-1.86-1.23-2.92-3.53-2.92h-3.07v5.82h3.07
			C726.57,362.81,727.8,361.75,727.8,359.9z"/>
		<path class="st3" d="M738.32,362.34v4.69h-0.77v-4.62c0-1.81-0.97-2.77-2.6-2.77c-1.89,0-3.04,1.21-3.04,3.12v4.27h-0.77v-11.4
			h0.77v5.06c0.55-1.09,1.66-1.74,3.15-1.74C737.01,358.95,738.32,360.1,738.32,362.34z"/>
		<path class="st3" d="M740.62,363.02c0-2.38,1.71-4.07,4.01-4.07c2.3,0,4.01,1.69,4.01,4.07c0,2.38-1.71,4.07-4.01,4.07
			C742.33,367.09,740.62,365.4,740.62,363.02z M747.86,363.02c0-2.01-1.38-3.38-3.23-3.38s-3.23,1.37-3.23,3.38
			c0,2.01,1.38,3.38,3.23,3.38S747.86,365.03,747.86,363.02z"/>
		<path class="st3" d="M758.2,362.34v4.69h-0.77v-4.62c0-1.81-0.97-2.77-2.6-2.77c-1.89,0-3.04,1.21-3.04,3.12v4.27h-0.77v-8.02
			h0.74v1.74c0.54-1.12,1.66-1.8,3.18-1.8C756.89,358.95,758.2,360.1,758.2,362.34z"/>
		<path class="st3" d="M768.15,363.21h-6.9c0.08,1.91,1.47,3.2,3.4,3.2c1.01,0,1.95-0.37,2.57-1.12l0.45,0.51
			c-0.71,0.86-1.81,1.31-3.03,1.31c-2.43,0-4.13-1.69-4.13-4.07c0-2.38,1.64-4.07,3.84-4.07s3.83,1.66,3.83,4.04
			C768.16,363.05,768.15,363.13,768.15,363.21z M761.26,362.61h6.15c-0.11-1.74-1.37-2.98-3.07-2.98
			C762.63,359.62,761.39,360.85,761.26,362.61z"/>
		<path class="st3" d="M774.64,362.47v-6.19h0.78v6.16c0,2.69,1.29,3.95,3.53,3.95c2.24,0,3.52-1.26,3.52-3.95v-6.16h0.78v6.19
			c0,3.07-1.64,4.64-4.32,4.64S774.64,365.54,774.64,362.47z"/>
		<path class="st3" d="M785.49,366.06l0.35-0.61c0.62,0.52,1.71,0.97,2.89,0.97c1.69,0,2.37-0.6,2.37-1.51
			c0-2.34-5.32-0.61-5.32-3.76c0-1.21,1.01-2.2,3.04-2.2c1.01,0,2.12,0.31,2.75,0.78l-0.35,0.62c-0.68-0.49-1.55-0.72-2.41-0.72
			c-1.57,0-2.26,0.65-2.26,1.51c0,2.41,5.32,0.71,5.32,3.76c0,1.31-1.12,2.2-3.17,2.2C787.38,367.09,786.12,366.65,785.49,366.06z"
			/>
		<path class="st3" d="M799.8,361.95v5.09h-0.74v-1.43c-0.51,0.92-1.49,1.49-2.89,1.49c-1.8,0-2.89-0.92-2.89-2.29
			c0-1.21,0.77-2.24,3-2.24h2.75v-0.65c0-1.49-0.81-2.29-2.38-2.29c-1.11,0-2.1,0.42-2.77,1.01l-0.38-0.55
			c0.8-0.71,1.97-1.14,3.21-1.14C798.7,358.95,799.8,359.96,799.8,361.95z M799.04,364.67v-1.51h-2.74c-1.66,0-2.24,0.69-2.24,1.61
			c0,1.04,0.81,1.69,2.23,1.69C797.64,366.46,798.58,365.82,799.04,364.67z"/>
		<path class="st3" d="M810.2,359.01v7.16c0,2.69-1.31,3.9-3.89,3.9c-1.46,0-2.86-0.46-3.67-1.28l0.42-0.58
			c0.8,0.74,1.95,1.17,3.24,1.17c2.14,0,3.13-0.98,3.13-3.12v-1.35c-0.66,1.17-1.89,1.83-3.33,1.83c-2.27,0-4-1.61-4-3.9
			c0-2.29,1.72-3.89,4-3.89c1.47,0,2.72,0.68,3.37,1.88v-1.81H810.2z M809.45,362.84c0-1.89-1.38-3.2-3.29-3.2
			c-1.89,0-3.27,1.31-3.27,3.2c0,1.89,1.38,3.21,3.27,3.21C808.07,366.05,809.45,364.73,809.45,362.84z"/>
		<path class="st3" d="M820.23,363.21h-6.9c0.08,1.91,1.47,3.2,3.4,3.2c1.01,0,1.95-0.37,2.57-1.12l0.45,0.51
			c-0.71,0.86-1.81,1.31-3.03,1.31c-2.43,0-4.13-1.69-4.13-4.07c0-2.38,1.64-4.07,3.84-4.07s3.83,1.66,3.83,4.04
			C820.25,363.05,820.23,363.13,820.23,363.21z M813.35,362.61h6.15c-0.11-1.74-1.37-2.98-3.07-2.98
			C814.72,359.62,813.47,360.85,813.35,362.61z"/>
	</g>
	<g>
		<path class="st4" d="M714.01,454.76l-0.02-9.2l-4.5,7.78h-0.38l-4.5-7.74v9.17h-0.77v-10.76h0.66l4.81,8.31l4.81-8.31h0.65
			l0.01,10.76H714.01z"/>
		<path class="st4" d="M717.4,450.75c0-2.38,1.71-4.07,4.01-4.07c2.3,0,4.01,1.69,4.01,4.07c0,2.38-1.71,4.07-4.01,4.07
			C719.1,454.82,717.4,453.13,717.4,450.75z M724.64,450.75c0-2.01-1.38-3.38-3.23-3.38s-3.23,1.37-3.23,3.38
			c0,2.01,1.38,3.38,3.23,3.38S724.64,452.76,724.64,450.75z"/>
		<path class="st4" d="M731.59,446.68v0.75c-0.06,0-0.12-0.02-0.18-0.02c-1.78,0-2.84,1.18-2.84,3.17v4.18h-0.77v-8.02h0.74v1.75
			C729.03,447.33,730.09,446.68,731.59,446.68z"/>
		<path class="st4" d="M740.89,450.08v4.69h-0.77v-4.62c0-1.81-0.97-2.77-2.6-2.77c-1.89,0-3.04,1.21-3.04,3.12v4.27h-0.77v-8.02
			h0.74v1.74c0.54-1.12,1.66-1.8,3.18-1.8C739.58,446.68,740.89,447.83,740.89,450.08z"/>
		<path class="st4" d="M743.8,444.17c0-0.34,0.28-0.63,0.63-0.63s0.63,0.28,0.63,0.62c0,0.35-0.28,0.63-0.63,0.63
			S743.8,444.51,743.8,444.17z M744.05,446.74h0.77v8.02h-0.77V446.74z"/>
		<path class="st4" d="M755.23,450.08v4.69h-0.77v-4.62c0-1.81-0.97-2.77-2.6-2.77c-1.89,0-3.04,1.21-3.04,3.12v4.27h-0.77v-8.02
			h0.74v1.74c0.54-1.12,1.66-1.8,3.18-1.8C753.93,446.68,755.23,447.83,755.23,450.08z"/>
		<path class="st4" d="M765.63,446.74v7.16c0,2.69-1.31,3.9-3.89,3.9c-1.46,0-2.86-0.46-3.67-1.28l0.42-0.58
			c0.8,0.74,1.95,1.17,3.24,1.17c2.14,0,3.13-0.98,3.13-3.12v-1.35c-0.66,1.17-1.89,1.83-3.33,1.83c-2.27,0-4-1.61-4-3.9
			c0-2.29,1.72-3.89,4-3.89c1.47,0,2.72,0.68,3.37,1.88v-1.81H765.63z M764.88,450.57c0-1.89-1.38-3.2-3.29-3.2
			c-1.89,0-3.27,1.31-3.27,3.2c0,1.89,1.38,3.21,3.27,3.21C763.5,453.78,764.88,452.46,764.88,450.57z"/>
		<path class="st4" d="M781.27,447.63c0,2.26-1.63,3.61-4.33,3.61h-3.07v3.52h-0.78v-10.76h3.86
			C779.64,444.01,781.27,445.36,781.27,447.63z M780.47,447.63c0-1.86-1.23-2.92-3.53-2.92h-3.07v5.82h3.07
			C779.24,450.54,780.47,449.48,780.47,447.63z"/>
		<path class="st4" d="M790.99,450.08v4.69h-0.77v-4.62c0-1.81-0.97-2.77-2.6-2.77c-1.89,0-3.04,1.21-3.04,3.12v4.27h-0.77v-11.4
			h0.77v5.06c0.55-1.09,1.66-1.74,3.15-1.74C789.68,446.68,790.99,447.83,790.99,450.08z"/>
		<path class="st4" d="M793.29,450.75c0-2.38,1.71-4.07,4.01-4.07c2.3,0,4.01,1.69,4.01,4.07c0,2.38-1.71,4.07-4.01,4.07
			C795,454.82,793.29,453.13,793.29,450.75z M800.53,450.75c0-2.01-1.38-3.38-3.23-3.38s-3.23,1.37-3.23,3.38
			c0,2.01,1.38,3.38,3.23,3.38S800.53,452.76,800.53,450.75z"/>
		<path class="st4" d="M810.87,450.08v4.69h-0.77v-4.62c0-1.81-0.97-2.77-2.6-2.77c-1.89,0-3.04,1.21-3.04,3.12v4.27h-0.77v-8.02
			h0.74v1.74c0.54-1.12,1.66-1.8,3.18-1.8C809.56,446.68,810.87,447.83,810.87,450.08z"/>
		<path class="st4" d="M820.82,450.94h-6.9c0.08,1.91,1.47,3.2,3.4,3.2c1.01,0,1.95-0.37,2.57-1.12l0.45,0.51
			c-0.71,0.86-1.81,1.31-3.03,1.31c-2.43,0-4.13-1.69-4.13-4.07c0-2.38,1.64-4.07,3.84-4.07s3.83,1.66,3.83,4.04
			C820.83,450.78,820.82,450.86,820.82,450.94z M813.94,450.34h6.15c-0.11-1.74-1.37-2.98-3.07-2.98
			C815.3,447.36,814.06,448.58,813.94,450.34z"/>
		<path class="st4" d="M827.31,450.2v-6.19h0.78v6.16c0,2.69,1.29,3.95,3.53,3.95c2.24,0,3.52-1.26,3.52-3.95v-6.16h0.78v6.19
			c0,3.07-1.64,4.64-4.32,4.64S827.31,453.27,827.31,450.2z"/>
		<path class="st4" d="M838.16,453.79l0.35-0.61c0.62,0.52,1.71,0.97,2.89,0.97c1.69,0,2.37-0.6,2.37-1.51
			c0-2.34-5.32-0.61-5.32-3.76c0-1.21,1.01-2.2,3.04-2.2c1.01,0,2.12,0.31,2.75,0.78l-0.35,0.62c-0.68-0.49-1.55-0.72-2.41-0.72
			c-1.57,0-2.26,0.65-2.26,1.51c0,2.41,5.32,0.71,5.32,3.76c0,1.31-1.12,2.2-3.17,2.2C840.05,454.82,838.79,454.38,838.16,453.79z"
			/>
		<path class="st4" d="M852.48,449.68v5.09h-0.74v-1.43c-0.51,0.92-1.49,1.49-2.89,1.49c-1.8,0-2.89-0.92-2.89-2.29
			c0-1.21,0.77-2.24,3-2.24h2.75v-0.65c0-1.49-0.81-2.29-2.38-2.29c-1.11,0-2.1,0.42-2.77,1.01l-0.38-0.55
			c0.8-0.71,1.97-1.14,3.21-1.14C851.37,446.68,852.48,447.69,852.48,449.68z M851.71,452.4v-1.51h-2.74
			c-1.66,0-2.24,0.69-2.24,1.61c0,1.04,0.81,1.69,2.23,1.69C850.31,454.19,851.25,453.55,851.71,452.4z"/>
		<path class="st4" d="M862.87,446.74v7.16c0,2.69-1.31,3.9-3.89,3.9c-1.46,0-2.86-0.46-3.67-1.28l0.42-0.58
			c0.8,0.74,1.95,1.17,3.24,1.17c2.14,0,3.13-0.98,3.13-3.12v-1.35c-0.66,1.17-1.89,1.83-3.33,1.83c-2.27,0-4-1.61-4-3.9
			c0-2.29,1.72-3.89,4-3.89c1.47,0,2.72,0.68,3.37,1.88v-1.81H862.87z M862.12,450.57c0-1.89-1.38-3.2-3.29-3.2
			c-1.89,0-3.27,1.31-3.27,3.2c0,1.89,1.38,3.21,3.27,3.21C860.74,453.78,862.12,452.46,862.12,450.57z"/>
		<path class="st4" d="M872.9,450.94H866c0.08,1.91,1.47,3.2,3.4,3.2c1.01,0,1.95-0.37,2.57-1.12l0.45,0.51
			c-0.71,0.86-1.81,1.31-3.03,1.31c-2.43,0-4.13-1.69-4.13-4.07c0-2.38,1.64-4.07,3.84-4.07s3.83,1.66,3.83,4.04
			C872.92,450.78,872.9,450.86,872.9,450.94z M866.02,450.34h6.15c-0.11-1.74-1.37-2.98-3.07-2.98
			C867.39,447.36,866.14,448.58,866.02,450.34z"/>
	</g>
</g>
<g>
	<path class="st3" d="M386.16,141.67h-11.2l-2.21,5.18h-4.29l10.08-22.4h4.1l10.11,22.4h-4.35L386.16,141.67z M384.78,138.4
		l-4.22-9.79l-4.19,9.79H384.78z"/>
	<path class="st3" d="M423.79,137.06v9.79h-4v-9.28c0-3.04-1.41-4.51-3.84-4.51c-2.62,0-4.45,1.73-4.45,5.12v8.67h-4v-9.28
		c0-3.04-1.41-4.51-3.84-4.51c-2.66,0-4.45,1.73-4.45,5.12v8.67h-4v-17.09h3.81v2.18c1.28-1.54,3.26-2.37,5.6-2.37
		c2.5,0,4.58,0.93,5.76,2.85c1.38-1.76,3.68-2.85,6.4-2.85C420.91,129.57,423.79,131.91,423.79,137.06z"/>
	<path class="st3" d="M427.66,138.31c0-5.12,3.84-8.74,9.09-8.74c5.31,0,9.12,3.62,9.12,8.74c0,5.12-3.81,8.77-9.12,8.77
		C431.5,147.07,427.66,143.43,427.66,138.31z M441.83,138.31c0-3.26-2.18-5.34-5.09-5.34c-2.88,0-5.06,2.08-5.06,5.34
		c0,3.26,2.18,5.34,5.06,5.34C439.66,143.65,441.83,141.57,441.83,138.31z"/>
	<path class="st3" d="M466.25,129.76v17.09h-3.81v-2.18c-1.28,1.57-3.3,2.4-5.5,2.4c-4.38,0-7.36-2.4-7.36-7.55v-9.76h4v9.22
		c0,3.1,1.47,4.58,4,4.58c2.78,0,4.67-1.73,4.67-5.15v-8.64H466.25z"/>
	<path class="st3" d="M488.33,137.06v9.79h-4v-9.28c0-3.04-1.5-4.51-4.06-4.51c-2.85,0-4.77,1.73-4.77,5.15v8.64h-4v-17.09h3.81
		v2.21c1.31-1.57,3.39-2.4,5.89-2.4C485.29,129.57,488.33,131.91,488.33,137.06z"/>
	<path class="st3" d="M503.69,145.92c-0.96,0.77-2.4,1.15-3.84,1.15c-3.74,0-5.89-1.98-5.89-5.76v-8.22h-2.82v-3.2h2.82v-3.9h4v3.9
		h4.58v3.2h-4.58v8.13c0,1.66,0.83,2.56,2.37,2.56c0.83,0,1.63-0.22,2.24-0.7L503.69,145.92z"/>
	<path class="st3" d="M514.41,138.31c0-5.12,3.84-8.74,9.09-8.74c5.31,0,9.12,3.62,9.12,8.74c0,5.12-3.81,8.77-9.12,8.77
		C518.25,147.07,514.41,143.43,514.41,138.31z M528.59,138.31c0-3.26-2.18-5.34-5.09-5.34c-2.88,0-5.06,2.08-5.06,5.34
		c0,3.26,2.18,5.34,5.06,5.34C526.41,143.65,528.59,141.57,528.59,138.31z"/>
	<path class="st3" d="M540.87,128.87v1.02h4.7v3.2H541v13.76h-4v-13.76h-2.82v-3.2H537v-1.09c0-3.58,2.14-5.92,6.11-5.92
		c1.38,0,2.72,0.29,3.62,0.93l-1.12,3.01c-0.61-0.42-1.38-0.7-2.21-0.7C541.74,126.12,540.87,127.04,540.87,128.87z"/>
	<path class="st3" d="M562.03,127.97h-7.42v-3.52h19.01v3.52h-7.42v18.88h-4.16V127.97z"/>
	<path class="st3" d="M575.4,124.55c0-1.34,1.09-2.4,2.56-2.4s2.56,0.99,2.56,2.3c0,1.41-1.06,2.5-2.56,2.5
		C576.49,126.95,575.4,125.89,575.4,124.55z M575.95,129.76h4v17.09h-4V129.76z"/>
	<path class="st3" d="M613.77,137.06v9.79h-4v-9.28c0-3.04-1.41-4.51-3.84-4.51c-2.62,0-4.45,1.73-4.45,5.12v8.67h-4v-9.28
		c0-3.04-1.41-4.51-3.84-4.51c-2.66,0-4.45,1.73-4.45,5.12v8.67h-4v-17.09H589v2.18c1.28-1.54,3.26-2.37,5.6-2.37
		c2.5,0,4.58,0.93,5.76,2.85c1.38-1.76,3.68-2.85,6.4-2.85C610.89,129.57,613.77,131.91,613.77,137.06z"/>
	<path class="st3" d="M635.05,139.59h-13.41c0.48,2.5,2.56,4.1,5.54,4.1c1.92,0,3.42-0.61,4.64-1.86l2.14,2.46
		c-1.54,1.82-3.94,2.78-6.88,2.78c-5.73,0-9.44-3.68-9.44-8.77c0-5.09,3.74-8.74,8.83-8.74c4.99,0,8.64,3.49,8.64,8.83
		C635.11,138.72,635.08,139.2,635.05,139.59z M621.61,136.93h9.7c-0.32-2.46-2.21-4.16-4.83-4.16
		C623.88,132.77,621.99,134.43,621.61,136.93z"/>
	<path class="st3" d="M647.98,137.09v-12.64h4.16v12.48c0,4.61,2.08,6.59,5.7,6.59c3.62,0,5.66-1.98,5.66-6.59v-12.48h4.1v12.64
		c0,6.53-3.68,10.08-9.79,10.08C651.66,147.17,647.98,143.62,647.98,137.09z"/>
	<path class="st3" d="M671.08,145.15l1.54-3.04c1.5,0.99,3.81,1.7,5.95,1.7c2.53,0,3.58-0.7,3.58-1.89c0-3.26-10.56-0.19-10.56-7.01
		c0-3.23,2.91-5.34,7.52-5.34c2.27,0,4.86,0.54,6.4,1.47l-1.54,3.04c-1.63-0.96-3.26-1.28-4.9-1.28c-2.43,0-3.58,0.8-3.58,1.92
		c0,3.46,10.56,0.38,10.56,7.07c0,3.2-2.94,5.28-7.74,5.28C675.47,147.07,672.62,146.24,671.08,145.15z"/>
	<path class="st3" d="M688.97,124.55c0-1.34,1.09-2.4,2.56-2.4s2.56,0.99,2.56,2.3c0,1.41-1.06,2.5-2.56,2.5
		C690.06,126.95,688.97,125.89,688.97,124.55z M689.52,129.76h4v17.09h-4V129.76z"/>
	<path class="st3" d="M715.59,137.06v9.79h-4v-9.28c0-3.04-1.5-4.51-4.06-4.51c-2.85,0-4.77,1.73-4.77,5.15v8.64h-4v-17.09h3.81
		v2.21c1.31-1.57,3.39-2.4,5.89-2.4C712.55,129.57,715.59,131.91,715.59,137.06z"/>
	<path class="st3" d="M737.8,129.76v14.5c0,6.21-3.23,9.02-9.22,9.02c-3.2,0-6.37-0.83-8.32-2.43l1.79-3.01
		c1.5,1.25,3.94,2.05,6.3,2.05c3.78,0,5.44-1.73,5.44-5.18v-0.9c-1.41,1.54-3.42,2.27-5.73,2.27c-4.9,0-8.64-3.33-8.64-8.29
		c0-4.96,3.74-8.22,8.64-8.22c2.4,0,4.51,0.77,5.92,2.46v-2.27H737.8z M733.87,137.79c0-2.88-2.18-4.83-5.18-4.83
		c-3.04,0-5.21,1.95-5.21,4.83c0,2.91,2.18,4.9,5.21,4.9C731.69,142.69,733.87,140.71,733.87,137.79z"/>
	<path class="st3" d="M766.18,136.83v10.02h-3.78v-2.08c-0.96,1.47-2.82,2.3-5.38,2.3c-3.9,0-6.37-2.14-6.37-5.12
		c0-2.85,1.92-5.09,7.1-5.09h4.42v-0.26c0-2.34-1.41-3.71-4.26-3.71c-1.92,0-3.9,0.64-5.18,1.7l-1.57-2.91
		c1.82-1.41,4.48-2.11,7.23-2.11C763.34,129.57,766.18,131.91,766.18,136.83z M762.18,141.51v-1.98h-4.13
		c-2.72,0-3.46,1.02-3.46,2.27c0,1.44,1.22,2.37,3.26,2.37C759.82,144.16,761.51,143.27,762.18,141.51z"/>
	<path class="st3" d="M484.91,170.82c0,4.93-3.65,7.97-9.54,7.97h-5.06v6.46h-4.16v-22.4h9.21
		C481.26,162.85,484.91,165.86,484.91,170.82z M480.71,170.82c0-2.82-1.89-4.45-5.54-4.45h-4.86v8.9h4.86
		C478.83,175.27,480.71,173.63,480.71,170.82z"/>
	<path class="st3" d="M505.83,175.46v9.79h-4v-9.28c0-3.04-1.5-4.51-4.06-4.51c-2.85,0-4.77,1.73-4.77,5.15v8.64h-4v-23.74h4v8.64
		c1.31-1.41,3.33-2.18,5.7-2.18C502.79,167.97,505.83,170.31,505.83,175.46z"/>
	<path class="st3" d="M509.67,176.71c0-5.12,3.84-8.74,9.09-8.74c5.31,0,9.12,3.62,9.12,8.74c0,5.12-3.81,8.77-9.12,8.77
		C513.51,185.47,509.67,181.83,509.67,176.71z M523.85,176.71c0-3.26-2.18-5.34-5.09-5.34c-2.88,0-5.06,2.08-5.06,5.34
		c0,3.26,2.18,5.34,5.06,5.34C521.67,182.05,523.85,179.97,523.85,176.71z"/>
	<path class="st3" d="M548.55,175.46v9.79h-4v-9.28c0-3.04-1.5-4.51-4.06-4.51c-2.85,0-4.77,1.73-4.77,5.15v8.64h-4v-17.09h3.81
		v2.21c1.31-1.57,3.39-2.4,5.89-2.4C545.51,167.97,548.55,170.31,548.55,175.46z"/>
	<path class="st3" d="M569.8,177.99h-13.41c0.48,2.5,2.56,4.1,5.54,4.1c1.92,0,3.42-0.61,4.64-1.86l2.14,2.46
		c-1.54,1.82-3.94,2.78-6.88,2.78c-5.73,0-9.44-3.68-9.44-8.77c0-5.09,3.74-8.74,8.83-8.74c4.99,0,8.64,3.49,8.64,8.83
		C569.86,177.12,569.83,177.6,569.8,177.99z M556.36,175.33h9.7c-0.32-2.46-2.21-4.16-4.83-4.16
		C558.63,171.17,556.74,172.83,556.36,175.33z"/>
	<path class="st3" d="M581.99,162.95c0-1.34,1.09-2.4,2.56-2.4s2.56,0.99,2.56,2.3c0,1.41-1.06,2.5-2.56,2.5
		C583.08,165.35,581.99,164.29,581.99,162.95z M582.54,168.16h4v17.09h-4V168.16z"/>
	<path class="st3" d="M608.61,175.46v9.79h-4v-9.28c0-3.04-1.5-4.51-4.06-4.51c-2.85,0-4.77,1.73-4.77,5.15v8.64h-4v-17.09h3.81
		v2.21c1.31-1.57,3.39-2.4,5.89-2.4C605.58,167.97,608.61,170.31,608.61,175.46z"/>
	<path class="st3" d="M642.82,179.17c0,3.84-3.01,6.08-8.77,6.08h-11.13v-22.4h10.5c5.38,0,8.26,2.27,8.26,5.82
		c0,2.3-1.15,4-2.88,4.93C641.19,174.37,642.82,176.26,642.82,179.17z M627.08,166.12v6.18h5.89c2.88,0,4.51-1.02,4.51-3.07
		c0-2.08-1.63-3.1-4.51-3.1H627.08z M638.63,178.75c0-2.24-1.7-3.23-4.83-3.23h-6.72v6.46h6.72
		C636.93,181.99,638.63,180.99,638.63,178.75z"/>
	<path class="st3" d="M662.89,177.99h-13.41c0.48,2.5,2.56,4.1,5.54,4.1c1.92,0,3.42-0.61,4.64-1.86l2.14,2.46
		c-1.54,1.82-3.94,2.78-6.88,2.78c-5.73,0-9.44-3.68-9.44-8.77c0-5.09,3.74-8.74,8.83-8.74c4.99,0,8.64,3.49,8.64,8.83
		C662.95,177.12,662.92,177.6,662.89,177.99z M649.45,175.33h9.7c-0.32-2.46-2.21-4.16-4.83-4.16
		C651.72,171.17,649.83,172.83,649.45,175.33z"/>
	<path class="st3" d="M683.53,161.51v23.74h-3.84v-2.21c-1.34,1.63-3.33,2.43-5.66,2.43c-4.96,0-8.64-3.46-8.64-8.77
		c0-5.31,3.68-8.74,8.64-8.74c2.21,0,4.16,0.74,5.5,2.3v-8.77H683.53z M679.59,176.71c0-3.26-2.21-5.34-5.09-5.34
		s-5.09,2.08-5.09,5.34c0,3.26,2.21,5.34,5.09,5.34S679.59,179.97,679.59,176.71z"/>
</g>
</svg>
