<?xml version="1.0" encoding="utf-8"?>
<!-- Generator: Adobe Illustrator 25.2.0, SVG Export Plug-In . SVG Version: 6.00 Build 0)  -->
<svg version="1.1" id="Layer_1" xmlns="http://www.w3.org/2000/svg" xmlns:xlink="http://www.w3.org/1999/xlink" x="0px" y="0px"
	 viewBox="0 0 933 675" style="enable-background:new 0 0 933 675;" xml:space="preserve">
<style type="text/css">
	.st0{clip-path:url(#SVGID_2_);}
	.st1{fill:none;}
	.st2{fill:#1F46B5;stroke:#000000;stroke-width:0.5;stroke-miterlimit:10;}
	.st3{fill:#D5DDF7;stroke:#000000;stroke-width:0.5;stroke-miterlimit:10;}
	.st4{fill:#A4B7EA;stroke:#000000;stroke-width:0.5;stroke-miterlimit:10;}
	.st5{fill:#1A3184;stroke:#000000;stroke-width:0.5;stroke-miterlimit:10;}
	.st6{fill:#EDABAB;stroke:#000000;stroke-width:0.5;stroke-miterlimit:10;}
	.st7{fill:#EBCEC7;stroke:#000000;stroke-width:0.5;stroke-miterlimit:10;}
	.st8{fill:#5B87E8;stroke:#000000;stroke-width:0.5;stroke-miterlimit:10;}
	.st9{fill:#F4807D;stroke:#000000;stroke-width:0.5;stroke-miterlimit:10;}
	.st10{fill:#EBCEC7;}
	.st11{fill:#5773EF;}
</style>
<g>
	<defs>
		<path id="SVGID_1_" d="M466.64-154.23c-275.31,0-498.49,223.18-498.49,498.49c0,275.31,223.18,498.49,498.49,498.49
			s498.49-223.18,498.49-498.49C965.13,68.95,741.95-154.23,466.64-154.23z M466.64,524.15c-99.35,0-179.89-80.54-179.89-179.89
			s80.54-179.89,179.89-179.89s179.89,80.54,179.89,179.89S565.99,524.15,466.64,524.15z"/>
	</defs>
	<clipPath id="SVGID_2_">
		<use xlink:href="#SVGID_1_"  style="overflow:visible;"/>
	</clipPath>
	<g class="st0">
		<rect x="398.01" y="-5.07" class="st1" width="38.86" height="58.29"/>
		<g>
			<path class="st2" d="M471.28,349.03l-70.4-262.74c23.22-6.22,46.37-9.27,70.4-9.27V349.03z"/>
		</g>
	</g>
	<g class="st0">
		<rect x="233.36" y="37.22" class="st1" width="38.86" height="58.29"/>
		<g>
			<path class="st3" d="M471.28,349.03l-101.9-252.2c11.14-4.5,19.89-7.43,31.5-10.54L471.28,349.03z"/>
		</g>
	</g>
	<g class="st0">
		<rect x="19.17" y="103.65" class="st1" width="38.86" height="58.29"/>
		<g>
			<path class="st4" d="M471.28,349.03L240.6,204.88c31.84-50.96,73.07-85.55,128.78-108.06L471.28,349.03z"/>
		</g>
	</g>
	<g class="st0">
		<rect x="60.42" y="204.33" class="st1" width="38.86" height="58.29"/>
		<g>
			<path class="st5" d="M471.28,349.03l-258.7-84.06c7.43-22.86,15.28-39.7,28.02-60.09L471.28,349.03z"/>
		</g>
	</g>
	<g class="st0">
		<rect x="102.43" y="531.28" class="st1" width="38.86" height="58.29"/>
		<g>
			<path class="st6" d="M471.28,349.03L311.39,569.09c-97.23-70.64-135.95-189.82-98.81-304.12L471.28,349.03z"/>
		</g>
	</g>
	<g class="st0">
		<rect x="320" y="627.67" class="st1" width="38.86" height="58.29"/>
		<g>
			<path class="st7" d="M471.28,349.03l-84.06,258.7c-28.57-9.28-51.52-20.98-75.83-38.64L471.28,349.03z"/>
		</g>
	</g>
	<g class="st0">
		<rect x="742.78" y="198.01" class="st1" width="38.86" height="58.29"/>
		<g>
			<path class="st8" d="M471.28,349.03l220.06-159.88c88.3,121.54,61.36,291.64-60.18,379.95
				c-72.92,52.98-158.22,66.49-243.94,38.64L471.28,349.03z"/>
		</g>
	</g>
	<g class="st0">
		<rect x="677.83" y="86.53" class="st1" width="38.86" height="58.29"/>
		<g>
			<path class="st9" d="M471.28,349.03V77.01c90.14,0,167.08,39.2,220.06,112.13L471.28,349.03z"/>
		</g>
	</g>
	<g class="st0">
		<path class="st10" d="M412.45,47.79c0-5.95,4.55-10.38,10.72-10.38c6.12,0,10.7,4.4,10.7,10.38s-4.58,10.38-10.7,10.38
			C416.99,58.16,412.45,53.73,412.45,47.79z M431.71,47.79c0-4.87-3.64-8.45-8.54-8.45c-4.92,0-8.6,3.58-8.6,8.45
			s3.67,8.45,8.6,8.45C428.07,56.24,431.71,52.65,431.71,47.79z"/>
		<path class="st10" d="M446.49,57.05c-0.82,0.73-2.04,1.08-3.23,1.08c-2.89,0-4.49-1.63-4.49-4.46V44.4h-2.74v-1.75h2.74V39.3h2.07
			v3.35h4.66v1.75h-4.66v9.15c0,1.81,0.93,2.8,2.65,2.8c0.85,0,1.69-0.26,2.27-0.79L446.49,57.05z"/>
		<path class="st10" d="M464.35,49.1v8.89h-2.07V49.3c0-3.24-1.69-4.9-4.6-4.9c-3.29,0-5.36,2.04-5.36,5.54v8.04h-2.07V36.36h2.07
			v8.98c1.14-1.78,3.15-2.8,5.74-2.8C461.79,42.54,464.35,44.7,464.35,49.1z"/>
		<path class="st10" d="M483.38,50.96h-12.82c0.23,3.21,2.68,5.33,6.03,5.33c1.87,0,3.53-0.67,4.69-2.01l1.17,1.34
			c-1.37,1.63-3.5,2.51-5.92,2.51c-4.78,0-8.04-3.26-8.04-7.81c0-4.55,3.18-7.78,7.49-7.78s7.43,3.18,7.43,7.78
			C483.41,50.5,483.38,50.73,483.38,50.96z M470.56,49.42h10.87c-0.26-3-2.45-5.1-5.45-5.1C473.01,44.32,470.82,46.42,470.56,49.42z
			"/>
		<path class="st10" d="M495.36,42.54v2.01c-0.17,0-0.35-0.03-0.5-0.03c-3.21,0-5.16,2.04-5.16,5.65v7.81h-2.07V42.66h1.98v3
			C490.58,43.62,492.53,42.54,495.36,42.54z"/>
	</g>
	<g class="st0">
		<path class="st10" d="M280.81,75.32l0.84-1.66c1.46,1.43,4.05,2.48,6.73,2.48c3.82,0,5.48-1.6,5.48-3.61
			c0-5.6-12.56-2.16-12.56-9.71c0-3,2.33-5.6,7.52-5.6c2.3,0,4.69,0.67,6.32,1.81l-0.73,1.72c-1.75-1.14-3.79-1.69-5.6-1.69
			c-3.73,0-5.39,1.66-5.39,3.7c0,5.6,12.56,2.21,12.56,9.65c0,3-2.39,5.57-7.61,5.57C285.33,77.97,282.33,76.89,280.81,75.32z"/>
		<path class="st10" d="M315.78,70.13c0,4.66-3.26,7.81-7.64,7.81c-2.45,0-4.55-1.05-5.83-3.03v8.54h-2.07V62.46h1.98v3.03
			c1.25-2.04,3.38-3.15,5.92-3.15C312.52,62.35,315.78,65.49,315.78,70.13z M313.71,70.13c0-3.56-2.48-5.97-5.71-5.97
			c-3.26,0-5.71,2.42-5.71,5.97c0,3.58,2.45,5.97,5.71,5.97C311.24,76.1,313.71,73.71,313.71,70.13z"/>
		<path class="st10" d="M318.46,70.13c0-4.55,3.32-7.78,7.81-7.78s7.78,3.24,7.78,7.78c0,4.55-3.29,7.81-7.78,7.81
			S318.46,74.67,318.46,70.13z M331.96,70.13c0-3.58-2.42-5.97-5.68-5.97c-3.26,0-5.71,2.39-5.71,5.97c0,3.58,2.45,5.97,5.71,5.97
			C329.54,76.1,331.96,73.71,331.96,70.13z"/>
		<path class="st10" d="M346.36,76.86c-0.82,0.73-2.04,1.08-3.23,1.08c-2.89,0-4.49-1.63-4.49-4.46v-9.27h-2.74v-1.75h2.74v-3.35
			h2.07v3.35h4.66v1.75h-4.66v9.15c0,1.81,0.93,2.8,2.65,2.8c0.85,0,1.69-0.26,2.27-0.79L346.36,76.86z"/>
		<path class="st10" d="M349.65,57.62c0-0.79,0.67-1.46,1.52-1.46c0.84,0,1.52,0.64,1.52,1.43c0,0.84-0.64,1.51-1.52,1.51
			C350.32,59.11,349.65,58.44,349.65,57.62z M350.12,62.46h2.07v15.33h-2.07V62.46z"/>
		<path class="st10" d="M360.32,60.66v1.81h4.72v1.75h-4.66v13.58h-2.07V64.21h-2.74v-1.75h2.74v-1.89c0-2.74,1.63-4.55,4.63-4.55
			c1.14,0,2.3,0.32,3.06,0.96l-0.7,1.54c-0.58-0.5-1.4-0.76-2.27-0.76C361.25,57.77,360.32,58.76,360.32,60.66z"/>
		<path class="st10" d="M381.01,62.46l-7.66,17.17c-1.28,3-2.92,3.96-5.1,3.96c-1.43,0-2.8-0.47-3.73-1.4l0.96-1.54
			c0.76,0.76,1.69,1.17,2.8,1.17c1.37,0,2.3-0.64,3.18-2.57l0.67-1.49l-6.85-15.3h2.16l5.77,13.03l5.77-13.03H381.01z"/>
	</g>
	<g class="st0">
		<path class="st10" d="M177.79,131.91c0,4.34-3.15,6.97-8.33,6.97h-5.48v6.44h-2.16v-20.4h7.64
			C174.65,124.91,177.79,127.53,177.79,131.91z M175.64,131.91c0-3.26-2.16-5.13-6.24-5.13h-5.42v10.2h5.42
			C173.48,136.98,175.64,135.11,175.64,131.91z"/>
		<path class="st10" d="M196.12,129.98v15.33h-1.98v-2.8c-1.08,1.87-3.06,2.94-5.51,2.94c-3.91,0-6.47-2.19-6.47-6.59v-8.89h2.07
			v8.69c0,3.26,1.69,4.92,4.6,4.92c3.21,0,5.22-2.07,5.22-5.57v-8.04H196.12z"/>
		<path class="st10" d="M212.74,143.59v1.72h-12.47v-1.37l9.65-12.21h-9.47v-1.75h12.12v1.37l-9.65,12.24H212.74z"/>
		<path class="st10" d="M227.63,143.59v1.72h-12.47v-1.37l9.65-12.21h-9.47v-1.75h12.12v1.37l-9.65,12.24H227.63z"/>
		<path class="st10" d="M231.71,123.69h2.07v21.62h-2.07V123.69z"/>
		<path class="st10" d="M252.9,138.29h-12.82c0.23,3.21,2.68,5.33,6.03,5.33c1.87,0,3.53-0.67,4.69-2.01l1.17,1.34
			c-1.37,1.63-3.5,2.51-5.92,2.51c-4.78,0-8.04-3.26-8.04-7.81c0-4.55,3.18-7.78,7.49-7.78c4.31,0,7.43,3.18,7.43,7.78
			C252.93,137.82,252.9,138.05,252.9,138.29z M240.07,136.74h10.87c-0.26-3-2.45-5.1-5.45-5.1
			C242.52,131.64,240.34,133.74,240.07,136.74z"/>
		<path class="st10" d="M255.02,143.56l0.93-1.63c1.22,0.96,3.29,1.72,5.45,1.72c2.91,0,4.11-0.99,4.11-2.51
			c0-3.99-9.94-0.85-9.94-6.91c0-2.51,2.16-4.37,6.06-4.37c1.98,0,4.14,0.55,5.42,1.43l-0.9,1.66c-1.34-0.93-2.94-1.31-4.52-1.31
			c-2.77,0-3.99,1.08-3.99,2.54c0,4.14,9.94,1.02,9.94,6.91c0,2.65-2.33,4.37-6.32,4.37C258.72,145.46,256.28,144.64,255.02,143.56z
			"/>
	</g>
	<g class="st0">
		<path class="st10" d="M117.66,257.24l-4.66-6.56c-0.52,0.06-1.05,0.09-1.63,0.09h-5.48v6.47h-2.16v-20.4h7.64
			c5.19,0,8.34,2.62,8.34,7c0,3.21-1.69,5.45-4.66,6.41l4.98,7H117.66z M117.55,243.83c0-3.26-2.16-5.13-6.24-5.13h-5.42v10.23h5.42
			C115.39,248.93,117.55,247.04,117.55,243.83z"/>
		<path class="st10" d="M137.71,250.22h-12.82c0.23,3.21,2.68,5.33,6.03,5.33c1.87,0,3.53-0.67,4.69-2.01l1.17,1.34
			c-1.37,1.63-3.5,2.51-5.92,2.51c-4.78,0-8.04-3.26-8.04-7.81c0-4.55,3.18-7.78,7.49-7.78c4.31,0,7.43,3.18,7.43,7.78
			C137.74,249.75,137.71,249.98,137.71,250.22z M124.89,248.67h10.87c-0.26-3-2.45-5.1-5.45-5.1
			C127.34,243.57,125.15,245.67,124.89,248.67z"/>
		<path class="st10" d="M155.96,235.62v21.62h-1.98v-3.03c-1.25,2.07-3.38,3.18-5.92,3.18c-4.37,0-7.64-3.18-7.64-7.81
			s3.26-7.78,7.64-7.78c2.45,0,4.55,1.05,5.83,3.03v-9.21H155.96z M153.92,249.58c0-3.58-2.45-5.97-5.68-5.97
			c-3.26,0-5.71,2.39-5.71,5.97s2.45,5.97,5.71,5.97C151.47,255.55,153.92,253.16,153.92,249.58z"/>
		<path class="st10" d="M175.72,235.62v21.62h-1.98v-3.03c-1.25,2.07-3.38,3.18-5.92,3.18c-4.37,0-7.64-3.18-7.64-7.81
			s3.26-7.78,7.64-7.78c2.45,0,4.55,1.05,5.83,3.03v-9.21H175.72z M173.68,249.58c0-3.58-2.45-5.97-5.68-5.97
			c-3.26,0-5.71,2.39-5.71,5.97s2.45,5.97,5.71,5.97C171.23,255.55,173.68,253.16,173.68,249.58z"/>
		<path class="st10" d="M181.02,237.07c0-0.79,0.67-1.46,1.52-1.46s1.52,0.64,1.52,1.43c0,0.85-0.64,1.52-1.52,1.52
			C181.69,238.56,181.02,237.89,181.02,237.07z M181.49,241.91h2.07v15.33h-2.07V241.91z"/>
		<path class="st10" d="M197.4,256.31c-0.82,0.73-2.04,1.08-3.23,1.08c-2.89,0-4.49-1.63-4.49-4.46v-9.27h-2.74v-1.75h2.74v-3.35
			h2.07v3.35h4.66v1.75h-4.66v9.15c0,1.81,0.93,2.8,2.65,2.8c0.85,0,1.69-0.26,2.27-0.79L197.4,256.31z"/>
	</g>
	<g class="st0">
		<path class="st10" d="M130.12,527.02v7.05h-2.13v-7.05l-8.16-13.35h2.3l6.99,11.45l6.99-11.45h2.16L130.12,527.02z"/>
		<path class="st10" d="M137.9,526.41c0-4.55,3.32-7.78,7.81-7.78s7.78,3.23,7.78,7.78s-3.29,7.81-7.78,7.81
			S137.9,530.96,137.9,526.41z M151.39,526.41c0-3.58-2.42-5.97-5.68-5.97s-5.71,2.39-5.71,5.97s2.45,5.97,5.71,5.97
			S151.39,529.99,151.39,526.41z"/>
		<path class="st10" d="M171.53,518.74v15.33h-1.98v-2.8c-1.08,1.87-3.06,2.94-5.51,2.94c-3.91,0-6.47-2.19-6.47-6.59v-8.89h2.07
			v8.69c0,3.26,1.69,4.92,4.6,4.92c3.21,0,5.22-2.07,5.22-5.57v-8.04H171.53z"/>
		<path class="st10" d="M179.05,515.54h-7.17v-1.87h16.5v1.87h-7.17v18.54h-2.16V515.54z"/>
		<path class="st10" d="M204.78,518.74v15.33h-1.98v-2.8c-1.08,1.87-3.06,2.94-5.51,2.94c-3.91,0-6.47-2.19-6.47-6.59v-8.89h2.07
			v8.69c0,3.26,1.69,4.92,4.6,4.92c3.21,0,5.22-2.07,5.22-5.57v-8.04H204.78z"/>
		<path class="st10" d="M226.12,526.41c0,4.63-3.26,7.81-7.64,7.81c-2.54,0-4.66-1.11-5.92-3.18v3.03h-1.98v-21.62h2.07v9.21
			c1.28-1.98,3.38-3.03,5.83-3.03C222.85,518.63,226.12,521.77,226.12,526.41z M224.05,526.41c0-3.58-2.48-5.97-5.71-5.97
			c-3.26,0-5.71,2.39-5.71,5.97s2.45,5.97,5.71,5.97C221.57,532.38,224.05,529.99,224.05,526.41z"/>
		<path class="st10" d="M243.69,527.05h-12.82c0.23,3.21,2.68,5.33,6.03,5.33c1.87,0,3.53-0.67,4.69-2.01l1.17,1.34
			c-1.37,1.63-3.5,2.51-5.92,2.51c-4.78,0-8.04-3.26-8.04-7.81s3.18-7.78,7.49-7.78c4.31,0,7.43,3.18,7.43,7.78
			C243.72,526.58,243.69,526.82,243.69,527.05z M230.87,525.5h10.87c-0.26-3-2.45-5.1-5.45-5.1
			C233.31,520.4,231.13,522.5,230.87,525.5z"/>
	</g>
	<g class="st0">
		<path class="st10" d="M265.45,611.71h-7.17v-1.87h16.5v1.87h-7.17v18.54h-2.16V611.71z"/>
		<path class="st10" d="M299.29,614.91l-5.8,15.33h-1.95l-4.84-12.56l-4.84,12.56h-1.95l-5.77-15.33h1.98l4.81,13.03l4.92-13.03
			h1.78l4.9,13.03l4.87-13.03H299.29z"/>
		<path class="st10" d="M301.94,610.07c0-0.79,0.67-1.46,1.52-1.46c0.84,0,1.52,0.64,1.52,1.43c0,0.85-0.64,1.52-1.52,1.52
			C302.61,611.56,301.94,610.89,301.94,610.07z M302.4,614.91h2.07v15.33h-2.07V614.91z"/>
		<path class="st10" d="M318.32,629.31c-0.82,0.73-2.04,1.08-3.23,1.08c-2.89,0-4.49-1.63-4.49-4.46v-9.27h-2.74v-1.75h2.74v-3.35
			h2.07v3.35h4.66v1.75h-4.66v9.15c0,1.81,0.93,2.8,2.65,2.8c0.85,0,1.69-0.26,2.27-0.79L318.32,629.31z"/>
		<path class="st10" d="M329.74,629.31c-0.82,0.73-2.04,1.08-3.23,1.08c-2.89,0-4.49-1.63-4.49-4.46v-9.27h-2.74v-1.75h2.74v-3.35
			h2.07v3.35h4.66v1.75h-4.66v9.15c0,1.81,0.93,2.8,2.65,2.8c0.85,0,1.69-0.26,2.27-0.79L329.74,629.31z"/>
		<path class="st10" d="M346.29,623.22h-12.82c0.23,3.21,2.68,5.33,6.03,5.33c1.87,0,3.53-0.67,4.69-2.01l1.17,1.34
			c-1.37,1.63-3.5,2.51-5.92,2.51c-4.78,0-8.04-3.26-8.04-7.81s3.18-7.78,7.49-7.78s7.43,3.18,7.43,7.78
			C346.32,622.75,346.29,622.99,346.29,623.22z M333.47,621.67h10.87c-0.26-3-2.45-5.1-5.45-5.1
			C335.92,616.57,333.73,618.67,333.47,621.67z"/>
		<path class="st10" d="M358.27,614.8v2.01c-0.17,0-0.35-0.03-0.5-0.03c-3.21,0-5.16,2.04-5.16,5.65v7.81h-2.07v-15.33h1.98v3
			C353.49,615.87,355.44,614.8,358.27,614.8z"/>
	</g>
	<g class="st0">
		<path class="st10" d="M756.67,317.48l0.84-1.66c1.46,1.43,4.05,2.48,6.73,2.48c3.82,0,5.48-1.6,5.48-3.61
			c0-5.6-12.56-2.16-12.56-9.71c0-3,2.33-5.6,7.52-5.6c2.3,0,4.69,0.67,6.32,1.81l-0.73,1.72c-1.75-1.14-3.79-1.69-5.6-1.69
			c-3.73,0-5.39,1.66-5.39,3.7c0,5.6,12.56,2.22,12.56,9.65c0,3-2.39,5.57-7.61,5.57C761.19,320.13,758.19,319.06,756.67,317.48z"/>
		<path class="st10" d="M790.22,311.07v8.89h-2.07v-8.69c0-3.23-1.69-4.9-4.6-4.9c-3.29,0-5.36,2.04-5.36,5.54v8.04h-2.07v-15.33
			h1.98v2.83c1.11-1.87,3.18-2.94,5.83-2.94C787.65,304.51,790.22,306.67,790.22,311.07z"/>
		<path class="st10" d="M807.41,310.46v9.5h-1.98v-2.39c-0.93,1.57-2.74,2.54-5.28,2.54c-3.47,0-5.6-1.81-5.6-4.46
			c0-2.36,1.52-4.34,5.92-4.34h4.87v-0.93c0-2.62-1.49-4.05-4.34-4.05c-1.98,0-3.85,0.7-5.1,1.81l-0.93-1.54
			c1.54-1.31,3.82-2.07,6.24-2.07C805.17,304.51,807.41,306.49,807.41,310.46z M805.34,315.35v-2.51h-4.81
			c-2.97,0-3.93,1.17-3.93,2.74c0,1.78,1.43,2.89,3.88,2.89C802.81,318.47,804.53,317.37,805.34,315.35z"/>
		<path class="st10" d="M828.57,312.29c0,4.66-3.26,7.81-7.64,7.81c-2.45,0-4.55-1.05-5.83-3.03v8.54h-2.07v-20.98h1.98v3.03
			c1.25-2.04,3.38-3.15,5.92-3.15C825.31,304.51,828.57,307.66,828.57,312.29z M826.5,312.29c0-3.56-2.48-5.97-5.71-5.97
			c-3.26,0-5.71,2.42-5.71,5.97c0,3.58,2.45,5.97,5.71,5.97C824.03,318.27,826.5,315.88,826.5,312.29z"/>
		<path class="st10" d="M831.25,312.29c0-4.58,3.32-7.78,7.9-7.78c2.59,0,4.78,1.02,6,3.03l-1.54,1.05
			c-1.05-1.54-2.68-2.27-4.46-2.27c-3.35,0-5.8,2.39-5.8,5.97c0,3.61,2.45,5.97,5.8,5.97c1.78,0,3.41-0.7,4.46-2.24l1.54,1.05
			c-1.22,1.98-3.41,3.03-6,3.03C834.58,320.1,831.25,316.87,831.25,312.29z"/>
		<path class="st10" d="M863.08,311.07v8.89h-2.07v-8.69c0-3.23-1.69-4.9-4.6-4.9c-3.29,0-5.36,2.04-5.36,5.54v8.04h-2.07v-21.62
			h2.07v8.98c1.14-1.78,3.15-2.8,5.74-2.8C860.51,304.51,863.08,306.67,863.08,311.07z"/>
		<path class="st10" d="M880.27,310.46v9.5h-1.98v-2.39c-0.93,1.57-2.74,2.54-5.28,2.54c-3.47,0-5.6-1.81-5.6-4.46
			c0-2.36,1.52-4.34,5.92-4.34h4.87v-0.93c0-2.62-1.49-4.05-4.34-4.05c-1.98,0-3.85,0.7-5.1,1.81l-0.93-1.54
			c1.54-1.31,3.82-2.07,6.24-2.07C878.03,304.51,880.27,306.49,880.27,310.46z M878.2,315.35v-2.51h-4.81
			c-2.97,0-3.93,1.17-3.93,2.74c0,1.78,1.43,2.89,3.88,2.89C875.67,318.47,877.39,317.37,878.2,315.35z"/>
		<path class="st10" d="M893.97,319.03c-0.82,0.73-2.04,1.08-3.23,1.08c-2.89,0-4.49-1.63-4.49-4.46v-9.27h-2.74v-1.75h2.74v-3.35
			h2.07v3.35h4.66v1.75h-4.66v9.15c0,1.81,0.93,2.8,2.65,2.8c0.85,0,1.69-0.26,2.27-0.79L893.97,319.03z"/>
	</g>
	<g class="st0">
		<path class="st10" d="M666.49,117.3h2.16v20.4h-2.16V117.3z"/>
		<path class="st10" d="M688.96,128.81v8.89h-2.07v-8.68c0-3.24-1.69-4.9-4.6-4.9c-3.29,0-5.36,2.04-5.36,5.54v8.04h-2.07v-15.33
			h1.98v2.83c1.11-1.87,3.18-2.94,5.83-2.94C686.39,122.26,688.96,124.41,688.96,128.81z"/>
		<path class="st10" d="M692.45,135.95l0.93-1.63c1.22,0.96,3.29,1.72,5.45,1.72c2.91,0,4.11-0.99,4.11-2.51
			c0-3.99-9.94-0.85-9.94-6.91c0-2.51,2.16-4.37,6.06-4.37c1.98,0,4.14,0.55,5.42,1.43l-0.9,1.66c-1.34-0.93-2.94-1.31-4.52-1.31
			c-2.77,0-3.99,1.08-3.99,2.54c0,4.14,9.94,1.02,9.94,6.91c0,2.65-2.33,4.37-6.33,4.37C696.15,137.85,693.71,137.03,692.45,135.95z
			"/>
		<path class="st10" d="M716.9,136.77c-0.82,0.73-2.04,1.08-3.23,1.08c-2.89,0-4.49-1.63-4.49-4.46v-9.27h-2.74v-1.75h2.74v-3.35
			h2.07v3.35h4.66v1.75h-4.66v9.15c0,1.81,0.93,2.8,2.65,2.8c0.85,0,1.69-0.26,2.27-0.79L716.9,136.77z"/>
		<path class="st10" d="M732.23,128.2v9.5h-1.98v-2.39c-0.93,1.57-2.74,2.54-5.28,2.54c-3.47,0-5.6-1.81-5.6-4.46
			c0-2.36,1.52-4.34,5.92-4.34h4.87v-0.93c0-2.62-1.49-4.05-4.34-4.05c-1.98,0-3.85,0.7-5.1,1.81l-0.93-1.54
			c1.54-1.31,3.82-2.07,6.24-2.07C729.99,122.26,732.23,124.24,732.23,128.2z M730.17,133.1v-2.51h-4.81
			c-2.97,0-3.93,1.17-3.93,2.74c0,1.78,1.43,2.88,3.88,2.88C727.63,136.22,729.35,135.11,730.17,133.1z"/>
		<path class="st10" d="M752.11,122.37v13.46c0,5.28-2.59,7.67-7.66,7.67c-2.8,0-5.54-0.84-7.14-2.36l1.05-1.57
			c1.46,1.31,3.67,2.1,6.03,2.1c3.88,0,5.65-1.78,5.65-5.57v-1.95c-1.28,1.95-3.47,2.97-5.97,2.97c-4.37,0-7.69-3.06-7.69-7.46
			c0-4.4,3.32-7.4,7.69-7.4c2.56,0,4.78,1.05,6.06,3.06v-2.94H752.11z M750.1,129.66c0-3.32-2.45-5.6-5.83-5.6
			c-3.38,0-5.8,2.27-5.8,5.6c0,3.32,2.42,5.62,5.8,5.62C747.65,135.28,750.1,132.98,750.1,129.66z"/>
		<path class="st10" d="M765.63,122.26v2.01c-0.17,0-0.35-0.03-0.5-0.03c-3.21,0-5.16,2.04-5.16,5.65v7.81h-2.07v-15.33h1.98v3
			C760.85,123.33,762.8,122.26,765.63,122.26z"/>
		<path class="st10" d="M780.9,128.2v9.5h-1.98v-2.39c-0.93,1.57-2.74,2.54-5.28,2.54c-3.47,0-5.6-1.81-5.6-4.46
			c0-2.36,1.52-4.34,5.92-4.34h4.87v-0.93c0-2.62-1.49-4.05-4.34-4.05c-1.98,0-3.85,0.7-5.1,1.81l-0.93-1.54
			c1.54-1.31,3.82-2.07,6.24-2.07C778.66,122.26,780.9,124.24,780.9,128.2z M778.83,133.1v-2.51h-4.81c-2.97,0-3.93,1.17-3.93,2.74
			c0,1.78,1.43,2.88,3.88,2.88C776.3,136.22,778.02,135.11,778.83,133.1z"/>
		<path class="st10" d="M811.83,128.81v8.89h-2.07v-8.68c0-3.24-1.63-4.9-4.4-4.9c-3.15,0-5.13,2.04-5.13,5.54v8.04h-2.07v-8.68
			c0-3.24-1.63-4.9-4.43-4.9c-3.12,0-5.13,2.04-5.13,5.54v8.04h-2.07v-15.33h1.98v2.8c1.08-1.84,3.06-2.91,5.62-2.91
			c2.54,0,4.52,1.08,5.45,3.24c1.11-1.98,3.29-3.24,6.06-3.24C809.38,122.26,811.83,124.41,811.83,128.81z"/>
	</g>
</g>
<g>
	<path class="st11" d="M407.61,283.64l-0.03-14.85l-7.36,12.29h-1.86l-7.36-12.1v14.66h-3.97v-22.4h3.42l8.9,14.85l8.74-14.85h3.42
		l0.03,22.4H407.61z"/>
	<path class="st11" d="M415.8,275.1c0-5.12,3.84-8.74,9.09-8.74c5.31,0,9.12,3.62,9.12,8.74c0,5.12-3.81,8.77-9.12,8.77
		C419.64,283.86,415.8,280.22,415.8,275.1z M429.98,275.1c0-3.26-2.18-5.34-5.09-5.34c-2.88,0-5.06,2.08-5.06,5.34
		c0,3.26,2.18,5.34,5.06,5.34C427.8,280.44,429.98,278.36,429.98,275.1z"/>
	<path class="st11" d="M435.9,281.94l1.54-3.04c1.5,0.99,3.81,1.7,5.95,1.7c2.53,0,3.58-0.7,3.58-1.89c0-3.26-10.56-0.19-10.56-7.01
		c0-3.23,2.91-5.34,7.52-5.34c2.27,0,4.86,0.54,6.4,1.47l-1.54,3.04c-1.63-0.96-3.26-1.28-4.9-1.28c-2.43,0-3.58,0.8-3.58,1.92
		c0,3.46,10.56,0.38,10.56,7.07c0,3.2-2.94,5.28-7.74,5.28C440.28,283.86,437.43,283.03,435.9,281.94z"/>
	<path class="st11" d="M464.6,282.71c-0.96,0.77-2.4,1.15-3.84,1.15c-3.74,0-5.89-1.98-5.89-5.76v-8.22h-2.82v-3.2h2.82v-3.9h4v3.9
		h4.58v3.2h-4.58v8.13c0,1.66,0.83,2.56,2.37,2.56c0.83,0,1.63-0.22,2.24-0.7L464.6,282.71z"/>
	<path class="st11" d="M476.92,273.88v-12.64h4.16v12.48c0,4.61,2.08,6.59,5.7,6.59c3.62,0,5.66-1.98,5.66-6.59v-12.48h4.1v12.64
		c0,6.53-3.68,10.08-9.79,10.08C480.6,283.96,476.92,280.41,476.92,273.88z"/>
	<path class="st11" d="M500.03,281.94l1.54-3.04c1.5,0.99,3.81,1.7,5.95,1.7c2.53,0,3.58-0.7,3.58-1.89
		c0-3.26-10.56-0.19-10.56-7.01c0-3.23,2.91-5.34,7.52-5.34c2.27,0,4.86,0.54,6.4,1.47l-1.54,3.04c-1.63-0.96-3.26-1.28-4.9-1.28
		c-2.43,0-3.58,0.8-3.58,1.92c0,3.46,10.56,0.38,10.56,7.07c0,3.2-2.94,5.28-7.74,5.28C504.41,283.86,501.56,283.03,500.03,281.94z"
		/>
	<path class="st11" d="M534.46,276.38h-13.41c0.48,2.5,2.56,4.1,5.54,4.1c1.92,0,3.42-0.61,4.64-1.86l2.14,2.46
		c-1.54,1.82-3.94,2.78-6.88,2.78c-5.73,0-9.44-3.68-9.44-8.77c0-5.09,3.74-8.74,8.83-8.74c4.99,0,8.64,3.49,8.64,8.83
		C534.52,275.51,534.49,275.99,534.46,276.38z M521.02,273.72h9.7c-0.32-2.46-2.21-4.16-4.83-4.16
		C523.29,269.56,521.4,271.22,521.02,273.72z"/>
	<path class="st11" d="M555.1,259.9v23.74h-3.84v-2.21c-1.34,1.63-3.33,2.43-5.66,2.43c-4.96,0-8.64-3.46-8.64-8.77
		c0-5.31,3.68-8.74,8.64-8.74c2.21,0,4.16,0.74,5.5,2.3v-8.77H555.1z M551.16,275.1c0-3.26-2.21-5.34-5.09-5.34
		s-5.09,2.08-5.09,5.34c0,3.26,2.21,5.34,5.09,5.34S551.16,278.36,551.16,275.1z"/>
	<path class="st11" d="M385.29,316.86h-11.2l-2.21,5.18h-4.29l10.08-22.4h4.1l10.11,22.4h-4.35L385.29,316.86z M383.91,313.59
		l-4.22-9.79l-4.19,9.79H383.91z"/>
	<path class="st11" d="M412.49,313.5c0,5.31-3.68,8.77-8.67,8.77c-2.18,0-4.1-0.74-5.47-2.3v8.29h-4v-23.29h3.81v2.24
		c1.34-1.63,3.33-2.43,5.66-2.43C408.81,304.76,412.49,308.22,412.49,313.5z M408.43,313.5c0-3.26-2.18-5.34-5.06-5.34
		s-5.09,2.08-5.09,5.34c0,3.26,2.21,5.34,5.09,5.34S408.43,316.76,408.43,313.5z"/>
	<path class="st11" d="M434.44,313.5c0,5.31-3.68,8.77-8.67,8.77c-2.18,0-4.1-0.74-5.47-2.3v8.29h-4v-23.29h3.81v2.24
		c1.34-1.63,3.33-2.43,5.66-2.43C430.76,304.76,434.44,308.22,434.44,313.5z M430.38,313.5c0-3.26-2.18-5.34-5.06-5.34
		s-5.09,2.08-5.09,5.34c0,3.26,2.21,5.34,5.09,5.34S430.38,316.76,430.38,313.5z"/>
	<path class="st11" d="M438.25,298.3h4v23.74h-4V298.3z"/>
	<path class="st11" d="M446.95,299.74c0-1.34,1.09-2.4,2.56-2.4s2.56,0.99,2.56,2.3c0,1.41-1.06,2.5-2.56,2.5
		C448.04,302.14,446.95,301.08,446.95,299.74z M447.5,304.95h4v17.09h-4V304.95z"/>
	<path class="st11" d="M455.34,313.5c0-5.12,3.84-8.74,9.25-8.74c3.33,0,5.98,1.38,7.3,3.97l-3.07,1.79
		c-1.02-1.63-2.56-2.37-4.25-2.37c-2.94,0-5.18,2.05-5.18,5.34c0,3.33,2.24,5.34,5.18,5.34c1.7,0,3.23-0.74,4.25-2.37l3.07,1.79
		c-1.31,2.56-3.97,4-7.3,4C459.18,322.26,455.34,318.62,455.34,313.5z"/>
	<path class="st11" d="M489.64,312.02v10.02h-3.78v-2.08c-0.96,1.47-2.82,2.3-5.38,2.3c-3.9,0-6.37-2.14-6.37-5.12
		c0-2.85,1.92-5.09,7.1-5.09h4.42v-0.26c0-2.34-1.41-3.71-4.26-3.71c-1.92,0-3.9,0.64-5.18,1.7l-1.57-2.91
		c1.82-1.41,4.48-2.11,7.23-2.11C486.79,304.76,489.64,307.1,489.64,312.02z M485.64,316.7v-1.98h-4.13c-2.72,0-3.46,1.02-3.46,2.27
		c0,1.44,1.22,2.37,3.26,2.37C483.27,319.35,484.97,318.46,485.64,316.7z"/>
	<path class="st11" d="M505.03,321.11c-0.96,0.77-2.4,1.15-3.84,1.15c-3.74,0-5.89-1.98-5.89-5.76v-8.22h-2.82v-3.2h2.82v-3.9h4v3.9
		h4.58v3.2h-4.58v8.13c0,1.66,0.83,2.56,2.37,2.56c0.83,0,1.63-0.22,2.24-0.7L505.03,321.11z"/>
	<path class="st11" d="M507.79,299.74c0-1.34,1.09-2.4,2.56-2.4s2.56,0.99,2.56,2.3c0,1.41-1.06,2.5-2.56,2.5
		C508.87,302.14,507.79,301.08,507.79,299.74z M508.33,304.95h4v17.09h-4V304.95z"/>
	<path class="st11" d="M516.17,313.5c0-5.12,3.84-8.74,9.09-8.74c5.31,0,9.12,3.62,9.12,8.74c0,5.12-3.81,8.77-9.12,8.77
		C520.01,322.26,516.17,318.62,516.17,313.5z M530.34,313.5c0-3.26-2.18-5.34-5.09-5.34c-2.88,0-5.06,2.08-5.06,5.34
		c0,3.26,2.18,5.34,5.06,5.34C528.17,318.84,530.34,316.76,530.34,313.5z"/>
	<path class="st11" d="M555.05,312.25v9.79h-4v-9.28c0-3.04-1.5-4.51-4.06-4.51c-2.85,0-4.77,1.73-4.77,5.15v8.64h-4v-17.09h3.81
		v2.21c1.31-1.57,3.39-2.4,5.89-2.4C552.01,304.76,555.05,307.1,555.05,312.25z"/>
	<path class="st11" d="M558.18,320.34l1.54-3.04c1.5,0.99,3.81,1.7,5.95,1.7c2.53,0,3.58-0.7,3.58-1.89
		c0-3.26-10.56-0.19-10.56-7.01c0-3.23,2.91-5.34,7.52-5.34c2.27,0,4.86,0.54,6.4,1.47l-1.54,3.04c-1.63-0.96-3.26-1.28-4.9-1.28
		c-2.43,0-3.58,0.8-3.58,1.92c0,3.46,10.56,0.38,10.56,7.07c0,3.2-2.94,5.28-7.74,5.28C562.57,322.26,559.72,321.43,558.18,320.34z"
		/>
	<path class="st11" d="M445.05,354.36c0,3.84-3.01,6.08-8.77,6.08h-11.13v-22.4h10.5c5.38,0,8.26,2.27,8.26,5.82
		c0,2.3-1.15,4-2.88,4.93C443.42,349.56,445.05,351.45,445.05,354.36z M429.3,341.3v6.18h5.89c2.88,0,4.51-1.02,4.51-3.07
		c0-2.08-1.63-3.1-4.51-3.1H429.3z M440.86,353.94c0-2.24-1.7-3.23-4.83-3.23h-6.72v6.46h6.72
		C439.16,357.18,440.86,356.18,440.86,353.94z"/>
	<path class="st11" d="M465.11,353.18h-13.41c0.48,2.5,2.56,4.1,5.54,4.1c1.92,0,3.42-0.61,4.64-1.86l2.14,2.46
		c-1.54,1.82-3.94,2.78-6.88,2.78c-5.73,0-9.44-3.68-9.44-8.77c0-5.09,3.74-8.74,8.83-8.74c4.99,0,8.64,3.49,8.64,8.83
		C465.18,352.31,465.14,352.79,465.11,353.18z M451.67,350.52h9.7c-0.32-2.46-2.21-4.16-4.83-4.16
		C453.94,346.36,452.06,348.02,451.67,350.52z"/>
	<path class="st11" d="M473.43,342.46v1.02h4.7v3.2h-4.58v13.76h-4v-13.76h-2.82v-3.2h2.82v-1.09c0-3.58,2.14-5.92,6.11-5.92
		c1.38,0,2.72,0.29,3.62,0.93l-1.12,3.01c-0.61-0.42-1.38-0.7-2.21-0.7C474.3,339.71,473.43,340.63,473.43,342.46z"/>
	<path class="st11" d="M479.16,351.9c0-5.12,3.84-8.74,9.09-8.74c5.31,0,9.12,3.62,9.12,8.74c0,5.12-3.81,8.77-9.12,8.77
		C483,360.66,479.16,357.02,479.16,351.9z M493.33,351.9c0-3.26-2.18-5.34-5.09-5.34c-2.88,0-5.06,2.08-5.06,5.34
		c0,3.26,2.18,5.34,5.06,5.34C491.16,357.24,493.33,355.16,493.33,351.9z"/>
	<path class="st11" d="M511.09,343.16v3.81c-0.35-0.06-0.64-0.1-0.93-0.1c-3.04,0-4.96,1.79-4.96,5.28v8.29h-4v-17.09h3.81v2.5
		C506.17,344.06,508.25,343.16,511.09,343.16z"/>
	<path class="st11" d="M530.33,353.18h-13.41c0.48,2.5,2.56,4.1,5.54,4.1c1.92,0,3.42-0.61,4.64-1.86l2.14,2.46
		c-1.54,1.82-3.94,2.78-6.88,2.78c-5.73,0-9.44-3.68-9.44-8.77c0-5.09,3.74-8.74,8.83-8.74c4.99,0,8.64,3.49,8.64,8.83
		C530.39,352.31,530.36,352.79,530.33,353.18z M516.89,350.52h9.7c-0.32-2.46-2.21-4.16-4.83-4.16
		C519.16,346.36,517.27,348.02,516.89,350.52z"/>
	<path class="st11" d="M418.5,387.38h3.94v8.93c-2.34,1.89-5.6,2.85-8.77,2.85c-6.94,0-12.06-4.83-12.06-11.52
		s5.12-11.52,12.13-11.52c3.74,0,6.88,1.25,8.99,3.65l-2.62,2.56c-1.76-1.76-3.78-2.56-6.18-2.56c-4.77,0-8.13,3.23-8.13,7.87
		c0,4.54,3.36,7.87,8.1,7.87c1.6,0,3.17-0.32,4.61-1.15V387.38z"/>
	<path class="st11" d="M426.12,390.3c0-5.12,3.84-8.74,9.09-8.74c5.31,0,9.12,3.62,9.12,8.74c0,5.12-3.81,8.77-9.12,8.77
		C429.96,399.06,426.12,395.42,426.12,390.3z M440.3,390.3c0-3.26-2.18-5.34-5.09-5.34c-2.88,0-5.06,2.08-5.06,5.34
		c0,3.26,2.18,5.34,5.06,5.34C438.12,395.64,440.3,393.56,440.3,390.3z"/>
	<path class="st11" d="M447.63,376.54c0-1.34,1.09-2.4,2.56-2.4s2.56,0.99,2.56,2.3c0,1.41-1.06,2.5-2.56,2.5
		C448.71,378.94,447.63,377.88,447.63,376.54z M448.17,381.75h4v17.09h-4V381.75z"/>
	<path class="st11" d="M474.25,389.05v9.79h-4v-9.28c0-3.04-1.5-4.51-4.06-4.51c-2.85,0-4.77,1.73-4.77,5.15v8.64h-4v-17.09h3.81
		v2.21c1.31-1.57,3.39-2.4,5.89-2.4C471.21,381.56,474.25,383.9,474.25,389.05z"/>
	<path class="st11" d="M496.46,381.75v14.5c0,6.21-3.23,9.02-9.22,9.02c-3.2,0-6.37-0.83-8.32-2.43l1.79-3.01
		c1.5,1.25,3.94,2.05,6.3,2.05c3.78,0,5.44-1.73,5.44-5.18v-0.9c-1.41,1.54-3.42,2.27-5.73,2.27c-4.9,0-8.64-3.33-8.64-8.29
		c0-4.96,3.74-8.22,8.64-8.22c2.4,0,4.51,0.77,5.92,2.46v-2.27H496.46z M492.52,389.78c0-2.88-2.18-4.83-5.18-4.83
		c-3.04,0-5.21,1.95-5.21,4.83c0,2.91,2.18,4.9,5.21,4.9C490.34,394.68,492.52,392.7,492.52,389.78z"/>
	<path class="st11" d="M520.81,397.91c-0.96,0.77-2.4,1.15-3.84,1.15c-3.74,0-5.89-1.98-5.89-5.76v-8.22h-2.82v-3.2h2.82v-3.9h4v3.9
		h4.58v3.2h-4.58v8.13c0,1.66,0.83,2.56,2.37,2.56c0.83,0,1.63-0.22,2.24-0.7L520.81,397.91z"/>
	<path class="st11" d="M522.12,390.3c0-5.12,3.84-8.74,9.09-8.74c5.31,0,9.12,3.62,9.12,8.74c0,5.12-3.81,8.77-9.12,8.77
		C525.96,399.06,522.12,395.42,522.12,390.3z M536.29,390.3c0-3.26-2.18-5.34-5.09-5.34c-2.88,0-5.06,2.08-5.06,5.34
		c0,3.26,2.18,5.34,5.06,5.34C534.12,395.64,536.29,393.56,536.29,390.3z"/>
	<path class="st11" d="M432.43,434.87l1.44-3.23c1.79,1.44,4.64,2.46,7.39,2.46c3.49,0,4.96-1.25,4.96-2.91
		c0-4.83-13.31-1.66-13.31-9.98c0-3.62,2.88-6.69,9.02-6.69c2.69,0,5.5,0.7,7.46,1.98l-1.31,3.23c-2.02-1.18-4.22-1.76-6.18-1.76
		c-3.46,0-4.86,1.34-4.86,3.04c0,4.77,13.28,1.66,13.28,9.89c0,3.58-2.91,6.66-9.06,6.66C437.77,437.56,434.28,436.47,432.43,434.87
		z"/>
	<path class="st11" d="M454.06,413.5h4v23.74h-4V413.5z"/>
	<path class="st11" d="M479.3,429.98H465.9c0.48,2.5,2.56,4.1,5.54,4.1c1.92,0,3.42-0.61,4.64-1.86l2.14,2.46
		c-1.54,1.82-3.94,2.78-6.88,2.78c-5.73,0-9.44-3.68-9.44-8.77c0-5.09,3.74-8.74,8.83-8.74c4.99,0,8.64,3.49,8.64,8.83
		C479.37,429.11,479.34,429.59,479.3,429.98z M465.87,427.32h9.7c-0.32-2.46-2.21-4.16-4.83-4.16
		C468.14,423.16,466.25,424.82,465.87,427.32z"/>
	<path class="st11" d="M499.21,429.98H485.8c0.48,2.5,2.56,4.1,5.54,4.1c1.92,0,3.42-0.61,4.64-1.86l2.14,2.46
		c-1.54,1.82-3.94,2.78-6.88,2.78c-5.73,0-9.44-3.68-9.44-8.77c0-5.09,3.74-8.74,8.83-8.74c4.99,0,8.64,3.49,8.64,8.83
		C499.27,429.11,499.24,429.59,499.21,429.98z M485.77,427.32h9.7c-0.32-2.46-2.21-4.16-4.83-4.16
		C488.04,423.16,486.15,424.82,485.77,427.32z"/>
	<path class="st11" d="M521.26,428.7c0,5.31-3.68,8.77-8.67,8.77c-2.18,0-4.1-0.74-5.47-2.3v8.29h-4v-23.29h3.81v2.24
		c1.34-1.63,3.33-2.43,5.66-2.43C517.58,419.96,521.26,423.42,521.26,428.7z M517.19,428.7c0-3.26-2.18-5.34-5.06-5.34
		s-5.09,2.08-5.09,5.34c0,3.26,2.21,5.34,5.09,5.34S517.19,431.96,517.19,428.7z"/>
</g>
</svg>
