<?xml version="1.0" encoding="utf-8"?>
<!-- Generator: Adobe Illustrator 25.2.0, SVG Export Plug-In . SVG Version: 6.00 Build 0)  -->
<svg version="1.1" id="Layer_1" xmlns="http://www.w3.org/2000/svg" xmlns:xlink="http://www.w3.org/1999/xlink" x="0px" y="0px"
	 viewBox="0 0 1132 538" style="enable-background:new 0 0 1132 538;" xml:space="preserve">
<style type="text/css">
	.st0{fill:#5773EF;}
	.st1{fill:#EBCEC7;}
</style>
<g>
	<path class="st0" d="M588.22,119.7l-10.52,24.54h-5.93l-10.52-24.54h5.97l7.63,18.2l7.86-18.2H588.22z"/>
	<path class="st0" d="M591.02,112.21c0-1.93,1.56-3.45,3.68-3.45s3.68,1.42,3.68,3.31c0,2.02-1.52,3.58-3.68,3.58
		C592.59,115.66,591.02,114.14,591.02,112.21z M591.8,119.7h5.75v24.54h-5.75V119.7z"/>
	<path class="st0" d="M603.07,131.98c0-7.35,5.52-12.55,13.05-12.55c7.63,0,13.1,5.19,13.1,12.55s-5.47,12.59-13.1,12.59
		C608.58,144.57,603.07,139.33,603.07,131.98z M623.43,131.98c0-4.69-3.12-7.68-7.31-7.68c-4.14,0-7.26,2.99-7.26,7.68
		c0,4.69,3.12,7.67,7.26,7.67C620.3,139.65,623.43,136.66,623.43,131.98z"/>
	<path class="st0" d="M634.73,110.15h5.75v34.1h-5.75V110.15z"/>
	<path class="st0" d="M671,133.81h-19.26c0.69,3.58,3.68,5.88,7.95,5.88c2.76,0,4.92-0.87,6.66-2.67l3.08,3.54
		c-2.21,2.62-5.65,4-9.88,4c-8.23,0-13.56-5.29-13.56-12.59s5.38-12.55,12.69-12.55c7.17,0,12.41,5.01,12.41,12.68
		C671.09,132.57,671.04,133.26,671,133.81z M651.69,130h13.93c-0.46-3.54-3.17-5.97-6.94-5.97
		C654.96,124.02,652.25,126.41,651.69,130z"/>
	<path class="st0" d="M700.78,130.18v14.06h-5.75v-13.33c0-4.37-2.16-6.48-5.84-6.48c-4.09,0-6.85,2.48-6.85,7.4v12.41h-5.75V119.7
		h5.47v3.17c1.88-2.25,4.87-3.45,8.46-3.45C696.42,119.43,700.78,122.78,700.78,130.18z"/>
	<path class="st0" d="M706.3,131.98c0-7.35,5.52-12.55,13.28-12.55c4.78,0,8.59,1.98,10.48,5.7l-4.41,2.57
		c-1.47-2.34-3.68-3.4-6.11-3.4c-4.23,0-7.45,2.94-7.45,7.68c0,4.78,3.22,7.67,7.45,7.67c2.44,0,4.64-1.06,6.11-3.4l4.41,2.57
		c-1.88,3.68-5.7,5.75-10.48,5.75C711.82,144.57,706.3,139.33,706.3,131.98z"/>
	<path class="st0" d="M757.64,133.81h-19.26c0.69,3.58,3.68,5.88,7.95,5.88c2.76,0,4.92-0.87,6.66-2.67l3.08,3.54
		c-2.21,2.62-5.65,4-9.88,4c-8.23,0-13.56-5.29-13.56-12.59s5.38-12.55,12.69-12.55c7.17,0,12.41,5.01,12.41,12.68
		C757.73,132.57,757.69,133.26,757.64,133.81z M738.34,130h13.93c-0.46-3.54-3.17-5.97-6.94-5.97
		C741.6,124.02,738.89,126.41,738.34,130z"/>
</g>
<g>
	<path class="st0" d="M88.16,135.28c0-9.91,7.44-16.92,17.91-16.92c6.44,0,11.59,2.66,14.13,7.68l-5.95,3.47
		c-1.98-3.16-4.96-4.59-8.24-4.59c-5.7,0-10.04,3.97-10.04,10.35c0,6.44,4.34,10.35,10.04,10.35c3.28,0,6.26-1.42,8.24-4.59
		l5.95,3.47c-2.54,4.96-7.68,7.75-14.13,7.75C95.59,152.26,88.16,145.2,88.16,135.28z"/>
	<path class="st0" d="M123.67,135.28c0-9.91,7.44-16.92,17.6-16.92c10.29,0,17.66,7,17.66,16.92s-7.37,16.98-17.66,16.98
		C131.1,152.26,123.67,145.2,123.67,135.28z M151.12,135.28c0-6.32-4.21-10.35-9.85-10.35c-5.58,0-9.79,4.03-9.79,10.35
		s4.21,10.35,9.79,10.35C146.9,145.63,151.12,141.6,151.12,135.28z"/>
	<path class="st0" d="M198.96,132.87v18.96h-7.75v-17.97c0-5.89-2.91-8.74-7.87-8.74c-5.51,0-9.23,3.35-9.23,9.98v16.73h-7.75
		v-33.09h7.37v4.28c2.54-3.04,6.57-4.65,11.4-4.65C193.07,118.37,198.96,122.89,198.96,132.87z"/>
	<path class="st0" d="M217.37,117v1.98h9.11v6.2h-8.86v26.65h-7.75v-26.65h-5.45v-6.2h5.45v-2.11c0-6.94,4.15-11.46,11.83-11.46
		c2.67,0,5.27,0.56,7,1.8l-2.17,5.82c-1.18-0.81-2.67-1.36-4.28-1.36C219.04,111.67,217.37,113.47,217.37,117z"/>
	<path class="st0" d="M255.79,118.37v7.37c-0.68-0.12-1.24-0.19-1.8-0.19c-5.89,0-9.6,3.47-9.6,10.22v16.05h-7.75v-33.09h7.37v4.83
		C246.24,120.1,250.27,118.37,255.79,118.37z"/>
	<path class="st0" d="M259.32,135.28c0-9.91,7.44-16.92,17.6-16.92c10.29,0,17.66,7,17.66,16.92s-7.37,16.98-17.66,16.98
		C266.76,152.26,259.32,145.2,259.32,135.28z M286.77,135.28c0-6.32-4.21-10.35-9.85-10.35c-5.58,0-9.79,4.03-9.79,10.35
		s4.21,10.35,9.79,10.35C282.56,145.63,286.77,141.6,286.77,135.28z"/>
	<path class="st0" d="M334.61,132.87v18.96h-7.75v-17.97c0-5.89-2.91-8.74-7.87-8.74c-5.51,0-9.23,3.35-9.23,9.98v16.73h-7.75
		v-33.09h7.37v4.28c2.54-3.04,6.57-4.65,11.4-4.65C328.72,118.37,334.61,122.89,334.61,132.87z"/>
	<path class="st0" d="M364.36,150.03c-1.86,1.49-4.65,2.23-7.44,2.23c-7.25,0-11.4-3.84-11.4-11.15v-15.93h-5.45v-6.2h5.45v-7.56
		h7.75v7.56h8.86v6.2h-8.86v15.74c0,3.22,1.61,4.96,4.59,4.96c1.61,0,3.16-0.43,4.34-1.36L364.36,150.03z"/>
	<path class="st0" d="M398.44,132.43v19.4h-7.31v-4.03c-1.86,2.85-5.45,4.46-10.41,4.46c-7.56,0-12.33-4.15-12.33-9.91
		c0-5.51,3.72-9.85,13.76-9.85h8.55V132c0-4.52-2.73-7.19-8.24-7.19c-3.72,0-7.56,1.24-10.04,3.28l-3.04-5.64
		c3.53-2.73,8.68-4.09,14-4.09C392.93,118.37,398.44,122.89,398.44,132.43z M390.7,141.48v-3.84h-7.99c-5.27,0-6.69,1.98-6.69,4.4
		c0,2.79,2.35,4.59,6.32,4.59C386.11,146.62,389.4,144.89,390.7,141.48z"/>
	<path class="st0" d="M428.25,150.03c-1.86,1.49-4.65,2.23-7.44,2.23c-7.25,0-11.4-3.84-11.4-11.15v-15.93h-5.45v-6.2h5.45v-7.56
		h7.75v7.56h8.86v6.2h-8.86v15.74c0,3.22,1.61,4.96,4.58,4.96c1.61,0,3.16-0.43,4.34-1.36L428.25,150.03z"/>
	<path class="st0" d="M433.58,108.64c0-2.6,2.11-4.65,4.96-4.65s4.96,1.92,4.96,4.46c0,2.73-2.04,4.83-4.96,4.83
		C435.69,113.29,433.58,111.24,433.58,108.64z M434.64,118.74h7.75v33.09h-7.75V118.74z"/>
	<path class="st0" d="M449.82,135.28c0-9.91,7.44-16.92,17.6-16.92c10.29,0,17.66,7,17.66,16.92s-7.37,16.98-17.66,16.98
		C457.25,152.26,449.82,145.2,449.82,135.28z M477.27,135.28c0-6.32-4.21-10.35-9.85-10.35c-5.58,0-9.79,4.03-9.79,10.35
		s4.21,10.35,9.79,10.35C473.05,145.63,477.27,141.6,477.27,135.28z"/>
	<path class="st0" d="M525.11,132.87v18.96h-7.75v-17.97c0-5.89-2.91-8.74-7.87-8.74c-5.51,0-9.23,3.35-9.23,9.98v16.73h-7.75
		v-33.09h7.37v4.28c2.54-3.04,6.57-4.65,11.4-4.65C519.22,118.37,525.11,122.89,525.11,132.87z"/>
</g>
<g>
	<path class="st0" d="M753.45,434.07l3.32-6.57c3.25,2.14,8.23,3.67,12.86,3.67c5.46,0,7.75-1.52,7.75-4.08
		c0-7.05-22.82-0.42-22.82-15.14c0-6.98,6.29-11.55,16.25-11.55c4.91,0,10.51,1.18,13.83,3.18l-3.32,6.57
		c-3.53-2.07-7.05-2.77-10.58-2.77c-5.26,0-7.75,1.73-7.75,4.15c0,7.47,22.82,0.83,22.82,15.28c0,6.92-6.36,11.41-16.73,11.41
		C762.92,438.22,756.77,436.42,753.45,434.07z"/>
	<path class="st0" d="M827.86,422.04h-28.98c1.04,5.39,5.53,8.85,11.96,8.85c4.15,0,7.4-1.31,10.03-4.01l4.63,5.32
		c-3.32,3.94-8.51,6.02-14.87,6.02c-12.38,0-20.4-7.95-20.4-18.95s8.09-18.88,19.09-18.88c10.79,0,18.67,7.54,18.67,19.09
		C828,420.17,827.93,421.21,827.86,422.04z M798.81,416.3h20.95c-0.69-5.32-4.77-8.99-10.44-8.99
		C803.72,407.31,799.64,410.9,798.81,416.3z"/>
	<path class="st0" d="M833.26,419.27c0-11.06,8.3-18.88,19.99-18.88c7.19,0,12.93,2.97,15.77,8.58l-6.64,3.87
		c-2.21-3.53-5.53-5.12-9.2-5.12c-6.36,0-11.2,4.43-11.2,11.55c0,7.19,4.84,11.55,11.2,11.55c3.67,0,6.98-1.59,9.2-5.12l6.64,3.87
		c-2.83,5.53-8.58,8.64-15.77,8.64C841.55,438.22,833.26,430.33,833.26,419.27z"/>
	<path class="st0" d="M897.85,400.39v8.23c-0.76-0.14-1.38-0.21-2.01-0.21c-6.57,0-10.72,3.87-10.72,11.41v17.91h-8.64v-36.93h8.23
		v5.39C887.2,402.33,891.69,400.39,897.85,400.39z"/>
	<path class="st0" d="M939.41,422.04h-28.98c1.04,5.39,5.53,8.85,11.96,8.85c4.15,0,7.4-1.31,10.03-4.01l4.63,5.32
		c-3.32,3.94-8.51,6.02-14.87,6.02c-12.38,0-20.4-7.95-20.4-18.95s8.09-18.88,19.09-18.88c10.79,0,18.67,7.54,18.67,19.09
		C939.55,420.17,939.48,421.21,939.41,422.04z M910.37,416.3h20.95c-0.69-5.32-4.77-8.99-10.44-8.99
		C915.28,407.31,911.2,410.9,910.37,416.3z"/>
	<path class="st0" d="M944.81,419.27c0-11.06,8.3-18.88,19.99-18.88c7.19,0,12.93,2.97,15.77,8.58l-6.64,3.87
		c-2.21-3.53-5.53-5.12-9.2-5.12c-6.36,0-11.2,4.43-11.2,11.55c0,7.19,4.84,11.55,11.2,11.55c3.67,0,6.98-1.59,9.2-5.12l6.64,3.87
		c-2.83,5.53-8.58,8.64-15.77,8.64C953.1,438.22,944.81,430.33,944.81,419.27z"/>
	<path class="st0" d="M1022.12,400.81l-17.29,39.9c-3.39,8.37-8.09,10.93-14.25,10.93c-3.67,0-7.54-1.25-9.89-3.39l3.46-6.36
		c1.66,1.59,4.01,2.56,6.36,2.56c3.04,0,4.84-1.45,6.5-5.12l0.62-1.45l-16.11-37.07h8.99l11.62,27.32l11.69-27.32H1022.12z"/>
</g>
<g>
	<path class="st1" d="M468.18,358.82c-1.33,1.06-3.32,1.59-5.31,1.59c-5.18,0-8.15-2.75-8.15-7.97v-11.38h-3.89v-4.43h3.89v-5.4
		h5.53v5.4h6.33v4.43h-6.33v11.24c0,2.3,1.15,3.54,3.28,3.54c1.15,0,2.26-0.31,3.1-0.97L468.18,358.82z"/>
	<path class="st1" d="M494.07,350.06h-18.55c0.66,3.45,3.54,5.67,7.66,5.67c2.66,0,4.74-0.84,6.42-2.57l2.97,3.41
		c-2.12,2.52-5.45,3.85-9.52,3.85c-7.92,0-13.06-5.09-13.06-12.13c0-7.04,5.18-12.08,12.22-12.08c6.91,0,11.95,4.83,11.95,12.22
		C494.16,348.86,494.12,349.53,494.07,350.06z M475.48,346.38h13.41c-0.44-3.41-3.05-5.75-6.68-5.75
		C478.62,340.63,476.01,342.93,475.48,346.38z"/>
	<path class="st1" d="M513.15,336.2v5.27c-0.49-0.09-0.88-0.13-1.28-0.13c-4.21,0-6.86,2.48-6.86,7.3v11.46h-5.53v-23.64h5.27v3.45
		C506.34,337.44,509.21,336.2,513.15,336.2z"/>
	<path class="st1" d="M531.52,336.2v5.27c-0.49-0.09-0.88-0.13-1.28-0.13c-4.21,0-6.86,2.48-6.86,7.3v11.46h-5.53v-23.64h5.27v3.45
		C524.71,337.44,527.58,336.2,531.52,336.2z"/>
	<path class="st1" d="M534.05,348.29c0-7.08,5.31-12.08,12.57-12.08c7.35,0,12.62,5,12.62,12.08c0,7.08-5.27,12.13-12.62,12.13
		C539.36,360.42,534.05,355.37,534.05,348.29z M553.66,348.29c0-4.52-3.01-7.39-7.04-7.39c-3.98,0-6.99,2.88-6.99,7.39
		c0,4.51,3.01,7.39,6.99,7.39C550.65,355.68,553.66,352.8,553.66,348.29z"/>
	<path class="st1" d="M578.22,336.2v5.27c-0.49-0.09-0.88-0.13-1.28-0.13c-4.21,0-6.86,2.48-6.86,7.3v11.46h-5.53v-23.64h5.27v3.45
		C571.41,337.44,574.28,336.2,578.22,336.2z"/>
</g>
<g>
	<path class="st1" d="M938.01,197.5v17.87h-7.3v-16.93c0-5.55-2.75-8.23-7.42-8.23c-5.2,0-8.7,3.15-8.7,9.4v15.77h-7.3v-43.33h7.3
		v15.77c2.39-2.57,6.07-3.97,10.39-3.97C932.46,183.83,938.01,188.1,938.01,197.5z"/>
	<path class="st1" d="M973.4,197.09v18.28h-6.89v-3.8c-1.75,2.69-5.14,4.2-9.81,4.2c-7.12,0-11.62-3.91-11.62-9.34
		c0-5.2,3.5-9.28,12.96-9.28h8.06v-0.47c0-4.26-2.57-6.77-7.77-6.77c-3.5,0-7.12,1.17-9.46,3.1l-2.86-5.31
		c3.33-2.57,8.17-3.85,13.2-3.85C968.2,183.83,973.4,188.1,973.4,197.09z M966.1,205.62V202h-7.53c-4.96,0-6.31,1.87-6.31,4.15
		c0,2.63,2.22,4.32,5.96,4.32C961.78,210.46,964.87,208.83,966.1,205.62z"/>
	<path class="st1" d="M1001.49,213.68c-1.75,1.4-4.38,2.1-7.01,2.1c-6.83,0-10.75-3.62-10.75-10.51v-15.01h-5.14v-5.84h5.14v-7.12
		h7.3v7.12h8.35v5.84h-8.35v14.83c0,3.04,1.52,4.67,4.32,4.67c1.52,0,2.98-0.41,4.09-1.28L1001.49,213.68z"/>
	<path class="st1" d="M1035.66,202.11h-24.47c0.88,4.56,4.67,7.47,10.1,7.47c3.5,0,6.25-1.11,8.47-3.39l3.91,4.5
		c-2.8,3.33-7.18,5.08-12.56,5.08c-10.45,0-17.23-6.72-17.23-16c0-9.28,6.83-15.94,16.12-15.94c9.11,0,15.77,6.37,15.77,16.12
		C1035.77,200.54,1035.71,201.41,1035.66,202.11z M1011.13,197.27h17.69c-0.58-4.5-4.03-7.59-8.82-7.59
		C1015.28,189.67,1011.83,192.71,1011.13,197.27z"/>
	<path class="st1" d="M1073.32,172.04v43.33h-7.01v-4.03c-2.45,2.98-6.07,4.44-10.34,4.44c-9.05,0-15.77-6.31-15.77-16
		c0-9.69,6.72-15.94,15.77-15.94c4.03,0,7.59,1.34,10.04,4.2v-16H1073.32z M1066.14,199.78c0-5.96-4.03-9.75-9.29-9.75
		c-5.25,0-9.28,3.8-9.28,9.75c0,5.96,4.03,9.75,9.28,9.75C1062.11,209.53,1066.14,205.73,1066.14,199.78z"/>
</g>
<g>
	<path class="st1" d="M364.26,444.62h-10.06c0.36,1.87,1.92,3.07,4.15,3.07c1.44,0,2.57-0.46,3.48-1.39l1.61,1.85
		c-1.15,1.37-2.95,2.09-5.16,2.09c-4.3,0-7.08-2.76-7.08-6.58s2.81-6.55,6.62-6.55c3.74,0,6.48,2.62,6.48,6.62
		C364.31,443.97,364.29,444.33,364.26,444.62z M354.18,442.63h7.27c-0.24-1.85-1.66-3.12-3.62-3.12
		C355.89,439.51,354.47,440.75,354.18,442.63z"/>
	<path class="st1" d="M378.95,437.25l-5.5,12.82h-3.1l-5.5-12.82h3.12l3.98,9.5l4.1-9.5H378.95z"/>
	<path class="st1" d="M380.42,433.34c0-1.01,0.82-1.8,1.92-1.8c1.1,0,1.92,0.74,1.92,1.73c0,1.06-0.79,1.87-1.92,1.87
		C381.23,435.14,380.42,434.35,380.42,433.34z M380.82,437.25h3v12.82h-3V437.25z"/>
	<path class="st1" d="M387.76,432.26h3v17.81h-3V432.26z"/>
</g>
<g>
	<path class="st1" d="M867.09,369.89c0-6.18,4.64-10.55,10.97-10.55c6.41,0,11.01,4.37,11.01,10.55s-4.6,10.59-11.01,10.59
		C871.72,380.48,867.09,376.07,867.09,369.89z M884.2,369.89c0-3.94-2.63-6.45-6.14-6.45c-3.48,0-6.1,2.51-6.1,6.45
		s2.63,6.45,6.1,6.45C881.57,376.34,884.2,373.83,884.2,369.89z"/>
	<path class="st1" d="M891.35,378.16l1.85-3.67c1.82,1.2,4.6,2.05,7.19,2.05c3.05,0,4.33-0.85,4.33-2.28
		c0-3.94-12.75-0.23-12.75-8.46c0-3.9,3.52-6.45,9.08-6.45c2.74,0,5.87,0.66,7.73,1.78l-1.85,3.67c-1.97-1.16-3.94-1.55-5.91-1.55
		c-2.94,0-4.33,0.97-4.33,2.32c0,4.17,12.75,0.46,12.75,8.54c0,3.86-3.55,6.38-9.35,6.38C896.64,380.48,893.2,379.47,891.35,378.16z
		"/>
	<path class="st1" d="M926,379.08c-1.16,0.93-2.9,1.39-4.64,1.39c-4.52,0-7.11-2.4-7.11-6.95v-9.93h-3.4v-3.86h3.4v-4.71h4.83v4.71
		h5.52v3.86h-5.52v9.81c0,2.01,1,3.09,2.86,3.09c1,0,1.97-0.27,2.7-0.85L926,379.08z"/>
	<path class="st1" d="M941.92,359.34v4.6c-0.42-0.08-0.77-0.12-1.12-0.12c-3.67,0-5.99,2.16-5.99,6.38v10.01h-4.83v-20.63h4.6v3.01
		C935.97,360.42,938.48,359.34,941.92,359.34z"/>
	<path class="st1" d="M963.17,368.11v12.09h-4.56v-2.51c-1.16,1.78-3.4,2.78-6.49,2.78c-4.71,0-7.69-2.59-7.69-6.18
		c0-3.44,2.32-6.14,8.58-6.14h5.33v-0.31c0-2.82-1.7-4.48-5.14-4.48c-2.32,0-4.71,0.77-6.26,2.05l-1.89-3.52
		c2.2-1.7,5.41-2.55,8.73-2.55C959.73,359.34,963.17,362.16,963.17,368.11z M958.33,373.75v-2.4h-4.98c-3.28,0-4.17,1.24-4.17,2.74
		c0,1.74,1.47,2.86,3.94,2.86C955.48,376.96,957.52,375.88,958.33,373.75z"/>
	<path class="st1" d="M967.84,369.89c0-6.18,4.64-10.55,11.17-10.55c4.02,0,7.22,1.66,8.81,4.79l-3.71,2.16
		c-1.24-1.97-3.09-2.86-5.14-2.86c-3.55,0-6.26,2.47-6.26,6.45c0,4.02,2.71,6.45,6.26,6.45c2.05,0,3.9-0.89,5.14-2.86l3.71,2.16
		c-1.58,3.09-4.79,4.83-8.81,4.83C972.47,380.48,967.84,376.07,967.84,369.89z"/>
	<path class="st1" d="M991.33,353.28c0-1.62,1.31-2.9,3.09-2.9c1.78,0,3.09,1.2,3.09,2.78c0,1.7-1.28,3.01-3.09,3.01
		C992.64,356.17,991.33,354.9,991.33,353.28z M991.98,359.57h4.83v20.63h-4.83V359.57z"/>
	<path class="st1" d="M1019.26,376.34v3.86h-17.81v-3.05l11.32-13.72h-11.09v-3.86h17.27v3.05l-11.36,13.72H1019.26z"/>
	<path class="st1" d="M1042.71,371.44h-16.19c0.58,3.01,3.09,4.95,6.68,4.95c2.32,0,4.13-0.73,5.6-2.24l2.59,2.97
		c-1.85,2.2-4.75,3.36-8.31,3.36c-6.92,0-11.4-4.44-11.4-10.59c0-6.14,4.52-10.55,10.66-10.55c6.03,0,10.43,4.21,10.43,10.66
		C1042.78,370.39,1042.75,370.97,1042.71,371.44z M1026.48,368.23h11.71c-0.39-2.97-2.67-5.02-5.83-5.02
		C1029.22,363.21,1026.94,365.21,1026.48,368.23z"/>
	<path class="st1" d="M1067.62,351.54v28.67h-4.64v-2.67c-1.62,1.97-4.02,2.94-6.84,2.94c-5.99,0-10.43-4.17-10.43-10.59
		s4.44-10.55,10.43-10.55c2.67,0,5.02,0.89,6.65,2.78v-10.59H1067.62z M1062.87,369.89c0-3.94-2.67-6.45-6.14-6.45
		c-3.48,0-6.14,2.51-6.14,6.45s2.67,6.45,6.14,6.45C1060.21,376.34,1062.87,373.83,1062.87,369.89z"/>
</g>
<g>
	<path class="st1" d="M148.49,203.44l2.65-5.24c2.59,1.71,6.56,2.92,10.25,2.92c4.35,0,6.17-1.21,6.17-3.25
		c0-5.62-18.19-0.33-18.19-12.07c0-5.57,5.02-9.2,12.95-9.2c3.91,0,8.38,0.94,11.02,2.54l-2.65,5.24c-2.81-1.65-5.62-2.2-8.43-2.2
		c-4.19,0-6.17,1.38-6.17,3.31c0,5.95,18.19,0.66,18.19,12.18c0,5.51-5.07,9.09-13.34,9.09
		C156.04,206.75,151.13,205.31,148.49,203.44z"/>
	<path class="st1" d="M177.81,191.64c0-8.82,6.61-15.05,15.93-15.05c5.73,0,10.31,2.37,12.57,6.83l-5.29,3.09
		c-1.76-2.81-4.41-4.08-7.33-4.08c-5.07,0-8.93,3.53-8.93,9.2c0,5.73,3.86,9.2,8.93,9.2c2.92,0,5.57-1.27,7.33-4.08l5.29,3.09
		c-2.26,4.41-6.83,6.89-12.57,6.89C184.42,206.75,177.81,200.46,177.81,191.64z"/>
	<path class="st1" d="M236.89,189.11v17.25h-6.5v-3.58c-1.65,2.54-4.85,3.97-9.26,3.97c-6.72,0-10.97-3.69-10.97-8.82
		c0-4.91,3.31-8.76,12.24-8.76H230v-0.44c0-4.02-2.42-6.39-7.33-6.39c-3.31,0-6.72,1.1-8.93,2.92l-2.7-5.02
		c3.14-2.42,7.72-3.64,12.46-3.64C231.98,176.6,236.89,180.62,236.89,189.11z M230,197.16v-3.42h-7.11c-4.68,0-5.95,1.76-5.95,3.91
		c0,2.48,2.09,4.08,5.62,4.08C225.92,201.73,228.84,200.19,230,197.16z"/>
	<path class="st1" d="M262.74,176.6v6.56c-0.61-0.11-1.1-0.17-1.6-0.17c-5.24,0-8.54,3.09-8.54,9.09v14.27h-6.89v-29.43h6.56v4.3
		C254.25,178.14,257.83,176.6,262.74,176.6z"/>
	<path class="st1" d="M295.86,193.85h-23.09c0.83,4.3,4.41,7.05,9.54,7.05c3.31,0,5.9-1.05,7.99-3.2l3.69,4.24
		c-2.65,3.14-6.78,4.79-11.85,4.79c-9.87,0-16.26-6.34-16.26-15.1c0-8.76,6.45-15.05,15.21-15.05c8.6,0,14.88,6.01,14.88,15.21
		C295.97,192.36,295.92,193.19,295.86,193.85z M272.71,189.27h16.7c-0.55-4.24-3.8-7.17-8.32-7.17
		C276.63,182.11,273.37,184.98,272.71,189.27z"/>
	<path class="st1" d="M331.41,165.47v40.9h-6.61v-3.8c-2.31,2.81-5.73,4.19-9.75,4.19c-8.54,0-14.88-5.95-14.88-15.1
		c0-9.15,6.34-15.05,14.88-15.05c3.8,0,7.17,1.27,9.48,3.97v-15.1H331.41z M324.63,191.64c0-5.62-3.8-9.2-8.76-9.2
		c-4.96,0-8.76,3.58-8.76,9.2c0,5.62,3.8,9.2,8.76,9.2C320.83,200.85,324.63,197.27,324.63,191.64z"/>
</g>
<g>
	<path class="st1" d="M393.69,225.96v38.48h-8.57v-4.9c-2.88,3.53-7.42,5.4-12.39,5.4c-9.87,0-16.57-5.4-16.57-17v-21.98h9.01v20.75
		c0,6.99,3.31,10.3,9.01,10.3c6.27,0,10.52-3.89,10.52-11.6v-19.45H393.69z"/>
	<path class="st1" d="M443.41,242.39v22.05h-9.01v-20.89c0-6.85-3.39-10.16-9.15-10.16c-6.41,0-10.74,3.89-10.74,11.6v19.45h-9.01
		v-38.48h8.57v4.97c2.95-3.53,7.64-5.4,13.26-5.4C436.56,225.53,443.41,230.79,443.41,242.39z"/>
	<path class="st1" d="M452.05,245.2c0-11.53,8.65-19.67,20.82-19.67c7.49,0,13.47,3.1,16.43,8.93l-6.92,4.04
		c-2.31-3.67-5.76-5.33-9.58-5.33c-6.63,0-11.67,4.61-11.67,12.03c0,7.49,5.04,12.03,11.67,12.03c3.82,0,7.28-1.66,9.58-5.33
		l6.92,4.04c-2.95,5.76-8.93,9.01-16.43,9.01C460.7,264.94,452.05,256.72,452.05,245.2z"/>
	<path class="st1" d="M493.33,245.2c0-11.53,8.65-19.67,20.46-19.67c11.96,0,20.53,8.14,20.53,19.67s-8.57,19.74-20.53,19.74
		C501.98,264.94,493.33,256.72,493.33,245.2z M525.25,245.2c0-7.35-4.9-12.03-11.46-12.03c-6.49,0-11.38,4.68-11.38,12.03
		c0,7.35,4.9,12.03,11.38,12.03C520.35,257.23,525.25,252.54,525.25,245.2z"/>
	<path class="st1" d="M607.32,242.39v22.05h-9.01v-20.89c0-6.85-3.17-10.16-8.65-10.16c-5.91,0-10.01,3.89-10.01,11.53v19.53h-9.01
		v-20.89c0-6.85-3.17-10.16-8.65-10.16c-5.98,0-10.01,3.89-10.01,11.53v19.53h-9.01v-38.48h8.57v4.9c2.88-3.46,7.35-5.33,12.61-5.33
		c5.62,0,10.3,2.09,12.97,6.41c3.1-3.96,8.29-6.41,14.41-6.41C600.83,225.53,607.32,230.79,607.32,242.39z"/>
	<path class="st1" d="M628.78,223.94v2.31h10.59v7.21h-10.3v30.98h-9.01v-30.98h-6.34v-7.21h6.34v-2.45
		c0-8.07,4.83-13.33,13.76-13.33c3.1,0,6.12,0.65,8.14,2.09l-2.52,6.77c-1.37-0.94-3.1-1.58-4.97-1.58
		C630.73,217.74,628.78,219.83,628.78,223.94z"/>
	<path class="st1" d="M641.68,245.2c0-11.53,8.65-19.67,20.46-19.67c11.96,0,20.53,8.14,20.53,19.67s-8.57,19.74-20.53,19.74
		C650.33,264.94,641.68,256.72,641.68,245.2z M673.6,245.2c0-7.35-4.9-12.03-11.46-12.03c-6.49,0-11.38,4.68-11.38,12.03
		c0,7.35,4.9,12.03,11.38,12.03C668.7,257.23,673.6,252.54,673.6,245.2z"/>
	<path class="st1" d="M713.58,225.53v8.57c-0.79-0.14-1.44-0.22-2.09-0.22c-6.84,0-11.17,4.04-11.17,11.89v18.66h-9.01v-38.48h8.57
		v5.62C702.49,227.54,707.17,225.53,713.58,225.53z"/>
	<path class="st1" d="M745.79,262.34c-2.16,1.73-5.4,2.59-8.65,2.59c-8.43,0-13.26-4.47-13.26-12.97v-18.52h-6.34v-7.21h6.34v-8.79
		h9.01v8.79h10.3v7.21h-10.3v18.3c0,3.75,1.87,5.76,5.33,5.76c1.87,0,3.67-0.5,5.04-1.58L745.79,262.34z"/>
	<path class="st1" d="M785.42,241.88v22.55h-8.5v-4.68c-2.16,3.31-6.34,5.19-12.1,5.19c-8.79,0-14.34-4.83-14.34-11.53
		c0-6.41,4.32-11.46,16-11.46h9.94v-0.58c0-5.26-3.17-8.36-9.58-8.36c-4.32,0-8.79,1.44-11.67,3.82l-3.53-6.56
		c4.11-3.17,10.09-4.76,16.28-4.76C779.01,225.53,785.42,230.79,785.42,241.88z M776.41,252.4v-4.47h-9.29
		c-6.12,0-7.78,2.31-7.78,5.12c0,3.24,2.74,5.33,7.35,5.33C771.08,258.38,774.9,256.36,776.41,252.4z"/>
	<path class="st1" d="M837.8,245.2c0,11.96-8.29,19.74-19.53,19.74c-5.26,0-9.73-1.8-12.75-5.48v4.97h-8.57v-53.46h9.01v19.67
		c3.1-3.46,7.42-5.12,12.32-5.12C829.51,225.53,837.8,233.24,837.8,245.2z M828.65,245.2c0-7.35-4.9-12.03-11.38-12.03
		c-6.48,0-11.46,4.68-11.46,12.03c0,7.35,4.97,12.03,11.46,12.03C823.75,257.23,828.65,252.54,828.65,245.2z"/>
	<path class="st1" d="M846.37,210.97h9.01v53.46h-9.01V210.97z"/>
	<path class="st1" d="M903.22,248.08h-30.19c1.08,5.62,5.76,9.22,12.46,9.22c4.32,0,7.71-1.37,10.45-4.18l4.83,5.55
		c-3.46,4.11-8.86,6.27-15.49,6.27c-12.9,0-21.25-8.29-21.25-19.74c0-11.46,8.43-19.67,19.89-19.67c11.24,0,19.45,7.85,19.45,19.89
		C903.36,246.13,903.29,247.21,903.22,248.08z M872.95,242.1h21.83c-0.72-5.55-4.97-9.37-10.88-9.37
		C878.07,232.73,873.82,236.48,872.95,242.1z"/>
</g>
<g>
	<path class="st1" d="M534.06,180.62c0-3.84,2.88-6.55,6.82-6.55c3.98,0,6.84,2.71,6.84,6.55c0,3.84-2.86,6.58-6.84,6.58
		C536.94,187.2,534.06,184.46,534.06,180.62z M544.69,180.62c0-2.45-1.63-4.01-3.82-4.01c-2.16,0-3.79,1.56-3.79,4.01
		s1.63,4.01,3.79,4.01C543.06,184.63,544.69,183.07,544.69,180.62z"/>
	<path class="st1" d="M563,174.22v12.82h-2.86v-1.63c-0.96,1.18-2.47,1.8-4.13,1.8c-3.29,0-5.52-1.8-5.52-5.67v-7.32h3v6.91
		c0,2.33,1.1,3.43,3,3.43c2.09,0,3.5-1.3,3.5-3.86v-6.48H563z"/>
	<path class="st1" d="M574.65,186.34c-0.72,0.58-1.8,0.86-2.88,0.86c-2.81,0-4.42-1.49-4.42-4.32v-6.17h-2.11v-2.4h2.11v-2.93h3
		v2.93h3.43v2.4h-3.43v6.1c0,1.25,0.62,1.92,1.78,1.92c0.62,0,1.22-0.17,1.68-0.53L574.65,186.34z"/>
	<path class="st1" d="M582.68,180.62c0-3.84,2.88-6.55,6.82-6.55c3.98,0,6.84,2.71,6.84,6.55c0,3.84-2.86,6.58-6.84,6.58
		C585.56,187.2,582.68,184.46,582.68,180.62z M593.32,180.62c0-2.45-1.63-4.01-3.82-4.01c-2.16,0-3.79,1.56-3.79,4.01
		s1.63,4.01,3.79,4.01C591.68,184.63,593.32,183.07,593.32,180.62z"/>
	<path class="st1" d="M602.53,173.54v0.77h3.53v2.4h-3.43v10.32h-3v-10.32h-2.11v-2.4h2.11v-0.82c0-2.69,1.61-4.44,4.59-4.44
		c1.03,0,2.04,0.22,2.71,0.7l-0.84,2.26c-0.46-0.31-1.03-0.53-1.66-0.53C603.18,171.48,602.53,172.18,602.53,173.54z"/>
	<path class="st1" d="M628.31,180.62c0,3.98-2.76,6.58-6.5,6.58c-1.63,0-3.07-0.55-4.1-1.73v6.22h-3v-17.47h2.86v1.68
		c1.01-1.22,2.5-1.82,4.25-1.82C625.55,174.07,628.31,176.66,628.31,180.62z M625.26,180.62c0-2.45-1.63-4.01-3.79-4.01
		s-3.82,1.56-3.82,4.01s1.66,4.01,3.82,4.01S625.26,183.07,625.26,180.62z"/>
	<path class="st1" d="M631.16,169.22h3v17.81h-3V169.22z"/>
	<path class="st1" d="M648.83,179.52v7.51h-2.83v-1.56c-0.72,1.1-2.11,1.73-4.03,1.73c-2.93,0-4.78-1.61-4.78-3.84
		c0-2.14,1.44-3.82,5.33-3.82h3.31v-0.19c0-1.75-1.06-2.78-3.19-2.78c-1.44,0-2.93,0.48-3.89,1.27l-1.18-2.18
		c1.37-1.06,3.36-1.58,5.42-1.58C646.69,174.07,648.83,175.82,648.83,179.52z M645.83,183.02v-1.49h-3.1c-2.04,0-2.59,0.77-2.59,1.7
		c0,1.08,0.91,1.78,2.45,1.78C644.05,185.02,645.32,184.34,645.83,183.02z"/>
	<path class="st1" d="M651.73,180.62c0-3.84,2.88-6.55,6.94-6.55c2.5,0,4.49,1.03,5.47,2.98l-2.3,1.34
		c-0.77-1.22-1.92-1.78-3.19-1.78c-2.21,0-3.89,1.54-3.89,4.01c0,2.5,1.68,4.01,3.89,4.01c1.27,0,2.42-0.55,3.19-1.78l2.3,1.34
		c-0.98,1.92-2.98,3-5.47,3C654.61,187.2,651.73,184.46,651.73,180.62z"/>
	<path class="st1" d="M678.54,181.58h-10.06c0.36,1.87,1.92,3.07,4.15,3.07c1.44,0,2.57-0.46,3.48-1.39l1.61,1.85
		c-1.15,1.37-2.95,2.09-5.16,2.09c-4.3,0-7.08-2.76-7.08-6.58s2.81-6.55,6.62-6.55c3.74,0,6.48,2.62,6.48,6.62
		C678.59,180.94,678.56,181.3,678.54,181.58z M668.46,179.59h7.27c-0.24-1.85-1.66-3.12-3.62-3.12
		C670.16,176.47,668.75,177.72,668.46,179.59z"/>
</g>
<g>
	<path class="st1" d="M574.87,406.02v4.38c-0.41-0.07-0.74-0.11-1.07-0.11c-3.5,0-5.7,2.06-5.7,6.07v9.53h-4.6v-19.65h4.38v2.87
		C569.2,407.05,571.6,406.02,574.87,406.02z"/>
	<path class="st1" d="M596.98,417.53h-15.41c0.55,2.87,2.94,4.71,6.36,4.71c2.21,0,3.94-0.7,5.33-2.13l2.46,2.83
		c-1.77,2.1-4.52,3.2-7.91,3.2c-6.59,0-10.85-4.23-10.85-10.08s4.3-10.04,10.15-10.04c5.74,0,9.93,4.01,9.93,10.15
		C597.05,416.54,597.02,417.09,596.98,417.53z M581.53,414.48h11.15c-0.37-2.83-2.54-4.78-5.55-4.78
		C584.14,409.7,581.97,411.61,581.53,414.48z"/>
	<path class="st1" d="M595.03,432.14l1.32-3.42c0.7,0.51,1.66,0.77,2.69,0.77c1.69,0,2.65-1.03,2.65-3.13v-20.12h4.6v20.01
		c0,4.3-2.46,7.03-6.84,7.03C597.75,433.28,596.1,432.95,595.03,432.14z M601.03,400.24c0-1.54,1.25-2.76,2.94-2.76
		s2.94,1.14,2.94,2.65c0,1.62-1.21,2.87-2.94,2.87C602.28,403,601.03,401.79,601.03,400.24z"/>
	<path class="st1" d="M630.72,417.53H615.3c0.55,2.87,2.94,4.71,6.36,4.71c2.21,0,3.94-0.7,5.33-2.13l2.46,2.83
		c-1.77,2.1-4.52,3.2-7.91,3.2c-6.59,0-10.85-4.23-10.85-10.08s4.3-10.04,10.15-10.04c5.74,0,9.93,4.01,9.93,10.15
		C630.79,416.54,630.75,417.09,630.72,417.53z M615.27,414.48h11.15c-0.37-2.83-2.54-4.78-5.55-4.78
		C617.88,409.7,615.71,411.61,615.27,414.48z"/>
	<path class="st1" d="M633.59,416.06c0-5.89,4.41-10.04,10.63-10.04c3.83,0,6.88,1.58,8.39,4.56l-3.53,2.06
		c-1.18-1.88-2.94-2.72-4.89-2.72c-3.38,0-5.96,2.35-5.96,6.14c0,3.83,2.58,6.14,5.96,6.14c1.95,0,3.72-0.85,4.89-2.72l3.53,2.06
		c-1.51,2.94-4.56,4.6-8.39,4.6C638,426.14,633.59,421.95,633.59,416.06z"/>
	<path class="st1" d="M668.65,424.82c-1.1,0.88-2.76,1.32-4.42,1.32c-4.3,0-6.77-2.28-6.77-6.62v-9.46h-3.24v-3.68h3.24v-4.49h4.6
		v4.49h5.26v3.68h-5.26v9.34c0,1.91,0.96,2.94,2.72,2.94c0.96,0,1.88-0.26,2.58-0.81L668.65,424.82z"/>
	<path class="st1" d="M690.17,417.53h-15.41c0.55,2.87,2.94,4.71,6.36,4.71c2.21,0,3.94-0.7,5.33-2.13l2.46,2.83
		c-1.77,2.1-4.52,3.2-7.91,3.2c-6.59,0-10.85-4.23-10.85-10.08s4.3-10.04,10.15-10.04c5.74,0,9.93,4.01,9.93,10.15
		C690.24,416.54,690.21,417.09,690.17,417.53z M674.72,414.48h11.15c-0.37-2.83-2.54-4.78-5.55-4.78
		C677.33,409.7,675.16,411.61,674.72,414.48z"/>
	<path class="st1" d="M713.9,398.59v27.3h-4.41v-2.54c-1.54,1.88-3.83,2.8-6.51,2.8c-5.7,0-9.93-3.97-9.93-10.08
		c0-6.11,4.23-10.04,9.93-10.04c2.54,0,4.78,0.85,6.33,2.65v-10.08H713.9z M709.37,416.06c0-3.75-2.54-6.14-5.85-6.14
		s-5.85,2.39-5.85,6.14c0,3.75,2.54,6.14,5.85,6.14S709.37,419.81,709.37,416.06z"/>
</g>
<g>
	<path class="st1" d="M628.33,35.43v7.51h-2.83v-1.56c-0.72,1.1-2.11,1.73-4.03,1.73c-2.93,0-4.78-1.61-4.78-3.84
		c0-2.14,1.44-3.82,5.33-3.82h3.31v-0.19c0-1.75-1.06-2.78-3.19-2.78c-1.44,0-2.93,0.48-3.89,1.27l-1.18-2.18
		c1.37-1.06,3.36-1.58,5.42-1.58C626.2,29.98,628.33,31.73,628.33,35.43z M625.33,38.93v-1.49h-3.1c-2.04,0-2.59,0.77-2.59,1.7
		c0,1.08,0.91,1.78,2.45,1.78C623.56,40.92,624.83,40.25,625.33,38.93z"/>
	<path class="st1" d="M644.8,35.6v7.34h-3v-6.96c0-2.28-1.13-3.38-3.05-3.38c-2.14,0-3.58,1.3-3.58,3.86v6.48h-3V30.12h2.86v1.66
		c0.98-1.18,2.54-1.8,4.42-1.8C642.52,29.98,644.8,31.73,644.8,35.6z"/>
	<path class="st1" d="M661.45,30.12V41c0,4.66-2.42,6.77-6.91,6.77c-2.4,0-4.78-0.62-6.24-1.82l1.34-2.26
		c1.13,0.94,2.95,1.54,4.73,1.54c2.83,0,4.08-1.3,4.08-3.89v-0.67c-1.06,1.15-2.57,1.7-4.3,1.7c-3.67,0-6.48-2.5-6.48-6.22
		s2.81-6.17,6.48-6.17c1.8,0,3.38,0.58,4.44,1.85v-1.7H661.45z M658.5,36.15c0-2.16-1.63-3.62-3.89-3.62
		c-2.28,0-3.91,1.46-3.91,3.62c0,2.18,1.63,3.67,3.91,3.67C656.87,39.82,658.5,38.33,658.5,36.15z"/>
	<path class="st1" d="M672.8,29.98v2.86c-0.26-0.05-0.48-0.07-0.7-0.07c-2.28,0-3.72,1.34-3.72,3.96v6.22h-3V30.12h2.86V32
		C669.11,30.65,670.67,29.98,672.8,29.98z"/>
	<path class="st1" d="M687.83,30.12l-6,13.85c-1.18,2.9-2.81,3.79-4.94,3.79c-1.27,0-2.62-0.43-3.43-1.18l1.2-2.21
		c0.58,0.55,1.39,0.89,2.21,0.89c1.06,0,1.68-0.5,2.26-1.78l0.22-0.5l-5.59-12.86h3.12l4.03,9.48l4.06-9.48H687.83z"/>
</g>
<g>
	<path class="st1" d="M791.58,143.48c-1.12,0.9-2.81,1.35-4.49,1.35c-4.38,0-6.89-2.32-6.89-6.74v-9.62h-3.29v-3.74h3.29v-4.57h4.68
		v4.57h5.35v3.74h-5.35v9.51c0,1.95,0.97,2.99,2.77,2.99c0.97,0,1.91-0.26,2.62-0.82L791.58,143.48z"/>
	<path class="st1" d="M807,124.36v4.45c-0.41-0.08-0.75-0.11-1.08-0.11c-3.56,0-5.8,2.1-5.8,6.18v9.69h-4.68v-19.99h4.45v2.92
		C801.24,125.4,803.67,124.36,807,124.36z"/>
	<path class="st1" d="M827.59,132.85v11.72h-4.42v-2.43c-1.12,1.72-3.29,2.7-6.29,2.7c-4.57,0-7.45-2.51-7.45-5.99
		c0-3.33,2.25-5.95,8.31-5.95h5.17v-0.3c0-2.73-1.65-4.34-4.98-4.34c-2.25,0-4.57,0.75-6.06,1.98l-1.83-3.41
		c2.13-1.65,5.24-2.47,8.46-2.47C824.26,124.36,827.59,127.09,827.59,132.85z M822.91,138.32V136h-4.83c-3.18,0-4.04,1.2-4.04,2.66
		c0,1.68,1.42,2.77,3.82,2.77C820.14,141.42,822.12,140.38,822.91,138.32z"/>
	<path class="st1" d="M854.8,134.57c0,6.21-4.3,10.26-10.14,10.26c-2.54,0-4.79-0.86-6.4-2.7v9.69h-4.68v-27.25h4.45v2.62
		c1.57-1.91,3.89-2.84,6.62-2.84C850.49,124.36,854.8,128.4,854.8,134.57z M850.04,134.57c0-3.82-2.54-6.25-5.91-6.25
		c-3.37,0-5.95,2.43-5.95,6.25s2.58,6.25,5.95,6.25C847.5,140.83,850.04,138.39,850.04,134.57z"/>
	<path class="st1" d="M880.47,134.57c0,6.21-4.3,10.26-10.14,10.26c-2.54,0-4.79-0.86-6.4-2.7v9.69h-4.68v-27.25h4.45v2.62
		c1.57-1.91,3.89-2.84,6.62-2.84C876.17,124.36,880.47,128.4,880.47,134.57z M875.72,134.57c0-3.82-2.54-6.25-5.91-6.25
		c-3.37,0-5.95,2.43-5.95,6.25s2.58,6.25,5.95,6.25C873.17,140.83,875.72,138.39,875.72,134.57z"/>
	<path class="st1" d="M903.64,136.07h-15.68c0.56,2.92,3,4.79,6.48,4.79c2.25,0,4-0.71,5.43-2.17l2.51,2.88
		c-1.8,2.13-4.6,3.26-8.05,3.26c-6.7,0-11.04-4.3-11.04-10.26c0-5.95,4.38-10.22,10.33-10.22c5.84,0,10.11,4.08,10.11,10.33
		C903.71,135.06,903.68,135.62,903.64,136.07z M887.92,132.97h11.34c-0.38-2.88-2.58-4.87-5.65-4.87
		C890.58,128.1,888.37,130.05,887.92,132.97z"/>
	<path class="st1" d="M927.78,116.8v27.77h-4.49v-2.58c-1.57,1.91-3.89,2.84-6.62,2.84c-5.8,0-10.11-4.04-10.11-10.26
		s4.3-10.22,10.11-10.22c2.58,0,4.87,0.86,6.44,2.69V116.8H927.78z M923.17,134.57c0-3.82-2.58-6.25-5.95-6.25s-5.95,2.43-5.95,6.25
		s2.58,6.25,5.95,6.25S923.17,138.39,923.17,134.57z"/>
</g>
<g>
	<path class="st1" d="M487.08,440.72h3v17.81h-3V440.72z"/>
	<path class="st1" d="M492.96,452.12c0-3.84,2.88-6.55,6.82-6.55c3.98,0,6.84,2.71,6.84,6.55c0,3.84-2.86,6.58-6.84,6.58
		C495.84,458.69,492.96,455.96,492.96,452.12z M503.59,452.12c0-2.45-1.63-4.01-3.82-4.01c-2.16,0-3.79,1.56-3.79,4.01
		s1.63,4.01,3.79,4.01C501.96,456.12,503.59,454.57,503.59,452.12z"/>
	<path class="st1" d="M508.03,457.25l1.15-2.28c1.13,0.74,2.86,1.27,4.46,1.27c1.9,0,2.69-0.53,2.69-1.42
		c0-2.45-7.92-0.14-7.92-5.26c0-2.42,2.18-4.01,5.64-4.01c1.7,0,3.65,0.41,4.8,1.1l-1.15,2.28c-1.22-0.72-2.45-0.96-3.67-0.96
		c-1.82,0-2.69,0.6-2.69,1.44c0,2.59,7.92,0.29,7.92,5.3c0,2.4-2.21,3.96-5.81,3.96C511.32,458.69,509.18,458.07,508.03,457.25z"/>
	<path class="st1" d="M529.56,457.83c-0.72,0.58-1.8,0.86-2.88,0.86c-2.81,0-4.42-1.49-4.42-4.32v-6.17h-2.11v-2.4h2.11v-2.93h3
		v2.93h3.43v2.4h-3.43v6.1c0,1.25,0.62,1.92,1.78,1.92c0.62,0,1.22-0.17,1.68-0.53L529.56,457.83z"/>
</g>
<g>
	<path class="st1" d="M210.43,285.97l-5.5,12.82h-3.1l-5.5-12.82h3.12l3.98,9.5l4.1-9.5H210.43z"/>
	<path class="st1" d="M211.89,282.06c0-1.01,0.82-1.8,1.92-1.8c1.1,0,1.92,0.74,1.92,1.73c0,1.06-0.79,1.87-1.92,1.87
		C212.71,283.86,211.89,283.07,211.89,282.06z M212.3,285.97h3v12.82h-3V285.97z"/>
	<path class="st1" d="M219.23,280.98h3v17.81h-3V280.98z"/>
	<path class="st1" d="M226.17,280.98h3v17.81h-3V280.98z"/>
	<path class="st1" d="M243.83,291.27v7.51H241v-1.56c-0.72,1.1-2.11,1.73-4.03,1.73c-2.93,0-4.78-1.61-4.78-3.84
		c0-2.14,1.44-3.82,5.33-3.82h3.31v-0.19c0-1.75-1.06-2.78-3.19-2.78c-1.44,0-2.93,0.48-3.89,1.27l-1.18-2.18
		c1.37-1.06,3.36-1.58,5.42-1.58C241.7,285.83,243.83,287.58,243.83,291.27z M240.83,294.78v-1.49h-3.1c-2.04,0-2.59,0.77-2.59,1.7
		c0,1.08,0.91,1.78,2.45,1.78C239.06,296.77,240.33,296.1,240.83,294.78z"/>
	<path class="st1" d="M247.27,282.06c0-1.01,0.82-1.8,1.92-1.8c1.1,0,1.92,0.74,1.92,1.73c0,1.06-0.79,1.87-1.92,1.87
		C248.08,283.86,247.27,283.07,247.27,282.06z M247.67,285.97h3v12.82h-3V285.97z"/>
	<path class="st1" d="M267.23,291.44v7.34h-3v-6.96c0-2.28-1.13-3.38-3.05-3.38c-2.14,0-3.58,1.3-3.58,3.86v6.48h-3v-12.82h2.86
		v1.66c0.98-1.18,2.54-1.8,4.42-1.8C264.95,285.83,267.23,287.58,267.23,291.44z"/>
	<path class="st1" d="M270.64,282.06c0-1.01,0.82-1.8,1.92-1.8c1.1,0,1.92,0.74,1.92,1.73c0,1.06-0.79,1.87-1.92,1.87
		C271.46,283.86,270.64,283.07,270.64,282.06z M271.05,285.97h3v12.82h-3V285.97z"/>
	<path class="st1" d="M287.99,296.39v2.4h-11.06v-1.9l7.03-8.52h-6.89v-2.4h10.73v1.9l-7.06,8.52H287.99z"/>
	<path class="st1" d="M302.56,293.34H292.5c0.36,1.87,1.92,3.07,4.15,3.07c1.44,0,2.57-0.46,3.48-1.39l1.61,1.85
		c-1.15,1.37-2.95,2.09-5.16,2.09c-4.3,0-7.08-2.76-7.08-6.58s2.81-6.55,6.62-6.55c3.74,0,6.48,2.62,6.48,6.62
		C302.61,292.69,302.58,293.05,302.56,293.34z M292.48,291.35h7.27c-0.24-1.85-1.66-3.12-3.62-3.12
		C294.18,288.23,292.77,289.47,292.48,291.35z"/>
	<path class="st1" d="M318.04,280.98v17.81h-2.88v-1.66c-1.01,1.22-2.5,1.82-4.25,1.82c-3.72,0-6.48-2.59-6.48-6.58
		s2.76-6.55,6.48-6.55c1.66,0,3.12,0.55,4.13,1.73v-6.58H318.04z M315.09,292.38c0-2.45-1.66-4.01-3.82-4.01s-3.82,1.56-3.82,4.01
		s1.66,4.01,3.82,4.01S315.09,294.83,315.09,292.38z"/>
</g>
<g>
	<path class="st1" d="M247.32,395.36c0,9.71-6.72,16.02-15.85,16.02c-3.98,0-7.48-1.34-10-4.21v15.14h-7.31v-42.57h6.96v4.09
		c2.46-2.98,6.08-4.44,10.35-4.44C240.6,379.4,247.32,385.72,247.32,395.36z M239.9,395.36c0-5.96-3.98-9.76-9.24-9.76
		c-5.26,0-9.3,3.8-9.3,9.76s4.04,9.76,9.3,9.76C235.92,405.13,239.9,401.33,239.9,395.36z"/>
	<path class="st1" d="M280.01,392.67v18.3h-6.9v-3.8c-1.75,2.69-5.15,4.21-9.82,4.21c-7.13,0-11.64-3.92-11.64-9.36
		c0-5.2,3.51-9.3,12.98-9.3h8.07v-0.47c0-4.27-2.57-6.78-7.78-6.78c-3.51,0-7.13,1.17-9.47,3.1l-2.87-5.32
		c3.33-2.57,8.19-3.86,13.21-3.86C274.81,379.4,280.01,383.67,280.01,392.67z M272.7,401.21v-3.62h-7.54
		c-4.97,0-6.32,1.87-6.32,4.15c0,2.63,2.22,4.33,5.96,4.33C268.38,406.06,271.47,404.43,272.7,401.21z"/>
	<path class="st1" d="M320.13,393.08v17.89h-7.31v-16.96c0-5.55-2.75-8.24-7.43-8.24c-5.2,0-8.71,3.16-8.71,9.41v15.79h-7.31v-31.22
		h6.96v4.04c2.4-2.87,6.2-4.39,10.76-4.39C314.57,379.4,320.13,383.67,320.13,393.08z"/>
	<path class="st1" d="M328.43,370.22c0-2.46,1.99-4.38,4.68-4.38s4.68,1.81,4.68,4.21c0,2.57-1.93,4.56-4.68,4.56
		C330.42,374.61,328.43,372.68,328.43,370.22z M329.43,379.75h7.31v31.22h-7.31V379.75z"/>
	<path class="st1" d="M343.75,395.36c0-9.36,7.02-15.96,16.9-15.96c6.08,0,10.93,2.51,13.33,7.25l-5.61,3.27
		c-1.87-2.98-4.68-4.33-7.78-4.33c-5.38,0-9.47,3.74-9.47,9.76c0,6.08,4.09,9.76,9.47,9.76c3.1,0,5.91-1.34,7.78-4.33l5.61,3.27
		c-2.4,4.68-7.25,7.31-13.33,7.31C350.77,411.38,343.75,404.72,343.75,395.36z"/>
</g>
<g>
	<path class="st0" d="M127.77,248.66c0-3.84,2.88-6.55,6.94-6.55c2.5,0,4.49,1.03,5.47,2.98l-2.3,1.34
		c-0.77-1.22-1.92-1.78-3.19-1.78c-2.21,0-3.89,1.54-3.89,4.01c0,2.5,1.68,4.01,3.89,4.01c1.27,0,2.42-0.55,3.19-1.78l2.3,1.34
		c-0.98,1.92-2.98,3-5.47,3C130.65,255.24,127.77,252.5,127.77,248.66z"/>
	<path class="st0" d="M141.52,248.66c0-3.84,2.88-6.55,6.82-6.55c3.98,0,6.84,2.71,6.84,6.55s-2.86,6.58-6.84,6.58
		C144.4,255.24,141.52,252.5,141.52,248.66z M152.15,248.66c0-2.45-1.63-4.01-3.82-4.01c-2.16,0-3.79,1.56-3.79,4.01
		s1.63,4.01,3.79,4.01C150.52,252.67,152.15,251.11,152.15,248.66z"/>
	<path class="st0" d="M170.68,247.73v7.34h-3v-6.96c0-2.28-1.13-3.38-3.05-3.38c-2.14,0-3.58,1.3-3.58,3.86v6.48h-3v-12.82h2.86
		v1.66c0.98-1.18,2.54-1.8,4.42-1.8C168.4,242.11,170.68,243.86,170.68,247.73z"/>
	<path class="st0" d="M173.03,253.8l1.15-2.28c1.13,0.74,2.86,1.27,4.46,1.27c1.9,0,2.69-0.53,2.69-1.42c0-2.45-7.92-0.14-7.92-5.26
		c0-2.42,2.18-4.01,5.64-4.01c1.7,0,3.65,0.41,4.8,1.1l-1.15,2.28c-1.22-0.72-2.45-0.96-3.67-0.96c-1.82,0-2.69,0.6-2.69,1.44
		c0,2.59,7.92,0.29,7.92,5.3c0,2.4-2.21,3.96-5.81,3.96C176.32,255.24,174.18,254.62,173.03,253.8z"/>
	<path class="st0" d="M198.86,249.62H188.8c0.36,1.87,1.92,3.07,4.15,3.07c1.44,0,2.57-0.46,3.48-1.39l1.61,1.85
		c-1.15,1.37-2.95,2.09-5.16,2.09c-4.3,0-7.08-2.76-7.08-6.58s2.81-6.55,6.62-6.55c3.74,0,6.48,2.62,6.48,6.62
		C198.9,248.98,198.88,249.34,198.86,249.62z M188.78,247.63h7.27c-0.24-1.85-1.66-3.12-3.62-3.12
		C190.48,244.51,189.06,245.76,188.78,247.63z"/>
	<path class="st0" d="M214.31,242.26v17.47h-3v-6.22c-1.03,1.18-2.47,1.73-4.1,1.73c-3.74,0-6.48-2.59-6.48-6.58
		c0-3.96,2.74-6.55,6.48-6.55c1.75,0,3.24,0.6,4.25,1.82v-1.68H214.31z M211.36,248.66c0-2.45-1.63-4.01-3.82-4.01
		c-2.16,0-3.79,1.56-3.79,4.01s1.63,4.01,3.79,4.01C209.73,252.67,211.36,251.11,211.36,248.66z"/>
	<path class="st0" d="M230.66,242.26v12.82h-2.86v-1.63c-0.96,1.18-2.47,1.8-4.13,1.8c-3.29,0-5.52-1.8-5.52-5.66v-7.32h3v6.91
		c0,2.33,1.1,3.43,3,3.43c2.09,0,3.5-1.3,3.5-3.86v-6.48H230.66z"/>
	<path class="st0" d="M246.59,249.62h-10.06c0.36,1.87,1.92,3.07,4.15,3.07c1.44,0,2.57-0.46,3.48-1.39l1.61,1.85
		c-1.15,1.37-2.95,2.09-5.16,2.09c-4.3,0-7.08-2.76-7.08-6.58s2.81-6.55,6.62-6.55c3.74,0,6.48,2.62,6.48,6.62
		C246.64,248.98,246.62,249.34,246.59,249.62z M236.51,247.63h7.27c-0.24-1.85-1.66-3.12-3.62-3.12
		C238.22,244.51,236.8,245.76,236.51,247.63z"/>
	<path class="st0" d="M262.14,247.73v7.34h-3v-6.96c0-2.28-1.13-3.38-3.05-3.38c-2.14,0-3.58,1.3-3.58,3.86v6.48h-3v-12.82h2.86
		v1.66c0.98-1.18,2.54-1.8,4.42-1.8C259.86,242.11,262.14,243.86,262.14,247.73z"/>
	<path class="st0" d="M265.02,248.66c0-3.84,2.88-6.55,6.94-6.55c2.5,0,4.49,1.03,5.47,2.98l-2.3,1.34
		c-0.77-1.22-1.92-1.78-3.19-1.78c-2.21,0-3.89,1.54-3.89,4.01c0,2.5,1.68,4.01,3.89,4.01c1.27,0,2.42-0.55,3.19-1.78l2.3,1.34
		c-0.98,1.92-2.98,3-5.47,3C267.9,255.24,265.02,252.5,265.02,248.66z"/>
	<path class="st0" d="M291.83,249.62h-10.06c0.36,1.87,1.92,3.07,4.15,3.07c1.44,0,2.57-0.46,3.48-1.39l1.61,1.85
		c-1.15,1.37-2.95,2.09-5.16,2.09c-4.3,0-7.08-2.76-7.08-6.58s2.81-6.55,6.62-6.55c3.74,0,6.48,2.62,6.48,6.62
		C291.88,248.98,291.86,249.34,291.83,249.62z M281.75,247.63h7.27c-0.24-1.85-1.66-3.12-3.62-3.12
		C283.46,244.51,282.04,245.76,281.75,247.63z"/>
</g>
<g>
	<path class="st0" d="M28.04,323.69v1.01h4.65v3.16h-4.52v13.59h-3.95v-13.59h-2.78v-3.16h2.78v-1.07c0-3.54,2.12-5.85,6.04-5.85
		c1.36,0,2.69,0.28,3.57,0.92l-1.11,2.97c-0.6-0.41-1.36-0.7-2.18-0.7C28.9,320.97,28.04,321.88,28.04,323.69z"/>
	<path class="st0" d="M49.15,331.55v9.89h-3.73v-2.05c-0.95,1.45-2.78,2.28-5.31,2.28c-3.86,0-6.29-2.12-6.29-5.06
		c0-2.81,1.9-5.02,7.02-5.02h4.36v-0.25c0-2.31-1.39-3.67-4.2-3.67c-1.9,0-3.85,0.63-5.12,1.67l-1.55-2.88
		c1.8-1.39,4.42-2.09,7.14-2.09C46.34,324.38,49.15,326.69,49.15,331.55z M45.2,336.17v-1.96h-4.08c-2.69,0-3.41,1.01-3.41,2.24
		c0,1.42,1.2,2.34,3.22,2.34C42.86,338.79,44.54,337.91,45.2,336.17z"/>
	<path class="st0" d="M70.83,331.78v9.67h-3.95v-9.16c0-3-1.49-4.46-4.01-4.46c-2.81,0-4.71,1.71-4.71,5.09v8.53H54.2v-16.88h3.76
		v2.18c1.3-1.55,3.35-2.37,5.81-2.37C67.82,324.38,70.83,326.69,70.83,331.78z"/>
	<path class="st0" d="M74.62,333.01c0-5.06,3.79-8.63,9.13-8.63c3.29,0,5.91,1.36,7.2,3.92l-3.03,1.77
		c-1.01-1.61-2.53-2.34-4.2-2.34c-2.91,0-5.12,2.02-5.12,5.28c0,3.29,2.21,5.28,5.12,5.28c1.67,0,3.19-0.73,4.2-2.34l3.03,1.77
		c-1.29,2.53-3.92,3.95-7.2,3.95C78.41,341.67,74.62,338.06,74.62,333.01z"/>
	<path class="st0" d="M109.94,324.57l-7.9,18.23c-1.55,3.82-3.7,4.99-6.51,4.99c-1.67,0-3.44-0.57-4.52-1.55l1.58-2.91
		c0.76,0.73,1.83,1.17,2.91,1.17c1.39,0,2.21-0.66,2.97-2.34l0.28-0.66l-7.36-16.94h4.11l5.31,12.48l5.34-12.48H109.94z"/>
	<path class="st0" d="M121.12,318h3.95v23.45h-3.95V318z"/>
	<path class="st0" d="M146.59,324.57v16.88h-3.76v-2.15c-1.26,1.55-3.25,2.37-5.43,2.37c-4.33,0-7.27-2.37-7.27-7.46v-9.64h3.95v9.1
		c0,3.06,1.45,4.52,3.95,4.52c2.75,0,4.61-1.71,4.61-5.09v-8.53H146.59z"/>
	<path class="st0" d="M162.52,341.45l-4.33-5.85l-4.36,5.85h-4.36l6.57-8.56l-6.29-8.31h4.39l4.14,5.53l4.14-5.53h4.27l-6.32,8.25
		l6.6,8.63H162.52z"/>
	<path class="st0" d="M185.9,324.57v16.88h-3.76v-2.15c-1.26,1.55-3.25,2.37-5.43,2.37c-4.33,0-7.27-2.37-7.27-7.46v-9.64h3.95v9.1
		c0,3.06,1.45,4.52,3.95,4.52c2.75,0,4.61-1.71,4.61-5.09v-8.53H185.9z"/>
	<path class="st0" d="M200.84,324.38v3.76c-0.35-0.06-0.63-0.09-0.92-0.09c-3,0-4.9,1.77-4.9,5.21v8.18h-3.95v-16.88h3.76v2.46
		C195.98,325.27,198.03,324.38,200.84,324.38z"/>
	<path class="st0" d="M203.66,319.42c0-1.33,1.08-2.37,2.53-2.37c1.45,0,2.53,0.98,2.53,2.28c0,1.39-1.04,2.46-2.53,2.46
		C204.73,321.79,203.66,320.75,203.66,319.42z M204.19,324.57h3.95v16.88h-3.95V324.57z"/>
	<path class="st0" d="M211.93,333.01c0-5.06,3.79-8.63,8.97-8.63c5.25,0,9.01,3.57,9.01,8.63s-3.76,8.66-9.01,8.66
		C215.73,341.67,211.93,338.06,211.93,333.01z M225.93,333.01c0-3.22-2.15-5.28-5.02-5.28c-2.84,0-4.99,2.05-4.99,5.28
		s2.15,5.28,4.99,5.28C223.78,338.29,225.93,336.23,225.93,333.01z"/>
	<path class="st0" d="M250.04,324.57v16.88h-3.76v-2.15c-1.26,1.55-3.26,2.37-5.44,2.37c-4.33,0-7.27-2.37-7.27-7.46v-9.64h3.95v9.1
		c0,3.06,1.45,4.52,3.95,4.52c2.75,0,4.61-1.71,4.61-5.09v-8.53H250.04z"/>
	<path class="st0" d="M253.29,339.77l1.52-3c1.49,0.98,3.76,1.67,5.88,1.67c2.5,0,3.54-0.7,3.54-1.87c0-3.22-10.43-0.19-10.43-6.92
		c0-3.19,2.88-5.28,7.43-5.28c2.24,0,4.8,0.54,6.32,1.45l-1.52,3c-1.61-0.95-3.22-1.26-4.83-1.26c-2.4,0-3.54,0.79-3.54,1.9
		c0,3.41,10.43,0.38,10.43,6.98c0,3.16-2.91,5.21-7.65,5.21C257.62,341.67,254.81,340.84,253.29,339.77z"/>
	<path class="st0" d="M278.29,339.77l1.52-3c1.49,0.98,3.76,1.67,5.88,1.67c2.5,0,3.54-0.7,3.54-1.87c0-3.22-10.43-0.19-10.43-6.92
		c0-3.19,2.88-5.28,7.43-5.28c2.24,0,4.8,0.54,6.32,1.45l-1.52,3c-1.61-0.95-3.22-1.26-4.83-1.26c-2.4,0-3.54,0.79-3.54,1.9
		c0,3.41,10.43,0.38,10.43,6.98c0,3.16-2.91,5.21-7.65,5.21C282.61,341.67,279.8,340.84,278.29,339.77z"/>
	<path class="st0" d="M312.29,334.27h-13.24c0.47,2.46,2.53,4.04,5.47,4.04c1.9,0,3.38-0.6,4.58-1.83l2.12,2.43
		c-1.52,1.8-3.89,2.75-6.79,2.75c-5.66,0-9.32-3.63-9.32-8.66s3.7-8.63,8.72-8.63c4.93,0,8.53,3.44,8.53,8.72
		C312.35,333.42,312.32,333.89,312.29,334.27z M299.01,331.65h9.58c-0.32-2.43-2.18-4.11-4.77-4.11
		C301.26,327.54,299.39,329.18,299.01,331.65z"/>
	<path class="st0" d="M326.28,340.53c-0.95,0.76-2.37,1.14-3.79,1.14c-3.7,0-5.81-1.96-5.81-5.69v-8.12h-2.78v-3.16h2.78v-3.86h3.95
		v3.86h4.52v3.16h-4.52v8.03c0,1.64,0.82,2.53,2.34,2.53c0.82,0,1.61-0.22,2.21-0.7L326.28,340.53z"/>
	<path class="st0" d="M339.27,340.53c-0.95,0.76-2.37,1.14-3.79,1.14c-3.7,0-5.81-1.96-5.81-5.69v-8.12h-2.78v-3.16h2.78v-3.86h3.95
		v3.86h4.52v3.16h-4.52v8.03c0,1.64,0.82,2.53,2.34,2.53c0.82,0,1.61-0.22,2.21-0.7L339.27,340.53z"/>
	<path class="st0" d="M341.98,319.42c0-1.33,1.08-2.37,2.53-2.37c1.45,0,2.53,0.98,2.53,2.28c0,1.39-1.04,2.46-2.53,2.46
		C343.06,321.79,341.98,320.75,341.98,319.42z M342.52,324.57h3.95v16.88h-3.95V324.57z"/>
	<path class="st0" d="M368.27,331.78v9.67h-3.95v-9.16c0-3-1.49-4.46-4.01-4.46c-2.81,0-4.71,1.71-4.71,5.09v8.53h-3.95v-16.88h3.76
		v2.18c1.3-1.55,3.35-2.37,5.81-2.37C365.27,324.38,368.27,326.69,368.27,331.78z"/>
	<path class="st0" d="M390.2,324.57v14.32c0,6.13-3.19,8.91-9.1,8.91c-3.16,0-6.29-0.82-8.22-2.4l1.77-2.97
		c1.49,1.23,3.89,2.02,6.23,2.02c3.73,0,5.37-1.71,5.37-5.12v-0.88c-1.39,1.52-3.38,2.24-5.66,2.24c-4.83,0-8.53-3.29-8.53-8.19
		s3.7-8.12,8.53-8.12c2.37,0,4.46,0.76,5.85,2.43v-2.24H390.2z M386.32,332.5c0-2.84-2.15-4.77-5.12-4.77c-3,0-5.15,1.93-5.15,4.77
		c0,2.88,2.15,4.84,5.15,4.84C384.17,337.34,386.32,335.38,386.32,332.5z"/>
	<path class="st0" d="M393.45,339.77l1.52-3c1.49,0.98,3.76,1.67,5.88,1.67c2.5,0,3.54-0.7,3.54-1.87c0-3.22-10.43-0.19-10.43-6.92
		c0-3.19,2.88-5.28,7.43-5.28c2.24,0,4.8,0.54,6.32,1.45l-1.52,3c-1.61-0.95-3.22-1.26-4.83-1.26c-2.4,0-3.54,0.79-3.54,1.9
		c0,3.41,10.43,0.38,10.43,6.98c0,3.16-2.91,5.21-7.65,5.21C397.78,341.67,394.97,340.84,393.45,339.77z"/>
</g>
<g>
	<path class="st0" d="M533.64,83.01v7.51h-2.83v-1.56c-0.72,1.1-2.11,1.73-4.03,1.73c-2.93,0-4.78-1.61-4.78-3.84
		c0-2.14,1.44-3.82,5.33-3.82h3.31v-0.19c0-1.75-1.06-2.78-3.19-2.78c-1.44,0-2.93,0.48-3.89,1.27l-1.18-2.18
		c1.37-1.06,3.36-1.58,5.42-1.58C531.5,77.56,533.64,79.31,533.64,83.01z M530.64,86.51v-1.49h-3.1c-2.04,0-2.59,0.77-2.59,1.7
		c0,1.08,0.91,1.78,2.45,1.78C528.86,88.5,530.14,87.83,530.64,86.51z"/>
	<path class="st0" d="M551.09,84.11c0,3.98-2.76,6.58-6.5,6.58c-1.75,0-3.24-0.6-4.25-1.82v1.66h-2.86V72.71h3v6.55
		c1.03-1.15,2.47-1.7,4.1-1.7C548.33,77.56,551.09,80.13,551.09,84.11z M548.04,84.11c0-2.45-1.63-4.01-3.79-4.01
		s-3.82,1.56-3.82,4.01s1.66,4.01,3.82,4.01S548.04,86.56,548.04,84.11z"/>
	<path class="st0" d="M552.89,84.11c0-3.84,2.88-6.55,6.82-6.55c3.98,0,6.84,2.71,6.84,6.55c0,3.84-2.86,6.58-6.84,6.58
		C555.77,90.69,552.89,87.95,552.89,84.11z M563.52,84.11c0-2.45-1.63-4.01-3.82-4.01c-2.16,0-3.79,1.56-3.79,4.01
		s1.63,4.01,3.79,4.01C561.89,88.12,563.52,86.56,563.52,84.11z"/>
	<path class="st0" d="M576.84,77.56v2.86c-0.26-0.05-0.48-0.07-0.7-0.07c-2.28,0-3.72,1.34-3.72,3.96v6.22h-3V77.7h2.86v1.87
		C573.14,78.23,574.71,77.56,576.84,77.56z"/>
	<path class="st0" d="M587.57,89.82c-0.72,0.58-1.8,0.86-2.88,0.86c-2.81,0-4.42-1.49-4.42-4.32V80.2h-2.11v-2.4h2.11v-2.93h3v2.93
		h3.43v2.4h-3.43v6.1c0,1.25,0.62,1.92,1.78,1.92c0.62,0,1.22-0.17,1.68-0.53L587.57,89.82z"/>
	<path class="st0" d="M589.63,73.79c0-1.01,0.82-1.8,1.92-1.8s1.92,0.74,1.92,1.73c0,1.06-0.79,1.87-1.92,1.87
		C590.45,75.59,589.63,74.8,589.63,73.79z M590.04,77.7h3v12.82h-3V77.7z"/>
	<path class="st0" d="M595.92,84.11c0-3.84,2.88-6.55,6.82-6.55c3.98,0,6.84,2.71,6.84,6.55c0,3.84-2.86,6.58-6.84,6.58
		C598.8,90.69,595.92,87.95,595.92,84.11z M606.55,84.11c0-2.45-1.63-4.01-3.82-4.01c-2.16,0-3.79,1.56-3.79,4.01
		s1.63,4.01,3.79,4.01C604.92,88.12,606.55,86.56,606.55,84.11z"/>
	<path class="st0" d="M625.08,83.17v7.34h-3v-6.96c0-2.28-1.13-3.38-3.05-3.38c-2.14,0-3.58,1.3-3.58,3.86v6.48h-3V77.7h2.86v1.66
		c0.98-1.18,2.54-1.8,4.42-1.8C622.8,77.56,625.08,79.31,625.08,83.17z"/>
</g>
<g>
	<path class="st0" d="M401.39,72.33v7.51h-2.83v-1.56c-0.72,1.1-2.11,1.73-4.03,1.73c-2.93,0-4.78-1.61-4.78-3.84
		c0-2.14,1.44-3.82,5.33-3.82h3.31v-0.19c0-1.75-1.06-2.78-3.19-2.78c-1.44,0-2.93,0.48-3.89,1.27l-1.18-2.18
		c1.37-1.06,3.36-1.58,5.42-1.58C399.25,66.88,401.39,68.63,401.39,72.33z M398.39,75.83v-1.49h-3.1c-2.04,0-2.59,0.77-2.59,1.7
		c0,1.08,0.91,1.78,2.45,1.78C396.61,77.82,397.88,77.15,398.39,75.83z"/>
	<path class="st0" d="M425.46,73.43c0,3.98-2.76,6.58-6.5,6.58c-1.75,0-3.24-0.6-4.25-1.82v1.66h-2.86V62.03h3v6.55
		c1.03-1.15,2.47-1.7,4.1-1.7C422.7,66.88,425.46,69.45,425.46,73.43z M422.41,73.43c0-2.45-1.63-4.01-3.79-4.01
		s-3.82,1.56-3.82,4.01s1.66,4.01,3.82,4.01S422.41,75.88,422.41,73.43z"/>
	<path class="st0" d="M438.88,72.33v7.51h-2.83v-1.56c-0.72,1.1-2.11,1.73-4.03,1.73c-2.93,0-4.78-1.61-4.78-3.84
		c0-2.14,1.44-3.82,5.33-3.82h3.31v-0.19c0-1.75-1.06-2.78-3.19-2.78c-1.44,0-2.93,0.48-3.89,1.27l-1.18-2.18
		c1.37-1.06,3.36-1.58,5.42-1.58C436.74,66.88,438.88,68.63,438.88,72.33z M435.88,75.83v-1.49h-3.1c-2.04,0-2.59,0.77-2.59,1.7
		c0,1.08,0.91,1.78,2.45,1.78C434.1,77.82,435.37,77.15,435.88,75.83z"/>
	<path class="st0" d="M450.13,66.88v2.86c-0.26-0.05-0.48-0.07-0.7-0.07c-2.28,0-3.72,1.34-3.72,3.96v6.22h-3V67.02h2.86v1.87
		C446.43,67.55,448,66.88,450.13,66.88z"/>
</g>
<g>
	<path class="st0" d="M1001.56,143.07h-15.95c0.57,2.97,3.04,4.87,6.58,4.87c2.28,0,4.07-0.72,5.52-2.21l2.55,2.93
		c-1.83,2.17-4.68,3.31-8.18,3.31c-6.81,0-11.23-4.38-11.23-10.43s4.45-10.39,10.5-10.39c5.94,0,10.28,4.15,10.28,10.5
		C1001.64,142.05,1001.6,142.62,1001.56,143.07z M985.58,139.92h11.53c-0.38-2.93-2.62-4.95-5.75-4.95
		C988.28,134.97,986.03,136.95,985.58,139.92z"/>
	<path class="st0" d="M1003.88,149.7l1.83-3.62c1.79,1.18,4.53,2.02,7.08,2.02c3.01,0,4.26-0.84,4.26-2.25
		c0-3.88-12.56-0.23-12.56-8.33c0-3.84,3.46-6.35,8.94-6.35c2.7,0,5.79,0.65,7.61,1.75l-1.83,3.62c-1.94-1.14-3.88-1.52-5.82-1.52
		c-2.89,0-4.26,0.95-4.26,2.28c0,4.11,12.56,0.46,12.56,8.41c0,3.81-3.5,6.28-9.21,6.28C1009.09,151.98,1005.7,150.99,1003.88,149.7
		z"/>
	<path class="st0" d="M1024.12,141.55c0-6.09,4.57-10.39,11-10.39c3.96,0,7.12,1.64,8.68,4.72l-3.65,2.13
		c-1.22-1.94-3.04-2.82-5.06-2.82c-3.5,0-6.17,2.44-6.17,6.36c0,3.96,2.66,6.35,6.17,6.35c2.02,0,3.84-0.88,5.06-2.82l3.65,2.13
		c-1.56,3.04-4.72,4.76-8.68,4.76C1028.68,151.98,1024.12,147.64,1024.12,141.55z"/>
	<path class="st0" d="M1064.91,139.8v11.91h-4.49v-2.47c-1.14,1.75-3.35,2.74-6.39,2.74c-4.64,0-7.57-2.55-7.57-6.09
		c0-3.39,2.28-6.05,8.45-6.05h5.25v-0.3c0-2.78-1.67-4.41-5.06-4.41c-2.28,0-4.64,0.76-6.17,2.02l-1.87-3.46
		c2.17-1.67,5.33-2.51,8.6-2.51C1061.52,131.16,1064.91,133.94,1064.91,139.8z M1060.15,145.36V143h-4.91
		c-3.23,0-4.11,1.22-4.11,2.7c0,1.71,1.45,2.82,3.88,2.82C1057.34,148.52,1059.35,147.45,1060.15,145.36z"/>
	<path class="st0" d="M1092.57,141.55c0,6.32-4.38,10.43-10.31,10.43c-2.59,0-4.87-0.88-6.51-2.74v9.86h-4.76v-27.7h4.53v2.66
		c1.6-1.94,3.96-2.89,6.74-2.89C1088.19,131.16,1092.57,135.27,1092.57,141.55z M1087.74,141.55c0-3.88-2.59-6.36-6.01-6.36
		c-3.43,0-6.05,2.47-6.05,6.36c0,3.88,2.62,6.35,6.05,6.35C1085.15,147.91,1087.74,145.43,1087.74,141.55z"/>
	<path class="st0" d="M1116.12,143.07h-15.95c0.57,2.97,3.04,4.87,6.58,4.87c2.28,0,4.07-0.72,5.52-2.21l2.55,2.93
		c-1.83,2.17-4.68,3.31-8.18,3.31c-6.81,0-11.23-4.38-11.23-10.43s4.45-10.39,10.5-10.39c5.94,0,10.28,4.15,10.28,10.5
		C1116.2,142.05,1116.16,142.62,1116.12,143.07z M1100.14,139.92h11.53c-0.38-2.93-2.62-4.95-5.75-4.95
		C1102.84,134.97,1100.6,136.95,1100.14,139.92z"/>
</g>
<g>
	<path class="st0" d="M766.05,181.27c0,3.98-2.76,6.58-6.5,6.58c-1.75,0-3.24-0.6-4.25-1.82v1.66h-2.86v-17.81h3v6.55
		c1.03-1.15,2.47-1.7,4.1-1.7C763.29,174.71,766.05,177.28,766.05,181.27z M763,181.27c0-2.45-1.63-4.01-3.79-4.01
		s-3.82,1.56-3.82,4.01s1.66,4.01,3.82,4.01S763,183.71,763,181.27z"/>
	<path class="st0" d="M780.9,182.23h-10.06c0.36,1.87,1.92,3.07,4.15,3.07c1.44,0,2.57-0.46,3.48-1.39l1.61,1.85
		c-1.15,1.37-2.95,2.09-5.16,2.09c-4.3,0-7.08-2.76-7.08-6.58s2.81-6.55,6.62-6.55c3.74,0,6.48,2.62,6.48,6.62
		C780.95,181.58,780.93,181.94,780.9,182.23z M770.82,180.23h7.27c-0.24-1.85-1.66-3.12-3.62-3.12
		C772.53,177.11,771.11,178.36,770.82,180.23z"/>
	<path class="st0" d="M783.42,170.95c0-1.01,0.82-1.8,1.92-1.8c1.1,0,1.92,0.74,1.92,1.73c0,1.06-0.79,1.87-1.92,1.87
		C784.24,172.75,783.42,171.95,783.42,170.95z M783.83,174.86h3v12.82h-3V174.86z"/>
	<path class="st0" d="M803.39,180.33v7.34h-3v-6.96c0-2.28-1.13-3.38-3.05-3.38c-2.14,0-3.58,1.3-3.58,3.86v6.48h-3v-12.82h2.86
		v1.66c0.98-1.18,2.54-1.8,4.42-1.8C801.11,174.71,803.39,176.47,803.39,180.33z"/>
	<path class="st0" d="M820.04,174.86v10.87c0,4.66-2.42,6.77-6.91,6.77c-2.4,0-4.78-0.62-6.24-1.82l1.34-2.26
		c1.13,0.94,2.95,1.54,4.73,1.54c2.83,0,4.08-1.3,4.08-3.89v-0.67c-1.06,1.15-2.57,1.7-4.3,1.7c-3.67,0-6.48-2.5-6.48-6.22
		s2.81-6.17,6.48-6.17c1.8,0,3.38,0.58,4.44,1.85v-1.7H820.04z M817.09,180.88c0-2.16-1.63-3.62-3.89-3.62
		c-2.28,0-3.91,1.46-3.91,3.62c0,2.18,1.63,3.67,3.91,3.67C815.46,184.56,817.09,183.07,817.09,180.88z"/>
	<path class="st0" d="M830.6,169.87h3v17.81h-3V169.87z"/>
	<path class="st0" d="M848.27,180.16v7.51h-2.83v-1.56c-0.72,1.1-2.11,1.73-4.03,1.73c-2.93,0-4.78-1.61-4.78-3.84
		c0-2.14,1.44-3.82,5.33-3.82h3.31v-0.19c0-1.75-1.06-2.78-3.19-2.78c-1.44,0-2.93,0.48-3.89,1.27l-1.18-2.18
		c1.37-1.06,3.36-1.58,5.42-1.58C846.13,174.71,848.27,176.47,848.27,180.16z M845.27,183.67v-1.49h-3.1c-2.04,0-2.59,0.77-2.59,1.7
		c0,1.08,0.91,1.78,2.45,1.78C843.49,185.66,844.76,184.99,845.27,183.67z"/>
	<path class="st0" d="M859.81,186.98c-0.72,0.58-1.8,0.86-2.88,0.86c-2.81,0-4.42-1.49-4.42-4.32v-6.17h-2.11v-2.4h2.11v-2.93h3
		v2.93h3.43v2.4h-3.43v6.1c0,1.25,0.62,1.92,1.78,1.92c0.62,0,1.22-0.17,1.68-0.53L859.81,186.98z"/>
	<path class="st0" d="M873.85,182.23h-10.06c0.36,1.87,1.92,3.07,4.15,3.07c1.44,0,2.57-0.46,3.48-1.39l1.61,1.85
		c-1.15,1.37-2.95,2.09-5.16,2.09c-4.3,0-7.08-2.76-7.08-6.58s2.81-6.55,6.62-6.55c3.74,0,6.48,2.62,6.48,6.62
		C873.9,181.58,873.88,181.94,873.85,182.23z M863.77,180.23h7.27c-0.24-1.85-1.66-3.12-3.62-3.12
		C865.48,177.11,864.06,178.36,863.77,180.23z"/>
</g>
<g>
	<path class="st0" d="M627.88,483.26v19.31h-7.28v-4.01c-1.85,2.84-5.43,4.44-10.36,4.44c-7.53,0-12.28-4.13-12.28-9.87
		c0-5.49,3.7-9.81,13.7-9.81h8.51v-0.49c0-4.5-2.71-7.16-8.2-7.16c-3.7,0-7.53,1.23-9.99,3.27l-3.02-5.61
		c3.52-2.71,8.64-4.07,13.94-4.07C622.39,469.26,627.88,473.76,627.88,483.26z M620.17,492.27v-3.83h-7.96
		c-5.24,0-6.66,1.97-6.66,4.38c0,2.78,2.34,4.57,6.29,4.57C615.6,497.39,618.87,495.66,620.17,492.27z"/>
	<path class="st0" d="M656.81,469.26v7.34c-0.68-0.12-1.23-0.19-1.79-0.19c-5.86,0-9.56,3.46-9.56,10.18v15.98h-7.71v-32.94h7.34
		v4.81C647.31,470.98,651.32,469.26,656.81,469.26z"/>
	<path class="st0" d="M695.74,469.63v27.95c0,11.97-6.23,17.4-17.77,17.4c-6.17,0-12.28-1.6-16.04-4.69l3.46-5.8
		c2.9,2.41,7.59,3.95,12.15,3.95c7.28,0,10.49-3.33,10.49-9.99v-1.73c-2.71,2.96-6.6,4.38-11.04,4.38
		c-9.44,0-16.66-6.42-16.66-15.98c0-9.56,7.22-15.86,16.66-15.86c4.63,0,8.7,1.48,11.41,4.75v-4.38H695.74z M688.16,485.11
		c0-5.55-4.2-9.32-9.99-9.32c-5.86,0-10.06,3.76-10.06,9.32c0,5.61,4.2,9.44,10.06,9.44C683.96,494.55,688.16,490.72,688.16,485.11z
		"/>
	<path class="st0" d="M737.76,469.63v32.94h-7.34v-4.19c-2.47,3.02-6.35,4.63-10.61,4.63c-8.45,0-14.19-4.63-14.19-14.56v-18.82
		h7.71v17.77c0,5.98,2.84,8.82,7.71,8.82c5.37,0,9.01-3.33,9.01-9.93v-16.66H737.76z"/>
	<path class="st0" d="M802.97,483.69v18.88h-7.71v-17.89c0-5.86-2.71-8.7-7.4-8.7c-5.06,0-8.57,3.33-8.57,9.87v16.72h-7.71v-17.89
		c0-5.86-2.71-8.7-7.4-8.7c-5.12,0-8.57,3.33-8.57,9.87v16.72h-7.71v-32.94h7.34v4.2c2.47-2.96,6.29-4.57,10.8-4.57
		c4.81,0,8.82,1.79,11.1,5.49c2.65-3.39,7.09-5.49,12.34-5.49C797.42,469.26,802.97,473.76,802.97,483.69z"/>
	<path class="st0" d="M844,488.57h-25.85c0.93,4.81,4.94,7.9,10.67,7.9c3.7,0,6.6-1.17,8.95-3.58l4.13,4.75
		c-2.96,3.52-7.59,5.37-13.26,5.37c-11.04,0-18.2-7.09-18.2-16.9c0-9.81,7.22-16.84,17.03-16.84c9.62,0,16.66,6.72,16.66,17.03
		C844.13,486.9,844.06,487.83,844,488.57z M818.09,483.45h18.69c-0.62-4.75-4.26-8.02-9.32-8.02
		C822.47,475.43,818.83,478.63,818.09,483.45z"/>
	<path class="st0" d="M883.98,483.69v18.88h-7.71v-17.89c0-5.86-2.9-8.7-7.83-8.7c-5.49,0-9.19,3.33-9.19,9.93v16.66h-7.71v-32.94
		h7.34v4.26c2.53-3.02,6.54-4.63,11.35-4.63C878.12,469.26,883.98,473.76,883.98,483.69z"/>
	<path class="st0" d="M913.6,500.78c-1.85,1.48-4.63,2.22-7.4,2.22c-7.22,0-11.35-3.82-11.35-11.1v-15.86h-5.43v-6.17h5.43v-7.53
		h7.71v7.53h8.82v6.17h-8.82v15.67c0,3.21,1.6,4.94,4.56,4.94c1.6,0,3.15-0.43,4.32-1.36L913.6,500.78z"/>
	<path class="st0" d="M916.19,499.3l2.96-5.86c2.9,1.91,7.34,3.27,11.47,3.27c4.87,0,6.91-1.36,6.91-3.64
		c0-6.29-20.36-0.37-20.36-13.51c0-6.23,5.61-10.3,14.5-10.3c4.38,0,9.38,1.05,12.34,2.84l-2.96,5.86
		c-3.15-1.85-6.29-2.47-9.44-2.47c-4.69,0-6.91,1.54-6.91,3.7c0,6.66,20.36,0.74,20.36,13.63c0,6.17-5.68,10.18-14.93,10.18
		C924.64,503,919.15,501.4,916.19,499.3z"/>
</g>
<g>
	<path class="st0" d="M927.59,258.53c0-3.84,2.88-6.55,6.94-6.55c2.5,0,4.49,1.03,5.47,2.98l-2.3,1.34
		c-0.77-1.22-1.92-1.78-3.19-1.78c-2.21,0-3.89,1.54-3.89,4.01c0,2.5,1.68,4.01,3.89,4.01c1.27,0,2.42-0.55,3.19-1.78l2.3,1.34
		c-0.98,1.92-2.98,3-5.47,3C930.47,265.11,927.59,262.37,927.59,258.53z"/>
	<path class="st0" d="M954.4,259.49h-10.06c0.36,1.87,1.92,3.07,4.15,3.07c1.44,0,2.57-0.46,3.48-1.39l1.61,1.85
		c-1.15,1.37-2.95,2.09-5.16,2.09c-4.3,0-7.08-2.76-7.08-6.58s2.81-6.55,6.62-6.55c3.74,0,6.48,2.62,6.48,6.62
		C954.45,258.84,954.43,259.2,954.4,259.49z M944.32,257.5h7.27c-0.24-1.85-1.66-3.12-3.62-3.12
		C946.03,254.38,944.61,255.62,944.32,257.5z"/>
	<path class="st0" d="M957.33,247.13h3v17.81h-3V247.13z"/>
	<path class="st0" d="M976.26,259.49h-10.06c0.36,1.87,1.92,3.07,4.15,3.07c1.44,0,2.57-0.46,3.48-1.39l1.61,1.85
		c-1.15,1.37-2.95,2.09-5.16,2.09c-4.3,0-7.08-2.76-7.08-6.58s2.81-6.55,6.62-6.55c3.74,0,6.48,2.62,6.48,6.62
		C976.31,258.84,976.29,259.2,976.26,259.49z M966.18,257.5h7.27c-0.24-1.85-1.66-3.12-3.62-3.12
		C967.89,254.38,966.47,255.62,966.18,257.5z"/>
	<path class="st0" d="M992.8,258.53c0,3.98-2.76,6.58-6.5,6.58c-1.75,0-3.24-0.6-4.25-1.82v1.66h-2.86v-17.81h3v6.55
		c1.03-1.15,2.47-1.7,4.1-1.7C990.04,251.98,992.8,254.54,992.8,258.53z M989.75,258.53c0-2.45-1.63-4.01-3.79-4.01
		s-3.82,1.56-3.82,4.01s1.66,4.01,3.82,4.01S989.75,260.98,989.75,258.53z"/>
	<path class="st0" d="M1003.07,251.98v2.86c-0.26-0.05-0.48-0.07-0.7-0.07c-2.28,0-3.72,1.34-3.72,3.96v6.22h-3v-12.82h2.86v1.87
		C999.38,252.65,1000.94,251.98,1003.07,251.98z"/>
	<path class="st0" d="M1016.27,257.42v7.51h-2.83v-1.56c-0.72,1.1-2.11,1.73-4.03,1.73c-2.93,0-4.78-1.61-4.78-3.84
		c0-2.14,1.44-3.82,5.33-3.82h3.31v-0.19c0-1.75-1.06-2.78-3.19-2.78c-1.44,0-2.93,0.48-3.89,1.27l-1.18-2.18
		c1.37-1.06,3.36-1.58,5.42-1.58C1014.14,251.98,1016.27,253.73,1016.27,257.42z M1013.27,260.93v-1.49h-3.1
		c-2.04,0-2.59,0.77-2.59,1.7c0,1.08,0.91,1.78,2.45,1.78C1011.5,262.92,1012.77,262.25,1013.27,260.93z"/>
	<path class="st0" d="M1027.82,264.24c-0.72,0.58-1.8,0.86-2.88,0.86c-2.81,0-4.42-1.49-4.42-4.32v-6.17h-2.11v-2.4h2.11v-2.93h3
		v2.93h3.43v2.4h-3.43v6.1c0,1.25,0.62,1.92,1.78,1.92c0.62,0,1.22-0.17,1.68-0.53L1027.82,264.24z"/>
	<path class="st0" d="M1029.88,248.21c0-1.01,0.82-1.8,1.92-1.8c1.1,0,1.92,0.74,1.92,1.73c0,1.06-0.79,1.87-1.92,1.87
		C1030.7,250.01,1029.88,249.22,1029.88,248.21z M1030.29,252.12h3v12.82h-3V252.12z"/>
	<path class="st0" d="M1036.17,258.53c0-3.84,2.88-6.55,6.82-6.55c3.98,0,6.84,2.71,6.84,6.55c0,3.84-2.86,6.58-6.84,6.58
		C1039.05,265.11,1036.17,262.37,1036.17,258.53z M1046.8,258.53c0-2.45-1.63-4.01-3.82-4.01c-2.16,0-3.79,1.56-3.79,4.01
		s1.63,4.01,3.79,4.01C1045.17,262.54,1046.8,260.98,1046.8,258.53z"/>
	<path class="st0" d="M1065.33,257.59v7.34h-3v-6.96c0-2.28-1.13-3.38-3.05-3.38c-2.14,0-3.58,1.3-3.58,3.86v6.48h-3v-12.82h2.86
		v1.66c0.98-1.18,2.54-1.8,4.42-1.8C1063.05,251.98,1065.33,253.73,1065.33,257.59z"/>
</g>
<g>
	<path class="st0" d="M365.95,291.44v7.34h-3v-6.96c0-2.28-1.13-3.38-3.05-3.38c-2.14,0-3.58,1.3-3.58,3.86v6.48h-3v-17.81h3v6.48
		c0.98-1.06,2.5-1.63,4.27-1.63C363.67,285.83,365.95,287.58,365.95,291.44z"/>
	<path class="st0" d="M369.36,282.06c0-1.01,0.82-1.8,1.92-1.8c1.1,0,1.92,0.74,1.92,1.73c0,1.06-0.79,1.87-1.92,1.87
		C370.18,283.86,369.36,283.07,369.36,282.06z M369.77,285.97h3v12.82h-3V285.97z"/>
	<path class="st0" d="M389.26,280.98v17.81h-2.88v-1.66c-1.01,1.22-2.5,1.82-4.25,1.82c-3.72,0-6.48-2.59-6.48-6.58
		s2.76-6.55,6.48-6.55c1.66,0,3.12,0.55,4.13,1.73v-6.58H389.26z M386.3,292.38c0-2.45-1.66-4.01-3.82-4.01s-3.82,1.56-3.82,4.01
		c0,2.45,1.66,4.01,3.82,4.01S386.3,294.83,386.3,292.38z"/>
	<path class="st0" d="M392.78,282.06c0-1.01,0.82-1.8,1.92-1.8c1.1,0,1.92,0.74,1.92,1.73c0,1.06-0.79,1.87-1.92,1.87
		C393.6,283.86,392.78,283.07,392.78,282.06z M393.19,285.97h3v12.82h-3V285.97z"/>
	<path class="st0" d="M412.75,291.44v7.34h-3v-6.96c0-2.28-1.13-3.38-3.05-3.38c-2.14,0-3.58,1.3-3.58,3.86v6.48h-3v-12.82h2.86
		v1.66c0.98-1.18,2.54-1.8,4.42-1.8C410.47,285.83,412.75,287.58,412.75,291.44z"/>
	<path class="st0" d="M429.41,285.97v10.87c0,4.66-2.42,6.77-6.91,6.77c-2.4,0-4.78-0.62-6.24-1.82l1.34-2.26
		c1.13,0.94,2.95,1.54,4.73,1.54c2.83,0,4.08-1.3,4.08-3.89v-0.67c-1.06,1.15-2.57,1.7-4.3,1.7c-3.67,0-6.48-2.5-6.48-6.22
		c0-3.72,2.81-6.17,6.48-6.17c1.8,0,3.38,0.58,4.44,1.85v-1.7H429.41z M426.45,291.99c0-2.16-1.63-3.62-3.89-3.62
		c-2.28,0-3.91,1.46-3.91,3.62c0,2.18,1.63,3.67,3.91,3.67C424.82,295.67,426.45,294.18,426.45,291.99z"/>
</g>
<g>
	<path class="st0" d="M606.97,358.94c0-5.89,4.42-10.05,10.46-10.05c6.12,0,10.5,4.16,10.5,10.05c0,5.89-4.38,10.09-10.5,10.09
		C611.39,369.04,606.97,364.84,606.97,358.94z M623.29,358.94c0-3.76-2.5-6.15-5.86-6.15c-3.31,0-5.82,2.39-5.82,6.15
		c0,3.76,2.5,6.15,5.82,6.15C620.79,365.1,623.29,362.7,623.29,358.94z"/>
	<path class="st0" d="M651.73,357.51v11.27h-4.6V358.1c0-3.5-1.73-5.19-4.68-5.19c-3.28,0-5.49,1.99-5.49,5.93v9.95h-4.6v-19.67
		h4.38v2.54c1.51-1.8,3.91-2.76,6.78-2.76C648.23,348.89,651.73,351.58,651.73,357.51z"/>
	<path class="st0" d="M679.58,367.71c-1.11,0.88-2.76,1.33-4.42,1.33c-4.31,0-6.78-2.28-6.78-6.63v-9.47h-3.24v-3.68h3.24v-4.49h4.6
		v4.49h5.27v3.68h-5.27v9.36c0,1.92,0.96,2.95,2.73,2.95c0.96,0,1.88-0.26,2.58-0.81L679.58,367.71z"/>
	<path class="st0" d="M702.75,357.51v11.27h-4.6V358.1c0-3.5-1.73-5.19-4.68-5.19c-3.28,0-5.49,1.99-5.49,5.93v9.95h-4.6v-27.33h4.6
		v9.95c1.51-1.62,3.83-2.5,6.56-2.5C699.25,348.89,702.75,351.58,702.75,357.51z"/>
	<path class="st0" d="M727.21,360.42h-15.43c0.55,2.87,2.95,4.71,6.37,4.71c2.21,0,3.94-0.7,5.34-2.14l2.47,2.84
		c-1.77,2.1-4.53,3.21-7.92,3.21c-6.59,0-10.87-4.24-10.87-10.09c0-5.86,4.31-10.05,10.17-10.05c5.75,0,9.95,4.01,9.95,10.17
		C727.28,359.42,727.25,359.97,727.21,360.42z M711.74,357.36h11.16c-0.37-2.84-2.54-4.79-5.56-4.79
		C714.35,352.57,712.18,354.49,711.74,357.36z"/>
	<path class="st0" d="M753.25,348.89v4.38c-0.41-0.07-0.74-0.11-1.07-0.11c-3.5,0-5.71,2.06-5.71,6.08v9.54h-4.6v-19.67h4.38v2.87
		C747.58,349.92,749.98,348.89,753.25,348.89z"/>
	<path class="st0" d="M776.39,349.11v19.67H772v-2.51c-1.47,1.81-3.79,2.76-6.34,2.76c-5.05,0-8.47-2.76-8.47-8.69v-11.23h4.6v10.61
		c0,3.57,1.69,5.27,4.6,5.27c3.2,0,5.38-1.99,5.38-5.93v-9.95H776.39z"/>
	<path class="st0" d="M801.81,357.51v11.27h-4.6V358.1c0-3.5-1.73-5.19-4.68-5.19c-3.28,0-5.49,1.99-5.49,5.93v9.95h-4.6v-19.67
		h4.38v2.54c1.51-1.8,3.91-2.76,6.78-2.76C798.31,348.89,801.81,351.58,801.81,357.51z"/>
</g>
<g>
	<path class="st0" d="M518.5,304.26v7.35h-3v-6.96c0-2.28-1.13-3.38-3.05-3.38c-2.14,0-3.58,1.3-3.58,3.87v6.48h-3v-17.81h3v6.48
		c0.98-1.06,2.5-1.63,4.27-1.63C516.22,298.64,518.5,300.39,518.5,304.26z"/>
	<path class="st0" d="M534.73,298.79v12.82h-2.86v-1.63c-0.96,1.18-2.47,1.8-4.13,1.8c-3.29,0-5.52-1.8-5.52-5.67v-7.32h3v6.91
		c0,2.33,1.1,3.43,3,3.43c2.09,0,3.5-1.3,3.5-3.86v-6.48H534.73z"/>
	<path class="st0" d="M560.1,304.26v7.35h-3v-6.96c0-2.28-1.06-3.38-2.88-3.38c-1.97,0-3.34,1.3-3.34,3.84v6.5h-3v-6.96
		c0-2.28-1.06-3.38-2.88-3.38c-1.99,0-3.34,1.3-3.34,3.84v6.5h-3v-12.82h2.86v1.63c0.96-1.15,2.45-1.78,4.2-1.78
		c1.87,0,3.43,0.7,4.32,2.14c1.03-1.32,2.76-2.14,4.8-2.14C557.94,298.64,560.1,300.39,560.1,304.26z"/>
	<path class="st0" d="M574.66,304.09v7.51h-2.83v-1.56c-0.72,1.1-2.11,1.73-4.03,1.73c-2.93,0-4.78-1.61-4.78-3.84
		c0-2.14,1.44-3.82,5.33-3.82h3.31v-0.19c0-1.75-1.06-2.78-3.19-2.78c-1.44,0-2.93,0.48-3.89,1.27l-1.18-2.18
		c1.37-1.06,3.36-1.58,5.42-1.58C572.53,298.64,574.66,300.39,574.66,304.09z M571.66,307.59v-1.49h-3.1c-2.04,0-2.59,0.77-2.59,1.7
		c0,1.08,0.91,1.78,2.45,1.78C569.89,309.59,571.16,308.91,571.66,307.59z"/>
	<path class="st0" d="M591.13,304.26v7.35h-3v-6.96c0-2.28-1.13-3.38-3.05-3.38c-2.14,0-3.58,1.3-3.58,3.87v6.48h-3v-12.82h2.86
		v1.66c0.98-1.18,2.54-1.8,4.42-1.8C588.85,298.64,591.13,300.39,591.13,304.26z"/>
	<path class="st0" d="M609.27,310.91c-0.72,0.58-1.8,0.87-2.88,0.87c-2.81,0-4.42-1.49-4.42-4.32v-6.17h-2.11v-2.4h2.11v-2.93h3
		v2.93h3.43v2.4h-3.43v6.1c0,1.25,0.62,1.92,1.78,1.92c0.62,0,1.22-0.17,1.68-0.53L609.27,310.91z"/>
	<path class="st0" d="M619.16,298.64v2.86c-0.26-0.05-0.48-0.07-0.7-0.07c-2.28,0-3.72,1.34-3.72,3.96v6.22h-3v-12.82h2.86v1.87
		C615.46,299.31,617.02,298.64,619.16,298.64z"/>
	<path class="st0" d="M632.36,304.09v7.51h-2.83v-1.56c-0.72,1.1-2.11,1.73-4.03,1.73c-2.93,0-4.78-1.61-4.78-3.84
		c0-2.14,1.44-3.82,5.33-3.82h3.31v-0.19c0-1.75-1.06-2.78-3.19-2.78c-1.44,0-2.93,0.48-3.89,1.27l-1.18-2.18
		c1.37-1.06,3.36-1.58,5.42-1.58C630.22,298.64,632.36,300.39,632.36,304.09z M629.36,307.59v-1.49h-3.1c-2.04,0-2.59,0.77-2.59,1.7
		c0,1.08,0.91,1.78,2.45,1.78C627.58,309.59,628.85,308.91,629.36,307.59z"/>
	<path class="st0" d="M639.51,298.11v0.77h3.53v2.4h-3.43v10.32h-3v-10.32h-2.11v-2.4h2.11v-0.82c0-2.69,1.61-4.44,4.58-4.44
		c1.03,0,2.04,0.22,2.71,0.7l-0.84,2.26c-0.46-0.31-1.03-0.53-1.66-0.53C640.16,296.05,639.51,296.75,639.51,298.11z"/>
	<path class="st0" d="M650.05,293.62c1.03,0,2.04,0.22,2.71,0.7l-0.84,2.26c-0.46-0.31-1.03-0.53-1.66-0.53
		c-1.25,0-1.9,0.7-1.9,2.06v0.77h3.53v2.4h-3.43v10.32h-3v-10.32h-2.11v-2.4h2.11v-0.82C645.46,295.38,647.07,293.62,650.05,293.62z
		 M655.42,294.87c0-1.01,0.82-1.8,1.92-1.8c1.1,0,1.92,0.74,1.92,1.73c0,1.06-0.79,1.87-1.92,1.87
		C656.24,296.67,655.42,295.88,655.42,294.87z M655.83,298.79h3v12.82h-3V298.79z"/>
	<path class="st0" d="M661.71,305.19c0-3.84,2.88-6.55,6.94-6.55c2.5,0,4.49,1.03,5.47,2.98l-2.3,1.34
		c-0.77-1.22-1.92-1.78-3.19-1.78c-2.21,0-3.89,1.54-3.89,4.01c0,2.5,1.68,4.01,3.89,4.01c1.27,0,2.42-0.55,3.19-1.78l2.3,1.34
		c-0.98,1.92-2.98,3-5.47,3C664.59,311.77,661.71,309.04,661.71,305.19z"/>
	<path class="st0" d="M681.82,306.11l-2.23,2.11v3.38h-3v-17.81h3v10.75l6.22-5.76h3.6l-5.35,5.38l5.86,7.44h-3.65L681.82,306.11z"
		/>
	<path class="st0" d="M691.33,294.87c0-1.01,0.82-1.8,1.92-1.8c1.1,0,1.92,0.74,1.92,1.73c0,1.06-0.79,1.87-1.92,1.87
		C692.14,296.67,691.33,295.88,691.33,294.87z M691.73,298.79h3v12.82h-3V298.79z"/>
	<path class="st0" d="M711.29,304.26v7.35h-3v-6.96c0-2.28-1.13-3.38-3.05-3.38c-2.14,0-3.58,1.3-3.58,3.87v6.48h-3v-12.82h2.86
		v1.66c0.98-1.18,2.54-1.8,4.42-1.8C709.01,298.64,711.29,300.39,711.29,304.26z"/>
	<path class="st0" d="M727.95,298.79v10.87c0,4.66-2.42,6.77-6.91,6.77c-2.4,0-4.78-0.62-6.24-1.82l1.34-2.26
		c1.13,0.94,2.95,1.54,4.73,1.54c2.83,0,4.08-1.3,4.08-3.89v-0.67c-1.06,1.15-2.57,1.71-4.3,1.71c-3.67,0-6.48-2.5-6.48-6.22
		s2.81-6.17,6.48-6.17c1.8,0,3.38,0.58,4.44,1.85v-1.7H727.95z M725,304.81c0-2.16-1.63-3.62-3.89-3.62c-2.28,0-3.91,1.46-3.91,3.62
		c0,2.18,1.63,3.67,3.91,3.67C723.36,308.48,725,306.99,725,304.81z"/>
</g>
<g>
	<path class="st0" d="M171.12,479.71v0.96h4.41v3h-4.29v12.89h-3.75v-12.89h-2.64v-3h2.64v-1.02c0-3.36,2.01-5.54,5.72-5.54
		c1.29,0,2.55,0.27,3.39,0.87l-1.05,2.82c-0.57-0.39-1.29-0.66-2.07-0.66C171.93,477.13,171.12,478,171.12,479.71z"/>
	<path class="st0" d="M191.14,487.17v9.38h-3.54v-1.95c-0.9,1.38-2.64,2.16-5.04,2.16c-3.66,0-5.96-2.01-5.96-4.79
		c0-2.67,1.8-4.76,6.65-4.76h4.14v-0.24c0-2.19-1.32-3.48-3.99-3.48c-1.8,0-3.66,0.6-4.85,1.59l-1.47-2.73
		c1.71-1.32,4.2-1.98,6.77-1.98C188.48,480.36,191.14,482.55,191.14,487.17z M187.4,491.54v-1.86h-3.87c-2.55,0-3.24,0.96-3.24,2.13
		c0,1.35,1.14,2.22,3.06,2.22C185.18,494.03,186.77,493.19,187.4,491.54z"/>
	<path class="st0" d="M211.7,487.38v9.17h-3.75v-8.69c0-2.85-1.41-4.22-3.81-4.22c-2.67,0-4.47,1.62-4.47,4.82v8.09h-3.75v-16h3.57
		v2.07c1.23-1.47,3.18-2.25,5.51-2.25C208.85,480.36,211.7,482.55,211.7,487.38z"/>
	<path class="st0" d="M226.08,495.68c-0.9,0.72-2.25,1.08-3.6,1.08c-3.51,0-5.51-1.86-5.51-5.39v-7.7h-2.64v-3h2.64v-3.66h3.75v3.66
		H225v3h-4.29v7.61c0,1.56,0.78,2.4,2.22,2.4c0.78,0,1.53-0.21,2.1-0.66L226.08,495.68z"/>
	<path class="st0" d="M242.57,487.17v9.38h-3.54v-1.95c-0.9,1.38-2.64,2.16-5.04,2.16c-3.66,0-5.96-2.01-5.96-4.79
		c0-2.67,1.8-4.76,6.65-4.76h4.14v-0.24c0-2.19-1.32-3.48-3.99-3.48c-1.8,0-3.66,0.6-4.85,1.59l-1.47-2.73
		c1.71-1.32,4.2-1.98,6.77-1.98C239.9,480.36,242.57,482.55,242.57,487.17z M238.82,491.54v-1.86h-3.87c-2.55,0-3.24,0.96-3.24,2.13
		c0,1.35,1.14,2.22,3.06,2.22C236.6,494.03,238.19,493.19,238.82,491.54z"/>
	<path class="st0" d="M245.53,494.96l1.44-2.85c1.41,0.93,3.57,1.59,5.57,1.59c2.37,0,3.36-0.66,3.36-1.77
		c0-3.06-9.89-0.18-9.89-6.56c0-3.03,2.73-5,7.04-5c2.13,0,4.55,0.51,5.99,1.38l-1.44,2.85c-1.53-0.9-3.06-1.2-4.58-1.2
		c-2.28,0-3.36,0.75-3.36,1.8c0,3.24,9.89,0.36,9.89,6.62c0,3-2.76,4.94-7.25,4.94C249.64,496.76,246.97,495.98,245.53,494.96z"/>
	<path class="st0" d="M272.41,495.68c-0.9,0.72-2.25,1.08-3.6,1.08c-3.51,0-5.51-1.86-5.51-5.39v-7.7h-2.64v-3h2.64v-3.66h3.75v3.66
		h4.29v3h-4.29v7.61c0,1.56,0.78,2.4,2.22,2.4c0.78,0,1.53-0.21,2.1-0.66L272.41,495.68z"/>
	<path class="st0" d="M274.99,475.66c0-1.26,1.02-2.25,2.4-2.25c1.38,0,2.4,0.93,2.4,2.16c0,1.32-0.99,2.34-2.4,2.34
		C276.01,477.91,274.99,476.92,274.99,475.66z M275.5,480.54h3.75v16h-3.75V480.54z"/>
	<path class="st0" d="M282.84,488.54c0-4.79,3.6-8.18,8.66-8.18c3.12,0,5.6,1.29,6.83,3.72l-2.88,1.68
		c-0.96-1.53-2.4-2.22-3.99-2.22c-2.76,0-4.85,1.92-4.85,5c0,3.12,2.1,5,4.85,5c1.59,0,3.03-0.69,3.99-2.22l2.88,1.68
		c-1.23,2.4-3.72,3.75-6.83,3.75C286.44,496.76,282.84,493.34,282.84,488.54z"/>
	<path class="st0" d="M314.96,487.17v9.38h-3.54v-1.95c-0.9,1.38-2.64,2.16-5.04,2.16c-3.66,0-5.96-2.01-5.96-4.79
		c0-2.67,1.8-4.76,6.65-4.76h4.14v-0.24c0-2.19-1.32-3.48-3.99-3.48c-1.8,0-3.66,0.6-4.85,1.59l-1.47-2.73
		c1.71-1.32,4.2-1.98,6.77-1.98C312.3,480.36,314.96,482.55,314.96,487.17z M311.22,491.54v-1.86h-3.87c-2.55,0-3.24,0.96-3.24,2.13
		c0,1.35,1.14,2.22,3.06,2.22C309,494.03,310.59,493.19,311.22,491.54z"/>
	<path class="st0" d="M319.76,474.31h3.75v22.24h-3.75V474.31z"/>
	<path class="st0" d="M350.08,487.17v9.38h-3.54v-1.95c-0.9,1.38-2.64,2.16-5.04,2.16c-3.66,0-5.96-2.01-5.96-4.79
		c0-2.67,1.8-4.76,6.65-4.76h4.14v-0.24c0-2.19-1.32-3.48-3.99-3.48c-1.8,0-3.66,0.6-4.85,1.59l-1.47-2.73
		c1.71-1.32,4.2-1.98,6.77-1.98C347.42,480.36,350.08,482.55,350.08,487.17z M346.34,491.54v-1.86h-3.87
		c-2.55,0-3.24,0.96-3.24,2.13c0,1.35,1.14,2.22,3.06,2.22C344.12,494.03,345.71,493.19,346.34,491.54z"/>
	<path class="st0" d="M370.64,487.38v9.17h-3.75v-8.69c0-2.85-1.41-4.22-3.81-4.22c-2.67,0-4.47,1.62-4.47,4.82v8.09h-3.75v-16h3.57
		v2.07c1.23-1.47,3.18-2.25,5.51-2.25C367.79,480.36,370.64,482.55,370.64,487.38z"/>
	<path class="st0" d="M374.9,475.66c0-1.26,1.02-2.25,2.4-2.25c1.38,0,2.4,0.93,2.4,2.16c0,1.32-0.99,2.34-2.4,2.34
		C375.91,477.91,374.9,476.92,374.9,475.66z M375.4,480.54h3.75v16h-3.75V480.54z"/>
	<path class="st0" d="M410.83,487.38v9.17h-3.75v-8.69c0-2.85-1.32-4.22-3.6-4.22c-2.46,0-4.17,1.62-4.17,4.79v8.12h-3.75v-8.69
		c0-2.85-1.32-4.22-3.6-4.22c-2.49,0-4.17,1.62-4.17,4.79v8.12h-3.75v-16h3.57v2.04c1.2-1.44,3.06-2.22,5.25-2.22
		c2.34,0,4.29,0.87,5.39,2.67c1.29-1.65,3.45-2.67,5.99-2.67C408.13,480.36,410.83,482.55,410.83,487.38z"/>
	<path class="st0" d="M429.02,487.17v9.38h-3.54v-1.95c-0.9,1.38-2.64,2.16-5.04,2.16c-3.66,0-5.96-2.01-5.96-4.79
		c0-2.67,1.8-4.76,6.65-4.76h4.14v-0.24c0-2.19-1.32-3.48-3.99-3.48c-1.8,0-3.66,0.6-4.85,1.59l-1.47-2.73
		c1.71-1.32,4.2-1.98,6.77-1.98C426.35,480.36,429.02,482.55,429.02,487.17z M425.27,491.54v-1.86h-3.87
		c-2.55,0-3.24,0.96-3.24,2.13c0,1.35,1.14,2.22,3.06,2.22C423.05,494.03,424.64,493.19,425.27,491.54z"/>
	<path class="st0" d="M433.81,474.31h3.75v22.24h-3.75V474.31z"/>
	<path class="st0" d="M466.5,487.38v9.17h-3.75v-8.69c0-2.85-1.41-4.22-3.81-4.22c-2.67,0-4.47,1.62-4.47,4.82v8.09h-3.75v-22.24
		h3.75v8.09c1.23-1.32,3.12-2.04,5.33-2.04C463.66,480.36,466.5,482.55,466.5,487.38z"/>
	<path class="st0" d="M485.95,480.54l-7.49,17.29c-1.47,3.63-3.51,4.73-6.17,4.73c-1.59,0-3.27-0.54-4.29-1.47l1.5-2.76
		c0.72,0.69,1.74,1.11,2.76,1.11c1.32,0,2.1-0.63,2.82-2.22l0.27-0.63l-6.98-16.06h3.9l5.03,11.84l5.07-11.84H485.95z"/>
	<path class="st0" d="M505.28,488.54c0,4.97-3.45,8.21-8.12,8.21c-2.19,0-4.05-0.75-5.3-2.28v2.07h-3.57v-22.24h3.75v8.18
		c1.29-1.44,3.09-2.13,5.12-2.13C501.83,480.36,505.28,483.57,505.28,488.54z M501.47,488.54c0-3.06-2.04-5-4.74-5
		s-4.76,1.95-4.76,5s2.07,5,4.76,5S501.47,491.6,501.47,488.54z"/>
	<path class="st0" d="M518.1,480.36v3.57c-0.33-0.06-0.6-0.09-0.87-0.09c-2.85,0-4.65,1.68-4.65,4.95v7.76h-3.75v-16h3.57v2.34
		C513.49,481.2,515.44,480.36,518.1,480.36z"/>
	<path class="st0" d="M520.77,475.66c0-1.26,1.02-2.25,2.4-2.25c1.38,0,2.4,0.93,2.4,2.16c0,1.32-0.99,2.34-2.4,2.34
		C521.79,477.91,520.77,476.92,520.77,475.66z M521.28,480.54h3.75v16h-3.75V480.54z"/>
	<path class="st0" d="M545.61,474.31v22.24h-3.6v-2.07c-1.26,1.53-3.12,2.28-5.3,2.28c-4.65,0-8.09-3.24-8.09-8.21
		s3.45-8.18,8.09-8.18c2.07,0,3.9,0.69,5.15,2.16v-8.21H545.61z M541.93,488.54c0-3.06-2.07-5-4.76-5s-4.76,1.95-4.76,5
		s2.07,5,4.76,5S541.93,491.6,541.93,488.54z"/>
	<path class="st0" d="M548.7,494.96l1.44-2.85c1.41,0.93,3.57,1.59,5.57,1.59c2.37,0,3.36-0.66,3.36-1.77
		c0-3.06-9.89-0.18-9.89-6.56c0-3.03,2.73-5,7.04-5c2.13,0,4.56,0.51,5.99,1.38l-1.44,2.85c-1.53-0.9-3.06-1.2-4.59-1.2
		c-2.28,0-3.36,0.75-3.36,1.8c0,3.24,9.89,0.36,9.89,6.62c0,3-2.76,4.94-7.25,4.94C552.8,496.76,550.14,495.98,548.7,494.96z"/>
</g>
<g>
	<path class="st0" d="M842.26,315.83l2.16-4.27c2.11,1.39,5.34,2.38,8.35,2.38c3.55,0,5.03-0.99,5.03-2.65
		c0-4.58-14.82-0.27-14.82-9.83c0-4.54,4.09-7.5,10.55-7.5c3.19,0,6.83,0.76,8.98,2.06l-2.16,4.27c-2.29-1.35-4.58-1.8-6.87-1.8
		c-3.41,0-5.03,1.12-5.03,2.69c0,4.85,14.82,0.54,14.82,9.92c0,4.49-4.13,7.41-10.87,7.41
		C848.41,318.52,844.42,317.35,842.26,315.83z"/>
	<path class="st0" d="M891.74,304.46v13.74h-5.61v-13.02c0-4.27-2.11-6.33-5.7-6.33c-4,0-6.69,2.42-6.69,7.23v12.12h-5.61v-33.32
		h5.61v12.12c1.84-1.98,4.67-3.05,7.99-3.05C887.48,293.96,891.74,297.23,891.74,304.46z"/>
	<path class="st0" d="M897.13,306.22c0-7.18,5.39-12.26,12.75-12.26c7.45,0,12.8,5.07,12.8,12.26s-5.34,12.3-12.8,12.3
		C902.52,318.52,897.13,313.4,897.13,306.22z M917.02,306.22c0-4.58-3.05-7.5-7.14-7.5c-4.04,0-7.1,2.92-7.1,7.5
		c0,4.58,3.05,7.5,7.1,7.5C913.97,313.71,917.02,310.8,917.02,306.22z"/>
	<path class="st0" d="M953.53,306.22c0,7.45-5.16,12.3-12.17,12.3c-3.05,0-5.75-1.03-7.68-3.23v11.63h-5.61v-32.69h5.34v3.14
		c1.89-2.29,4.67-3.41,7.95-3.41C948.36,293.96,953.53,298.81,953.53,306.22z M947.82,306.22c0-4.58-3.05-7.5-7.1-7.5
		c-4.04,0-7.14,2.92-7.14,7.5c0,4.58,3.1,7.5,7.14,7.5C944.77,313.71,947.82,310.8,947.82,306.22z"/>
	<path class="st0" d="M984.33,306.22c0,7.45-5.16,12.3-12.17,12.3c-3.05,0-5.75-1.03-7.68-3.23v11.63h-5.61v-32.69h5.34v3.14
		c1.89-2.29,4.67-3.41,7.95-3.41C979.16,293.96,984.33,298.81,984.33,306.22z M978.62,306.22c0-4.58-3.05-7.5-7.1-7.5
		c-4.04,0-7.14,2.92-7.14,7.5c0,4.58,3.1,7.5,7.14,7.5C975.57,313.71,978.62,310.8,978.62,306.22z"/>
	<path class="st0" d="M988.9,286.91c0-1.89,1.53-3.37,3.59-3.37c2.07,0,3.59,1.39,3.59,3.23c0,1.98-1.48,3.5-3.59,3.5
		C990.43,290.27,988.9,288.79,988.9,286.91z M989.67,294.23h5.61v23.98h-5.61V294.23z"/>
	<path class="st0" d="M1026.26,304.46v13.74h-5.61v-13.02c0-4.27-2.11-6.33-5.7-6.33c-4,0-6.69,2.42-6.69,7.23v12.12h-5.61v-23.98
		h5.34v3.1c1.84-2.2,4.76-3.37,8.26-3.37C1022,293.96,1026.26,297.23,1026.26,304.46z"/>
	<path class="st0" d="M1057.42,294.23v20.34c0,8.71-4.54,12.66-12.93,12.66c-4.49,0-8.94-1.17-11.68-3.41l2.51-4.22
		c2.11,1.75,5.52,2.88,8.85,2.88c5.3,0,7.63-2.43,7.63-7.28v-1.26c-1.98,2.16-4.8,3.19-8.04,3.19c-6.87,0-12.12-4.67-12.12-11.63
		c0-6.96,5.25-11.54,12.12-11.54c3.37,0,6.33,1.08,8.31,3.46v-3.19H1057.42z M1051.9,305.5c0-4.04-3.05-6.78-7.27-6.78
		c-4.27,0-7.32,2.74-7.32,6.78c0,4.09,3.05,6.87,7.32,6.87C1048.84,312.37,1051.9,309.58,1051.9,305.5z"/>
</g>
<g>
	<path class="st0" d="M764.39,84.19l2.75-5.44c2.69,1.78,6.82,3.04,10.66,3.04c4.53,0,6.42-1.26,6.42-3.38
		c0-5.84-18.91-0.34-18.91-12.55c0-5.79,5.21-9.57,13.46-9.57c4.07,0,8.71,0.97,11.46,2.64l-2.75,5.44
		c-2.92-1.72-5.84-2.29-8.77-2.29c-4.35,0-6.42,1.43-6.42,3.44c0,6.19,18.91,0.69,18.91,12.66c0,5.73-5.27,9.45-13.87,9.45
		C772.24,87.62,767.14,86.13,764.39,84.19z"/>
	<path class="st0" d="M794.87,71.92c0-9.17,6.88-15.64,16.56-15.64c5.96,0,10.71,2.46,13.06,7.1l-5.5,3.21
		c-1.83-2.92-4.58-4.24-7.62-4.24c-5.27,0-9.28,3.67-9.28,9.57c0,5.96,4.01,9.57,9.28,9.57c3.04,0,5.79-1.32,7.62-4.24l5.5,3.21
		c-2.35,4.58-7.1,7.16-13.06,7.16C801.74,87.62,794.87,81.09,794.87,71.92z"/>
	<path class="st0" d="M860.53,69.69v17.53h-7.16V70.61c0-5.44-2.69-8.08-7.28-8.08c-5.1,0-8.54,3.09-8.54,9.22v15.47h-7.16V44.71
		h7.16v15.47c2.35-2.52,5.96-3.9,10.2-3.9C855.08,56.28,860.53,60.46,860.53,69.69z"/>
	<path class="st0" d="M867.4,71.92c0-9.17,6.88-15.64,16.27-15.64c9.51,0,16.33,6.47,16.33,15.64c0,9.17-6.82,15.7-16.33,15.7
		C874.27,87.62,867.4,81.09,867.4,71.92z M892.78,71.92c0-5.84-3.9-9.57-9.11-9.57c-5.16,0-9.05,3.72-9.05,9.57
		c0,5.84,3.9,9.57,9.05,9.57C888.88,81.49,892.78,77.77,892.78,71.92z"/>
	<path class="st0" d="M904.35,71.92c0-9.17,6.88-15.64,16.27-15.64c9.51,0,16.33,6.47,16.33,15.64c0,9.17-6.82,15.7-16.33,15.7
		C911.23,87.62,904.35,81.09,904.35,71.92z M929.73,71.92c0-5.84-3.9-9.57-9.11-9.57c-5.16,0-9.05,3.72-9.05,9.57
		c0,5.84,3.9,9.57,9.05,9.57C925.84,81.49,929.73,77.77,929.73,71.92z"/>
	<path class="st0" d="M943.83,44.71h7.16v42.51h-7.16V44.71z"/>
</g>
<g>
	<path class="st0" d="M439.78,378.71v27.37c0,11.72-6.1,17.04-17.4,17.04c-6.04,0-12.02-1.57-15.71-4.59l3.38-5.68
		c2.84,2.36,7.43,3.87,11.9,3.87c7.13,0,10.27-3.26,10.27-9.79v-1.69c-2.66,2.9-6.46,4.29-10.82,4.29
		c-9.24,0-16.31-6.28-16.31-15.65c0-9.37,7.07-15.53,16.31-15.53c4.53,0,8.52,1.45,11.18,4.65v-4.29H439.78z M432.35,393.88
		c0-5.44-4.11-9.12-9.79-9.12c-5.74,0-9.85,3.69-9.85,9.12c0,5.5,4.11,9.24,9.85,9.24C428.24,403.12,432.35,399.37,432.35,393.88z"
		/>
	<path class="st0" d="M447.02,394.84c0-9.67,7.25-16.5,17.16-16.5c10.03,0,17.22,6.83,17.22,16.5s-7.19,16.56-17.22,16.56
		C454.28,411.4,447.02,404.51,447.02,394.84z M473.79,394.84c0-6.16-4.11-10.09-9.61-10.09c-5.44,0-9.55,3.93-9.55,10.09
		c0,6.16,4.11,10.09,9.55,10.09C469.68,404.93,473.79,401.01,473.79,394.84z"/>
	<path class="st0" d="M507.32,378.35v7.19c-0.66-0.12-1.21-0.18-1.75-0.18c-5.74,0-9.37,3.38-9.37,9.97v15.65h-7.55v-32.27h7.19
		v4.71C498.02,380.04,501.95,378.35,507.32,378.35z"/>
	<path class="st0" d="M543.64,397.26h-25.32c0.91,4.71,4.83,7.73,10.45,7.73c3.62,0,6.47-1.15,8.76-3.5l4.05,4.65
		c-2.9,3.44-7.43,5.26-12.99,5.26c-10.82,0-17.83-6.95-17.83-16.56c0-9.61,7.07-16.5,16.68-16.5c9.43,0,16.31,6.59,16.31,16.68
		C543.76,395.63,543.7,396.53,543.64,397.26z M518.26,392.24h18.31c-0.6-4.65-4.17-7.86-9.12-7.86
		C522.55,384.39,518.98,387.53,518.26,392.24z"/>
</g>
</svg>
