<?xml version="1.0" encoding="utf-8"?>
<!-- Generator: Adobe Illustrator 25.2.0, SVG Export Plug-In . SVG Version: 6.00 Build 0)  -->
<svg version="1.1" id="Layer_1" xmlns="http://www.w3.org/2000/svg" xmlns:xlink="http://www.w3.org/1999/xlink" x="0px" y="0px"
	 viewBox="0 0 1199 797" style="enable-background:new 0 0 1199 797;" xml:space="preserve">
<style type="text/css">
	.st0{fill:#5773EF;}
	.st1{fill:#EBCEC7;}
</style>
<g>
	<g>
		<path class="st0" d="M595.61,253.11l-10.52,24.54h-5.93l-10.52-24.54h5.97l7.63,18.2l7.86-18.2H595.61z"/>
		<path class="st0" d="M598.41,245.62c0-1.93,1.56-3.45,3.68-3.45s3.68,1.42,3.68,3.31c0,2.02-1.52,3.58-3.68,3.58
			C599.98,249.07,598.41,247.55,598.41,245.62z M599.2,253.11h5.75v24.54h-5.75V253.11z"/>
		<path class="st0" d="M610.46,265.38c0-7.35,5.52-12.55,13.05-12.55c7.63,0,13.1,5.19,13.1,12.55s-5.47,12.59-13.1,12.59
			C615.97,277.97,610.46,272.73,610.46,265.38z M630.82,265.38c0-4.69-3.12-7.67-7.31-7.67c-4.14,0-7.26,2.99-7.26,7.67
			s3.12,7.67,7.26,7.67C627.69,273.06,630.82,270.07,630.82,265.38z"/>
		<path class="st0" d="M642.13,243.55h5.75v34.1h-5.75V243.55z"/>
		<path class="st0" d="M678.39,267.22h-19.26c0.69,3.58,3.68,5.88,7.95,5.88c2.76,0,4.92-0.87,6.66-2.67l3.08,3.54
			c-2.21,2.62-5.65,4-9.88,4c-8.23,0-13.56-5.29-13.56-12.59s5.38-12.55,12.69-12.55c7.17,0,12.41,5.01,12.41,12.68
			C678.48,265.98,678.43,266.67,678.39,267.22z M659.09,263.4h13.93c-0.46-3.54-3.17-5.97-6.94-5.97
			C662.35,257.43,659.64,259.82,659.09,263.4z"/>
		<path class="st0" d="M708.17,263.59v14.06h-5.75v-13.33c0-4.37-2.16-6.48-5.84-6.48c-4.09,0-6.85,2.48-6.85,7.4v12.41H684v-24.54
			h5.47v3.17c1.88-2.25,4.87-3.45,8.46-3.45C703.81,252.83,708.17,256.19,708.17,263.59z"/>
		<path class="st0" d="M713.69,265.38c0-7.35,5.52-12.55,13.28-12.55c4.78,0,8.59,1.98,10.48,5.7l-4.41,2.57
			c-1.47-2.34-3.68-3.4-6.11-3.4c-4.23,0-7.45,2.94-7.45,7.67c0,4.78,3.22,7.67,7.45,7.67c2.44,0,4.64-1.06,6.11-3.4l4.41,2.57
			c-1.88,3.68-5.7,5.75-10.48,5.75C719.21,277.97,713.69,272.73,713.69,265.38z"/>
		<path class="st0" d="M765.03,267.22h-19.26c0.69,3.58,3.68,5.88,7.95,5.88c2.76,0,4.92-0.87,6.66-2.67l3.08,3.54
			c-2.21,2.62-5.65,4-9.88,4c-8.23,0-13.56-5.29-13.56-12.59s5.38-12.55,12.69-12.55c7.17,0,12.41,5.01,12.41,12.68
			C765.12,265.98,765.08,266.67,765.03,267.22z M745.73,263.4h13.93c-0.46-3.54-3.17-5.97-6.94-5.97
			C748.99,257.43,746.28,259.82,745.73,263.4z"/>
	</g>
	<g>
		<path class="st0" d="M95.55,268.69c0-9.92,7.44-16.92,17.91-16.92c6.44,0,11.59,2.67,14.13,7.68l-5.95,3.47
			c-1.98-3.16-4.96-4.59-8.24-4.59c-5.7,0-10.04,3.97-10.04,10.35c0,6.44,4.34,10.35,10.04,10.35c3.28,0,6.26-1.42,8.24-4.58
			l5.95,3.47c-2.54,4.96-7.68,7.75-14.13,7.75C102.99,285.67,95.55,278.6,95.55,268.69z"/>
		<path class="st0" d="M131.06,268.69c0-9.92,7.44-16.92,17.6-16.92c10.29,0,17.66,7,17.66,16.92c0,9.91-7.37,16.98-17.66,16.98
			C138.5,285.67,131.06,278.6,131.06,268.69z M158.51,268.69c0-6.32-4.21-10.35-9.85-10.35c-5.58,0-9.79,4.03-9.79,10.35
			s4.21,10.35,9.79,10.35C154.3,279.04,158.51,275.01,158.51,268.69z"/>
		<path class="st0" d="M206.35,266.27v18.96h-7.75v-17.97c0-5.89-2.91-8.74-7.87-8.74c-5.51,0-9.23,3.35-9.23,9.98v16.73h-7.75
			v-33.09h7.37v4.28c2.54-3.04,6.57-4.65,11.4-4.65C200.46,251.77,206.35,256.29,206.35,266.27z"/>
		<path class="st0" d="M224.76,250.41v1.98h9.11v6.2H225v26.65h-7.75v-26.65h-5.45v-6.2h5.45v-2.11c0-6.94,4.15-11.46,11.83-11.46
			c2.67,0,5.27,0.56,7,1.8l-2.17,5.82c-1.18-0.81-2.67-1.36-4.28-1.36C226.43,245.08,224.76,246.88,224.76,250.41z"/>
		<path class="st0" d="M263.18,251.77v7.37c-0.68-0.12-1.24-0.19-1.8-0.19c-5.89,0-9.6,3.47-9.6,10.22v16.05h-7.75v-33.09h7.37v4.83
			C253.63,253.51,257.66,251.77,263.18,251.77z"/>
		<path class="st0" d="M266.71,268.69c0-9.92,7.44-16.92,17.6-16.92c10.29,0,17.66,7,17.66,16.92c0,9.91-7.37,16.98-17.66,16.98
			C274.15,285.67,266.71,278.6,266.71,268.69z M294.16,268.69c0-6.32-4.21-10.35-9.85-10.35c-5.58,0-9.79,4.03-9.79,10.35
			s4.21,10.35,9.79,10.35C289.95,279.04,294.16,275.01,294.16,268.69z"/>
		<path class="st0" d="M342,266.27v18.96h-7.75v-17.97c0-5.89-2.91-8.74-7.87-8.74c-5.51,0-9.23,3.35-9.23,9.98v16.73h-7.75v-33.09
			h7.37v4.28c2.54-3.04,6.57-4.65,11.4-4.65C336.12,251.77,342,256.29,342,266.27z"/>
		<path class="st0" d="M371.75,283.44c-1.86,1.49-4.65,2.23-7.44,2.23c-7.25,0-11.4-3.84-11.4-11.15v-15.92h-5.45v-6.2h5.45v-7.56
			h7.75v7.56h8.86v6.2h-8.86v15.74c0,3.22,1.61,4.96,4.59,4.96c1.61,0,3.16-0.43,4.34-1.36L371.75,283.44z"/>
		<path class="st0" d="M405.83,265.84v19.4h-7.31v-4.03c-1.86,2.85-5.45,4.46-10.41,4.46c-7.56,0-12.33-4.15-12.33-9.92
			c0-5.51,3.72-9.85,13.76-9.85h8.55v-0.5c0-4.52-2.73-7.19-8.24-7.19c-3.72,0-7.56,1.24-10.04,3.28l-3.04-5.64
			c3.53-2.73,8.68-4.09,14-4.09C400.32,251.77,405.83,256.29,405.83,265.84z M398.09,274.88v-3.84h-7.99c-5.27,0-6.69,1.98-6.69,4.4
			c0,2.79,2.35,4.59,6.32,4.59C393.5,280.03,396.79,278.29,398.09,274.88z"/>
		<path class="st0" d="M435.64,283.44c-1.86,1.49-4.65,2.23-7.44,2.23c-7.25,0-11.4-3.84-11.4-11.15v-15.92h-5.45v-6.2h5.45v-7.56
			h7.75v7.56h8.86v6.2h-8.86v15.74c0,3.22,1.61,4.96,4.58,4.96c1.61,0,3.16-0.43,4.34-1.36L435.64,283.44z"/>
		<path class="st0" d="M440.97,242.04c0-2.6,2.11-4.65,4.96-4.65s4.96,1.92,4.96,4.46c0,2.73-2.04,4.83-4.96,4.83
			C443.08,246.69,440.97,244.65,440.97,242.04z M442.03,252.14h7.75v33.09h-7.75V252.14z"/>
		<path class="st0" d="M457.21,268.69c0-9.92,7.44-16.92,17.6-16.92c10.29,0,17.66,7,17.66,16.92c0,9.91-7.37,16.98-17.66,16.98
			C464.64,285.67,457.21,278.6,457.21,268.69z M484.66,268.69c0-6.32-4.21-10.35-9.85-10.35c-5.58,0-9.79,4.03-9.79,10.35
			s4.21,10.35,9.79,10.35C480.45,279.04,484.66,275.01,484.66,268.69z"/>
		<path class="st0" d="M532.5,266.27v18.96h-7.75v-17.97c0-5.89-2.91-8.74-7.87-8.74c-5.51,0-9.23,3.35-9.23,9.98v16.73h-7.75
			v-33.09h7.37v4.28c2.54-3.04,6.57-4.65,11.4-4.65C526.61,251.77,532.5,256.29,532.5,266.27z"/>
	</g>
	<g>
		<path class="st0" d="M760.84,567.47l3.32-6.57c3.25,2.14,8.23,3.67,12.86,3.67c5.46,0,7.75-1.52,7.75-4.08
			c0-7.05-22.82-0.42-22.82-15.14c0-6.98,6.29-11.55,16.25-11.55c4.91,0,10.51,1.18,13.83,3.18l-3.32,6.57
			c-3.53-2.08-7.05-2.77-10.58-2.77c-5.26,0-7.75,1.73-7.75,4.15c0,7.47,22.82,0.83,22.82,15.28c0,6.92-6.36,11.41-16.73,11.41
			C770.31,571.62,764.16,569.83,760.84,567.47z"/>
		<path class="st0" d="M835.25,555.44h-28.98c1.04,5.39,5.53,8.85,11.96,8.85c4.15,0,7.4-1.31,10.03-4.01l4.63,5.33
			c-3.32,3.94-8.51,6.02-14.87,6.02c-12.38,0-20.4-7.95-20.4-18.95s8.09-18.88,19.09-18.88c10.79,0,18.67,7.54,18.67,19.09
			C835.39,553.57,835.32,554.61,835.25,555.44z M806.21,549.7h20.95c-0.69-5.33-4.77-8.99-10.44-8.99
			C811.12,540.71,807.04,544.31,806.21,549.7z"/>
		<path class="st0" d="M840.65,552.68c0-11.06,8.3-18.88,19.99-18.88c7.19,0,12.93,2.97,15.77,8.58l-6.64,3.87
			c-2.21-3.53-5.53-5.12-9.2-5.12c-6.36,0-11.2,4.43-11.2,11.55c0,7.19,4.84,11.55,11.2,11.55c3.67,0,6.98-1.59,9.2-5.12l6.64,3.87
			c-2.83,5.53-8.58,8.64-15.77,8.64C848.95,571.62,840.65,563.74,840.65,552.68z"/>
		<path class="st0" d="M905.24,533.8v8.23c-0.76-0.14-1.38-0.21-2.01-0.21c-6.57,0-10.72,3.87-10.72,11.41v17.91h-8.64v-36.93h8.23
			v5.39C894.59,535.73,899.08,533.8,905.24,533.8z"/>
		<path class="st0" d="M946.8,555.44h-28.98c1.04,5.39,5.53,8.85,11.96,8.85c4.15,0,7.4-1.31,10.03-4.01l4.63,5.33
			c-3.32,3.94-8.51,6.02-14.87,6.02c-12.38,0-20.4-7.95-20.4-18.95s8.09-18.88,19.09-18.88c10.79,0,18.67,7.54,18.67,19.09
			C946.94,553.57,946.87,554.61,946.8,555.44z M917.76,549.7h20.95c-0.69-5.33-4.77-8.99-10.44-8.99
			C922.67,540.71,918.59,544.31,917.76,549.7z"/>
		<path class="st0" d="M952.2,552.68c0-11.06,8.3-18.88,19.99-18.88c7.19,0,12.93,2.97,15.77,8.58l-6.64,3.87
			c-2.21-3.53-5.53-5.12-9.2-5.12c-6.36,0-11.2,4.43-11.2,11.55c0,7.19,4.84,11.55,11.2,11.55c3.67,0,6.98-1.59,9.2-5.12l6.64,3.87
			c-2.83,5.53-8.58,8.64-15.77,8.64C960.5,571.62,952.2,563.74,952.2,552.68z"/>
		<path class="st0" d="M1029.51,534.21l-17.29,39.9c-3.39,8.37-8.09,10.93-14.25,10.93c-3.67,0-7.54-1.25-9.89-3.39l3.46-6.36
			c1.66,1.59,4.01,2.56,6.36,2.56c3.04,0,4.84-1.45,6.5-5.12l0.62-1.45l-16.11-37.07h8.99l11.62,27.32l11.69-27.32H1029.51z"/>
	</g>
	<g>
		<path class="st1" d="M475.57,492.23c-1.33,1.06-3.32,1.59-5.31,1.59c-5.18,0-8.15-2.74-8.15-7.97v-11.38h-3.89v-4.43h3.89v-5.4
			h5.53v5.4h6.33v4.43h-6.33v11.24c0,2.3,1.15,3.54,3.28,3.54c1.15,0,2.26-0.31,3.1-0.97L475.57,492.23z"/>
		<path class="st1" d="M501.47,483.46h-18.55c0.66,3.45,3.54,5.67,7.66,5.67c2.66,0,4.74-0.84,6.42-2.57l2.97,3.41
			c-2.12,2.52-5.45,3.85-9.52,3.85c-7.92,0-13.06-5.09-13.06-12.13s5.18-12.08,12.22-12.08c6.91,0,11.95,4.82,11.95,12.22
			C501.55,482.27,501.51,482.93,501.47,483.46z M482.87,479.79h13.41c-0.44-3.41-3.05-5.75-6.68-5.75
			C486.02,474.04,483.4,476.34,482.87,479.79z"/>
		<path class="st1" d="M520.54,469.61v5.27c-0.49-0.09-0.88-0.13-1.28-0.13c-4.21,0-6.86,2.48-6.86,7.3v11.46h-5.53v-23.64h5.27
			v3.45C513.73,470.85,516.6,469.61,520.54,469.61z"/>
		<path class="st1" d="M538.91,469.61v5.27c-0.49-0.09-0.88-0.13-1.28-0.13c-4.21,0-6.86,2.48-6.86,7.3v11.46h-5.53v-23.64h5.27
			v3.45C532.1,470.85,534.98,469.61,538.91,469.61z"/>
		<path class="st1" d="M541.44,481.69c0-7.08,5.31-12.08,12.57-12.08c7.35,0,12.62,5,12.62,12.08c0,7.08-5.27,12.13-12.62,12.13
			C546.75,493.82,541.44,488.78,541.44,481.69z M561.05,481.69c0-4.51-3.01-7.39-7.04-7.39c-3.98,0-6.99,2.88-6.99,7.39
			c0,4.52,3.01,7.39,6.99,7.39C558.04,489.09,561.05,486.21,561.05,481.69z"/>
		<path class="st1" d="M585.61,469.61v5.27c-0.49-0.09-0.88-0.13-1.28-0.13c-4.21,0-6.86,2.48-6.86,7.3v11.46h-5.53v-23.64h5.27
			v3.45C578.8,470.85,581.68,469.61,585.61,469.61z"/>
	</g>
	<g>
		<path class="st1" d="M945.4,330.9v17.87h-7.3v-16.93c0-5.55-2.75-8.23-7.42-8.23c-5.2,0-8.7,3.15-8.7,9.4v15.77h-7.3v-43.33h7.3
			v15.77c2.39-2.57,6.07-3.97,10.39-3.97C939.85,317.24,945.4,321.5,945.4,330.9z"/>
		<path class="st1" d="M980.79,330.5v18.28h-6.89v-3.8c-1.75,2.69-5.14,4.21-9.81,4.21c-7.12,0-11.62-3.91-11.62-9.34
			c0-5.2,3.5-9.28,12.96-9.28h8.06v-0.47c0-4.26-2.57-6.77-7.77-6.77c-3.5,0-7.12,1.17-9.46,3.09l-2.86-5.31
			c3.33-2.57,8.17-3.85,13.2-3.85C975.59,317.24,980.79,321.5,980.79,330.5z M973.49,339.02v-3.62h-7.53
			c-4.96,0-6.31,1.87-6.31,4.15c0,2.63,2.22,4.32,5.96,4.32C969.17,343.87,972.26,342.23,973.49,339.02z"/>
		<path class="st1" d="M1008.88,347.08c-1.75,1.4-4.38,2.1-7.01,2.1c-6.83,0-10.75-3.62-10.75-10.51v-15.01h-5.14v-5.84h5.14v-7.12
			h7.3v7.12h8.35v5.84h-8.35v14.83c0,3.04,1.52,4.67,4.32,4.67c1.52,0,2.98-0.41,4.09-1.29L1008.88,347.08z"/>
		<path class="st1" d="M1043.05,335.52h-24.47c0.88,4.56,4.67,7.47,10.1,7.47c3.5,0,6.25-1.11,8.47-3.39l3.91,4.5
			c-2.8,3.33-7.18,5.08-12.56,5.08c-10.45,0-17.23-6.72-17.23-16c0-9.28,6.83-15.94,16.12-15.94c9.11,0,15.77,6.37,15.77,16.12
			C1043.16,333.94,1043.11,334.82,1043.05,335.52z M1018.52,330.67h17.69c-0.58-4.5-4.03-7.59-8.82-7.59
			C1022.67,323.08,1019.22,326.12,1018.52,330.67z"/>
		<path class="st1" d="M1080.71,305.44v43.33h-7.01v-4.03c-2.45,2.98-6.07,4.44-10.34,4.44c-9.05,0-15.77-6.31-15.77-16
			c0-9.69,6.72-15.94,15.77-15.94c4.03,0,7.59,1.34,10.04,4.2v-16H1080.71z M1073.53,333.18c0-5.96-4.03-9.75-9.29-9.75
			c-5.25,0-9.28,3.8-9.28,9.75c0,5.96,4.03,9.75,9.28,9.75C1069.5,342.93,1073.53,339.14,1073.53,333.18z"/>
	</g>
	<g>
		<path class="st1" d="M371.66,578.02H361.6c0.36,1.87,1.92,3.07,4.15,3.07c1.44,0,2.57-0.46,3.48-1.39l1.61,1.85
			c-1.15,1.37-2.95,2.09-5.16,2.09c-4.3,0-7.08-2.76-7.08-6.58s2.81-6.55,6.62-6.55c3.74,0,6.48,2.62,6.48,6.62
			C371.7,577.38,371.68,577.74,371.66,578.02z M361.58,576.03h7.27c-0.24-1.85-1.66-3.12-3.62-3.12
			C363.28,572.91,361.86,574.16,361.58,576.03z"/>
		<path class="st1" d="M386.34,570.65l-5.5,12.82h-3.1l-5.5-12.82h3.12l3.98,9.5l4.1-9.5H386.34z"/>
		<path class="st1" d="M387.81,566.74c0-1.01,0.82-1.8,1.92-1.8c1.1,0,1.92,0.74,1.92,1.73c0,1.06-0.79,1.87-1.92,1.87
			C388.62,568.54,387.81,567.75,387.81,566.74z M388.21,570.65h3v12.82h-3V570.65z"/>
		<path class="st1" d="M395.15,565.66h3v17.81h-3V565.66z"/>
	</g>
	<g>
		<path class="st1" d="M829.39,503.29c0-6.18,4.64-10.55,10.97-10.55c6.41,0,11.01,4.37,11.01,10.55s-4.6,10.59-11.01,10.59
			C834.02,513.88,829.39,509.48,829.39,503.29z M846.5,503.29c0-3.94-2.63-6.45-6.14-6.45c-3.48,0-6.1,2.51-6.1,6.45
			c0,3.94,2.63,6.45,6.1,6.45C843.88,509.75,846.5,507.24,846.5,503.29z"/>
		<path class="st1" d="M853.65,511.56l1.85-3.67c1.82,1.2,4.6,2.05,7.19,2.05c3.05,0,4.33-0.85,4.33-2.28
			c0-3.94-12.75-0.23-12.75-8.46c0-3.9,3.52-6.45,9.08-6.45c2.74,0,5.87,0.66,7.73,1.78l-1.86,3.67c-1.97-1.16-3.94-1.54-5.91-1.54
			c-2.94,0-4.33,0.97-4.33,2.32c0,4.17,12.75,0.46,12.75,8.54c0,3.86-3.55,6.38-9.35,6.38C858.94,513.88,855.5,512.88,853.65,511.56
			z"/>
		<path class="st1" d="M888.3,512.49c-1.16,0.93-2.9,1.39-4.64,1.39c-4.52,0-7.11-2.4-7.11-6.96V497h-3.4v-3.86h3.4v-4.71h4.83v4.71
			h5.52V497h-5.52v9.81c0,2.01,1,3.09,2.86,3.09c1,0,1.97-0.27,2.7-0.85L888.3,512.49z"/>
		<path class="st1" d="M904.22,492.75v4.6c-0.43-0.08-0.77-0.12-1.12-0.12c-3.67,0-5.99,2.16-5.99,6.38v10.01h-4.83v-20.63h4.6v3.01
			C898.27,493.83,900.78,492.75,904.22,492.75z"/>
		<path class="st1" d="M907.66,486.68c0-1.62,1.31-2.9,3.09-2.9s3.09,1.2,3.09,2.78c0,1.7-1.28,3.01-3.09,3.01
			C908.97,489.58,907.66,488.3,907.66,486.68z M908.31,492.98h4.83v20.63h-4.83V492.98z"/>
		<path class="st1" d="M917.12,511.56l1.86-3.67c1.81,1.2,4.6,2.05,7.19,2.05c3.05,0,4.33-0.85,4.33-2.28
			c0-3.94-12.75-0.23-12.75-8.46c0-3.9,3.52-6.45,9.08-6.45c2.74,0,5.87,0.66,7.73,1.78l-1.85,3.67c-1.97-1.16-3.94-1.54-5.91-1.54
			c-2.94,0-4.33,0.97-4.33,2.32c0,4.17,12.75,0.46,12.75,8.54c0,3.86-3.55,6.38-9.35,6.38
			C922.41,513.88,918.97,512.88,917.12,511.56z"/>
		<path class="st1" d="M938.71,486.68c0-1.62,1.31-2.9,3.09-2.9c1.78,0,3.09,1.2,3.09,2.78c0,1.7-1.28,3.01-3.09,3.01
			C940.03,489.58,938.71,488.3,938.71,486.68z M939.37,492.98h4.83v20.63h-4.83V492.98z"/>
		<path class="st1" d="M966.65,509.75v3.86h-17.81v-3.05l11.32-13.71h-11.09v-3.86h17.27v3.05l-11.36,13.71H966.65z"/>
		<path class="st1" d="M990.1,504.84h-16.19c0.58,3.01,3.09,4.95,6.68,4.95c2.32,0,4.13-0.73,5.6-2.24l2.59,2.98
			c-1.86,2.2-4.75,3.36-8.31,3.36c-6.92,0-11.4-4.44-11.4-10.59c0-6.14,4.52-10.55,10.66-10.55c6.03,0,10.43,4.21,10.43,10.66
			C990.17,503.8,990.13,504.38,990.1,504.84z M973.87,501.63h11.71c-0.39-2.97-2.67-5.02-5.83-5.02
			C976.61,496.61,974.33,498.62,973.87,501.63z"/>
		<path class="st1" d="M1015.01,484.94v28.67h-4.63v-2.67c-1.62,1.97-4.02,2.94-6.84,2.94c-5.99,0-10.43-4.17-10.43-10.59
			c0-6.41,4.44-10.55,10.43-10.55c2.67,0,5.02,0.89,6.65,2.78v-10.59H1015.01z M1010.26,503.29c0-3.94-2.67-6.45-6.14-6.45
			s-6.14,2.51-6.14,6.45c0,3.94,2.67,6.45,6.14,6.45S1010.26,507.24,1010.26,503.29z"/>
	</g>
	<g>
		<path class="st1" d="M155.88,336.84l2.65-5.24c2.59,1.71,6.56,2.92,10.25,2.92c4.35,0,6.17-1.21,6.17-3.25
			c0-5.62-18.19-0.33-18.19-12.07c0-5.57,5.02-9.2,12.95-9.2c3.91,0,8.38,0.94,11.02,2.54l-2.65,5.24c-2.81-1.65-5.62-2.2-8.43-2.2
			c-4.19,0-6.17,1.38-6.17,3.31c0,5.95,18.19,0.66,18.19,12.18c0,5.51-5.07,9.09-13.34,9.09
			C163.43,340.15,158.52,338.72,155.88,336.84z"/>
		<path class="st1" d="M185.2,325.05c0-8.82,6.61-15.05,15.93-15.05c5.73,0,10.31,2.37,12.57,6.83l-5.29,3.09
			c-1.76-2.81-4.41-4.08-7.33-4.08c-5.07,0-8.93,3.53-8.93,9.2c0,5.73,3.86,9.2,8.93,9.2c2.92,0,5.57-1.27,7.33-4.08l5.29,3.09
			c-2.26,4.41-6.83,6.89-12.57,6.89C191.81,340.15,185.2,333.87,185.2,325.05z"/>
		<path class="st1" d="M244.28,322.51v17.25h-6.5v-3.58c-1.65,2.54-4.85,3.97-9.26,3.97c-6.72,0-10.97-3.69-10.97-8.82
			c0-4.91,3.31-8.76,12.24-8.76h7.61v-0.44c0-4.02-2.42-6.39-7.33-6.39c-3.31,0-6.72,1.1-8.93,2.92l-2.7-5.02
			c3.14-2.42,7.72-3.64,12.46-3.64C239.38,310,244.28,314.03,244.28,322.51z M237.39,330.56v-3.42h-7.11
			c-4.68,0-5.95,1.76-5.95,3.91c0,2.48,2.09,4.08,5.62,4.08C233.31,335.14,236.23,333.59,237.39,330.56z"/>
		<path class="st1" d="M270.13,310v6.56c-0.61-0.11-1.1-0.17-1.6-0.17c-5.24,0-8.54,3.09-8.54,9.09v14.28h-6.89v-29.43h6.56v4.3
			C261.64,311.55,265.22,310,270.13,310z"/>
		<path class="st1" d="M303.25,327.25h-23.09c0.83,4.3,4.41,7.05,9.54,7.05c3.31,0,5.9-1.05,7.99-3.2l3.69,4.24
			c-2.65,3.14-6.78,4.79-11.85,4.79c-9.87,0-16.26-6.34-16.26-15.1S279.72,310,288.48,310c8.6,0,14.88,6.01,14.88,15.21
			C303.36,325.77,303.31,326.59,303.25,327.25z M280.1,322.68h16.7c-0.55-4.24-3.8-7.17-8.32-7.17
			C284.02,315.51,280.77,318.38,280.1,322.68z"/>
		<path class="st1" d="M338.8,298.87v40.9h-6.61v-3.8c-2.31,2.81-5.73,4.19-9.75,4.19c-8.54,0-14.88-5.95-14.88-15.1
			S313.89,310,322.43,310c3.8,0,7.17,1.27,9.48,3.97v-15.1H338.8z M332.02,325.05c0-5.62-3.8-9.2-8.76-9.2
			c-4.96,0-8.76,3.58-8.76,9.2s3.8,9.2,8.76,9.2C328.22,334.25,332.02,330.67,332.02,325.05z"/>
	</g>
	<g>
		<path class="st1" d="M401.08,359.36v38.48h-8.57v-4.9c-2.88,3.53-7.42,5.4-12.39,5.4c-9.87,0-16.57-5.4-16.57-17v-21.98h9.01
			v20.75c0,6.99,3.31,10.3,9.01,10.3c6.27,0,10.52-3.89,10.52-11.6v-19.45H401.08z"/>
		<path class="st1" d="M450.8,375.79v22.05h-9.01v-20.9c0-6.84-3.39-10.16-9.15-10.16c-6.41,0-10.74,3.89-10.74,11.6v19.45h-9.01
			v-38.48h8.57v4.97c2.95-3.53,7.64-5.4,13.26-5.4C443.95,358.93,450.8,364.19,450.8,375.79z"/>
		<path class="st1" d="M459.44,378.6c0-11.53,8.65-19.67,20.82-19.67c7.49,0,13.47,3.1,16.43,8.93l-6.92,4.04
			c-2.31-3.67-5.76-5.33-9.58-5.33c-6.63,0-11.67,4.61-11.67,12.03c0,7.49,5.04,12.03,11.67,12.03c3.82,0,7.28-1.66,9.58-5.33
			l6.92,4.04c-2.95,5.76-8.93,9.01-16.43,9.01C468.09,398.34,459.44,390.13,459.44,378.6z"/>
		<path class="st1" d="M500.72,378.6c0-11.53,8.65-19.67,20.46-19.67c11.96,0,20.53,8.14,20.53,19.67s-8.57,19.74-20.53,19.74
			C509.37,398.34,500.72,390.13,500.72,378.6z M532.64,378.6c0-7.35-4.9-12.03-11.46-12.03c-6.49,0-11.38,4.68-11.38,12.03
			s4.9,12.03,11.38,12.03C527.74,390.63,532.64,385.95,532.64,378.6z"/>
		<path class="st1" d="M614.71,375.79v22.05h-9.01v-20.9c0-6.84-3.17-10.16-8.65-10.16c-5.91,0-10.01,3.89-10.01,11.53v19.53h-9.01
			v-20.9c0-6.84-3.17-10.16-8.65-10.16c-5.98,0-10.01,3.89-10.01,11.53v19.53h-9.01v-38.48h8.57v4.9c2.88-3.46,7.35-5.33,12.61-5.33
			c5.62,0,10.3,2.09,12.97,6.41c3.1-3.96,8.29-6.41,14.41-6.41C608.22,358.93,614.71,364.19,614.71,375.79z"/>
		<path class="st1" d="M636.18,357.35v2.31h10.59v7.21h-10.3v30.98h-9.01v-30.98h-6.34v-7.21h6.34v-2.45
			c0-8.07,4.83-13.33,13.76-13.33c3.1,0,6.12,0.65,8.14,2.09l-2.52,6.77c-1.37-0.94-3.1-1.58-4.97-1.58
			C638.12,351.15,636.18,353.24,636.18,357.35z"/>
		<path class="st1" d="M649.07,378.6c0-11.53,8.65-19.67,20.46-19.67c11.96,0,20.53,8.14,20.53,19.67s-8.57,19.74-20.53,19.74
			C657.72,398.34,649.07,390.13,649.07,378.6z M680.99,378.6c0-7.35-4.9-12.03-11.46-12.03c-6.49,0-11.38,4.68-11.38,12.03
			s4.9,12.03,11.38,12.03C676.09,390.63,680.99,385.95,680.99,378.6z"/>
		<path class="st1" d="M720.98,358.93v8.57c-0.79-0.14-1.44-0.22-2.09-0.22c-6.84,0-11.17,4.03-11.17,11.89v18.66h-9.01v-38.48h8.57
			v5.62C709.88,360.95,714.56,358.93,720.98,358.93z"/>
		<path class="st1" d="M753.18,395.75c-2.16,1.73-5.4,2.59-8.65,2.59c-8.43,0-13.26-4.47-13.26-12.97v-18.52h-6.34v-7.21h6.34v-8.79
			h9.01v8.79h10.3v7.21h-10.3v18.3c0,3.75,1.87,5.76,5.33,5.76c1.87,0,3.67-0.5,5.04-1.58L753.18,395.75z"/>
		<path class="st1" d="M792.81,375.29v22.55h-8.5v-4.68c-2.16,3.31-6.34,5.19-12.1,5.19c-8.79,0-14.34-4.83-14.34-11.53
			c0-6.41,4.32-11.46,16-11.46h9.94v-0.58c0-5.26-3.17-8.36-9.58-8.36c-4.32,0-8.79,1.44-11.67,3.82l-3.53-6.56
			c4.11-3.17,10.09-4.75,16.28-4.75C786.4,358.93,792.81,364.19,792.81,375.29z M783.8,385.81v-4.47h-9.29
			c-6.12,0-7.78,2.31-7.78,5.12c0,3.24,2.74,5.33,7.35,5.33C778.47,391.79,782.29,389.77,783.8,385.81z"/>
		<path class="st1" d="M845.19,378.6c0,11.96-8.29,19.74-19.53,19.74c-5.26,0-9.73-1.8-12.75-5.48v4.97h-8.57v-53.46h9.01v19.67
			c3.1-3.46,7.42-5.12,12.32-5.12C836.9,358.93,845.19,366.64,845.19,378.6z M836.04,378.6c0-7.35-4.9-12.03-11.38-12.03
			c-6.48,0-11.46,4.68-11.46,12.03s4.97,12.03,11.46,12.03C831.14,390.63,836.04,385.95,836.04,378.6z"/>
		<path class="st1" d="M853.76,344.38h9.01v53.46h-9.01V344.38z"/>
		<path class="st1" d="M910.61,381.48h-30.19c1.08,5.62,5.76,9.22,12.46,9.22c4.32,0,7.71-1.37,10.45-4.18l4.83,5.55
			c-3.46,4.11-8.86,6.27-15.49,6.27c-12.9,0-21.25-8.29-21.25-19.74s8.43-19.67,19.89-19.67c11.24,0,19.45,7.85,19.45,19.89
			C910.75,379.54,910.68,380.62,910.61,381.48z M880.34,375.5h21.83c-0.72-5.55-4.97-9.37-10.88-9.37
			C885.46,366.14,881.21,369.88,880.34,375.5z"/>
	</g>
	<g>
		<path class="st1" d="M541.45,314.03c0-3.84,2.88-6.55,6.82-6.55c3.98,0,6.84,2.71,6.84,6.55c0,3.84-2.86,6.58-6.84,6.58
			C544.33,320.61,541.45,317.87,541.45,314.03z M552.08,314.03c0-2.45-1.63-4.01-3.82-4.01c-2.16,0-3.79,1.56-3.79,4.01
			s1.63,4.01,3.79,4.01C550.45,318.04,552.08,316.48,552.08,314.03z"/>
		<path class="st1" d="M570.4,307.62v12.82h-2.86v-1.63c-0.96,1.18-2.47,1.8-4.13,1.8c-3.29,0-5.52-1.8-5.52-5.66v-7.32h3v6.91
			c0,2.33,1.1,3.43,3,3.43c2.09,0,3.5-1.3,3.5-3.86v-6.48H570.4z"/>
		<path class="st1" d="M582.04,319.74c-0.72,0.58-1.8,0.86-2.88,0.86c-2.81,0-4.42-1.49-4.42-4.32v-6.17h-2.11v-2.4h2.11v-2.93h3
			v2.93h3.43v2.4h-3.43v6.1c0,1.25,0.62,1.92,1.78,1.92c0.62,0,1.22-0.17,1.68-0.53L582.04,319.74z"/>
		<path class="st1" d="M590.07,314.03c0-3.84,2.88-6.55,6.82-6.55c3.98,0,6.84,2.71,6.84,6.55c0,3.84-2.86,6.58-6.84,6.58
			C592.95,320.61,590.07,317.87,590.07,314.03z M600.71,314.03c0-2.45-1.63-4.01-3.82-4.01c-2.16,0-3.79,1.56-3.79,4.01
			s1.63,4.01,3.79,4.01C599.08,318.04,600.71,316.48,600.71,314.03z"/>
		<path class="st1" d="M609.92,306.95v0.77h3.53v2.4h-3.43v10.32h-3v-10.32h-2.11v-2.4h2.11v-0.82c0-2.69,1.61-4.44,4.58-4.44
			c1.03,0,2.04,0.22,2.71,0.7l-0.84,2.26c-0.46-0.31-1.03-0.53-1.66-0.53C610.57,304.88,609.92,305.58,609.92,306.95z"/>
		<path class="st1" d="M635.7,314.03c0,3.98-2.76,6.58-6.5,6.58c-1.63,0-3.07-0.55-4.1-1.73v6.22h-3v-17.47h2.86v1.68
			c1.01-1.22,2.5-1.82,4.25-1.82C632.94,307.48,635.7,310.07,635.7,314.03z M632.65,314.03c0-2.45-1.63-4.01-3.79-4.01
			s-3.82,1.56-3.82,4.01s1.66,4.01,3.82,4.01S632.65,316.48,632.65,314.03z"/>
		<path class="st1" d="M638.55,302.63h3v17.81h-3V302.63z"/>
		<path class="st1" d="M656.22,312.92v7.51h-2.83v-1.56c-0.72,1.1-2.11,1.73-4.03,1.73c-2.93,0-4.78-1.61-4.78-3.84
			c0-2.14,1.44-3.82,5.33-3.82h3.31v-0.19c0-1.75-1.06-2.78-3.19-2.78c-1.44,0-2.93,0.48-3.89,1.27l-1.18-2.18
			c1.37-1.06,3.36-1.58,5.42-1.58C654.08,307.48,656.22,309.23,656.22,312.92z M653.22,316.43v-1.49h-3.1
			c-2.04,0-2.59,0.77-2.59,1.7c0,1.08,0.91,1.78,2.45,1.78C651.44,318.42,652.71,317.75,653.22,316.43z"/>
		<path class="st1" d="M659.12,314.03c0-3.84,2.88-6.55,6.94-6.55c2.5,0,4.49,1.03,5.47,2.98l-2.3,1.34
			c-0.77-1.22-1.92-1.78-3.19-1.78c-2.21,0-3.89,1.54-3.89,4.01c0,2.5,1.68,4.01,3.89,4.01c1.27,0,2.42-0.55,3.19-1.78l2.3,1.34
			c-0.98,1.92-2.98,3-5.47,3C662,320.61,659.12,317.87,659.12,314.03z"/>
		<path class="st1" d="M685.93,314.99h-10.06c0.36,1.87,1.92,3.07,4.15,3.07c1.44,0,2.57-0.46,3.48-1.39l1.61,1.85
			c-1.15,1.37-2.95,2.09-5.16,2.09c-4.3,0-7.08-2.76-7.08-6.58s2.81-6.55,6.62-6.55c3.74,0,6.48,2.62,6.48,6.62
			C685.98,314.34,685.95,314.7,685.93,314.99z M675.85,313h7.27c-0.24-1.85-1.66-3.12-3.62-3.12
			C677.55,309.88,676.14,311.12,675.85,313z"/>
	</g>
	<g>
		<path class="st1" d="M582.26,539.42v4.38c-0.41-0.07-0.74-0.11-1.07-0.11c-3.5,0-5.7,2.06-5.7,6.07v9.53h-4.6v-19.65h4.38v2.87
			C576.59,540.45,578.99,539.42,582.26,539.42z"/>
		<path class="st1" d="M604.37,550.94h-15.41c0.55,2.87,2.94,4.71,6.36,4.71c2.21,0,3.94-0.7,5.33-2.13l2.46,2.83
			c-1.77,2.1-4.52,3.2-7.91,3.2c-6.59,0-10.85-4.23-10.85-10.08c0-5.85,4.3-10.04,10.15-10.04c5.74,0,9.93,4.01,9.93,10.15
			C604.44,549.94,604.41,550.5,604.37,550.94z M588.92,547.88h11.15c-0.37-2.83-2.54-4.78-5.55-4.78
			C591.53,543.1,589.36,545.01,588.92,547.88z"/>
		<path class="st1" d="M602.42,565.54l1.32-3.42c0.7,0.52,1.66,0.77,2.69,0.77c1.69,0,2.65-1.03,2.65-3.13v-20.12h4.6v20.01
			c0,4.3-2.46,7.03-6.84,7.03C605.14,566.68,603.49,566.35,602.42,565.54z M608.42,533.65c0-1.54,1.25-2.76,2.94-2.76
			s2.94,1.14,2.94,2.65c0,1.62-1.21,2.87-2.94,2.87C609.67,536.41,608.42,535.19,608.42,533.65z"/>
		<path class="st1" d="M638.11,550.94h-15.41c0.55,2.87,2.94,4.71,6.36,4.71c2.21,0,3.94-0.7,5.33-2.13l2.46,2.83
			c-1.77,2.1-4.52,3.2-7.91,3.2c-6.59,0-10.85-4.23-10.85-10.08c0-5.85,4.3-10.04,10.15-10.04c5.74,0,9.93,4.01,9.93,10.15
			C638.18,549.94,638.14,550.5,638.11,550.94z M622.66,547.88h11.15c-0.37-2.83-2.54-4.78-5.55-4.78
			C625.27,543.1,623.1,545.01,622.66,547.88z"/>
		<path class="st1" d="M640.98,549.46c0-5.89,4.41-10.04,10.63-10.04c3.83,0,6.88,1.58,8.39,4.56l-3.53,2.06
			c-1.18-1.88-2.94-2.72-4.89-2.72c-3.38,0-5.96,2.35-5.96,6.14c0,3.83,2.58,6.14,5.96,6.14c1.95,0,3.72-0.85,4.89-2.72l3.53,2.06
			c-1.51,2.94-4.56,4.6-8.39,4.6C645.39,559.54,640.98,555.35,640.98,549.46z"/>
		<path class="st1" d="M676.04,558.22c-1.1,0.88-2.76,1.32-4.42,1.32c-4.3,0-6.77-2.28-6.77-6.62v-9.46h-3.24v-3.68h3.24v-4.49h4.6
			v4.49h5.26v3.68h-5.26v9.34c0,1.91,0.96,2.94,2.72,2.94c0.96,0,1.88-0.26,2.58-0.81L676.04,558.22z"/>
		<path class="st1" d="M697.56,550.94h-15.41c0.55,2.87,2.94,4.71,6.36,4.71c2.21,0,3.94-0.7,5.33-2.13l2.46,2.83
			c-1.77,2.1-4.52,3.2-7.91,3.2c-6.59,0-10.85-4.23-10.85-10.08c0-5.85,4.3-10.04,10.15-10.04c5.74,0,9.93,4.01,9.93,10.15
			C697.63,549.94,697.6,550.5,697.56,550.94z M682.11,547.88h11.15c-0.37-2.83-2.54-4.78-5.55-4.78
			C684.72,543.1,682.55,545.01,682.11,547.88z"/>
		<path class="st1" d="M721.29,531.99v27.3h-4.41v-2.54c-1.54,1.88-3.83,2.8-6.51,2.8c-5.7,0-9.93-3.97-9.93-10.08
			c0-6.11,4.23-10.04,9.93-10.04c2.54,0,4.78,0.85,6.33,2.65v-10.08H721.29z M716.76,549.46c0-3.75-2.54-6.14-5.85-6.14
			s-5.85,2.39-5.85,6.14c0,3.75,2.54,6.14,5.85,6.14S716.76,553.22,716.76,549.46z"/>
	</g>
	<g>
		<path class="st1" d="M635.73,168.83v7.51h-2.83v-1.56c-0.72,1.1-2.11,1.73-4.03,1.73c-2.93,0-4.78-1.61-4.78-3.84
			c0-2.14,1.44-3.82,5.33-3.82h3.31v-0.19c0-1.75-1.06-2.78-3.19-2.78c-1.44,0-2.93,0.48-3.89,1.27l-1.18-2.18
			c1.37-1.06,3.36-1.58,5.42-1.58C633.59,163.38,635.73,165.14,635.73,168.83z M632.73,172.34v-1.49h-3.1
			c-2.04,0-2.59,0.77-2.59,1.7c0,1.08,0.91,1.78,2.45,1.78C630.95,174.33,632.22,173.66,632.73,172.34z"/>
		<path class="st1" d="M652.19,169v7.34h-3v-6.96c0-2.28-1.13-3.38-3.05-3.38c-2.14,0-3.58,1.3-3.58,3.86v6.48h-3v-12.82h2.86v1.66
			c0.98-1.18,2.54-1.8,4.42-1.8C649.91,163.38,652.19,165.14,652.19,169z"/>
		<path class="st1" d="M668.85,163.53v10.87c0,4.66-2.42,6.77-6.91,6.77c-2.4,0-4.78-0.62-6.24-1.82l1.34-2.26
			c1.13,0.94,2.95,1.54,4.73,1.54c2.83,0,4.08-1.3,4.08-3.89v-0.67c-1.06,1.15-2.57,1.7-4.3,1.7c-3.67,0-6.48-2.5-6.48-6.22
			s2.81-6.17,6.48-6.17c1.8,0,3.38,0.58,4.44,1.85v-1.7H668.85z M665.89,169.55c0-2.16-1.63-3.62-3.89-3.62
			c-2.28,0-3.91,1.46-3.91,3.62c0,2.18,1.63,3.67,3.91,3.67C664.26,173.22,665.89,171.74,665.89,169.55z"/>
		<path class="st1" d="M680.2,163.38v2.86c-0.26-0.05-0.48-0.07-0.7-0.07c-2.28,0-3.72,1.34-3.72,3.96v6.22h-3v-12.82h2.86v1.87
			C676.5,164.06,678.06,163.38,680.2,163.38z"/>
		<path class="st1" d="M695.22,163.53l-6,13.85c-1.18,2.9-2.81,3.79-4.94,3.79c-1.27,0-2.62-0.43-3.43-1.18l1.2-2.21
			c0.58,0.55,1.39,0.89,2.21,0.89c1.06,0,1.68-0.5,2.26-1.78l0.22-0.5l-5.59-12.86h3.12l4.03,9.48l4.06-9.48H695.22z"/>
	</g>
	<g>
		<path class="st1" d="M798.97,276.89c-1.12,0.9-2.81,1.35-4.49,1.35c-4.38,0-6.89-2.32-6.89-6.74v-9.62h-3.29v-3.74h3.29v-4.57
			h4.68v4.57h5.35v3.74h-5.35v9.51c0,1.95,0.97,2.99,2.77,2.99c0.97,0,1.91-0.26,2.62-0.82L798.97,276.89z"/>
		<path class="st1" d="M814.39,257.76v4.45c-0.41-0.08-0.75-0.11-1.08-0.11c-3.56,0-5.8,2.1-5.8,6.18v9.69h-4.68v-19.99h4.45v2.92
			C808.63,258.81,811.06,257.76,814.39,257.76z"/>
		<path class="st1" d="M834.98,266.26v11.72h-4.42v-2.43c-1.12,1.72-3.29,2.7-6.29,2.7c-4.57,0-7.45-2.51-7.45-5.99
			c0-3.33,2.25-5.95,8.31-5.95h5.17V266c0-2.73-1.65-4.34-4.98-4.34c-2.25,0-4.57,0.75-6.06,1.98l-1.83-3.41
			c2.13-1.65,5.24-2.47,8.46-2.47C831.65,257.76,834.98,260.49,834.98,266.26z M830.3,271.72v-2.32h-4.83
			c-3.18,0-4.04,1.2-4.04,2.66c0,1.68,1.42,2.77,3.82,2.77C827.53,274.83,829.51,273.78,830.3,271.72z"/>
		<path class="st1" d="M862.19,267.98c0,6.21-4.3,10.26-10.14,10.26c-2.54,0-4.79-0.86-6.4-2.7v9.69h-4.68v-27.25h4.45v2.62
			c1.57-1.91,3.89-2.84,6.62-2.84C857.88,257.76,862.19,261.8,862.19,267.98z M857.43,267.98c0-3.82-2.54-6.25-5.91-6.25
			c-3.37,0-5.95,2.43-5.95,6.25c0,3.82,2.58,6.25,5.95,6.25C854.89,274.23,857.43,271.8,857.43,267.98z"/>
		<path class="st1" d="M887.86,267.98c0,6.21-4.3,10.26-10.14,10.26c-2.54,0-4.79-0.86-6.4-2.7v9.69h-4.68v-27.25h4.45v2.62
			c1.57-1.91,3.89-2.84,6.62-2.84C883.56,257.76,887.86,261.8,887.86,267.98z M883.11,267.98c0-3.82-2.54-6.25-5.91-6.25
			c-3.37,0-5.95,2.43-5.95,6.25c0,3.82,2.58,6.25,5.95,6.25C880.56,274.23,883.11,271.8,883.11,267.98z"/>
		<path class="st1" d="M911.03,269.48h-15.68c0.56,2.92,3,4.79,6.48,4.79c2.25,0,4-0.71,5.43-2.17l2.51,2.88
			c-1.8,2.13-4.6,3.26-8.05,3.26c-6.7,0-11.04-4.3-11.04-10.26s4.38-10.22,10.33-10.22c5.84,0,10.11,4.08,10.11,10.33
			C911.1,268.47,911.07,269.03,911.03,269.48z M895.31,266.37h11.34c-0.38-2.88-2.58-4.87-5.65-4.87
			C897.97,261.5,895.76,263.45,895.31,266.37z"/>
		<path class="st1" d="M935.17,250.2v27.77h-4.49v-2.58c-1.57,1.91-3.89,2.84-6.62,2.84c-5.8,0-10.11-4.04-10.11-10.26
			c0-6.21,4.3-10.22,10.11-10.22c2.58,0,4.87,0.86,6.44,2.69V250.2H935.17z M930.57,267.98c0-3.82-2.58-6.25-5.95-6.25
			s-5.95,2.43-5.95,6.25c0,3.82,2.58,6.25,5.95,6.25S930.57,271.8,930.57,267.98z"/>
	</g>
	<g>
		<path class="st1" d="M498.47,580.12h3v17.81h-3V580.12z"/>
		<path class="st1" d="M504.35,591.52c0-3.84,2.88-6.55,6.82-6.55c3.98,0,6.84,2.71,6.84,6.55c0,3.84-2.86,6.58-6.84,6.58
			C507.23,598.1,504.35,595.36,504.35,591.52z M514.98,591.52c0-2.45-1.63-4.01-3.82-4.01c-2.16,0-3.79,1.56-3.79,4.01
			s1.63,4.01,3.79,4.01C513.35,595.53,514.98,593.97,514.98,591.52z"/>
		<path class="st1" d="M519.42,596.66l1.15-2.28c1.13,0.74,2.86,1.27,4.46,1.27c1.9,0,2.69-0.53,2.69-1.42
			c0-2.45-7.92-0.14-7.92-5.26c0-2.42,2.18-4.01,5.64-4.01c1.7,0,3.65,0.41,4.8,1.1l-1.15,2.28c-1.22-0.72-2.45-0.96-3.67-0.96
			c-1.82,0-2.69,0.6-2.69,1.44c0,2.59,7.92,0.29,7.92,5.3c0,2.4-2.21,3.96-5.81,3.96C522.71,598.1,520.57,597.47,519.42,596.66z"/>
		<path class="st1" d="M540.95,597.23c-0.72,0.58-1.8,0.86-2.88,0.86c-2.81,0-4.42-1.49-4.42-4.32v-6.17h-2.11v-2.4h2.11v-2.93h3
			v2.93h3.43v2.4h-3.43v6.1c0,1.25,0.62,1.92,1.78,1.92c0.62,0,1.22-0.17,1.68-0.53L540.95,597.23z"/>
	</g>
	<g>
		<path class="st1" d="M217.82,419.38l-5.5,12.82h-3.1l-5.5-12.82h3.12l3.98,9.5l4.1-9.5H217.82z"/>
		<path class="st1" d="M219.28,415.46c0-1.01,0.82-1.8,1.92-1.8c1.1,0,1.92,0.74,1.92,1.73c0,1.06-0.79,1.87-1.92,1.87
			C220.1,417.26,219.28,416.47,219.28,415.46z M219.69,419.38h3v12.82h-3V419.38z"/>
		<path class="st1" d="M226.62,414.38h3v17.81h-3V414.38z"/>
		<path class="st1" d="M233.56,414.38h3v17.81h-3V414.38z"/>
		<path class="st1" d="M251.23,424.68v7.51h-2.83v-1.56c-0.72,1.1-2.11,1.73-4.03,1.73c-2.93,0-4.78-1.61-4.78-3.84
			c0-2.14,1.44-3.82,5.33-3.82h3.31v-0.19c0-1.75-1.06-2.78-3.19-2.78c-1.44,0-2.93,0.48-3.89,1.27l-1.18-2.18
			c1.37-1.06,3.36-1.58,5.42-1.58C249.09,419.23,251.23,420.98,251.23,424.68z M248.23,428.18v-1.49h-3.1
			c-2.04,0-2.59,0.77-2.59,1.7c0,1.08,0.91,1.78,2.45,1.78C246.45,430.18,247.72,429.5,248.23,428.18z"/>
		<path class="st1" d="M254.66,415.46c0-1.01,0.82-1.8,1.92-1.8c1.1,0,1.92,0.74,1.92,1.73c0,1.06-0.79,1.87-1.92,1.87
			C255.47,417.26,254.66,416.47,254.66,415.46z M255.06,419.38h3v12.82h-3V419.38z"/>
		<path class="st1" d="M274.63,424.85v7.34h-3v-6.96c0-2.28-1.13-3.38-3.05-3.38c-2.14,0-3.58,1.3-3.58,3.86v6.48h-3v-12.82h2.86
			v1.66c0.98-1.18,2.54-1.8,4.42-1.8C272.35,419.23,274.63,420.98,274.63,424.85z"/>
		<path class="st1" d="M278.03,415.46c0-1.01,0.82-1.8,1.92-1.8c1.1,0,1.92,0.74,1.92,1.73c0,1.06-0.79,1.87-1.92,1.87
			C278.85,417.26,278.03,416.47,278.03,415.46z M278.44,419.38h3v12.82h-3V419.38z"/>
		<path class="st1" d="M295.38,429.79v2.4h-11.06v-1.9l7.03-8.52h-6.89v-2.4h10.73v1.9l-7.06,8.52H295.38z"/>
		<path class="st1" d="M309.95,426.74H299.9c0.36,1.87,1.92,3.07,4.15,3.07c1.44,0,2.57-0.46,3.48-1.39l1.61,1.85
			c-1.15,1.37-2.95,2.09-5.16,2.09c-4.3,0-7.08-2.76-7.08-6.58s2.81-6.55,6.62-6.55c3.74,0,6.48,2.62,6.48,6.62
			C310,426.1,309.98,426.46,309.95,426.74z M299.87,424.75h7.27c-0.24-1.85-1.66-3.12-3.62-3.12
			C301.58,421.63,300.16,422.88,299.87,424.75z"/>
		<path class="st1" d="M325.43,414.38v17.81h-2.88v-1.66c-1.01,1.22-2.5,1.82-4.25,1.82c-3.72,0-6.48-2.59-6.48-6.58
			s2.76-6.55,6.48-6.55c1.66,0,3.12,0.55,4.13,1.73v-6.58H325.43z M322.48,425.78c0-2.45-1.66-4.01-3.82-4.01s-3.82,1.56-3.82,4.01
			s1.66,4.01,3.82,4.01S322.48,428.23,322.48,425.78z"/>
	</g>
	<g>
		<path class="st1" d="M254.71,528.77c0,9.71-6.72,16.02-15.85,16.02c-3.98,0-7.48-1.34-10-4.21v15.14h-7.31v-42.57h6.96v4.09
			c2.46-2.98,6.08-4.44,10.35-4.44C247.99,512.81,254.71,519.12,254.71,528.77z M247.29,528.77c0-5.96-3.98-9.77-9.24-9.77
			c-5.26,0-9.3,3.8-9.3,9.77c0,5.96,4.04,9.76,9.3,9.76C243.31,538.53,247.29,534.73,247.29,528.77z"/>
		<path class="st1" d="M287.4,526.08v18.3h-6.9v-3.8c-1.75,2.69-5.15,4.21-9.82,4.21c-7.13,0-11.64-3.92-11.64-9.36
			c0-5.2,3.51-9.3,12.98-9.3h8.07v-0.47c0-4.27-2.57-6.78-7.78-6.78c-3.51,0-7.13,1.17-9.47,3.1l-2.87-5.32
			c3.33-2.57,8.19-3.86,13.21-3.86C282.2,512.81,287.4,517.08,287.4,526.08z M280.09,534.62v-3.62h-7.54
			c-4.97,0-6.32,1.87-6.32,4.15c0,2.63,2.22,4.33,5.96,4.33C275.77,539.47,278.87,537.83,280.09,534.62z"/>
		<path class="st1" d="M327.52,526.49v17.89h-7.31v-16.96c0-5.55-2.75-8.24-7.43-8.24c-5.2,0-8.71,3.16-8.71,9.41v15.79h-7.31
			v-31.22h6.96v4.03c2.4-2.87,6.2-4.38,10.76-4.38C321.96,512.81,327.52,517.08,327.52,526.49z"/>
		<path class="st1" d="M335.83,503.63c0-2.46,1.99-4.38,4.68-4.38s4.68,1.81,4.68,4.21c0,2.57-1.93,4.56-4.68,4.56
			C337.81,508.01,335.83,506.08,335.83,503.63z M336.82,513.16h7.31v31.22h-7.31V513.16z"/>
		<path class="st1" d="M351.15,528.77c0-9.36,7.02-15.96,16.9-15.96c6.08,0,10.93,2.51,13.33,7.25l-5.61,3.27
			c-1.87-2.98-4.68-4.33-7.78-4.33c-5.38,0-9.47,3.74-9.47,9.77c0,6.08,4.09,9.76,9.47,9.76c3.1,0,5.91-1.34,7.78-4.33l5.61,3.27
			c-2.4,4.68-7.25,7.31-13.33,7.31C358.16,544.79,351.15,538.12,351.15,528.77z"/>
	</g>
	<g>
		<path class="st0" d="M133.65,382.07c0-3.84,2.88-6.55,6.94-6.55c2.5,0,4.49,1.03,5.47,2.98l-2.3,1.34
			c-0.77-1.22-1.92-1.78-3.19-1.78c-2.21,0-3.89,1.54-3.89,4.01c0,2.5,1.68,4.01,3.89,4.01c1.27,0,2.42-0.55,3.19-1.78l2.3,1.34
			c-0.98,1.92-2.98,3-5.47,3C136.53,388.65,133.65,385.91,133.65,382.07z"/>
		<path class="st0" d="M147.4,382.07c0-3.84,2.88-6.55,6.82-6.55c3.98,0,6.84,2.71,6.84,6.55c0,3.84-2.86,6.58-6.84,6.58
			C150.28,388.65,147.4,385.91,147.4,382.07z M158.03,382.07c0-2.45-1.63-4.01-3.82-4.01c-2.16,0-3.79,1.56-3.79,4.01
			c0,2.45,1.63,4.01,3.79,4.01C156.4,386.08,158.03,384.52,158.03,382.07z"/>
		<path class="st0" d="M176.56,381.13v7.34h-3v-6.96c0-2.28-1.13-3.38-3.05-3.38c-2.14,0-3.58,1.3-3.58,3.86v6.48h-3v-12.82h2.86
			v1.66c0.98-1.18,2.54-1.8,4.42-1.8C174.28,375.52,176.56,377.27,176.56,381.13z"/>
		<path class="st0" d="M179.44,382.07c0-3.84,2.88-6.55,6.94-6.55c2.5,0,4.49,1.03,5.47,2.98l-2.3,1.34
			c-0.77-1.22-1.92-1.78-3.19-1.78c-2.21,0-3.89,1.54-3.89,4.01c0,2.5,1.68,4.01,3.89,4.01c1.27,0,2.42-0.55,3.19-1.78l2.3,1.34
			c-0.98,1.92-2.98,3-5.47,3C182.32,388.65,179.44,385.91,179.44,382.07z"/>
		<path class="st0" d="M206.25,383.03h-10.06c0.36,1.87,1.92,3.07,4.15,3.07c1.44,0,2.57-0.46,3.48-1.39l1.61,1.85
			c-1.15,1.37-2.95,2.09-5.16,2.09c-4.3,0-7.08-2.76-7.08-6.58s2.81-6.55,6.62-6.55c3.74,0,6.48,2.62,6.48,6.62
			C206.3,382.38,206.27,382.74,206.25,383.03z M196.17,381.04h7.27c-0.24-1.85-1.66-3.12-3.62-3.12
			C197.87,377.92,196.45,379.16,196.17,381.04z"/>
		<path class="st0" d="M221.7,375.66v17.47h-3v-6.22c-1.03,1.18-2.47,1.73-4.1,1.73c-3.74,0-6.48-2.59-6.48-6.58
			c0-3.96,2.74-6.55,6.48-6.55c1.75,0,3.24,0.6,4.25,1.82v-1.68H221.7z M218.75,382.07c0-2.45-1.63-4.01-3.82-4.01
			c-2.16,0-3.79,1.56-3.79,4.01c0,2.45,1.63,4.01,3.79,4.01C217.12,386.08,218.75,384.52,218.75,382.07z"/>
		<path class="st0" d="M238.05,375.66v12.82h-2.86v-1.63c-0.96,1.18-2.47,1.8-4.13,1.8c-3.29,0-5.52-1.8-5.52-5.67v-7.32h3v6.91
			c0,2.33,1.1,3.43,3,3.43c2.09,0,3.5-1.3,3.5-3.87v-6.48H238.05z"/>
		<path class="st0" d="M253.98,383.03h-10.06c0.36,1.87,1.92,3.07,4.15,3.07c1.44,0,2.57-0.46,3.48-1.39l1.61,1.85
			c-1.15,1.37-2.95,2.09-5.16,2.09c-4.3,0-7.08-2.76-7.08-6.58s2.81-6.55,6.62-6.55c3.74,0,6.48,2.62,6.48,6.62
			C254.03,382.38,254.01,382.74,253.98,383.03z M243.9,381.04h7.27c-0.24-1.85-1.66-3.12-3.62-3.12
			C245.61,377.92,244.19,379.16,243.9,381.04z"/>
		<path class="st0" d="M269.53,381.13v7.34h-3v-6.96c0-2.28-1.13-3.38-3.05-3.38c-2.14,0-3.58,1.3-3.58,3.86v6.48h-3v-12.82h2.86
			v1.66c0.98-1.18,2.54-1.8,4.42-1.8C267.26,375.52,269.53,377.27,269.53,381.13z"/>
		<path class="st0" d="M272.41,382.07c0-3.84,2.88-6.55,6.94-6.55c2.5,0,4.49,1.03,5.47,2.98l-2.3,1.34
			c-0.77-1.22-1.92-1.78-3.19-1.78c-2.21,0-3.89,1.54-3.89,4.01c0,2.5,1.68,4.01,3.89,4.01c1.27,0,2.42-0.55,3.19-1.78l2.3,1.34
			c-0.98,1.92-2.98,3-5.47,3C275.29,388.65,272.41,385.91,272.41,382.07z"/>
		<path class="st0" d="M299.22,383.03h-10.06c0.36,1.87,1.92,3.07,4.15,3.07c1.44,0,2.57-0.46,3.48-1.39l1.61,1.85
			c-1.15,1.37-2.95,2.09-5.16,2.09c-4.3,0-7.08-2.76-7.08-6.58s2.81-6.55,6.62-6.55c3.74,0,6.48,2.62,6.48,6.62
			C299.27,382.38,299.25,382.74,299.22,383.03z M289.14,381.04h7.27c-0.24-1.85-1.66-3.12-3.62-3.12
			C290.85,377.92,289.43,379.16,289.14,381.04z"/>
	</g>
	<g>
		<path class="st0" d="M35.43,457.09v1.01h4.65v3.16h-4.52v13.59h-3.95v-13.59h-2.78v-3.16h2.78v-1.07c0-3.54,2.12-5.85,6.04-5.85
			c1.36,0,2.69,0.28,3.57,0.92l-1.11,2.97c-0.6-0.41-1.36-0.7-2.18-0.7C36.29,454.37,35.43,455.29,35.43,457.09z"/>
		<path class="st0" d="M56.54,464.96v9.89h-3.73v-2.05c-0.95,1.45-2.78,2.28-5.31,2.28c-3.86,0-6.29-2.12-6.29-5.06
			c0-2.81,1.9-5.02,7.02-5.02h4.36v-0.25c0-2.31-1.39-3.67-4.2-3.67c-1.9,0-3.85,0.63-5.12,1.67l-1.55-2.88
			c1.8-1.39,4.42-2.08,7.14-2.08C53.73,457.79,56.54,460.09,56.54,464.96z M52.59,469.57v-1.96h-4.08c-2.69,0-3.41,1.01-3.41,2.24
			c0,1.42,1.2,2.34,3.22,2.34C50.25,472.2,51.93,471.31,52.59,469.57z"/>
		<path class="st0" d="M78.22,465.18v9.67h-3.95v-9.16c0-3-1.49-4.46-4.01-4.46c-2.81,0-4.71,1.71-4.71,5.09v8.53h-3.95v-16.88h3.76
			v2.18c1.3-1.55,3.35-2.37,5.81-2.37C75.21,457.79,78.22,460.09,78.22,465.18z"/>
		<path class="st0" d="M82.01,466.41c0-5.06,3.79-8.63,9.13-8.63c3.29,0,5.91,1.36,7.2,3.92l-3.03,1.77
			c-1.01-1.61-2.53-2.34-4.2-2.34c-2.91,0-5.12,2.02-5.12,5.28c0,3.29,2.21,5.28,5.12,5.28c1.67,0,3.19-0.73,4.2-2.34l3.03,1.77
			c-1.29,2.53-3.92,3.95-7.2,3.95C85.8,475.07,82.01,471.47,82.01,466.41z"/>
		<path class="st0" d="M117.33,457.98l-7.9,18.23c-1.55,3.82-3.7,4.99-6.51,4.99c-1.67,0-3.44-0.57-4.52-1.55l1.58-2.91
			c0.76,0.73,1.83,1.17,2.91,1.17c1.39,0,2.21-0.66,2.97-2.34l0.28-0.66l-7.36-16.94h4.11l5.31,12.48l5.34-12.48H117.33z"/>
		<path class="st0" d="M128.52,451.4h3.95v23.45h-3.95V451.4z"/>
		<path class="st0" d="M153.98,457.98v16.88h-3.76v-2.15c-1.26,1.55-3.25,2.37-5.43,2.37c-4.33,0-7.27-2.37-7.27-7.46v-9.64h3.95
			v9.1c0,3.07,1.45,4.52,3.95,4.52c2.75,0,4.61-1.71,4.61-5.09v-8.53H153.98z"/>
		<path class="st0" d="M169.91,474.85l-4.33-5.85l-4.36,5.85h-4.36l6.57-8.56l-6.29-8.31h4.39l4.14,5.53l4.14-5.53h4.27l-6.32,8.25
			l6.6,8.63H169.91z"/>
		<path class="st0" d="M193.29,457.98v16.88h-3.76v-2.15c-1.26,1.55-3.25,2.37-5.43,2.37c-4.33,0-7.27-2.37-7.27-7.46v-9.64h3.95
			v9.1c0,3.07,1.45,4.52,3.95,4.52c2.75,0,4.61-1.71,4.61-5.09v-8.53H193.29z"/>
		<path class="st0" d="M208.24,457.79v3.76c-0.35-0.06-0.63-0.09-0.92-0.09c-3,0-4.9,1.77-4.9,5.21v8.18h-3.95v-16.88h3.76v2.46
			C203.37,458.67,205.42,457.79,208.24,457.79z"/>
		<path class="st0" d="M211.05,452.82c0-1.33,1.08-2.37,2.53-2.37c1.45,0,2.53,0.98,2.53,2.28c0,1.39-1.04,2.46-2.53,2.46
			C212.12,455.19,211.05,454.15,211.05,452.82z M211.58,457.98h3.95v16.88h-3.95V457.98z"/>
		<path class="st0" d="M219.32,466.41c0-5.06,3.79-8.63,8.97-8.63c5.25,0,9.01,3.57,9.01,8.63c0,5.06-3.76,8.66-9.01,8.66
			C223.12,475.07,219.32,471.47,219.32,466.41z M233.32,466.41c0-3.22-2.15-5.28-5.02-5.28c-2.84,0-4.99,2.05-4.99,5.28
			c0,3.22,2.15,5.28,4.99,5.28C231.17,471.69,233.32,469.64,233.32,466.41z"/>
		<path class="st0" d="M257.43,457.98v16.88h-3.76v-2.15c-1.26,1.55-3.26,2.37-5.44,2.37c-4.33,0-7.27-2.37-7.27-7.46v-9.64h3.95
			v9.1c0,3.07,1.45,4.52,3.95,4.52c2.75,0,4.61-1.71,4.61-5.09v-8.53H257.43z"/>
		<path class="st0" d="M260.68,473.18l1.52-3c1.49,0.98,3.76,1.67,5.88,1.67c2.5,0,3.54-0.7,3.54-1.87c0-3.22-10.43-0.19-10.43-6.92
			c0-3.19,2.88-5.28,7.43-5.28c2.24,0,4.8,0.54,6.32,1.45l-1.52,3c-1.61-0.95-3.22-1.26-4.83-1.26c-2.4,0-3.54,0.79-3.54,1.9
			c0,3.41,10.43,0.38,10.43,6.98c0,3.16-2.91,5.21-7.65,5.21C265.01,475.07,262.2,474.25,260.68,473.18z"/>
		<path class="st0" d="M285.68,473.18l1.52-3c1.49,0.98,3.76,1.67,5.88,1.67c2.5,0,3.54-0.7,3.54-1.87c0-3.22-10.43-0.19-10.43-6.92
			c0-3.19,2.88-5.28,7.43-5.28c2.24,0,4.8,0.54,6.32,1.45l-1.52,3c-1.61-0.95-3.22-1.26-4.83-1.26c-2.4,0-3.54,0.79-3.54,1.9
			c0,3.41,10.43,0.38,10.43,6.98c0,3.16-2.91,5.21-7.65,5.21C290,475.07,287.19,474.25,285.68,473.18z"/>
		<path class="st0" d="M319.68,467.68h-13.24c0.47,2.46,2.53,4.04,5.47,4.04c1.9,0,3.38-0.6,4.58-1.83l2.12,2.43
			c-1.52,1.8-3.89,2.75-6.79,2.75c-5.66,0-9.32-3.63-9.32-8.66s3.7-8.63,8.72-8.63c4.93,0,8.53,3.44,8.53,8.72
			C319.74,466.82,319.71,467.3,319.68,467.68z M306.4,465.05h9.58c-0.32-2.43-2.18-4.11-4.77-4.11
			C308.65,460.95,306.78,462.59,306.4,465.05z"/>
		<path class="st0" d="M333.67,473.93c-0.95,0.76-2.37,1.14-3.79,1.14c-3.7,0-5.81-1.96-5.81-5.69v-8.12h-2.78v-3.16h2.78v-3.86
			h3.95v3.86h4.52v3.16h-4.52v8.03c0,1.64,0.82,2.53,2.34,2.53c0.82,0,1.61-0.22,2.21-0.7L333.67,473.93z"/>
		<path class="st0" d="M346.66,473.93c-0.95,0.76-2.37,1.14-3.79,1.14c-3.7,0-5.81-1.96-5.81-5.69v-8.12h-2.78v-3.16h2.78v-3.86H341
			v3.86h4.52v3.16H341v8.03c0,1.64,0.82,2.53,2.34,2.53c0.82,0,1.61-0.22,2.21-0.7L346.66,473.93z"/>
		<path class="st0" d="M349.37,452.82c0-1.33,1.08-2.37,2.53-2.37c1.45,0,2.53,0.98,2.53,2.28c0,1.39-1.04,2.46-2.53,2.46
			C350.45,455.19,349.37,454.15,349.37,452.82z M349.91,457.98h3.95v16.88h-3.95V457.98z"/>
		<path class="st0" d="M375.67,465.18v9.67h-3.95v-9.16c0-3-1.49-4.46-4.01-4.46c-2.81,0-4.71,1.71-4.71,5.09v8.53h-3.95v-16.88
			h3.76v2.18c1.3-1.55,3.35-2.37,5.81-2.37C372.66,457.79,375.67,460.09,375.67,465.18z"/>
		<path class="st0" d="M397.59,457.98v14.32c0,6.13-3.19,8.91-9.1,8.91c-3.16,0-6.29-0.82-8.22-2.4l1.77-2.97
			c1.49,1.23,3.89,2.02,6.23,2.02c3.73,0,5.37-1.71,5.37-5.12v-0.88c-1.39,1.52-3.38,2.24-5.66,2.24c-4.83,0-8.53-3.29-8.53-8.18
			s3.7-8.12,8.53-8.12c2.37,0,4.46,0.76,5.85,2.43v-2.24H397.59z M393.71,465.91c0-2.84-2.15-4.77-5.12-4.77
			c-3,0-5.15,1.93-5.15,4.77c0,2.88,2.15,4.83,5.15,4.83C391.56,470.74,393.71,468.78,393.71,465.91z"/>
		<path class="st0" d="M400.84,473.18l1.52-3c1.49,0.98,3.76,1.67,5.88,1.67c2.5,0,3.54-0.7,3.54-1.87c0-3.22-10.43-0.19-10.43-6.92
			c0-3.19,2.88-5.28,7.43-5.28c2.24,0,4.8,0.54,6.32,1.45l-1.52,3c-1.61-0.95-3.22-1.26-4.83-1.26c-2.4,0-3.54,0.79-3.54,1.9
			c0,3.41,10.43,0.38,10.43,6.98c0,3.16-2.91,5.21-7.65,5.21C405.17,475.07,402.36,474.25,400.84,473.18z"/>
	</g>
	<g>
		<path class="st0" d="M551.03,224.41v7.51h-2.83v-1.56c-0.72,1.1-2.11,1.73-4.03,1.73c-2.93,0-4.78-1.61-4.78-3.84
			c0-2.14,1.44-3.82,5.33-3.82h3.31v-0.19c0-1.75-1.06-2.78-3.19-2.78c-1.44,0-2.93,0.48-3.89,1.27l-1.18-2.18
			c1.37-1.06,3.36-1.58,5.42-1.58C548.9,218.96,551.03,220.72,551.03,224.41z M548.03,227.92v-1.49h-3.1c-2.04,0-2.59,0.77-2.59,1.7
			c0,1.08,0.91,1.78,2.45,1.78C546.26,229.91,547.53,229.24,548.03,227.92z"/>
		<path class="st0" d="M568.48,225.52c0,3.98-2.76,6.58-6.5,6.58c-1.75,0-3.24-0.6-4.25-1.82v1.66h-2.86v-17.81h3v6.55
			c1.03-1.15,2.47-1.7,4.1-1.7C565.72,218.96,568.48,221.53,568.48,225.52z M565.43,225.52c0-2.45-1.63-4.01-3.79-4.01
			s-3.82,1.56-3.82,4.01s1.66,4.01,3.82,4.01S565.43,227.96,565.43,225.52z"/>
		<path class="st0" d="M570.28,225.52c0-3.84,2.88-6.55,6.82-6.55c3.98,0,6.84,2.71,6.84,6.55c0,3.84-2.86,6.58-6.84,6.58
			C573.16,232.09,570.28,229.36,570.28,225.52z M580.91,225.52c0-2.45-1.63-4.01-3.82-4.01c-2.16,0-3.79,1.56-3.79,4.01
			s1.63,4.01,3.79,4.01C579.28,229.52,580.91,227.96,580.91,225.52z"/>
		<path class="st0" d="M594.23,218.96v2.86c-0.26-0.05-0.48-0.07-0.7-0.07c-2.28,0-3.72,1.34-3.72,3.96v6.22h-3v-12.82h2.86v1.87
			C590.54,219.64,592.1,218.96,594.23,218.96z"/>
		<path class="st0" d="M604.96,231.23c-0.72,0.58-1.8,0.86-2.88,0.86c-2.81,0-4.42-1.49-4.42-4.32v-6.17h-2.11v-2.4h2.11v-2.93h3
			v2.93h3.43v2.4h-3.43v6.1c0,1.25,0.62,1.92,1.78,1.92c0.62,0,1.22-0.17,1.68-0.53L604.96,231.23z"/>
		<path class="st0" d="M607.02,215.2c0-1.01,0.82-1.8,1.92-1.8c1.1,0,1.92,0.74,1.92,1.73c0,1.06-0.79,1.87-1.92,1.87
			C607.84,217,607.02,216.2,607.02,215.2z M607.43,219.11h3v12.82h-3V219.11z"/>
		<path class="st0" d="M613.31,225.52c0-3.84,2.88-6.55,6.82-6.55c3.98,0,6.84,2.71,6.84,6.55c0,3.84-2.86,6.58-6.84,6.58
			C616.19,232.09,613.31,229.36,613.31,225.52z M623.94,225.52c0-2.45-1.63-4.01-3.82-4.01c-2.16,0-3.79,1.56-3.79,4.01
			s1.63,4.01,3.79,4.01C622.31,229.52,623.94,227.96,623.94,225.52z"/>
		<path class="st0" d="M642.47,224.58v7.34h-3v-6.96c0-2.28-1.13-3.38-3.05-3.38c-2.14,0-3.58,1.3-3.58,3.86v6.48h-3v-12.82h2.86
			v1.66c0.98-1.18,2.54-1.8,4.42-1.8C640.19,218.96,642.47,220.72,642.47,224.58z"/>
	</g>
	<g>
		<path class="st0" d="M408.78,205.73v7.51h-2.83v-1.56c-0.72,1.1-2.11,1.73-4.03,1.73c-2.93,0-4.78-1.61-4.78-3.84
			c0-2.14,1.44-3.82,5.33-3.82h3.31v-0.19c0-1.75-1.06-2.78-3.19-2.78c-1.44,0-2.93,0.48-3.89,1.27l-1.18-2.18
			c1.37-1.06,3.36-1.58,5.42-1.58C406.64,200.29,408.78,202.04,408.78,205.73z M405.78,209.24v-1.49h-3.1
			c-2.04,0-2.59,0.77-2.59,1.7c0,1.08,0.91,1.78,2.45,1.78C404,211.23,405.27,210.56,405.78,209.24z"/>
		<path class="st0" d="M432.85,206.84c0,3.98-2.76,6.58-6.5,6.58c-1.75,0-3.24-0.6-4.25-1.82v1.66h-2.86v-17.81h3v6.55
			c1.03-1.15,2.47-1.7,4.1-1.7C430.09,200.29,432.85,202.85,432.85,206.84z M429.8,206.84c0-2.45-1.63-4.01-3.79-4.01
			s-3.82,1.56-3.82,4.01s1.66,4.01,3.82,4.01S429.8,209.29,429.8,206.84z"/>
		<path class="st0" d="M446.27,205.73v7.51h-2.83v-1.56c-0.72,1.1-2.11,1.73-4.03,1.73c-2.93,0-4.78-1.61-4.78-3.84
			c0-2.14,1.44-3.82,5.33-3.82h3.31v-0.19c0-1.75-1.06-2.78-3.19-2.78c-1.44,0-2.93,0.48-3.89,1.27l-1.18-2.18
			c1.37-1.06,3.36-1.58,5.42-1.58C444.13,200.29,446.27,202.04,446.27,205.73z M443.27,209.24v-1.49h-3.1
			c-2.04,0-2.59,0.77-2.59,1.7c0,1.08,0.91,1.78,2.45,1.78C441.49,211.23,442.76,210.56,443.27,209.24z"/>
		<path class="st0" d="M457.52,200.29v2.86c-0.26-0.05-0.48-0.07-0.7-0.07c-2.28,0-3.72,1.34-3.72,3.96v6.22h-3v-12.82h2.86v1.87
			C453.83,200.96,455.39,200.29,457.52,200.29z"/>
	</g>
	<g>
		<path class="st0" d="M1008.95,276.48h-15.95c0.57,2.97,3.04,4.87,6.58,4.87c2.29,0,4.07-0.72,5.52-2.21l2.55,2.93
			c-1.83,2.17-4.68,3.31-8.18,3.31c-6.81,0-11.23-4.38-11.23-10.43s4.45-10.39,10.5-10.39c5.94,0,10.28,4.15,10.28,10.5
			C1009.03,275.45,1008.99,276.02,1008.95,276.48z M992.97,273.32h11.53c-0.38-2.93-2.62-4.95-5.75-4.95
			C995.67,268.37,993.42,270.35,992.97,273.32z"/>
		<path class="st0" d="M1011.27,283.1l1.83-3.62c1.79,1.18,4.53,2.02,7.08,2.02c3.01,0,4.26-0.84,4.26-2.25
			c0-3.88-12.56-0.23-12.56-8.33c0-3.84,3.46-6.35,8.94-6.35c2.7,0,5.79,0.65,7.61,1.75l-1.83,3.62c-1.94-1.14-3.88-1.52-5.82-1.52
			c-2.89,0-4.26,0.95-4.26,2.28c0,4.11,12.56,0.46,12.56,8.41c0,3.81-3.5,6.28-9.21,6.28
			C1016.48,285.38,1013.09,284.39,1011.27,283.1z"/>
		<path class="st0" d="M1031.51,274.96c0-6.09,4.57-10.39,11-10.39c3.96,0,7.12,1.64,8.68,4.72l-3.65,2.13
			c-1.22-1.94-3.04-2.82-5.06-2.82c-3.5,0-6.16,2.44-6.16,6.36c0,3.96,2.66,6.36,6.16,6.36c2.02,0,3.84-0.88,5.06-2.82l3.65,2.13
			c-1.56,3.04-4.72,4.76-8.68,4.76C1036.08,285.38,1031.51,281.05,1031.51,274.96z"/>
		<path class="st0" d="M1072.3,273.21v11.91h-4.49v-2.47c-1.14,1.75-3.35,2.74-6.39,2.74c-4.64,0-7.57-2.55-7.57-6.09
			c0-3.39,2.28-6.05,8.45-6.05h5.25v-0.3c0-2.78-1.67-4.42-5.06-4.42c-2.29,0-4.64,0.76-6.17,2.02l-1.87-3.46
			c2.17-1.67,5.33-2.51,8.6-2.51C1068.91,264.57,1072.3,267.35,1072.3,273.21z M1067.54,278.76v-2.36h-4.91
			c-3.23,0-4.11,1.22-4.11,2.7c0,1.71,1.45,2.82,3.88,2.82C1064.73,281.92,1066.74,280.86,1067.54,278.76z"/>
		<path class="st0" d="M1099.96,274.96c0,6.32-4.38,10.43-10.31,10.43c-2.59,0-4.87-0.88-6.51-2.74v9.86h-4.76V264.8h4.53v2.66
			c1.6-1.94,3.96-2.89,6.73-2.89C1095.59,264.57,1099.96,268.68,1099.96,274.96z M1095.13,274.96c0-3.88-2.59-6.36-6.01-6.36
			c-3.43,0-6.05,2.47-6.05,6.36s2.62,6.36,6.05,6.36C1092.54,281.31,1095.13,278.84,1095.13,274.96z"/>
		<path class="st0" d="M1123.51,276.48h-15.95c0.57,2.97,3.04,4.87,6.58,4.87c2.29,0,4.07-0.72,5.52-2.21l2.55,2.93
			c-1.83,2.17-4.68,3.31-8.18,3.31c-6.81,0-11.23-4.38-11.23-10.43s4.45-10.39,10.5-10.39c5.94,0,10.28,4.15,10.28,10.5
			C1123.59,275.45,1123.55,276.02,1123.51,276.48z M1107.53,273.32h11.53c-0.38-2.93-2.62-4.95-5.75-4.95
			C1110.23,268.37,1107.99,270.35,1107.53,273.32z"/>
	</g>
	<g>
		<path class="st0" d="M773.44,314.67c0,3.98-2.76,6.58-6.5,6.58c-1.75,0-3.24-0.6-4.25-1.82v1.66h-2.86v-17.81h3v6.55
			c1.03-1.15,2.47-1.7,4.1-1.7C770.68,308.12,773.44,310.69,773.44,314.67z M770.39,314.67c0-2.45-1.63-4.01-3.79-4.01
			s-3.82,1.56-3.82,4.01c0,2.45,1.66,4.01,3.82,4.01S770.39,317.12,770.39,314.67z"/>
		<path class="st0" d="M788.29,315.63h-10.06c0.36,1.87,1.92,3.07,4.15,3.07c1.44,0,2.57-0.46,3.48-1.39l1.61,1.85
			c-1.15,1.37-2.95,2.09-5.16,2.09c-4.3,0-7.08-2.76-7.08-6.58s2.81-6.55,6.62-6.55c3.74,0,6.48,2.62,6.48,6.62
			C788.34,314.98,788.32,315.34,788.29,315.63z M778.21,313.64h7.27c-0.24-1.85-1.66-3.12-3.62-3.12
			C779.92,310.52,778.5,311.77,778.21,313.64z"/>
		<path class="st0" d="M790.81,304.35c0-1.01,0.82-1.8,1.92-1.8c1.1,0,1.92,0.74,1.92,1.73c0,1.06-0.79,1.87-1.92,1.87
			C791.63,306.15,790.81,305.36,790.81,304.35z M791.22,308.26h3v12.82h-3V308.26z"/>
		<path class="st0" d="M810.78,313.74v7.34h-3v-6.96c0-2.28-1.13-3.38-3.05-3.38c-2.14,0-3.58,1.3-3.58,3.86v6.48h-3v-12.82h2.86
			v1.66c0.98-1.18,2.54-1.8,4.42-1.8C808.5,308.12,810.78,309.87,810.78,313.74z"/>
		<path class="st0" d="M827.44,308.26v10.87c0,4.66-2.42,6.77-6.91,6.77c-2.4,0-4.78-0.62-6.24-1.82l1.34-2.26
			c1.13,0.94,2.95,1.54,4.73,1.54c2.83,0,4.08-1.3,4.08-3.89v-0.67c-1.06,1.15-2.57,1.7-4.3,1.7c-3.67,0-6.48-2.5-6.48-6.22
			c0-3.72,2.81-6.17,6.48-6.17c1.8,0,3.38,0.58,4.44,1.85v-1.7H827.44z M824.48,314.29c0-2.16-1.63-3.62-3.89-3.62
			c-2.28,0-3.91,1.46-3.91,3.62c0,2.18,1.63,3.67,3.91,3.67C822.85,317.96,824.48,316.47,824.48,314.29z"/>
		<path class="st0" d="M837.99,303.27h3v17.81h-3V303.27z"/>
		<path class="st0" d="M855.66,313.57v7.51h-2.83v-1.56c-0.72,1.1-2.11,1.73-4.03,1.73c-2.93,0-4.78-1.61-4.78-3.84
			c0-2.14,1.44-3.82,5.33-3.82h3.31v-0.19c0-1.75-1.06-2.78-3.19-2.78c-1.44,0-2.93,0.48-3.89,1.27l-1.18-2.18
			c1.37-1.06,3.36-1.58,5.42-1.58C853.52,308.12,855.66,309.87,855.66,313.57z M852.66,317.07v-1.49h-3.1
			c-2.04,0-2.59,0.77-2.59,1.7c0,1.08,0.91,1.78,2.45,1.78C850.88,319.06,852.15,318.39,852.66,317.07z"/>
		<path class="st0" d="M867.2,320.38c-0.72,0.58-1.8,0.86-2.88,0.86c-2.81,0-4.42-1.49-4.42-4.32v-6.17h-2.11v-2.4h2.11v-2.93h3
			v2.93h3.43v2.4h-3.43v6.1c0,1.25,0.62,1.92,1.78,1.92c0.62,0,1.22-0.17,1.68-0.53L867.2,320.38z"/>
		<path class="st0" d="M881.24,315.63h-10.06c0.36,1.87,1.92,3.07,4.15,3.07c1.44,0,2.57-0.46,3.48-1.39l1.61,1.85
			c-1.15,1.37-2.95,2.09-5.16,2.09c-4.3,0-7.08-2.76-7.08-6.58s2.81-6.55,6.62-6.55c3.74,0,6.48,2.62,6.48,6.62
			C881.29,314.98,881.27,315.34,881.24,315.63z M871.16,313.64h7.27c-0.24-1.85-1.66-3.12-3.62-3.12
			C872.87,310.52,871.45,311.77,871.16,313.64z"/>
	</g>
	<g>
		<path class="st0" d="M635.27,616.67v19.31h-7.28v-4.01c-1.85,2.84-5.43,4.44-10.36,4.44c-7.53,0-12.28-4.13-12.28-9.87
			c0-5.49,3.7-9.81,13.7-9.81h8.51v-0.49c0-4.5-2.71-7.16-8.2-7.16c-3.7,0-7.53,1.23-9.99,3.27l-3.02-5.61
			c3.52-2.71,8.64-4.07,13.94-4.07C629.78,602.66,635.27,607.16,635.27,616.67z M627.56,625.67v-3.82h-7.96
			c-5.24,0-6.66,1.97-6.66,4.38c0,2.78,2.34,4.57,6.29,4.57C622.99,630.79,626.26,629.07,627.56,625.67z"/>
		<path class="st0" d="M664.21,602.66V610c-0.68-0.12-1.23-0.18-1.79-0.18c-5.86,0-9.56,3.46-9.56,10.18v15.98h-7.71v-32.94h7.34
			v4.81C654.71,604.39,658.71,602.66,664.21,602.66z"/>
		<path class="st0" d="M703.14,603.03v27.95c0,11.97-6.23,17.4-17.77,17.4c-6.17,0-12.28-1.6-16.04-4.69l3.46-5.8
			c2.9,2.41,7.59,3.95,12.15,3.95c7.28,0,10.49-3.33,10.49-9.99v-1.73c-2.71,2.96-6.6,4.38-11.04,4.38
			c-9.44,0-16.66-6.42-16.66-15.98s7.22-15.85,16.66-15.85c4.63,0,8.7,1.48,11.41,4.75v-4.38H703.14z M695.55,618.52
			c0-5.55-4.2-9.31-9.99-9.31c-5.86,0-10.06,3.76-10.06,9.31c0,5.61,4.2,9.44,10.06,9.44C691.35,627.96,695.55,624.13,695.55,618.52
			z"/>
		<path class="st0" d="M745.15,603.03v32.94h-7.34v-4.2c-2.47,3.02-6.35,4.63-10.61,4.63c-8.45,0-14.19-4.63-14.19-14.56v-18.82
			h7.71v17.77c0,5.98,2.84,8.82,7.71,8.82c5.37,0,9.01-3.33,9.01-9.93v-16.66H745.15z"/>
		<path class="st0" d="M810.36,617.1v18.88h-7.71v-17.89c0-5.86-2.71-8.7-7.4-8.7c-5.06,0-8.57,3.33-8.57,9.87v16.72h-7.71v-17.89
			c0-5.86-2.71-8.7-7.4-8.7c-5.12,0-8.57,3.33-8.57,9.87v16.72h-7.71v-32.94h7.34v4.2c2.47-2.96,6.29-4.57,10.8-4.57
			c4.81,0,8.82,1.79,11.1,5.49c2.65-3.39,7.09-5.49,12.34-5.49C804.81,602.66,810.36,607.16,810.36,617.1z"/>
		<path class="st0" d="M851.39,621.97h-25.85c0.93,4.81,4.94,7.9,10.67,7.9c3.7,0,6.6-1.17,8.95-3.58l4.13,4.75
			c-2.96,3.52-7.59,5.37-13.26,5.37c-11.04,0-18.2-7.09-18.2-16.9c0-9.81,7.22-16.84,17.03-16.84c9.62,0,16.66,6.72,16.66,17.03
			C851.52,620.3,851.46,621.23,851.39,621.97z M825.48,616.85h18.69c-0.62-4.75-4.26-8.02-9.32-8.02
			C829.86,608.83,826.22,612.04,825.48,616.85z"/>
		<path class="st0" d="M891.37,617.1v18.88h-7.71v-17.89c0-5.86-2.9-8.7-7.83-8.7c-5.49,0-9.19,3.33-9.19,9.93v16.66h-7.71v-32.94
			h7.34v4.26c2.53-3.02,6.54-4.63,11.35-4.63C885.51,602.66,891.37,607.16,891.37,617.1z"/>
		<path class="st0" d="M920.99,634.19c-1.85,1.48-4.63,2.22-7.4,2.22c-7.22,0-11.35-3.82-11.35-11.1v-15.86h-5.43v-6.17h5.43v-7.53
			h7.71v7.53h8.82v6.17h-8.82v15.67c0,3.21,1.6,4.94,4.56,4.94c1.6,0,3.15-0.43,4.32-1.36L920.99,634.19z"/>
		<path class="st0" d="M923.58,632.71l2.96-5.86c2.9,1.91,7.34,3.27,11.47,3.27c4.87,0,6.91-1.36,6.91-3.64
			c0-6.29-20.36-0.37-20.36-13.51c0-6.23,5.61-10.3,14.5-10.3c4.38,0,9.38,1.05,12.34,2.84l-2.96,5.86
			c-3.15-1.85-6.29-2.47-9.44-2.47c-4.69,0-6.91,1.54-6.91,3.7c0,6.66,20.36,0.74,20.36,13.63c0,6.17-5.68,10.18-14.93,10.18
			C932.04,636.41,926.54,634.8,923.58,632.71z"/>
	</g>
	<g>
		<path class="st0" d="M934.98,391.93c0-3.84,2.88-6.55,6.94-6.55c2.5,0,4.49,1.03,5.47,2.98l-2.3,1.34
			c-0.77-1.22-1.92-1.78-3.19-1.78c-2.21,0-3.89,1.54-3.89,4.01c0,2.5,1.68,4.01,3.89,4.01c1.27,0,2.42-0.55,3.19-1.78l2.3,1.34
			c-0.98,1.92-2.98,3-5.47,3C937.86,398.51,934.98,395.77,934.98,391.93z"/>
		<path class="st0" d="M961.79,392.89h-10.06c0.36,1.87,1.92,3.07,4.15,3.07c1.44,0,2.57-0.46,3.48-1.39l1.61,1.85
			c-1.15,1.37-2.95,2.09-5.16,2.09c-4.3,0-7.08-2.76-7.08-6.58s2.81-6.55,6.62-6.55c3.74,0,6.48,2.62,6.48,6.62
			C961.84,392.25,961.82,392.61,961.79,392.89z M951.71,390.9h7.27c-0.24-1.85-1.66-3.12-3.62-3.12
			C953.42,387.78,952,389.03,951.71,390.9z"/>
		<path class="st0" d="M964.72,380.53h3v17.81h-3V380.53z"/>
		<path class="st0" d="M983.66,392.89H973.6c0.36,1.87,1.92,3.07,4.15,3.07c1.44,0,2.57-0.46,3.48-1.39l1.61,1.85
			c-1.15,1.37-2.95,2.09-5.16,2.09c-4.3,0-7.08-2.76-7.08-6.58s2.81-6.55,6.62-6.55c3.74,0,6.48,2.62,6.48,6.62
			C983.71,392.25,983.68,392.61,983.66,392.89z M973.58,390.9h7.27c-0.24-1.85-1.66-3.12-3.62-3.12
			C975.28,387.78,973.86,389.03,973.58,390.9z"/>
		<path class="st0" d="M1000.19,391.93c0,3.98-2.76,6.58-6.5,6.58c-1.75,0-3.24-0.6-4.25-1.82v1.66h-2.86v-17.81h3v6.55
			c1.03-1.15,2.47-1.7,4.1-1.7C997.43,385.38,1000.19,387.95,1000.19,391.93z M997.14,391.93c0-2.45-1.63-4.01-3.79-4.01
			s-3.82,1.56-3.82,4.01s1.66,4.01,3.82,4.01S997.14,394.38,997.14,391.93z"/>
		<path class="st0" d="M1010.46,385.38v2.86c-0.26-0.05-0.48-0.07-0.7-0.07c-2.28,0-3.72,1.34-3.72,3.96v6.22h-3v-12.82h2.86v1.87
			C1006.77,386.05,1008.33,385.38,1010.46,385.38z"/>
		<path class="st0" d="M1023.67,390.83v7.51h-2.83v-1.56c-0.72,1.1-2.11,1.73-4.03,1.73c-2.93,0-4.78-1.61-4.78-3.84
			c0-2.14,1.44-3.82,5.33-3.82h3.31v-0.19c0-1.75-1.06-2.78-3.19-2.78c-1.44,0-2.93,0.48-3.89,1.27l-1.18-2.18
			c1.37-1.06,3.36-1.58,5.42-1.58C1021.53,385.38,1023.67,387.13,1023.67,390.83z M1020.67,394.33v-1.49h-3.1
			c-2.04,0-2.59,0.77-2.59,1.7c0,1.08,0.91,1.78,2.45,1.78C1018.89,396.33,1020.16,395.65,1020.67,394.33z"/>
		<path class="st0" d="M1035.21,397.65c-0.72,0.58-1.8,0.86-2.88,0.86c-2.81,0-4.42-1.49-4.42-4.32v-6.17h-2.11v-2.4h2.11v-2.93h3
			v2.93h3.43v2.4h-3.43v6.1c0,1.25,0.62,1.92,1.78,1.92c0.62,0,1.22-0.17,1.68-0.53L1035.21,397.65z"/>
		<path class="st0" d="M1037.27,381.61c0-1.01,0.82-1.8,1.92-1.8c1.1,0,1.92,0.74,1.92,1.73c0,1.06-0.79,1.87-1.92,1.87
			C1038.09,383.41,1037.27,382.62,1037.27,381.61z M1037.68,385.53h3v12.82h-3V385.53z"/>
		<path class="st0" d="M1043.56,391.93c0-3.84,2.88-6.55,6.82-6.55c3.98,0,6.84,2.71,6.84,6.55c0,3.84-2.86,6.58-6.84,6.58
			C1046.44,398.51,1043.56,395.77,1043.56,391.93z M1054.19,391.93c0-2.45-1.63-4.01-3.82-4.01c-2.16,0-3.79,1.56-3.79,4.01
			s1.63,4.01,3.79,4.01C1052.56,395.94,1054.19,394.38,1054.19,391.93z"/>
		<path class="st0" d="M1072.72,391v7.34h-3v-6.96c0-2.28-1.13-3.38-3.05-3.38c-2.14,0-3.58,1.3-3.58,3.86v6.48h-3v-12.82h2.86v1.66
			c0.98-1.18,2.54-1.8,4.42-1.8C1070.44,385.38,1072.72,387.13,1072.72,391z"/>
	</g>
	<g>
		<path class="st0" d="M373.34,424.85v7.34h-3v-6.96c0-2.28-1.13-3.38-3.05-3.38c-2.14,0-3.58,1.3-3.58,3.86v6.48h-3v-17.81h3v6.48
			c0.98-1.06,2.5-1.63,4.27-1.63C371.06,419.23,373.34,420.98,373.34,424.85z"/>
		<path class="st0" d="M376.75,415.46c0-1.01,0.82-1.8,1.92-1.8c1.1,0,1.92,0.74,1.92,1.73c0,1.06-0.79,1.87-1.92,1.87
			C377.57,417.26,376.75,416.47,376.75,415.46z M377.16,419.38h3v12.82h-3V419.38z"/>
		<path class="st0" d="M396.65,414.38v17.81h-2.88v-1.66c-1.01,1.22-2.5,1.82-4.25,1.82c-3.72,0-6.48-2.59-6.48-6.58
			s2.76-6.55,6.48-6.55c1.66,0,3.12,0.55,4.13,1.73v-6.58H396.65z M393.7,425.78c0-2.45-1.66-4.01-3.82-4.01s-3.82,1.56-3.82,4.01
			s1.66,4.01,3.82,4.01S393.7,428.23,393.7,425.78z"/>
		<path class="st0" d="M400.17,415.46c0-1.01,0.82-1.8,1.92-1.8c1.1,0,1.92,0.74,1.92,1.73c0,1.06-0.79,1.87-1.92,1.87
			C400.99,417.26,400.17,416.47,400.17,415.46z M400.58,419.38h3v12.82h-3V419.38z"/>
		<path class="st0" d="M420.14,424.85v7.34h-3v-6.96c0-2.28-1.13-3.38-3.05-3.38c-2.14,0-3.58,1.3-3.58,3.86v6.48h-3v-12.82h2.86
			v1.66c0.98-1.18,2.54-1.8,4.42-1.8C417.86,419.23,420.14,420.98,420.14,424.85z"/>
		<path class="st0" d="M436.8,419.38v10.87c0,4.66-2.42,6.77-6.91,6.77c-2.4,0-4.78-0.62-6.24-1.82l1.34-2.26
			c1.13,0.94,2.95,1.54,4.73,1.54c2.83,0,4.08-1.3,4.08-3.89v-0.67c-1.06,1.15-2.57,1.7-4.3,1.7c-3.67,0-6.48-2.5-6.48-6.22
			c0-3.72,2.81-6.17,6.48-6.17c1.8,0,3.38,0.58,4.44,1.85v-1.7H436.8z M433.85,425.4c0-2.16-1.63-3.62-3.89-3.62
			c-2.28,0-3.91,1.46-3.91,3.62c0,2.18,1.63,3.67,3.91,3.67C432.21,429.07,433.85,427.58,433.85,425.4z"/>
	</g>
	<g>
		<path class="st0" d="M614.36,492.35c0-5.89,4.42-10.06,10.46-10.06c6.12,0,10.5,4.16,10.5,10.06s-4.38,10.09-10.5,10.09
			C618.78,502.44,614.36,498.24,614.36,492.35z M630.68,492.35c0-3.76-2.5-6.15-5.86-6.15c-3.31,0-5.82,2.39-5.82,6.15
			c0,3.76,2.5,6.15,5.82,6.15C628.18,498.5,630.68,496.11,630.68,492.35z"/>
		<path class="st0" d="M659.12,490.91v11.27h-4.6V491.5c0-3.5-1.73-5.19-4.68-5.19c-3.28,0-5.49,1.99-5.49,5.93v9.95h-4.6v-19.67
			h4.38v2.54c1.51-1.8,3.91-2.76,6.78-2.76C655.62,482.29,659.12,484.98,659.12,490.91z"/>
		<path class="st0" d="M686.97,501.12c-1.11,0.88-2.76,1.33-4.42,1.33c-4.31,0-6.78-2.28-6.78-6.63v-9.47h-3.24v-3.68h3.24v-4.49
			h4.6v4.49h5.27v3.68h-5.27v9.36c0,1.92,0.96,2.95,2.73,2.95c0.96,0,1.88-0.26,2.58-0.81L686.97,501.12z"/>
		<path class="st0" d="M710.14,490.91v11.27h-4.6V491.5c0-3.5-1.73-5.19-4.68-5.19c-3.28,0-5.49,1.99-5.49,5.93v9.95h-4.6v-27.33
			h4.6v9.95c1.51-1.62,3.83-2.5,6.56-2.5C706.64,482.29,710.14,484.98,710.14,490.91z"/>
		<path class="st0" d="M734.6,493.82h-15.43c0.55,2.87,2.95,4.71,6.37,4.71c2.21,0,3.94-0.7,5.34-2.14l2.47,2.84
			c-1.77,2.1-4.53,3.2-7.92,3.2c-6.59,0-10.87-4.24-10.87-10.09c0-5.86,4.31-10.06,10.17-10.06c5.75,0,9.95,4.01,9.95,10.17
			C734.67,492.83,734.64,493.38,734.6,493.82z M719.13,490.76h11.16c-0.37-2.84-2.54-4.79-5.56-4.79
			C721.75,485.98,719.57,487.89,719.13,490.76z"/>
		<path class="st0" d="M760.65,482.29v4.38c-0.41-0.07-0.74-0.11-1.07-0.11c-3.5,0-5.71,2.06-5.71,6.08v9.54h-4.6v-19.67h4.38v2.87
			C754.97,483.32,757.37,482.29,760.65,482.29z"/>
		<path class="st0" d="M783.78,482.51v19.67h-4.38v-2.5c-1.47,1.81-3.79,2.76-6.34,2.76c-5.05,0-8.47-2.76-8.47-8.69v-11.24h4.6
			v10.61c0,3.57,1.69,5.27,4.6,5.27c3.2,0,5.38-1.99,5.38-5.93v-9.95H783.78z"/>
		<path class="st0" d="M809.2,490.91v11.27h-4.6V491.5c0-3.5-1.73-5.19-4.68-5.19c-3.28,0-5.49,1.99-5.49,5.93v9.95h-4.6v-19.67
			h4.38v2.54c1.51-1.8,3.91-2.76,6.78-2.76C805.7,482.29,809.2,484.98,809.2,490.91z"/>
	</g>
	<g>
		<path class="st0" d="M525.89,437.66v7.34h-3v-6.96c0-2.28-1.13-3.38-3.05-3.38c-2.14,0-3.58,1.3-3.58,3.86v6.48h-3V427.2h3v6.48
			c0.98-1.06,2.5-1.63,4.27-1.63C523.61,432.05,525.89,433.8,525.89,437.66z"/>
		<path class="st0" d="M542.12,432.19v12.82h-2.86v-1.63c-0.96,1.18-2.47,1.8-4.13,1.8c-3.29,0-5.52-1.8-5.52-5.66v-7.32h3v6.91
			c0,2.33,1.1,3.43,3,3.43c2.09,0,3.5-1.3,3.5-3.86v-6.48H542.12z"/>
		<path class="st0" d="M567.49,437.66v7.34h-3v-6.96c0-2.28-1.06-3.38-2.88-3.38c-1.97,0-3.34,1.3-3.34,3.84v6.5h-3v-6.96
			c0-2.28-1.06-3.38-2.88-3.38c-1.99,0-3.34,1.3-3.34,3.84v6.5h-3v-12.82h2.86v1.63c0.96-1.15,2.45-1.78,4.2-1.78
			c1.87,0,3.43,0.7,4.32,2.14c1.03-1.32,2.76-2.14,4.8-2.14C565.33,432.05,567.49,433.8,567.49,437.66z"/>
		<path class="st0" d="M582.05,437.5v7.51h-2.83v-1.56c-0.72,1.1-2.11,1.73-4.03,1.73c-2.93,0-4.78-1.61-4.78-3.84
			c0-2.14,1.44-3.82,5.33-3.82h3.31v-0.19c0-1.75-1.06-2.78-3.19-2.78c-1.44,0-2.93,0.48-3.89,1.27l-1.18-2.18
			c1.37-1.06,3.36-1.58,5.42-1.58C579.92,432.05,582.05,433.8,582.05,437.5z M579.05,441v-1.49h-3.1c-2.04,0-2.59,0.77-2.59,1.7
			c0,1.08,0.91,1.78,2.45,1.78C577.28,442.99,578.55,442.32,579.05,441z"/>
		<path class="st0" d="M598.52,437.66v7.34h-3v-6.96c0-2.28-1.13-3.38-3.05-3.38c-2.14,0-3.58,1.3-3.58,3.86v6.48h-3v-12.82h2.86
			v1.66c0.98-1.18,2.54-1.8,4.42-1.8C596.24,432.05,598.52,433.8,598.52,437.66z"/>
		<path class="st0" d="M616.66,444.31c-0.72,0.58-1.8,0.86-2.88,0.86c-2.81,0-4.42-1.49-4.42-4.32v-6.17h-2.11v-2.4h2.11v-2.93h3
			v2.93h3.43v2.4h-3.43v6.1c0,1.25,0.62,1.92,1.78,1.92c0.62,0,1.22-0.17,1.68-0.53L616.66,444.31z"/>
		<path class="st0" d="M626.55,432.05v2.86c-0.26-0.05-0.48-0.07-0.7-0.07c-2.28,0-3.72,1.34-3.72,3.96v6.22h-3v-12.82h2.86v1.87
			C622.85,432.72,624.41,432.05,626.55,432.05z"/>
		<path class="st0" d="M639.75,437.5v7.51h-2.83v-1.56c-0.72,1.1-2.11,1.73-4.03,1.73c-2.93,0-4.78-1.61-4.78-3.84
			c0-2.14,1.44-3.82,5.33-3.82h3.31v-0.19c0-1.75-1.06-2.78-3.19-2.78c-1.44,0-2.93,0.48-3.89,1.27l-1.18-2.18
			c1.37-1.06,3.36-1.58,5.42-1.58C637.61,432.05,639.75,433.8,639.75,437.5z M636.75,441v-1.49h-3.1c-2.04,0-2.59,0.77-2.59,1.7
			c0,1.08,0.91,1.78,2.45,1.78C634.97,442.99,636.24,442.32,636.75,441z"/>
		<path class="st0" d="M646.9,431.52v0.77h3.53v2.4H647v10.32h-3v-10.32h-2.11v-2.4H644v-0.82c0-2.69,1.61-4.44,4.58-4.44
			c1.03,0,2.04,0.22,2.71,0.7l-0.84,2.26c-0.46-0.31-1.03-0.53-1.66-0.53C647.55,429.46,646.9,430.15,646.9,431.52z"/>
		<path class="st0" d="M657.44,427.03c1.03,0,2.04,0.22,2.71,0.7l-0.84,2.26c-0.46-0.31-1.03-0.53-1.66-0.53
			c-1.25,0-1.9,0.7-1.9,2.06v0.77h3.53v2.4h-3.43v10.32h-3v-10.32h-2.11v-2.4h2.11v-0.82C652.85,428.78,654.46,427.03,657.44,427.03
			z M662.81,428.28c0-1.01,0.82-1.8,1.92-1.8c1.1,0,1.92,0.74,1.92,1.73c0,1.06-0.79,1.87-1.92,1.87
			C663.63,430.08,662.81,429.29,662.81,428.28z M663.22,432.19h3v12.82h-3V432.19z"/>
		<path class="st0" d="M669.1,438.6c0-3.84,2.88-6.55,6.94-6.55c2.5,0,4.49,1.03,5.47,2.98l-2.3,1.34
			c-0.77-1.22-1.92-1.78-3.19-1.78c-2.21,0-3.89,1.54-3.89,4.01c0,2.5,1.68,4.01,3.89,4.01c1.27,0,2.42-0.55,3.19-1.78l2.3,1.34
			c-0.98,1.92-2.98,3-5.47,3C671.98,445.18,669.1,442.44,669.1,438.6z"/>
		<path class="st0" d="M689.21,439.51l-2.23,2.11v3.38h-3V427.2h3v10.75l6.22-5.76h3.6l-5.35,5.38l5.86,7.44h-3.65L689.21,439.51z"
			/>
		<path class="st0" d="M698.72,428.28c0-1.01,0.82-1.8,1.92-1.8c1.1,0,1.92,0.74,1.92,1.73c0,1.06-0.79,1.87-1.92,1.87
			C699.53,430.08,698.72,429.29,698.72,428.28z M699.12,432.19h3v12.82h-3V432.19z"/>
		<path class="st0" d="M718.68,437.66v7.34h-3v-6.96c0-2.28-1.13-3.38-3.05-3.38c-2.14,0-3.58,1.3-3.58,3.86v6.48h-3v-12.82h2.86
			v1.66c0.98-1.18,2.54-1.8,4.42-1.8C716.4,432.05,718.68,433.8,718.68,437.66z"/>
		<path class="st0" d="M735.34,432.19v10.87c0,4.66-2.42,6.77-6.91,6.77c-2.4,0-4.78-0.62-6.24-1.82l1.34-2.26
			c1.13,0.94,2.95,1.54,4.73,1.54c2.83,0,4.08-1.3,4.08-3.89v-0.67c-1.06,1.15-2.57,1.7-4.3,1.7c-3.67,0-6.48-2.5-6.48-6.22
			c0-3.72,2.81-6.17,6.48-6.17c1.8,0,3.38,0.58,4.44,1.85v-1.7H735.34z M732.39,438.22c0-2.16-1.63-3.62-3.89-3.62
			c-2.28,0-3.91,1.46-3.91,3.62c0,2.18,1.63,3.67,3.91,3.67C730.75,441.89,732.39,440.4,732.39,438.22z"/>
	</g>
	<g>
		<path class="st0" d="M178.52,613.11v0.96h4.41v3h-4.29v12.89h-3.75v-12.89h-2.64v-3h2.64v-1.02c0-3.36,2.01-5.54,5.72-5.54
			c1.29,0,2.55,0.27,3.39,0.87l-1.05,2.82c-0.57-0.39-1.29-0.66-2.07-0.66C179.33,610.53,178.52,611.4,178.52,613.11z"/>
		<path class="st0" d="M198.54,620.57v9.38H195V628c-0.9,1.38-2.64,2.16-5.04,2.16c-3.66,0-5.96-2.01-5.96-4.79
			c0-2.67,1.8-4.77,6.65-4.77h4.14v-0.24c0-2.19-1.32-3.48-3.99-3.48c-1.8,0-3.66,0.6-4.85,1.59l-1.47-2.73
			c1.71-1.32,4.2-1.98,6.77-1.98C195.87,613.77,198.54,615.96,198.54,620.57z M194.79,624.95v-1.86h-3.87
			c-2.55,0-3.24,0.96-3.24,2.13c0,1.35,1.14,2.22,3.06,2.22C192.57,627.43,194.16,626.6,194.79,624.95z"/>
		<path class="st0" d="M219.09,620.78v9.17h-3.75v-8.69c0-2.85-1.41-4.23-3.81-4.23c-2.67,0-4.47,1.62-4.47,4.83v8.09h-3.75v-16
			h3.57v2.07c1.23-1.47,3.18-2.25,5.51-2.25C216.25,613.77,219.09,615.96,219.09,620.78z"/>
		<path class="st0" d="M233.48,629.08c-0.9,0.72-2.25,1.08-3.6,1.08c-3.51,0-5.51-1.86-5.51-5.39v-7.7h-2.64v-3h2.64v-3.66h3.75
			v3.66h4.29v3h-4.29v7.61c0,1.56,0.78,2.4,2.22,2.4c0.78,0,1.53-0.21,2.1-0.66L233.48,629.08z"/>
		<path class="st0" d="M249.96,620.57v9.38h-3.54V628c-0.9,1.38-2.64,2.16-5.04,2.16c-3.66,0-5.96-2.01-5.96-4.79
			c0-2.67,1.8-4.77,6.65-4.77h4.14v-0.24c0-2.19-1.32-3.48-3.99-3.48c-1.8,0-3.66,0.6-4.85,1.59l-1.47-2.73
			c1.71-1.32,4.2-1.98,6.77-1.98C247.29,613.77,249.96,615.96,249.96,620.57z M246.21,624.95v-1.86h-3.87
			c-2.55,0-3.24,0.96-3.24,2.13c0,1.35,1.14,2.22,3.06,2.22C243.99,627.43,245.58,626.6,246.21,624.95z"/>
		<path class="st0" d="M252.92,628.36l1.44-2.85c1.41,0.93,3.57,1.59,5.57,1.59c2.37,0,3.36-0.66,3.36-1.77
			c0-3.06-9.89-0.18-9.89-6.56c0-3.03,2.73-5,7.04-5c2.13,0,4.55,0.51,5.99,1.38l-1.44,2.85c-1.53-0.9-3.06-1.2-4.58-1.2
			c-2.28,0-3.36,0.75-3.36,1.8c0,3.24,9.89,0.36,9.89,6.62c0,3-2.76,4.95-7.25,4.95C257.03,630.16,254.36,629.38,252.92,628.36z"/>
		<path class="st0" d="M279.8,629.08c-0.9,0.72-2.25,1.08-3.6,1.08c-3.51,0-5.51-1.86-5.51-5.39v-7.7h-2.64v-3h2.64v-3.66h3.75v3.66
			h4.29v3h-4.29v7.61c0,1.56,0.78,2.4,2.22,2.4c0.78,0,1.53-0.21,2.1-0.66L279.8,629.08z"/>
		<path class="st0" d="M282.38,609.06c0-1.26,1.02-2.25,2.4-2.25c1.38,0,2.4,0.93,2.4,2.16c0,1.32-0.99,2.34-2.4,2.34
			C283.4,611.31,282.38,610.32,282.38,609.06z M282.89,613.95h3.75v16h-3.75V613.95z"/>
		<path class="st0" d="M290.23,621.95c0-4.79,3.6-8.18,8.66-8.18c3.12,0,5.6,1.29,6.83,3.72l-2.88,1.68
			c-0.96-1.53-2.4-2.22-3.99-2.22c-2.76,0-4.85,1.92-4.85,5c0,3.12,2.1,5,4.85,5c1.59,0,3.03-0.69,3.99-2.22l2.88,1.68
			c-1.23,2.4-3.72,3.75-6.83,3.75C293.83,630.16,290.23,626.75,290.23,621.95z"/>
		<path class="st0" d="M322.36,620.57v9.38h-3.54V628c-0.9,1.38-2.64,2.16-5.04,2.16c-3.66,0-5.96-2.01-5.96-4.79
			c0-2.67,1.8-4.77,6.65-4.77h4.14v-0.24c0-2.19-1.32-3.48-3.99-3.48c-1.8,0-3.66,0.6-4.85,1.59l-1.47-2.73
			c1.71-1.32,4.2-1.98,6.77-1.98C319.69,613.77,322.36,615.96,322.36,620.57z M318.61,624.95v-1.86h-3.87
			c-2.55,0-3.24,0.96-3.24,2.13c0,1.35,1.14,2.22,3.06,2.22C316.39,627.43,317.98,626.6,318.61,624.95z"/>
		<path class="st0" d="M327.15,607.72h3.75v22.24h-3.75V607.72z"/>
		<path class="st0" d="M357.48,620.57v9.38h-3.54V628c-0.9,1.38-2.64,2.16-5.04,2.16c-3.66,0-5.96-2.01-5.96-4.79
			c0-2.67,1.8-4.77,6.65-4.77h4.14v-0.24c0-2.19-1.32-3.48-3.99-3.48c-1.8,0-3.66,0.6-4.85,1.59l-1.47-2.73
			c1.71-1.32,4.2-1.98,6.77-1.98C354.81,613.77,357.48,615.96,357.48,620.57z M353.73,624.95v-1.86h-3.87
			c-2.55,0-3.24,0.96-3.24,2.13c0,1.35,1.14,2.22,3.06,2.22C351.51,627.43,353.1,626.6,353.73,624.95z"/>
		<path class="st0" d="M378.03,620.78v9.17h-3.75v-8.69c0-2.85-1.41-4.23-3.81-4.23c-2.67,0-4.47,1.62-4.47,4.83v8.09h-3.75v-16
			h3.57v2.07c1.23-1.47,3.18-2.25,5.51-2.25C375.19,613.77,378.03,615.96,378.03,620.78z"/>
		<path class="st0" d="M382.29,609.06c0-1.26,1.02-2.25,2.4-2.25c1.38,0,2.4,0.93,2.4,2.16c0,1.32-0.99,2.34-2.4,2.34
			C383.31,611.31,382.29,610.32,382.29,609.06z M382.8,613.95h3.75v16h-3.75V613.95z"/>
		<path class="st0" d="M418.22,620.78v9.17h-3.75v-8.69c0-2.85-1.32-4.23-3.6-4.23c-2.46,0-4.17,1.62-4.17,4.79v8.12h-3.75v-8.69
			c0-2.85-1.32-4.23-3.6-4.23c-2.49,0-4.17,1.62-4.17,4.79v8.12h-3.75v-16h3.57v2.04c1.2-1.44,3.06-2.22,5.25-2.22
			c2.34,0,4.29,0.87,5.39,2.67c1.29-1.65,3.45-2.67,5.99-2.67C415.52,613.77,418.22,615.96,418.22,620.78z"/>
		<path class="st0" d="M436.41,620.57v9.38h-3.54V628c-0.9,1.38-2.64,2.16-5.04,2.16c-3.66,0-5.96-2.01-5.96-4.79
			c0-2.67,1.8-4.77,6.65-4.77h4.14v-0.24c0-2.19-1.32-3.48-3.99-3.48c-1.8,0-3.66,0.6-4.85,1.59l-1.47-2.73
			c1.71-1.32,4.2-1.98,6.77-1.98C433.74,613.77,436.41,615.96,436.41,620.57z M432.66,624.95v-1.86h-3.87
			c-2.55,0-3.24,0.96-3.24,2.13c0,1.35,1.14,2.22,3.06,2.22C430.44,627.43,432.03,626.6,432.66,624.95z"/>
		<path class="st0" d="M441.2,607.72h3.75v22.24h-3.75V607.72z"/>
		<path class="st0" d="M473.89,620.78v9.17h-3.75v-8.69c0-2.85-1.41-4.23-3.81-4.23c-2.67,0-4.47,1.62-4.47,4.83v8.09h-3.75v-22.24
			h3.75v8.09c1.23-1.32,3.12-2.04,5.33-2.04C471.05,613.77,473.89,615.96,473.89,620.78z"/>
		<path class="st0" d="M493.34,613.95l-7.49,17.29c-1.47,3.63-3.51,4.74-6.17,4.74c-1.59,0-3.27-0.54-4.29-1.47l1.5-2.76
			c0.72,0.69,1.74,1.11,2.76,1.11c1.32,0,2.1-0.63,2.82-2.22l0.27-0.63l-6.98-16.06h3.9l5.03,11.84l5.07-11.84H493.34z"/>
		<path class="st0" d="M512.67,621.95c0,4.97-3.45,8.21-8.12,8.21c-2.19,0-4.05-0.75-5.3-2.28v2.07h-3.57v-22.24h3.75v8.18
			c1.29-1.44,3.09-2.13,5.12-2.13C509.22,613.77,512.67,616.98,512.67,621.95z M508.86,621.95c0-3.06-2.04-5-4.74-5
			s-4.76,1.95-4.76,5s2.07,5,4.76,5S508.86,625.01,508.86,621.95z"/>
		<path class="st0" d="M525.5,613.77v3.57c-0.33-0.06-0.6-0.09-0.87-0.09c-2.85,0-4.65,1.68-4.65,4.95v7.76h-3.75v-16h3.57v2.34
			C520.88,614.61,522.83,613.77,525.5,613.77z"/>
		<path class="st0" d="M528.16,609.06c0-1.26,1.02-2.25,2.4-2.25c1.38,0,2.4,0.93,2.4,2.16c0,1.32-0.99,2.34-2.4,2.34
			C529.18,611.31,528.16,610.32,528.16,609.06z M528.67,613.95h3.75v16h-3.75V613.95z"/>
		<path class="st0" d="M553,607.72v22.24h-3.6v-2.07c-1.26,1.53-3.12,2.28-5.3,2.28c-4.65,0-8.09-3.24-8.09-8.21
			s3.45-8.18,8.09-8.18c2.07,0,3.9,0.69,5.15,2.16v-8.21H553z M549.32,621.95c0-3.06-2.07-5-4.76-5s-4.76,1.95-4.76,5s2.07,5,4.76,5
			S549.32,625.01,549.32,621.95z"/>
		<path class="st0" d="M556.09,628.36l1.44-2.85c1.41,0.93,3.57,1.59,5.57,1.59c2.37,0,3.36-0.66,3.36-1.77
			c0-3.06-9.89-0.18-9.89-6.56c0-3.03,2.73-5,7.04-5c2.13,0,4.56,0.51,5.99,1.38l-1.44,2.85c-1.53-0.9-3.06-1.2-4.59-1.2
			c-2.28,0-3.36,0.75-3.36,1.8c0,3.24,9.89,0.36,9.89,6.62c0,3-2.76,4.95-7.25,4.95C560.2,630.16,557.53,629.38,556.09,628.36z"/>
	</g>
	<g>
		<path class="st0" d="M849.65,449.23l2.16-4.27c2.11,1.39,5.34,2.38,8.35,2.38c3.55,0,5.03-0.99,5.03-2.65
			c0-4.58-14.82-0.27-14.82-9.83c0-4.54,4.09-7.5,10.55-7.5c3.19,0,6.83,0.76,8.98,2.07l-2.16,4.27c-2.29-1.35-4.58-1.8-6.87-1.8
			c-3.41,0-5.03,1.12-5.03,2.69c0,4.85,14.82,0.54,14.82,9.92c0,4.49-4.13,7.41-10.87,7.41
			C855.8,451.93,851.81,450.76,849.65,449.23z"/>
		<path class="st0" d="M899.13,437.87v13.74h-5.61v-13.02c0-4.27-2.11-6.33-5.7-6.33c-4,0-6.69,2.43-6.69,7.23v12.12h-5.61v-33.32
			h5.61v12.12c1.84-1.98,4.67-3.05,7.99-3.05C894.87,427.36,899.13,430.64,899.13,437.87z"/>
		<path class="st0" d="M904.52,439.62c0-7.19,5.39-12.26,12.75-12.26c7.45,0,12.8,5.07,12.8,12.26c0,7.18-5.34,12.3-12.8,12.3
			C909.91,451.93,904.52,446.81,904.52,439.62z M924.41,439.62c0-4.58-3.05-7.5-7.14-7.5c-4.04,0-7.1,2.92-7.1,7.5s3.05,7.5,7.1,7.5
			C921.36,447.12,924.41,444.2,924.41,439.62z"/>
		<path class="st0" d="M960.92,439.62c0,7.45-5.16,12.3-12.17,12.3c-3.05,0-5.75-1.03-7.68-3.23v11.63h-5.61v-32.69h5.34v3.14
			c1.89-2.29,4.67-3.41,7.95-3.41C955.75,427.36,960.92,432.21,960.92,439.62z M955.21,439.62c0-4.58-3.05-7.5-7.1-7.5
			c-4.04,0-7.14,2.92-7.14,7.5s3.1,7.5,7.14,7.5C952.16,447.12,955.21,444.2,955.21,439.62z"/>
		<path class="st0" d="M991.72,439.62c0,7.45-5.16,12.3-12.17,12.3c-3.05,0-5.75-1.03-7.68-3.23v11.63h-5.61v-32.69h5.34v3.14
			c1.89-2.29,4.67-3.41,7.95-3.41C986.55,427.36,991.72,432.21,991.72,439.62z M986.01,439.62c0-4.58-3.05-7.5-7.1-7.5
			c-4.04,0-7.14,2.92-7.14,7.5s3.1,7.5,7.14,7.5C982.96,447.12,986.01,444.2,986.01,439.62z"/>
		<path class="st0" d="M996.29,420.31c0-1.89,1.53-3.37,3.59-3.37c2.07,0,3.59,1.39,3.59,3.23c0,1.98-1.48,3.5-3.59,3.5
			C997.82,423.68,996.29,422.2,996.29,420.31z M997.06,427.63h5.61v23.98h-5.61V427.63z"/>
		<path class="st0" d="M1033.65,437.87v13.74h-5.61v-13.02c0-4.27-2.11-6.33-5.7-6.33c-4,0-6.69,2.43-6.69,7.23v12.12h-5.61v-23.98
			h5.34v3.1c1.84-2.2,4.76-3.37,8.26-3.37C1029.39,427.36,1033.65,430.64,1033.65,437.87z"/>
		<path class="st0" d="M1064.81,427.63v20.34c0,8.71-4.54,12.66-12.93,12.66c-4.49,0-8.94-1.17-11.68-3.41l2.51-4.22
			c2.11,1.75,5.52,2.87,8.85,2.87c5.3,0,7.63-2.42,7.63-7.27v-1.26c-1.98,2.16-4.8,3.19-8.04,3.19c-6.87,0-12.12-4.67-12.12-11.63
			c0-6.96,5.25-11.54,12.12-11.54c3.37,0,6.33,1.08,8.31,3.46v-3.19H1064.81z M1059.29,438.9c0-4.04-3.05-6.78-7.27-6.78
			c-4.27,0-7.32,2.74-7.32,6.78c0,4.09,3.05,6.87,7.32,6.87C1056.23,445.77,1059.29,442.99,1059.29,438.9z"/>
	</g>
	<g>
		<path class="st0" d="M771.78,217.59l2.75-5.44c2.69,1.78,6.82,3.04,10.66,3.04c4.53,0,6.42-1.26,6.42-3.38
			c0-5.84-18.91-0.34-18.91-12.55c0-5.79,5.21-9.57,13.46-9.57c4.07,0,8.71,0.97,11.46,2.64l-2.75,5.44
			c-2.92-1.72-5.84-2.29-8.77-2.29c-4.36,0-6.42,1.43-6.42,3.44c0,6.19,18.91,0.69,18.91,12.66c0,5.73-5.27,9.45-13.87,9.45
			C779.63,221.03,774.53,219.54,771.78,217.59z"/>
		<path class="st0" d="M802.26,205.33c0-9.17,6.88-15.64,16.56-15.64c5.96,0,10.71,2.46,13.06,7.1l-5.5,3.21
			c-1.83-2.92-4.58-4.24-7.62-4.24c-5.27,0-9.28,3.67-9.28,9.57c0,5.96,4.01,9.57,9.28,9.57c3.04,0,5.79-1.32,7.62-4.24l5.5,3.21
			c-2.35,4.58-7.1,7.16-13.06,7.16C809.13,221.03,802.26,214.5,802.26,205.33z"/>
		<path class="st0" d="M867.92,203.09v17.53h-7.16v-16.62c0-5.44-2.69-8.08-7.28-8.08c-5.1,0-8.54,3.09-8.54,9.22v15.47h-7.16
			v-42.51h7.16v15.47c2.35-2.52,5.96-3.9,10.2-3.9C862.47,189.69,867.92,193.87,867.92,203.09z"/>
		<path class="st0" d="M874.79,205.33c0-9.17,6.88-15.64,16.27-15.64c9.51,0,16.33,6.47,16.33,15.64c0,9.17-6.82,15.7-16.33,15.7
			C881.67,221.03,874.79,214.5,874.79,205.33z M900.17,205.33c0-5.84-3.9-9.57-9.11-9.57c-5.16,0-9.05,3.72-9.05,9.57
			c0,5.84,3.9,9.57,9.05,9.57C896.28,214.9,900.17,211.17,900.17,205.33z"/>
		<path class="st0" d="M911.74,205.33c0-9.17,6.88-15.64,16.27-15.64c9.51,0,16.33,6.47,16.33,15.64c0,9.17-6.82,15.7-16.33,15.7
			C918.62,221.03,911.74,214.5,911.74,205.33z M937.12,205.33c0-5.84-3.9-9.57-9.11-9.57c-5.16,0-9.05,3.72-9.05,9.57
			c0,5.84,3.9,9.57,9.05,9.57C933.23,214.9,937.12,211.17,937.12,205.33z"/>
		<path class="st0" d="M951.22,178.11h7.16v42.51h-7.16V178.11z"/>
	</g>
	<g>
		<path class="st0" d="M447.17,512.11v27.37c0,11.72-6.1,17.04-17.4,17.04c-6.04,0-12.02-1.57-15.71-4.59l3.38-5.68
			c2.84,2.36,7.43,3.87,11.9,3.87c7.13,0,10.27-3.26,10.27-9.79v-1.69c-2.66,2.9-6.46,4.29-10.82,4.29
			c-9.24,0-16.31-6.28-16.31-15.65c0-9.37,7.07-15.53,16.31-15.53c4.53,0,8.52,1.45,11.18,4.65v-4.29H447.17z M439.74,527.28
			c0-5.44-4.11-9.12-9.79-9.12c-5.74,0-9.85,3.69-9.85,9.12c0,5.5,4.11,9.25,9.85,9.25C435.63,536.53,439.74,532.78,439.74,527.28z"
			/>
		<path class="st0" d="M454.42,528.25c0-9.67,7.25-16.5,17.16-16.5c10.03,0,17.22,6.83,17.22,16.5s-7.19,16.56-17.22,16.56
			C461.67,544.8,454.42,537.92,454.42,528.25z M481.18,528.25c0-6.16-4.11-10.09-9.61-10.09c-5.44,0-9.55,3.93-9.55,10.09
			s4.11,10.09,9.55,10.09C477.07,538.34,481.18,534.41,481.18,528.25z"/>
		<path class="st0" d="M514.71,511.75v7.19c-0.66-0.12-1.21-0.18-1.75-0.18c-5.74,0-9.37,3.38-9.37,9.97v15.65h-7.55v-32.27h7.19
			v4.71C505.41,513.44,509.34,511.75,514.71,511.75z"/>
		<path class="st0" d="M551.03,530.66h-25.32c0.91,4.71,4.83,7.73,10.45,7.73c3.62,0,6.47-1.15,8.76-3.5l4.05,4.65
			c-2.9,3.44-7.43,5.26-12.99,5.26c-10.82,0-17.83-6.95-17.83-16.56s7.07-16.5,16.68-16.5c9.43,0,16.31,6.59,16.31,16.68
			C551.15,529.03,551.09,529.94,551.03,530.66z M525.65,525.65h18.31c-0.6-4.65-4.17-7.86-9.12-7.86
			C529.94,517.79,526.37,520.94,525.65,525.65z"/>
	</g>
</g>
</svg>
