<?xml version="1.0" encoding="utf-8"?>
<!-- Generator: Adobe Illustrator 25.2.0, SVG Export Plug-In . SVG Version: 6.00 Build 0)  -->
<svg version="1.1" id="Layer_1" xmlns="http://www.w3.org/2000/svg" xmlns:xlink="http://www.w3.org/1999/xlink" x="0px" y="0px"
	 viewBox="0 0 416 620" style="enable-background:new 0 0 416 620;" xml:space="preserve">
<style type="text/css">
	.st0{fill:none;}
	.st1{opacity:0.2;fill:#DAF4FB;}
	.st2{opacity:0.25;fill:#DAF4FB;}
	.st3{opacity:0.26;fill:#DAF4FB;}
	.st4{opacity:0.08;fill:#DAF4FB;}
	.st5{opacity:0.44;fill:#DAF4FB;}
	.st6{fill:#DAF4FB;}
	.st7{opacity:0.12;fill:#DAF4FB;}
	.st8{opacity:0.35;fill:#DAF4FB;}
	.st9{opacity:0.31;fill:#DAF4FB;}
	.st10{opacity:0.34;fill:#DAF4FB;}
	.st11{opacity:0.28;fill:#DAF4FB;}
	.st12{opacity:0.17;fill:#DAF4FB;}
	.st13{opacity:0.41;fill:#DAF4FB;}
	.st14{opacity:0.46;fill:#DAF4FB;}
	.st15{opacity:0.53;fill:#DAF4FB;}
	.st16{opacity:0.3;fill:#DAF4FB;}
	.st17{opacity:0.43;fill:#DAF4FB;}
</style>
<g>
	<path class="st0" d="M261.28,62.99c-0.17,0.17-0.34,0.34-0.52,0.52"/>
	<g>
		<path class="st1" d="M315.61,362.09c-1.55-8.26-3.04-17.14,0.4-24.81c4.54-10.1,16.64-14.98,27.71-14.52
			c2.19,0.09,4.48,0.39,6.27,1.66c1.3,0.92,2.22,2.28,3.11,3.61c2.16,3.22,4.32,6.45,5.92,9.98c4.55,10.1,4.01,21.66,3.37,32.72
			c-0.37,6.38-1.19,13.61-6.3,17.45c-4.24,3.19-10.11,2.93-15.34,1.98c-5.33-0.97-10.63-2.58-15.34-5.32
			c-2.08-1.21-4.97-2.86-6.31-4.92c-1.14-1.75-1.05-4.82-1.43-6.84C316.98,369.41,316.29,365.75,315.61,362.09z"/>
		<path class="st2" d="M247.95,332.87c2.45-2.86,5.83-5.4,9.59-5.19c2.27,0.13,4.34,1.24,6.34,2.33
			c7.73,4.22,15.89,8.86,20.05,16.63c1.52,2.85,2.44,6.19,1.65,9.32c-0.42,1.68-1.31,3.2-2.35,4.59
			c-3.97,5.34-10.32,8.83-16.96,9.34c-8.05,0.62-16.28-2.99-22.61-7.75c-4.87-3.67-3.29-12.12-1.93-17.27
			C242.88,340.48,245,336.33,247.95,332.87z"/>
		<path class="st3" d="M139.88,273.54c-12.86,0.83-25.94-1.1-38.58,1.41s-25.46,11.28-26.94,24.08c-0.64,5.48,0.87,11.04,0.19,16.51
			c-2.9,23.36-40.93,29.92-42.61,53.4c-1.02,14.28,12.79,25.86,13.81,40.14c1.04,14.48-11.13,26.63-13.49,40.95
			c-1.54,9.34,1.47,19.33,7.92,26.26c5.35,5.77,13.2,10.02,15.17,17.63c1.73,6.7-1.8,13.56-2.27,20.47
			c-0.58,8.63,3.8,17.04,10,23.07s14.09,10,22.03,13.45c56.64,24.63,121.14,26.76,181.95,15.93c10.64-1.89,22.72-5.34,27.06-15.23
			c1.13-2.58,1.61-5.4,2.6-8.05c1.46-3.9,3.99-7.29,6.31-10.76c9.21-13.74,15.57-29.37,18.58-45.63c0.62-3.35,1.07-6.96-0.37-10.04
			c-0.9-1.94-2.47-3.48-3.52-5.34c-4.46-7.88,1.51-17.36,6.98-24.57c5.47-7.21,10.74-17.42,5.28-24.63
			c-1.62-2.14-3.98-3.6-5.67-5.69c-4.57-5.65-2.09-15.45,4.63-18.23c-10.03-5.88-20.35-12.01-27.21-21.4
			c-9.95-13.61-11.14-32.01-20.54-46.01c-8.2-12.21-21.62-19.66-34.29-27.14c-14.2-8.38-28.04-17.36-41.49-26.9
			c-6.72-4.77-13.35-9.68-19.87-14.73c-1.32-1.02-2.55-2.59-4.27-2.16c-1.6,0.4-3.41,2.01-4.89,2.79
			c-3.48,1.86-7.08,3.49-10.78,4.87C157.38,271.08,148.68,272.97,139.88,273.54z"/>
		<path class="st4" d="M64.66,518.12c1.29,6.27,6.1,11.18,11.1,15.18c6.13,4.9,12.89,9,20.06,12.19
			c11.66,5.17,24.23,7.86,36.71,10.52c13.43,2.86,26.86,5.71,40.28,8.57c9.7,2.06,19.43,4.13,29.28,5.28
			c0.02-2.45,1.21-4.86,3.15-6.36c1.32,1.65,2.05,3.76,2.04,5.87c0.68-1.64,1.8-3.09,3.21-4.17c2.2,1.14,4.08,2.88,5.38,4.99
			c0.66-0.88,1.32-1.76,1.98-2.64c17.52,4.24,36.41,2.64,52.96-4.5c3.62-1.56,7.73-4.45,7.1-8.35c-0.73-4.48-6.79-5.43-11.28-4.69
			c-9.62,1.59-19.22,5.86-28.76,3.81c-4.65-1-8.95-3.47-13.69-3.89s-10.4,2.42-10.47,7.17c-2.86-1.59-4.28-5.36-3.18-8.44
			c-1.3,1.69-2.6,3.37-3.89,5.06c-1.1-2.23-2.2-4.46-3.29-6.69c1.17-0.1,0.53,2.15-0.63,1.96c-1.16-0.19-1.74-1.45-2.36-2.45
			c-2.46-3.94-7.59-5.07-12.16-5.92c-18.9-3.5-37.59-8.15-55.93-13.92c-18.39-5.78-36.45-12.67-53.99-20.66
			c-1.64-0.75-3.66-2.34-5.53-2.32c-1.92,0.02-3.88,1.61-5.08,2.97C64.98,509.72,63.85,514.18,64.66,518.12z"/>
		<path class="st5" d="M290.67,350.63c-1.47-6.19-4.91-11.73-8.69-16.85c-14.25-19.28-34.29-34.24-56.83-42.42
			c-6.88-2.5-14.01-4.39-20.57-7.64c-14.72-7.28-25.44-20.76-39.43-29.35c-9.92-6.09-21.27-9.58-32.77-11.34
			c-8.37-1.28-17.61-1.48-24.55,3.38c-5.61,3.94-8.69,10.47-11.53,16.71c-2.97,6.53-6.01,13.39-5.61,20.55
			c0.25,4.52,1.88,8.82,4.04,12.76c1.55,2.83,3.35,6.39,6,8.37c2.15,1.6,5.09,2.27,7.55,3.21c3.86,1.48,7.7,3.03,11.5,4.65
			c7.66,3.26,15.2,6.8,22.61,10.61c14.71,7.57,28.87,16.2,42.33,25.81c13.53,9.66,26.63,20.46,42.21,26.25
			c14.61,5.43,30.95,6.1,45.95,1.86c5.5-1.55,11.06-3.93,14.59-8.42C291.4,363.8,292.14,356.82,290.67,350.63z M203.2,313.77
			l2.14-0.79c-2.81,6.88-6.35,13.46-10.54,19.6C196.06,325.76,198.96,319.25,203.2,313.77z M217.14,318.72
			c-3.07,4.06-6.15,8.11-9.22,12.17c-1.6,5.13-3.17,10.45-7.1,14.02c0.51-2.35,1.12-4.68,1.78-7c-0.9,1.18-1.79,2.37-2.69,3.55
			c-1.68-0.42-1.21-2.94-0.33-4.43c1.73-3.45,4.09-6.75,6.45-9.89c1.32-3.67,2.87-7.29,4.94-10.42c1.33-2.01,4.05-6.49,6.57-7.11
			c-0.08,0.8-0.7,1.54-1.12,2.23c-1.09,1.8-2.12,3.63-3.07,5.5c-0.14,0.27-0.26,0.54-0.39,0.81c0.76-0.75,1.56-1.4,2.4-1.84
			c0.59-0.31,2.54-1.17,3.21-0.65C219.56,316.45,217.69,317.99,217.14,318.72z"/>
		<path class="st6" d="M345.12,583.32c0-0.24,0-0.49,0-0.73"/>
		<path class="st7" d="M308.5,491.34c-2.22-3.72-7.52-3.68-11.82-3.15c-16.12,2-32.73,4.43-48.4,0.14
			c-5.7-1.56-11.12-3.97-16.73-5.83c-25.72-8.54-54.87-5.37-79.03-17.66c-11.8-6-21.58-15.33-33-22.04
			c-8.76-5.14-18.36-8.67-27.9-12.16c-5.44-1.99-10.87-3.98-16.31-5.98c-4.6-1.69-9.76-4.5-14.67-4.94
			c-3.74-0.34-6.86,2.34-9.75,4.35c-3.62,2.51-6.65,5.75-8.84,9.58c-2.5,4.36-3.87,9.39-3.67,14.43
			c0.36,8.99,5.17,17.35,11.57,23.67c6.4,6.32,14.31,10.86,22.24,15.11c51.92,27.78,109,45.86,167.44,53.04
			c11.74,1.44,23.74,2.44,35.31-0.04c11.56-2.48,22.78-8.91,28.52-19.24c3.74-6.74,4.92-14.56,5.79-22.22
			C309.53,496,309.74,493.41,308.5,491.34z M205.58,523.36c2.18-8.47,4.46-16.92,6.83-25.34l0.11-0.67c1.4-2.05,3.44-3.65,5.77-4.51
			c-2.26,10.02-5.68,19.79-10.15,29.04C207.65,522.92,206.44,524.12,205.58,523.36z M218.88,515.27c-0.54,3.25-1.17,6.7-3.41,9.12
			c-0.31-7.25,1.36-14.58,4.79-20.97l-3.34,4.86c1.31-3.59,2.94-7.06,4.84-10.37C220.8,503.69,219.84,509.48,218.88,515.27z"/>
		<path class="st8" d="M240.07,351.46c4.67-5.44,7.63-12.33,8.35-19.46c-1.06-0.76-2.26,0.75-2.69,1.98
			c-1.81,5.14-3.62,10.28-5.44,15.42"/>
		<path class="st9" d="M370.2,315.98c-1.52-21.53-6.73-43.94-20.67-59.25c-13.94-15.31-38.51-20.48-53.62-6.55l-0.99,16.53
			c-0.24,16.3-0.48,32.6-0.72,48.89c-0.27,18.25-0.44,37.12,6.06,53.94c2.03,5.25,4.75,10.31,8.7,14.03
			c5.39,5.07,12.51,7.22,19.38,9.23c10.44,3.05,22.91,5.63,30.98-2.23c4.88-4.75,6.7-12.14,7.95-19.15
			C370.52,353.2,371.51,334.5,370.2,315.98z M318.14,284.25c0.55-1.29,2.36-1.84,3.54-1.07l0.06-0.41
			c5.06-1.42,10.37-1.95,15.61-1.57c3.54,0.26,7.73,1.53,8.59,4.97C336.9,283.81,327.42,283.15,318.14,284.25z M337.38,273.44
			c-8.75-0.61-17.34,2.18-25.66,4.94c-0.19,0.06,0.43-2.04,0.69-2.29c0.83-0.81,0.97-0.38,1.85-0.43c2.03-0.11,3.81-1.01,5.72-1.84
			c3.99-1.73,8.06-3.54,12.45-3.92c5.43-0.46,10.78,1.33,15.93,3.1c4.42,1.52,9.24,3.35,11.48,7.46
			C352.64,277.25,345.25,273.99,337.38,273.44z"/>
		<path class="st10" d="M333.43,326.68c4.32,2.05,9,3.35,13.77,3.81c2.35,0.23,5.49-0.4,5.7-2.74c0.18-2.09-2.23-3.35-4.27-3.84
			c-6.19-1.48-12.81-1.14-18.82,0.96c1.82,0.56,3.54,1.44,5.06,2.58"/>
		<path class="st11" d="M315.58,422.6c-4.14-7.82-13.35-11.52-22.09-12.97c-8.73-1.45-17.82-1.32-26.14-4.34
			c-7.92-2.88-14.72-8.48-22.86-10.66c-13.07-3.5-26.83,2.42-40.34,1.6c-16.79-1.02-30.97-12.1-44.9-21.54
			c-15.41-10.45-31.84-19.39-48.98-26.67c-12.38-5.26-26.77-9.59-38.93-3.84c-8.69,4.11-14.14,13.13-15.45,22.46
			c-1.58,11.33,3.4,21.1,10.97,29.21c5.33,5.72,11.24,9.22,18.32,12.32c10.19,4.47,19.21,10.82,28.48,16.92
			c11.76,7.74,23.53,15.48,35.29,23.21c1.46,0.96,2.93,1.93,4.39,2.89c4.84,3.18,9.71,6.38,15.03,8.65
			c6.47,2.76,13.45,4.09,20.36,5.39c34.39,6.49,69.08,13.01,104.07,12.16c5.38-0.13,11.19-0.6,15.29-4.1
			c3.45-2.95,5.01-7.52,6.17-11.91c1.85-7,3.07-14.16,3.65-21.37C318.38,434.11,318.36,427.86,315.58,422.6z M199.04,425.56
			c0.86,1.41,1.34,3.03,1.45,4.67l0.09-0.87c0.8,6.16-0.24,12.54-2.97,18.13C197.07,440.16,197.55,432.75,199.04,425.56z
			 M216.31,441.52c-0.42,2.51-1.01,5-1.84,7.41c-0.43,1.25-0.93,2.47-1.49,3.66c-0.38,0.79-1.52,2.13-1.6,2.96
			c0.91-9.26,2.29-18.6,2.62-27.9c0.07-2.02-0.04-3.99-0.39-5.96c-1.34,0.17-1.99,1.18-2.43,2.41c-1.37,3.89-1.07,8.64-1.72,12.7
			c-1.09,6.78-2.9,13.52-6.26,19.55c-0.9,1.62-2.64,3.41-4.29,2.58c2.46-4.76,4.46-9.76,5.97-14.89c2.68-9.08,3.86-18.61,3.45-28.07
			c-0.09-1.99-1.37-6.36,0.41-7.89c2.21,0.8,3.83,9.32,4.48,11.82c0.15,0.6,0.28,1.19,0.39,1.79c0.06-0.01,0.11-0.02,0.17-0.03
			c2.78-0.2,3.33,2.16,3.39,4.38C217.31,431.21,217.15,436.43,216.31,441.52z M311.3,442.57c-0.24,4.11-0.78,8.2-1.61,12.23
			c-0.46,2.24-1.02,4.46-1.66,6.65c-0.6,2.04-1.82,4.26-2.14,6.34c0.65-4.24,1.22-8.5,1.71-12.76c0.48-4.15,0.32-8.74,1.23-12.79
			c0.16-0.73,0.88-2.73,1.88-2.76C311.99,439.44,311.36,441.6,311.3,442.57z"/>
	</g>
	<g>
		<path class="st12" d="M238.09,59.43c4.1,3.03,11.44-2.48,14.47,1.61c1.12,1.52,0.87,3.6,0.93,5.49
			c0.37,10.81,12.06,17.37,22.53,20.1c10.46,2.73,22.41,4.48,28.92,13.11c5.21,6.91,5.33,16.29,4.94,24.93
			C307.7,172.74,296.57,220,293.25,268c-4.29,62.1,4.52,125.03-5.55,186.46c-1.07,6.56-2.6,13.53-7.42,18.11
			c-4.35,4.13-10.57,5.52-16.5,6.48c-18.45,3-37.3,3.55-55.9,1.64c-15.6-48.72-14.25-100.99-13.24-152.14
			c0.22-11.16,0.37-22.63-3.52-33.09c-1.68-4.52-4.08-8.75-5.69-13.3c-2-5.65-2.74-11.65-3.46-17.59
			c-5.54-45.45-11.08-91.19-8.47-136.9c0.58-10.08,1.79-20.76,8.02-28.7c6.23-7.94,15.99-11.29,25.44-13.63
			c5-1.24,10.06-2.25,15.05-3.55c3.52-0.92,9.61-1.74,12.19-4.57c1.68-1.84,1.37-4.74,1.62-7.03
			C235.96,69.13,238.24,59.55,238.09,59.43z"/>
		<path class="st13" d="M205.02,85.13c-12.34,5.78-23.06,16.21-26.5,29.4c-1.37,5.26-1.56,10.74-1.75,16.17
			c-0.09,2.72-0.18,5.44-0.28,8.15c-0.17,4.87-0.33,9.78,0.34,14.61c0.16,1.16,0.37,2.32,0.24,3.48c-0.11,0.99-0.47,1.93-0.79,2.87
			c-2.59,7.53-3.2,15.72-1.76,23.55c2.94,0.91,4.75,3.99,5.23,7.04c0.49,3.04-0.06,6.14-0.27,9.21c-0.65,9.31,1.84,18.81,6.96,26.61
			c2.68,10-3.07,21.88,2.77,30.42c0.8,1.18,1.82,2.25,2.3,3.59c0.75,2.09,0.09,4.4,0.15,6.62c0.14,4.63,3.56,8.66,7.66,10.82
			c4.1,2.16,8.8,2.8,13.4,3.33c19.56,2.29,39.3,3.47,58.95,2.18c1.83-0.12,3.85-0.35,5.09-1.7c0.94-1.02,1.22-2.46,1.48-3.82
			c2.32-11.97,6.12-23.65,11.29-34.69c0.73-1.56,1.49-3.13,1.76-4.83c0.29-1.86-0.04-3.76-0.05-5.65
			c-0.04-6.59,3.73-12.55,5.21-18.97c1.53-6.65,0.56-13.69,2.12-20.33c0.57-2.43,1.58-4.92,3.61-6.39c1.12-0.81,2.5-1.26,3.45-2.27
			c1.11-1.17,1.43-2.87,1.69-4.47c1.25-7.53,2.08-16.43-3.48-21.66c4.24-6.72,6.14-14.88,5.3-22.78c-0.95-0.2-1.9-0.41-2.85-0.61
			c0.26-1.95,0.07-3.96-0.55-5.83c3.96-0.67,4.69-6.1,3.84-10.02c-2.35-10.89-9.25-20.48-18-27.37s-19.28-11.25-30.06-14.07
			c-4.13-1.08-8.4-1.98-12.69-1.99c-2.69-0.01-4.98,0.8-7.56,1.4c-3.7,0.86-7.63,0.79-11.4,1.26c-4.05,0.5-8.08,1.22-12.04,2.22
			C213.44,81.73,209.13,83.21,205.02,85.13z"/>
		<path class="st8" d="M218.86,232.2c-1.87,2.45-1.76,5.83-1.51,8.9c0.2,2.42,0.44,4.86,1.13,7.19c1.96,6.62,7.73,11.94,14.47,13.48
			s14.18-0.72,19.02-5.64c4.84-4.93,6.97-12.34,5.6-19.11c-1.43-7.05-7.35-10.31-13.94-11.73c-5.1-1.1-10.28,1.2-15.17,2.42
			C225.18,228.52,221.04,229.34,218.86,232.2z"/>
		<path class="st14" d="M289.83,142.84c-1.26-11.5-7.38-22.38-16.55-29.44c-4.4-3.38-9.48-5.86-14.82-7.33
			c-5.01-1.38-10.23-1.21-15.21-2.63c-4.13-1.18-7.53-1.49-11.8-0.5c-5.05,1.18-9.85,3.36-14.14,6.25
			c-4.84,3.26-9.07,7.43-12.4,12.22c-8.21,11.83-11.16,26.74-10.39,41.12c0.77,14.38,5.01,28.35,10.15,41.81
			c1.14,3,2.41,6.09,4.76,8.26c1.73,1.59,3.92,2.58,6.11,3.43c13.59,5.26,28.81,6.2,42.94,2.63c2.04-0.52,4.11-1.15,5.79-2.42
			c2.41-1.82,3.72-4.7,4.93-7.46c3.32-7.53,6.65-15.07,9.97-22.6C285.25,172.42,291.47,157.82,289.83,142.84z M242.25,171.35
			c-12.14,0-21.98-9.84-21.98-21.98c0-12.14,9.84-21.98,21.98-21.98c12.14,0,21.98,9.84,21.98,21.98
			C264.23,161.51,254.39,171.35,242.25,171.35z"/>
		<path class="st15" d="M237.97,67.5c0.46-2.78,0.94-6.06,3.43-7.38c3.29-1.75,7.85,1.25,10.9-0.9c1.97,7.14,3.61,14.38,4.93,21.67
			c-0.12-0.65-6.24-1.28-7.01-1.38c-2.41-0.3-4.83-0.43-7.26-0.39c-1.97,0.03-4.32,0.62-6.23,0c-2.06-0.67-1.39-2.14-0.81-3.75
			C236.84,72.82,237.53,70.18,237.97,67.5z"/>
		<path class="st16" d="M216.5,289.47c0.63,1.75,0.54,3.67,0.45,5.54c-0.93,18.3-1.86,36.61-2.8,54.91
			c-0.57,11.12-1.13,22.26-0.51,33.37c0.14,2.44,0.44,5.12,2.24,6.77c1.06,0.97,2.49,1.43,3.89,1.79c7.1,1.85,14.63,2.04,21.82,0.55
			c3.01-0.62,6.11-1.62,8.18-3.89c3.41-3.72,2.97-9.44,2.48-14.46c-1.94-19.7-1.42-39.63,1.52-59.2c1.02-6.76,2.86-14.28,8.72-17.79
			c2.61-1.56,5.73-2.12,8.31-3.73s4.51-5.08,2.93-7.68c-9.03,1.22-18.2,0.59-27.3-0.05c-10.03-0.7-20.06-1.4-30.09-2.11
			c-1.41-0.1-2.82-0.2-4.22-0.3c-1.01-0.07-2.43-0.41-3.38-0.15c1.07,1.02,2.91,1.38,4.17,2.18
			C214.51,286.26,215.85,287.66,216.5,289.47z"/>
		<path class="st17" d="M217.25,376.67c-0.06,2.62,0.16,5.75,2.43,7.04c1.05,0.6,2.31,0.64,3.51,0.65
			c7.66,0.05,15.32-0.7,22.83-2.24c0.92-0.19,1.87-0.4,2.61-0.98c1.57-1.21,1.68-3.49,1.65-5.47c-0.37-27.63-0.75-55.27-1.12-82.9
			c0.01,0.79-10.26,1.35-11.26,1.36c-3.83,0.06-7.49-0.53-11.28-0.94c-5.51-0.6-7.47,3.83-7.69,8.63
			c-0.74,15.92-0.72,31.92-1.08,47.85C217.66,358.68,217.46,367.68,217.25,376.67z"/>
		<path class="st6" d="M242.25,117.07c-18.26,0-33.07,14.8-33.07,33.07s14.8,33.07,33.07,33.07c18.26,0,33.07-14.8,33.07-33.07
			S260.51,117.07,242.25,117.07z M242.25,178.07c-15.42,0-27.93-12.5-27.93-27.93c0-15.42,12.5-27.93,27.93-27.93
			s27.93,12.5,27.93,27.93C270.17,165.56,257.67,178.07,242.25,178.07z"/>
	</g>
</g>
</svg>
