<?xml version="1.0" encoding="utf-8"?>
<!-- Generator: Adobe Illustrator 25.2.0, SVG Export Plug-In . SVG Version: 6.00 Build 0)  -->
<svg version="1.1" id="Layer_1" xmlns="http://www.w3.org/2000/svg" xmlns:xlink="http://www.w3.org/1999/xlink" x="0px" y="0px"
	 viewBox="0 0 264 208" style="enable-background:new 0 0 264 208;" xml:space="preserve">
<style type="text/css">
	.st0{fill:#5773EF;}
	.st1{fill:#DAF4FB;}
</style>
<g>
	<g>
		<path class="st0" d="M111.44,86.02c0,9.74-7.05,17.82-21.94,17.82c-7.84,0-15.76-2.38-20.83-6.41l4.36-8
			c4.04,3.33,10.06,5.46,16.31,5.46c7.37,0,11.72-3.25,11.72-8.47c0-5.31-3.41-8.63-14.89-8.63H72.79l2.85-30.17h32.55v8.63H84.35
			l-1.19,12.83h5.31C104.86,69.07,111.44,76.2,111.44,86.02z"/>
		<path class="st0" d="M158.16,47.61v6.89l-21.54,48.54h-11.01l20.83-46.72h-21.78v9.42h-9.58V47.61H158.16z"/>
		<path class="st0" d="M164.02,62.26c0-9.11,5.31-15.21,13.23-15.21c7.92,0,13.3,6.02,13.3,15.21s-5.39,15.21-13.3,15.21
			C169.32,77.47,164.02,71.37,164.02,62.26z M184.05,62.26c0-6.18-2.53-9.66-6.81-9.66c-4.12,0-6.81,3.56-6.81,9.66
			s2.69,9.66,6.81,9.66C181.52,71.92,184.05,68.44,184.05,62.26z M210.5,47.61h7.76l-37.85,55.43h-7.76L210.5,47.61z M200.37,88.4
			c0-9.11,5.31-15.21,13.23-15.21c7.92,0,13.3,6.1,13.3,15.21s-5.39,15.21-13.3,15.21C205.67,103.6,200.37,97.5,200.37,88.4z
			 M220.4,88.4c0-6.1-2.61-9.66-6.81-9.66s-6.81,3.49-6.81,9.66s2.61,9.66,6.81,9.66S220.4,94.49,220.4,88.4z"/>
	</g>
	<g>
		<path class="st1" d="M47.1,121.76c0-2.81,2.05-4.81,4.83-4.81c2.77,0,4.81,2,4.81,4.81s-2.03,4.83-4.81,4.83
			C49.15,126.59,47.1,124.57,47.1,121.76z M55.43,121.76c0-2.21-1.5-3.69-3.51-3.69s-3.53,1.48-3.53,3.69s1.51,3.69,3.53,3.69
			S55.43,123.98,55.43,121.76z"/>
		<path class="st1" d="M60.8,115.91v1.12h2.92v1.08h-2.88v8.39h-1.28v-8.39h-1.69v-1.08h1.69v-1.17c0-1.69,1.01-2.81,2.86-2.81
			c0.7,0,1.42,0.2,1.89,0.59l-0.43,0.96c-0.36-0.31-0.86-0.47-1.41-0.47C61.37,114.13,60.8,114.74,60.8,115.91z"/>
		<path class="st1" d="M78.87,121.01v5.49h-1.28v-5.37c0-2-1.04-3.02-2.84-3.02c-2.04,0-3.31,1.26-3.31,3.42v4.97h-1.28v-9.47h1.22
			v1.75c0.68-1.15,1.96-1.82,3.6-1.82C77.29,116.95,78.87,118.29,78.87,121.01z"/>
		<path class="st1" d="M82.05,114.04c0-0.49,0.41-0.9,0.94-0.9s0.94,0.4,0.94,0.88c0,0.52-0.4,0.94-0.94,0.94
			C82.47,114.96,82.05,114.54,82.05,114.04z M82.34,117.03h1.28v9.47h-1.28V117.03z"/>
		<path class="st1" d="M95.95,117.03v8.32c0,3.26-1.6,4.74-4.74,4.74c-1.73,0-3.42-0.52-4.41-1.46l0.65-0.97
			c0.9,0.81,2.27,1.3,3.73,1.3c2.4,0,3.49-1.1,3.49-3.44v-1.21c-0.79,1.21-2.14,1.84-3.69,1.84c-2.7,0-4.75-1.89-4.75-4.61
			s2.05-4.57,4.75-4.57c1.58,0,2.95,0.65,3.75,1.89v-1.82H95.95z M94.71,121.53c0-2.05-1.51-3.46-3.6-3.46
			c-2.09,0-3.58,1.4-3.58,3.46s1.49,3.47,3.58,3.47C93.2,125,94.71,123.58,94.71,121.53z"/>
		<path class="st1" d="M108.24,121.01v5.49h-1.28v-5.37c0-2-1.04-3.02-2.84-3.02c-2.04,0-3.31,1.26-3.31,3.42v4.97h-1.28v-13.36
			h1.28v5.55c0.7-1.1,1.95-1.73,3.55-1.73C106.66,116.95,108.24,118.29,108.24,121.01z"/>
		<path class="st1" d="M116.7,125.92c-0.5,0.45-1.26,0.67-2,0.67c-1.78,0-2.77-1.01-2.77-2.75v-5.73h-1.69v-1.08h1.69v-2.07h1.28
			v2.07h2.88v1.08h-2.88v5.65c0,1.12,0.58,1.73,1.64,1.73c0.52,0,1.04-0.16,1.41-0.49L116.7,125.92z"/>
		<path class="st1" d="M117.71,125.42l0.58-1.01c0.76,0.59,2.04,1.06,3.37,1.06c1.8,0,2.54-0.61,2.54-1.55
			c0-2.47-6.14-0.52-6.14-4.27c0-1.55,1.33-2.7,3.75-2.7c1.22,0,2.56,0.34,3.35,0.88l-0.56,1.03c-0.83-0.58-1.82-0.81-2.79-0.81
			c-1.71,0-2.47,0.67-2.47,1.57c0,2.56,6.14,0.63,6.14,4.27c0,1.64-1.44,2.7-3.91,2.7C120,126.59,118.48,126.08,117.71,125.42z"/>
		<path class="st1" d="M134,115.91v1.12h2.92v1.08h-2.88v8.39h-1.28v-8.39h-1.69v-1.08h1.69v-1.17c0-1.69,1.01-2.81,2.86-2.81
			c0.7,0,1.42,0.2,1.89,0.59l-0.43,0.96c-0.36-0.31-0.86-0.47-1.41-0.47C134.58,114.13,134,114.74,134,115.91z"/>
		<path class="st1" d="M146.73,122.16h-7.92c0.14,1.98,1.66,3.29,3.73,3.29c1.15,0,2.18-0.41,2.9-1.24l0.72,0.83
			c-0.85,1.01-2.16,1.55-3.66,1.55c-2.95,0-4.97-2.02-4.97-4.83s1.96-4.81,4.63-4.81c2.66,0,4.59,1.96,4.59,4.81
			C146.74,121.87,146.73,122.01,146.73,122.16z M138.8,121.2h6.72c-0.16-1.85-1.51-3.15-3.37-3.15
			C140.32,118.05,138.97,119.35,138.8,121.2z"/>
		<path class="st1" d="M156.23,120.63v5.87h-1.22v-1.48c-0.58,0.97-1.69,1.57-3.26,1.57c-2.14,0-3.46-1.12-3.46-2.75
			c0-1.46,0.94-2.68,3.66-2.68h3.01v-0.58c0-1.62-0.92-2.5-2.68-2.5c-1.22,0-2.38,0.43-3.15,1.12l-0.58-0.96
			c0.95-0.81,2.36-1.28,3.85-1.28C154.84,116.95,156.23,118.18,156.23,120.63z M154.95,123.65v-1.55h-2.97
			c-1.84,0-2.43,0.72-2.43,1.69c0,1.1,0.88,1.78,2.39,1.78C153.39,125.58,154.45,124.89,154.95,123.65z"/>
		<path class="st1" d="M164.69,125.92c-0.5,0.45-1.26,0.67-2,0.67c-1.78,0-2.77-1.01-2.77-2.75v-5.73h-1.69v-1.08h1.69v-2.07h1.28
			v2.07h2.88v1.08h-2.88v5.65c0,1.12,0.58,1.73,1.64,1.73c0.52,0,1.04-0.16,1.41-0.49L164.69,125.92z"/>
		<path class="st1" d="M175.55,117.03v9.47h-1.22v-1.73c-0.67,1.15-1.89,1.82-3.4,1.82c-2.41,0-4-1.35-4-4.07v-5.49h1.28v5.37
			c0,2.02,1.04,3.04,2.84,3.04c1.98,0,3.22-1.28,3.22-3.44v-4.97H175.55z"/>
		<path class="st1" d="M183.9,116.95v1.24c-0.11,0-0.22-0.02-0.31-0.02c-1.98,0-3.19,1.26-3.19,3.49v4.83h-1.28v-9.47h1.22v1.85
			C180.94,117.62,182.15,116.95,183.9,116.95z"/>
		<path class="st1" d="M194.36,122.16h-7.92c0.14,1.98,1.66,3.29,3.73,3.29c1.15,0,2.18-0.41,2.9-1.24l0.72,0.83
			c-0.85,1.01-2.16,1.55-3.66,1.55c-2.95,0-4.97-2.02-4.97-4.83s1.96-4.81,4.63-4.81c2.66,0,4.59,1.96,4.59,4.81
			C194.37,121.87,194.36,122.01,194.36,122.16z M186.43,121.2h6.72c-0.16-1.85-1.51-3.15-3.37-3.15
			C187.95,118.05,186.6,119.35,186.43,121.2z"/>
		<path class="st1" d="M205.62,113.14v13.36h-1.22v-1.87c-0.77,1.28-2.09,1.96-3.66,1.96c-2.7,0-4.72-1.96-4.72-4.83
			s2.02-4.81,4.72-4.81c1.51,0,2.81,0.65,3.6,1.87v-5.69H205.62z M204.36,121.76c0-2.21-1.51-3.69-3.51-3.69
			c-2.02,0-3.53,1.48-3.53,3.69s1.51,3.69,3.53,3.69C202.85,125.45,204.36,123.98,204.36,121.76z"/>
		<path class="st1" d="M221.05,120.63v5.87h-1.22v-1.48c-0.58,0.97-1.69,1.57-3.26,1.57c-2.14,0-3.46-1.12-3.46-2.75
			c0-1.46,0.94-2.68,3.66-2.68h3.01v-0.58c0-1.62-0.92-2.5-2.68-2.5c-1.22,0-2.38,0.43-3.15,1.12l-0.58-0.96
			c0.95-0.81,2.36-1.28,3.85-1.28C219.66,116.95,221.05,118.18,221.05,120.63z M219.77,123.65v-1.55h-2.97
			c-1.84,0-2.43,0.72-2.43,1.69c0,1.1,0.88,1.78,2.39,1.78C218.2,125.58,219.27,124.89,219.77,123.65z"/>
		<path class="st1" d="M229.51,125.92c-0.5,0.45-1.26,0.67-2,0.67c-1.78,0-2.77-1.01-2.77-2.75v-5.73h-1.69v-1.08h1.69v-2.07h1.28
			v2.07h2.88v1.08h-2.88v5.65c0,1.12,0.58,1.73,1.64,1.73c0.52,0,1.04-0.16,1.41-0.49L229.51,125.92z"/>
		<path class="st1" d="M60.32,134.74h1.28v13.36h-1.28V134.74z"/>
		<path class="st1" d="M73.41,143.76h-7.92c0.14,1.98,1.66,3.29,3.73,3.29c1.15,0,2.18-0.41,2.9-1.24l0.72,0.83
			c-0.85,1.01-2.16,1.55-3.66,1.55c-2.95,0-4.97-2.02-4.97-4.83s1.96-4.81,4.63-4.81c2.66,0,4.59,1.96,4.59,4.81
			C73.42,143.47,73.41,143.61,73.41,143.76z M65.48,142.8h6.72c-0.16-1.85-1.51-3.15-3.37-3.15C67,139.65,65.65,140.95,65.48,142.8z
			"/>
		<path class="st1" d="M82.91,142.23v5.87h-1.22v-1.48c-0.58,0.97-1.69,1.57-3.26,1.57c-2.14,0-3.46-1.12-3.46-2.75
			c0-1.46,0.94-2.68,3.66-2.68h3.01v-0.58c0-1.62-0.92-2.5-2.68-2.5c-1.22,0-2.38,0.43-3.15,1.12l-0.58-0.96
			c0.95-0.81,2.36-1.28,3.85-1.28C81.52,138.55,82.91,139.78,82.91,142.23z M81.63,145.25v-1.55h-2.97c-1.84,0-2.43,0.72-2.43,1.69
			c0,1.1,0.88,1.78,2.39,1.78C80.07,147.18,81.13,146.49,81.63,145.25z"/>
		<path class="st1" d="M85.07,147.02l0.58-1.01c0.76,0.59,2.04,1.06,3.37,1.06c1.8,0,2.54-0.61,2.54-1.55
			c0-2.47-6.14-0.52-6.14-4.27c0-1.55,1.33-2.7,3.75-2.7c1.22,0,2.56,0.34,3.35,0.88l-0.56,1.03c-0.83-0.58-1.82-0.81-2.79-0.81
			c-1.71,0-2.47,0.67-2.47,1.57c0,2.56,6.14,0.63,6.14,4.27c0,1.64-1.44,2.7-3.91,2.7C87.35,148.19,85.84,147.68,85.07,147.02z"/>
		<path class="st1" d="M100.17,147.52c-0.5,0.45-1.26,0.67-2,0.67c-1.78,0-2.77-1.01-2.77-2.75v-5.73h-1.69v-1.08h1.69v-2.07h1.28
			v2.07h2.88v1.08h-2.88v5.65c0,1.12,0.58,1.73,1.64,1.73c0.52,0,1.04-0.16,1.41-0.49L100.17,147.52z"/>
		<path class="st1" d="M106.25,143.36c0-2.81,2.05-4.81,4.83-4.81c2.77,0,4.81,2,4.81,4.81s-2.03,4.83-4.81,4.83
			C108.31,148.19,106.25,146.17,106.25,143.36z M114.59,143.36c0-2.21-1.5-3.69-3.51-3.69s-3.53,1.48-3.53,3.69s1.51,3.69,3.53,3.69
			S114.59,145.58,114.59,143.36z"/>
		<path class="st1" d="M127.21,142.61v5.49h-1.28v-5.37c0-2-1.04-3.02-2.84-3.02c-2.04,0-3.31,1.26-3.31,3.42v4.97h-1.28v-9.47h1.22
			v1.75c0.68-1.15,1.96-1.82,3.6-1.82C125.62,138.55,127.21,139.89,127.21,142.61z"/>
		<path class="st1" d="M138.96,143.76h-7.92c0.14,1.98,1.66,3.29,3.73,3.29c1.15,0,2.18-0.41,2.9-1.24l0.72,0.83
			c-0.85,1.01-2.16,1.55-3.66,1.55c-2.95,0-4.97-2.02-4.97-4.83s1.96-4.81,4.63-4.81c2.66,0,4.59,1.96,4.59,4.81
			C138.98,143.47,138.96,143.61,138.96,143.76z M131.04,142.8h6.72c-0.16-1.85-1.51-3.15-3.37-3.15
			C132.55,139.65,131.2,140.95,131.04,142.8z"/>
		<path class="st1" d="M154.94,134.74v13.36h-1.22v-1.87c-0.77,1.28-2.09,1.96-3.66,1.96c-2.7,0-4.72-1.96-4.72-4.83
			s2.02-4.81,4.72-4.81c1.51,0,2.81,0.65,3.6,1.87v-5.69H154.94z M153.69,143.36c0-2.21-1.51-3.69-3.51-3.69
			c-2.02,0-3.53,1.48-3.53,3.69s1.51,3.69,3.53,3.69C152.17,147.05,153.69,145.58,153.69,143.36z"/>
		<path class="st1" d="M163.28,138.55v1.24c-0.11,0-0.22-0.02-0.31-0.02c-1.98,0-3.19,1.26-3.19,3.49v4.83h-1.28v-9.47h1.22v1.85
			C160.33,139.22,161.53,138.55,163.28,138.55z"/>
		<path class="st1" d="M173.74,143.76h-7.92c0.14,1.98,1.66,3.29,3.73,3.29c1.15,0,2.18-0.41,2.9-1.24l0.72,0.83
			c-0.85,1.01-2.16,1.55-3.66,1.55c-2.95,0-4.97-2.02-4.97-4.83s1.96-4.81,4.63-4.81c2.66,0,4.59,1.96,4.59,4.81
			C173.76,143.47,173.74,143.61,173.74,143.76z M165.81,142.8h6.72c-0.16-1.85-1.51-3.15-3.37-3.15
			C167.33,139.65,165.98,140.95,165.81,142.8z"/>
		<path class="st1" d="M183.24,142.23v5.87h-1.22v-1.48c-0.58,0.97-1.69,1.57-3.26,1.57c-2.14,0-3.46-1.12-3.46-2.75
			c0-1.46,0.94-2.68,3.66-2.68h3.01v-0.58c0-1.62-0.92-2.5-2.68-2.5c-1.22,0-2.38,0.43-3.15,1.12l-0.58-0.96
			c0.95-0.81,2.36-1.28,3.85-1.28C181.85,138.55,183.24,139.78,183.24,142.23z M181.96,145.25v-1.55h-2.97
			c-1.84,0-2.43,0.72-2.43,1.69c0,1.1,0.88,1.78,2.39,1.78C180.4,147.18,181.46,146.49,181.96,145.25z"/>
		<path class="st1" d="M202.34,142.61v5.49h-1.28v-5.37c0-2-1.01-3.02-2.72-3.02c-1.94,0-3.17,1.26-3.17,3.42v4.97h-1.28v-5.37
			c0-2-1.01-3.02-2.74-3.02c-1.93,0-3.17,1.26-3.17,3.42v4.97h-1.28v-9.47h1.22v1.73c0.67-1.13,1.89-1.8,3.48-1.8
			c1.57,0,2.79,0.67,3.37,2c0.68-1.22,2.04-2,3.75-2C200.83,138.55,202.34,139.89,202.34,142.61z"/>
		<path class="st1" d="M207.85,138l2.23,1.26l-0.41,0.76l-2.25-1.31v2.56h-0.83l0.02-2.56l-2.25,1.31l-0.43-0.76l2.25-1.26
			l-2.25-1.26l0.43-0.77l2.25,1.33l-0.02-2.56h0.83v2.56l2.25-1.33l0.41,0.77L207.85,138z"/>
		<path class="st1" d="M215.15,138l2.23,1.26l-0.41,0.76l-2.25-1.31v2.56h-0.83l0.02-2.56l-2.25,1.31l-0.43-0.76l2.25-1.26
			l-2.25-1.26l0.43-0.77l2.25,1.33l-0.02-2.56h0.83v2.56l2.25-1.33l0.41,0.77L215.15,138z"/>
	</g>
</g>
</svg>
