<?xml version="1.0" encoding="utf-8"?>
<!-- Generator: Adobe Illustrator 25.2.0, SVG Export Plug-In . SVG Version: 6.00 Build 0)  -->
<svg version="1.1" id="Layer_1" xmlns="http://www.w3.org/2000/svg" xmlns:xlink="http://www.w3.org/1999/xlink" x="0px" y="0px"
	 viewBox="0 0 264 208" style="enable-background:new 0 0 264 208;" xml:space="preserve">
<style type="text/css">
	.st0{fill:#5773EF;}
	.st1{fill:#DAF4FB;}
</style>
<g>
	<g>
		<path class="st0" d="M100.48,86.63c0,11.31-9.19,18.47-20.83,18.47C64.11,105.1,55,95.09,55,76.79
			c0-19.53,11.39-30.27,27.91-30.27c5.7,0,11.15,1.22,14.97,3.66l-3.91,7.97c-3.09-2.03-6.83-2.77-10.82-2.77
			c-10.74,0-17.49,6.67-17.49,19.61v0.08c3.42-3.99,8.87-5.94,15.21-5.94C92.1,69.14,100.48,75.97,100.48,86.63z M90.23,87.12
			c0-5.94-4.47-9.68-11.39-9.68c-6.83,0-11.55,4.15-11.55,9.76c0,5.37,4.23,9.6,11.8,9.6C85.67,96.8,90.23,93.06,90.23,87.12z"/>
		<path class="st0" d="M106.01,75.81c0-18.71,10.25-29.29,23.76-29.29c13.59,0,23.84,10.58,23.84,29.29s-10.25,29.29-23.84,29.29
			C116.26,105.1,106.01,94.52,106.01,75.81z M142.95,75.81c0-13.75-5.37-20.1-13.18-20.1c-7.73,0-13.1,6.35-13.1,20.1
			c0,13.75,5.37,20.1,13.1,20.1C137.58,95.91,142.95,89.56,142.95,75.81z"/>
		<path class="st0" d="M159.87,62.39c0-9.36,5.45-15.62,13.59-15.62s13.67,6.18,13.67,15.62s-5.53,15.62-13.67,15.62
			S159.87,71.74,159.87,62.39z M180.46,62.39c0-6.35-2.6-9.93-7-9.93c-4.23,0-7,3.66-7,9.93s2.77,9.93,7,9.93
			C177.85,72.31,180.46,68.73,180.46,62.39z M207.63,47.33h7.97l-38.89,56.95h-7.97L207.63,47.33z M197.22,89.24
			c0-9.36,5.45-15.62,13.59-15.62c8.14,0,13.67,6.26,13.67,15.62s-5.53,15.62-13.67,15.62C202.67,104.86,197.22,98.59,197.22,89.24z
			 M217.8,89.24c0-6.26-2.69-9.93-7-9.93s-7,3.58-7,9.93s2.69,9.93,7,9.93S217.8,95.5,217.8,89.24z"/>
	</g>
	<g>
		<path class="st1" d="M47.76,124.37c0-2.81,2.05-4.81,4.83-4.81c2.77,0,4.81,2,4.81,4.81c0,2.81-2.03,4.83-4.81,4.83
			C49.81,129.19,47.76,127.18,47.76,124.37z M56.09,124.37c0-2.21-1.5-3.69-3.51-3.69s-3.53,1.48-3.53,3.69s1.51,3.69,3.53,3.69
			S56.09,126.58,56.09,124.37z"/>
		<path class="st1" d="M61.46,118.52v1.12h2.92v1.08h-2.88v8.39h-1.28v-8.39h-1.69v-1.08h1.69v-1.17c0-1.69,1.01-2.81,2.86-2.81
			c0.7,0,1.42,0.2,1.89,0.59l-0.43,0.96c-0.36-0.31-0.86-0.47-1.41-0.47C62.03,116.73,61.46,117.34,61.46,118.52z"/>
		<path class="st1" d="M79.53,123.61v5.49h-1.28v-5.37c0-2-1.04-3.02-2.84-3.02c-2.04,0-3.31,1.26-3.31,3.42v4.97h-1.28v-9.47h1.22
			v1.75c0.68-1.15,1.96-1.82,3.6-1.82C77.95,119.56,79.53,120.89,79.53,123.61z"/>
		<path class="st1" d="M90.15,123.23v5.87h-1.22v-1.48c-0.58,0.97-1.69,1.57-3.26,1.57c-2.14,0-3.46-1.12-3.46-2.75
			c0-1.46,0.94-2.68,3.66-2.68h3.01v-0.58c0-1.62-0.92-2.5-2.68-2.5c-1.22,0-2.38,0.43-3.15,1.12l-0.58-0.95
			c0.95-0.81,2.36-1.28,3.85-1.28C88.76,119.56,90.15,120.78,90.15,123.23z M88.87,126.26v-1.55H85.9c-1.84,0-2.43,0.72-2.43,1.69
			c0,1.1,0.88,1.78,2.39,1.78C87.3,128.18,88.37,127.5,88.87,126.26z"/>
		<path class="st1" d="M103.22,124.37c0,2.88-2.02,4.83-4.72,4.83c-1.51,0-2.81-0.65-3.6-1.87v5.28h-1.28v-12.96h1.22v1.87
			c0.77-1.26,2.09-1.94,3.66-1.94C101.2,119.56,103.22,121.5,103.22,124.37z M101.94,124.37c0-2.2-1.53-3.69-3.53-3.69
			c-2.02,0-3.53,1.49-3.53,3.69c0,2.21,1.51,3.69,3.53,3.69C100.41,128.06,101.94,126.58,101.94,124.37z"/>
		<path class="st1" d="M104.51,128.02l0.58-1.01c0.76,0.59,2.04,1.06,3.37,1.06c1.8,0,2.54-0.61,2.54-1.55
			c0-2.47-6.14-0.52-6.14-4.27c0-1.55,1.33-2.7,3.75-2.7c1.22,0,2.56,0.34,3.35,0.88l-0.56,1.03c-0.83-0.58-1.82-0.81-2.79-0.81
			c-1.71,0-2.47,0.67-2.47,1.57c0,2.56,6.14,0.63,6.14,4.27c0,1.64-1.44,2.7-3.91,2.7C106.8,129.19,105.29,128.69,104.51,128.02z"/>
		<path class="st1" d="M120.8,118.52v1.12h2.92v1.08h-2.88v8.39h-1.28v-8.39h-1.69v-1.08h1.69v-1.17c0-1.69,1.01-2.81,2.86-2.81
			c0.7,0,1.42,0.2,1.89,0.59l-0.43,0.96c-0.36-0.31-0.86-0.47-1.41-0.47C121.38,116.73,120.8,117.34,120.8,118.52z"/>
		<path class="st1" d="M133.53,124.76h-7.92c0.14,1.98,1.66,3.29,3.73,3.29c1.15,0,2.18-0.41,2.9-1.24l0.72,0.83
			c-0.85,1.01-2.16,1.55-3.66,1.55c-2.95,0-4.97-2.02-4.97-4.83c0-2.81,1.96-4.81,4.63-4.81c2.66,0,4.59,1.96,4.59,4.81
			C133.55,124.47,133.53,124.62,133.53,124.76z M125.61,123.81h6.72c-0.16-1.85-1.51-3.15-3.37-3.15
			C127.12,120.66,125.77,121.95,125.61,123.81z"/>
		<path class="st1" d="M143.03,123.23v5.87h-1.22v-1.48c-0.58,0.97-1.69,1.57-3.26,1.57c-2.14,0-3.46-1.12-3.46-2.75
			c0-1.46,0.94-2.68,3.66-2.68h3.01v-0.58c0-1.62-0.92-2.5-2.68-2.5c-1.22,0-2.38,0.43-3.15,1.12l-0.58-0.95
			c0.95-0.81,2.36-1.28,3.85-1.28C141.65,119.56,143.03,120.78,143.03,123.23z M141.75,126.26v-1.55h-2.97
			c-1.84,0-2.43,0.72-2.43,1.69c0,1.1,0.88,1.78,2.39,1.78C140.19,128.18,141.25,127.5,141.75,126.26z"/>
		<path class="st1" d="M151.49,128.53c-0.5,0.45-1.26,0.67-2,0.67c-1.78,0-2.77-1.01-2.77-2.75v-5.73h-1.69v-1.08h1.69v-2.07H148
			v2.07h2.88v1.08H148v5.65c0,1.12,0.58,1.73,1.64,1.73c0.52,0,1.04-0.16,1.41-0.49L151.49,128.53z"/>
		<path class="st1" d="M162.35,119.63v9.47h-1.22v-1.73c-0.67,1.15-1.89,1.82-3.4,1.82c-2.41,0-4-1.35-4-4.07v-5.49H155V125
			c0,2.02,1.04,3.04,2.84,3.04c1.98,0,3.22-1.28,3.22-3.44v-4.97H162.35z"/>
		<path class="st1" d="M170.7,119.56v1.24c-0.11,0-0.22-0.02-0.31-0.02c-1.98,0-3.19,1.26-3.19,3.49v4.83h-1.28v-9.47h1.22v1.85
			C167.75,120.23,168.95,119.56,170.7,119.56z"/>
		<path class="st1" d="M181.16,124.76h-7.92c0.14,1.98,1.66,3.29,3.73,3.29c1.15,0,2.18-0.41,2.9-1.24l0.72,0.83
			c-0.85,1.01-2.16,1.55-3.66,1.55c-2.95,0-4.97-2.02-4.97-4.83c0-2.81,1.96-4.81,4.63-4.81c2.66,0,4.59,1.96,4.59,4.81
			C181.18,124.47,181.16,124.62,181.16,124.76z M173.24,123.81h6.72c-0.16-1.85-1.51-3.15-3.37-3.15
			C174.75,120.66,173.4,121.95,173.24,123.81z"/>
		<path class="st1" d="M192.43,115.74v13.36h-1.22v-1.87c-0.77,1.28-2.09,1.96-3.66,1.96c-2.7,0-4.72-1.96-4.72-4.83
			c0-2.86,2.02-4.81,4.72-4.81c1.51,0,2.81,0.65,3.6,1.87v-5.69H192.43z M191.17,124.37c0-2.21-1.51-3.69-3.51-3.69
			c-2.02,0-3.53,1.48-3.53,3.69s1.51,3.69,3.53,3.69C189.65,128.06,191.17,126.58,191.17,124.37z"/>
		<path class="st1" d="M207.85,123.23v5.87h-1.22v-1.48c-0.58,0.97-1.69,1.57-3.26,1.57c-2.14,0-3.46-1.12-3.46-2.75
			c0-1.46,0.94-2.68,3.66-2.68h3.01v-0.58c0-1.62-0.92-2.5-2.68-2.5c-1.22,0-2.38,0.43-3.15,1.12l-0.58-0.95
			c0.95-0.81,2.36-1.28,3.85-1.28C206.46,119.56,207.85,120.78,207.85,123.23z M206.57,126.26v-1.55h-2.97
			c-1.84,0-2.43,0.72-2.43,1.69c0,1.1,0.88,1.78,2.39,1.78C205.01,128.18,206.07,127.5,206.57,126.26z"/>
		<path class="st1" d="M216.31,128.53c-0.5,0.45-1.26,0.67-2,0.67c-1.78,0-2.77-1.01-2.77-2.75v-5.73h-1.69v-1.08h1.69v-2.07h1.28
			v2.07h2.88v1.08h-2.88v5.65c0,1.12,0.58,1.73,1.64,1.73c0.52,0,1.04-0.16,1.41-0.49L216.31,128.53z"/>
		<path class="st1" d="M54.05,137.34h1.28v13.36h-1.28V137.34z"/>
		<path class="st1" d="M67.14,146.36h-7.92c0.14,1.98,1.66,3.29,3.73,3.29c1.15,0,2.18-0.41,2.9-1.24l0.72,0.83
			c-0.85,1.01-2.16,1.55-3.66,1.55c-2.95,0-4.97-2.02-4.97-4.83c0-2.81,1.96-4.81,4.63-4.81c2.66,0,4.59,1.96,4.59,4.81
			C67.16,146.07,67.14,146.22,67.14,146.36z M59.21,145.41h6.72c-0.16-1.85-1.51-3.15-3.37-3.15
			C60.73,142.26,59.38,143.55,59.21,145.41z"/>
		<path class="st1" d="M76.64,144.83v5.87h-1.22v-1.48c-0.58,0.97-1.69,1.57-3.26,1.57c-2.14,0-3.46-1.12-3.46-2.75
			c0-1.46,0.94-2.68,3.66-2.68h3.01v-0.58c0-1.62-0.92-2.5-2.68-2.5c-1.22,0-2.38,0.43-3.15,1.12l-0.58-0.95
			c0.95-0.81,2.36-1.28,3.85-1.28C75.25,141.16,76.64,142.38,76.64,144.83z M75.36,147.86v-1.55h-2.97c-1.84,0-2.43,0.72-2.43,1.69
			c0,1.1,0.88,1.78,2.39,1.78C73.8,149.78,74.86,149.1,75.36,147.86z"/>
		<path class="st1" d="M78.8,149.62l0.58-1.01c0.76,0.59,2.04,1.06,3.37,1.06c1.8,0,2.54-0.61,2.54-1.55c0-2.47-6.14-0.52-6.14-4.27
			c0-1.55,1.33-2.7,3.75-2.7c1.22,0,2.56,0.34,3.35,0.88l-0.56,1.03c-0.83-0.58-1.82-0.81-2.79-0.81c-1.71,0-2.47,0.67-2.47,1.57
			c0,2.56,6.14,0.63,6.14,4.27c0,1.64-1.44,2.7-3.91,2.7C81.09,150.79,79.57,150.29,78.8,149.62z"/>
		<path class="st1" d="M93.9,150.13c-0.5,0.45-1.26,0.67-2,0.67c-1.78,0-2.77-1.01-2.77-2.75v-5.73h-1.69v-1.08h1.69v-2.07h1.28
			v2.07h2.88v1.08h-2.88v5.65c0,1.12,0.58,1.73,1.64,1.73c0.52,0,1.04-0.16,1.41-0.49L93.9,150.13z"/>
		<path class="st1" d="M99.98,145.97c0-2.81,2.05-4.81,4.83-4.81c2.77,0,4.81,2,4.81,4.81c0,2.81-2.03,4.83-4.81,4.83
			C102.04,150.79,99.98,148.78,99.98,145.97z M108.32,145.97c0-2.21-1.5-3.69-3.51-3.69s-3.53,1.48-3.53,3.69s1.51,3.69,3.53,3.69
			S108.32,148.18,108.32,145.97z"/>
		<path class="st1" d="M120.94,145.21v5.49h-1.28v-5.37c0-2-1.04-3.02-2.84-3.02c-2.04,0-3.31,1.26-3.31,3.42v4.97h-1.28v-9.47h1.22
			v1.75c0.68-1.15,1.96-1.82,3.6-1.82C119.36,141.16,120.94,142.49,120.94,145.21z"/>
		<path class="st1" d="M132.69,146.36h-7.92c0.14,1.98,1.66,3.29,3.73,3.29c1.15,0,2.18-0.41,2.9-1.24l0.72,0.83
			c-0.85,1.01-2.16,1.55-3.66,1.55c-2.95,0-4.97-2.02-4.97-4.83c0-2.81,1.96-4.81,4.63-4.81c2.66,0,4.59,1.96,4.59,4.81
			C132.71,146.07,132.69,146.22,132.69,146.36z M124.77,145.41h6.72c-0.16-1.85-1.51-3.15-3.37-3.15
			C126.28,142.26,124.93,143.55,124.77,145.41z"/>
		<path class="st1" d="M148.68,137.34v13.36h-1.22v-1.87c-0.77,1.28-2.09,1.96-3.66,1.96c-2.7,0-4.72-1.96-4.72-4.83
			c0-2.86,2.02-4.81,4.72-4.81c1.51,0,2.81,0.65,3.6,1.87v-5.69H148.68z M147.42,145.97c0-2.21-1.51-3.69-3.51-3.69
			c-2.02,0-3.53,1.48-3.53,3.69s1.51,3.69,3.53,3.69C145.9,149.66,147.42,148.18,147.42,145.97z"/>
		<path class="st1" d="M157.01,141.16v1.24c-0.11,0-0.22-0.02-0.31-0.02c-1.98,0-3.19,1.26-3.19,3.49v4.83h-1.28v-9.47h1.22v1.85
			C154.06,141.83,155.26,141.16,157.01,141.16z"/>
		<path class="st1" d="M167.47,146.36h-7.92c0.14,1.98,1.66,3.29,3.73,3.29c1.15,0,2.18-0.41,2.9-1.24l0.72,0.83
			c-0.85,1.01-2.16,1.55-3.66,1.55c-2.95,0-4.97-2.02-4.97-4.83c0-2.81,1.96-4.81,4.63-4.81c2.66,0,4.59,1.96,4.59,4.81
			C167.49,146.07,167.47,146.22,167.47,146.36z M159.55,145.41h6.72c-0.16-1.85-1.51-3.15-3.37-3.15
			C161.06,142.26,159.71,143.55,159.55,145.41z"/>
		<path class="st1" d="M176.97,144.83v5.87h-1.22v-1.48c-0.58,0.97-1.69,1.57-3.26,1.57c-2.14,0-3.46-1.12-3.46-2.75
			c0-1.46,0.94-2.68,3.66-2.68h3.01v-0.58c0-1.62-0.92-2.5-2.68-2.5c-1.22,0-2.38,0.43-3.15,1.12l-0.58-0.95
			c0.95-0.81,2.36-1.28,3.85-1.28C175.59,141.16,176.97,142.38,176.97,144.83z M175.69,147.86v-1.55h-2.97
			c-1.84,0-2.43,0.72-2.43,1.69c0,1.1,0.88,1.78,2.39,1.78C174.13,149.78,175.19,149.1,175.69,147.86z"/>
		<path class="st1" d="M196.07,145.21v5.49h-1.28v-5.37c0-2-1.01-3.02-2.72-3.02c-1.94,0-3.17,1.26-3.17,3.42v4.97h-1.28v-5.37
			c0-2-1.01-3.02-2.74-3.02c-1.93,0-3.17,1.26-3.17,3.42v4.97h-1.28v-9.47h1.22v1.73c0.67-1.13,1.89-1.8,3.48-1.8
			c1.57,0,2.79,0.67,3.37,2c0.68-1.22,2.04-2,3.75-2C194.56,141.16,196.07,142.49,196.07,145.21z"/>
		<path class="st1" d="M201.58,140.6l2.23,1.26l-0.41,0.76l-2.25-1.31v2.56h-0.83l0.02-2.56l-2.25,1.31l-0.43-0.76l2.25-1.26
			l-2.25-1.26l0.43-0.77l2.25,1.33l-0.02-2.56h0.83v2.56l2.25-1.33l0.41,0.77L201.58,140.6z"/>
		<path class="st1" d="M208.88,140.6l2.23,1.26l-0.41,0.76l-2.25-1.31v2.56h-0.83l0.02-2.56l-2.25,1.31l-0.43-0.76l2.25-1.26
			l-2.25-1.26l0.43-0.77l2.25,1.33l-0.02-2.56h0.83v2.56l2.25-1.33l0.41,0.77L208.88,140.6z"/>
	</g>
</g>
</svg>
