<?xml version="1.0" encoding="utf-8"?>
<!-- Generator: Adobe Illustrator 25.2.0, SVG Export Plug-In . SVG Version: 6.00 Build 0)  -->
<svg version="1.1" id="Layer_1" xmlns="http://www.w3.org/2000/svg" xmlns:xlink="http://www.w3.org/1999/xlink" x="0px" y="0px"
	 viewBox="0 0 1004 397" style="enable-background:new 0 0 1004 397;" xml:space="preserve">
<style type="text/css">
	.st0{opacity:0.2;fill:#DAF4FB;}
	.st1{opacity:0.14;fill:#DAF4FB;}
	.st2{opacity:0.17;fill:#DAF4FB;}
	.st3{opacity:0.24;fill:#DAF4FB;}
	.st4{opacity:0.32;fill:#DAF4FB;}
	.st5{opacity:0.28;fill:#DAF4FB;}
	.st6{opacity:0.25;fill:#DAF4FB;}
	.st7{opacity:0.18;fill:#DAF4FB;}
	.st8{opacity:0.15;fill:#DAF4FB;}
	.st9{opacity:0.16;fill:#DAF4FB;}
	.st10{opacity:0.23;}
	.st11{fill:#DAF4FB;}
	.st12{opacity:0.21;}
	.st13{opacity:0.4;fill:#DAF4FB;}
</style>
<g>
	<polygon class="st0" points="227.52,339.17 200.57,256.57 95.57,256.57 80.71,208.06 146.68,95.13 872.37,88.15 951.36,213.66 
		935.56,260.53 780.39,256.57 759.94,346.94 737.64,346.94 714.41,256.57 243.31,256.57 238.67,339.17 	"/>
	<polygon class="st1" points="80.71,208.06 951.36,213.66 935.56,260.53 780.39,256.57 759.94,346.94 747.86,346.01 769.23,256.57 
		208.93,256.57 238.67,339.17 227.52,339.17 200.57,256.57 95.57,256.57 	"/>
	<path class="st2" d="M868.45,89.82c4.01,17.15,12.54,33.22,24.48,46.15c4.55,4.93,9.76,9.68,11.84,16.06
		c2.14,6.56,0.6,13.69-0.96,20.41c-2.91,12.56-5.82,25.12-8.73,37.68c-22.3,1.5-44.66,1.54-67.01,1.59
		c-18.29,0.04-36.57,0.07-54.86,0.11c-37,0.08-74,0.15-111,0.23c-77.02,0.16-154.04,0.32-231.06,0.47
		c-13.34,0.03-26.68,0.05-40.02,0.08c-25.12,0.05-50.25,0.1-75.37-0.23c-72.82-0.97-145.6-5.17-218.05-12.59
		c-4.41-0.45-9.38-1.23-11.92-4.86c-1.76-2.51-1.88-5.78-1.79-8.84c0.44-14.59,4.5-29.06,11.7-41.76
		c-3.58,5.86-13.84,0.64-14.1-6.22c-0.26-6.86,5.13-12.47,10.13-17.18c7.43-7.01,14.87-14.01,22.3-21.02
		c12.89-12.15,31.6-25.05,46.6-15.64c-2.57,7.8,10.17,10.43,18.13,8.44c18.03-4.51,36.05-9.02,54.08-13.53
		c6-1.5,12.5-2.97,18.21-0.58c8.26,3.46,12.5,14.09,21.29,15.77c11.5,2.19,21.37-12.61,32.77-9.94c5.78,1.35,10.45,7.1,16.35,6.37
		c4.84-0.6,8.01-5.36,12.41-7.44c13-6.16,26.36,12.78,40.49,10.07c6.37-1.23,11.04-6.61,16.87-9.45
		c15.58-7.59,33.21,4.32,50.37,6.66c26.3,3.59,53.3-15.79,78.36-7.02c5.93,2.08,11.43,5.81,14.77,11.14
		c-2.97-9.97,6.37-21.45,16.73-20.59c10.82,0.91,18.23,12.17,28.88,14.29c11.29,2.25,21.5-6.23,31.73-11.51
		c10.23-5.28,26.53-5.01,29.29,6.17c11.88-12.59,32.55-15.77,47.66-7.32c3.98,2.22,7.67,5.18,12.12,6.17
		c10.01,2.22,19.04-6.06,28.92-8.82c10.04-2.81,21.44,0.86,28.31,8.61c0.75,0.85,1.36,2.05,2.17,2.82c0.9,0.85,0.27,0.76,1.49,0.81
		c0.78,0.03,2.08-0.74,2.84-0.98c3.27-1.03,6.62-1.78,10.02-2.27c5.97-0.85,12.18-1.02,18.12,0.15c7.79,1.53,13.85,6.04,20.98,9.12
		c8.58,3.71,16.42,0.96,24.55-2.61C847.25,84.97,861.7,80.13,868.45,89.82z"/>
	<path class="st3" d="M786.31,140.69c-2.43,1.2-4.89,2.71-6.12,5.12c-1.24,2.41-0.69,5.91,1.76,7.06c-2.78,2.01-5.56,4.02-8.33,6.03
		c1.18,2.5,3.17,4.62,5.59,5.96c-3.39-0.11-6.68,2.48-7.35,5.81c-0.67,3.33,1.34,7,4.51,8.22c-2.62,0.5-5.27,2.18-5.83,4.79
		s2.15,5.63,4.61,4.59c-4.89,1.34-5.62,9.5-1.05,11.69c-1.76,0.17-2.56,2.88-1.17,3.98c35.49,0.06,70.98,0.12,106.48,0.18
		c2.64,0,5.48-0.06,7.58-1.66c1.87-1.42,2.74-3.77,3.52-5.99c2.01-5.72,4.03-11.44,6.04-17.17c1.34-3.82,2.7-7.69,3.05-11.72
		c4.2-1.98,5.23-7.8,3.57-12.13c-1.66-4.33-5.22-7.59-8.41-10.96c-7.58-7.99-13.65-17.41-17.79-27.61
		c-2.59-6.4-4.48-13.19-8.31-18.93s-10.28-10.41-17.15-9.72c-1.41,0.14-2.89,0.56-3.8,1.64c-0.94,1.1-1.09,2.65-1.39,4.06
		c-1.38,6.66-6.96,12.25-13.62,13.63c-6.66,1.38-14.01-1.52-17.93-7.07c-1.45-2.06-2.45-4.41-3.92-6.46
		c-6.23-8.69-21.09-11.13-30.22-5.84c-10.6,6.14-5.39,18.56-2.45,27.55C778.86,117.89,786.8,140.45,786.31,140.69z"/>
	<path class="st3" d="M707.29,85.8c1.56,1.12,3.09,2.53,5,2.71c3.45,0.31,5.7-3.34,7.87-6.04c6.24-7.78,18.51-9.87,26.98-4.59
		c7.2,4.49,10.87,12.83,14.14,20.66c3.52,8.46,7.05,16.92,10.57,25.38c1.81,4.34,2.55,11.02-2.01,12.16
		c2.72-0.87,3.34,4.1,1.21,6.02c-2.13,1.91-5.44,3.02-6.01,5.82c3.26-0.81,6.85,2.23,6.58,5.58c-2.48,0.7-4.69,2.3-6.14,4.43
		c2.08-0.6,4.47,1.24,4.43,3.41c-2.4,1.75-4.8,3.49-7.21,5.24c4.09,1.53,3.75,8.74-0.46,9.88c2.19,2.09,4.38,4.18,6.56,6.28
		c-2.85,2.52-5.71,5.04-8.56,7.56c2.36-0.87,5.3,0.36,6.34,2.65c-2.14,3.31-5,6.15-8.33,8.26c2.67-0.27,5.4,0.14,7.87,1.16
		c-1.7,2.09-3.4,4.18-5.11,6.28c2.39-0.67,5.03-0.38,7.22,0.78c-9.94,4.7-21.25,5.33-32.24,5.64c-29.22,0.84-58.48,0.02-87.61-2.44
		c3.01-4.81,7.73-8.52,13.11-10.33c-3.71-3.02-3.17-9.79,0.97-12.19c-2.62-1.42-5.43-3.04-6.56-5.79c-1.14-2.75,0.67-6.75,3.64-6.49
		c-2.58-1.27-5.32-2.71-6.61-5.27c-1.28-2.57-0.05-6.5,2.81-6.75c-3.31-2.64-2.3-8.31,0.89-11.09c3.19-2.79,7.64-3.47,11.84-4.04
		c-3.73-0.7-7.3-2.26-10.35-4.52c-0.2-2.17,1.67-4.3,3.85-4.38c-4.53-2.38-4.67-10.05-0.23-12.6c-2.27-1.4-4.53-2.8-6.8-4.19
		c0.37-2.32,1.58-4.49,3.34-6.04c-0.09,0.08-4.58-8.74-4.93-9.59c-1.39-3.45-2.51-7.05-3.2-10.71c-0.91-4.86-0.43-10.14,3.12-13.87
		c3.41-3.59,8.58-4.65,13.35-4.29c6.63,0.5,12.89,1.22,19.6,1.07C693.43,81.4,701.19,81.44,707.29,85.8z"/>
	<path class="st4" d="M539,76.74c8.91-6.76,23.46-3.92,29.17,5.69c1.61,2.7,2.68,5.9,5.22,7.74c1.71,1.24,3.87,1.68,5.97,1.85
		c4.14,0.33,8.36-0.3,12.23-1.82c6.83-2.68,12.27-7.95,18.53-11.78c6.26-3.83,14.46-6.14,20.79-2.43c4.07,2.38,6.49,6.74,8.73,10.89
		c7.37,13.7,14.92,28.04,15.45,43.59c0.28,8.32-1.52,16.7-5.19,24.16c3.52,4.35,0.85,12.05-4.61,13.29c5.32,3.25,4.7,12.66-1,15.18
		c4.71-1.47,8.18,6.91,3.8,9.2c4.35-0.22,4.71,6.72,2.02,10.15c-6.72,8.59-19.3,9.08-30.2,8.81c-28.24-0.68-56.47-1.37-84.71-2.05
		c-0.41-3.01,1.36-6.18,4.14-7.4c-2.88-1.55-2.09-5.97-0.21-8.65c1.88-2.68,4.57-5.29,4.32-8.55c-0.29-3.71-4.13-5.88-7.07-8.16
		c-2.94-2.28-5.26-6.99-2.43-9.41c-2.96-2.39-5.42-5.39-7.18-8.76c3.01-3.35,6.84-5.97,11.05-7.57c-5.74-1.78-5.33-11.98,0.54-13.29
		c-3.11-7.95-2.67-17.22,1.17-24.84c-0.01,0.02-4.73-7.55-5.06-8.49c-1.17-3.3-1.67-6.85-1.41-10.34
		C533.52,87.54,533.57,80.86,539,76.74z"/>
	<path class="st5" d="M477.38,97.5c8.91-11.72,26.51-10.77,41.08-8.67c3.1,0.45,6.62,1.17,8.17,3.89c0.93,1.64,0.9,3.64,0.84,5.53
		c-0.63,19.85-1.26,39.71-1.9,59.56c-0.11,3.37-0.2,6.84,0.97,10.01c1.69,4.58,5.65,10.22,1.97,13.42
		c6.67,6.26,8.21,17.29,3.5,25.13c-12.39,4.8-26.12,4.14-39.38,3.41c-22.5-1.23-45-2.47-67.5-3.7c-1.54-0.08-3.2-0.21-4.39-1.21
		c-1.13-0.95-1.57-2.47-1.88-3.91c-1.04-4.86-1.24-9.9-0.59-14.83c0.26-1.92,0.64-3.83,0.8-5.76c0.18-2.21,0.06-4.42-0.05-6.63
		c-0.47-9.92-0.68-19.86-0.89-29.79c-0.31-14.78-0.75-31.23,5.37-45.07c5-11.33,15.42-11.9,26.4-9.97c4.74,0.83,9.42,1.96,14.02,3.4
		C465.14,92.69,477.3,97.6,477.38,97.5z"/>
	<path class="st6" d="M313.8,109.43c2.6-5.87,5.49-11.82,10.23-16.15s11.79-6.72,17.74-4.3c4.72,1.92,7.83,6.34,11.44,9.94
		s8.89,6.61,13.61,4.72c3.92-1.57,5.87-5.87,8.81-8.9c8.07-8.32,21.85-5.93,32.78-2.06c2.45,0.87,5.08,1.94,6.34,4.22
		c1.12,2.01,0.87,4.47,0.59,6.76c-2.09,17.26-4.17,34.52-6.26,51.78c-0.54,4.47-1.08,9.05-0.06,13.44c0.9,3.91,3,7.49,3.72,11.45
		c0.71,3.95-0.55,8.79-4.29,10.24c1.78-2.03,4.28,1.92,3.79,4.58c-0.49,2.66-0.19,6.79,2.48,6.37c-4.03,3.24-9.6,3.52-14.77,3.63
		c-34.42,0.7-68.88-0.31-103.21-3.04c9.95-7.85,23.83-7.62,36.49-7.02c-12.39-0.93-24.79-1.86-37.18-2.8
		c2.08-0.99,4.16-1.98,6.24-2.97c-1.51-0.15-1.73-2.82-0.27-3.22c-4.89,1.33-10.16-3.66-10.88-8.13c-0.71-4.39,1.13-8.94,2.77-12.9
		c2.23-5.39,3.53-11.16,5.27-16.73c1.96-6.26,4.08-12.48,6.37-18.63C308.1,122.85,310.85,116.09,313.8,109.43z"/>
	<path class="st6" d="M190.63,169.05c-0.66,3.87-1.2,8.19,1.02,11.43c-1.69,2.3-2.66,5.13-2.74,7.99c2.17,1.91,4.35,3.83,6.52,5.74
		c-1.56,3.74,1.67,8.56,5.72,8.53c-2.56,2.86-5.12,5.72-7.68,8.58c31.62,2.5,63.41,2.83,95.07,1c2.85-0.16,6.44-0.96,6.97-3.77
		c0.43-2.3-1.58-4.23-2.82-6.21c-2.11-3.38-2.02-8.01,0.23-11.31c-1.78-1.23-3.56-2.46-5.34-3.69c-1.17-6.07-1.2-12.35-0.1-18.42
		c1.39-7.65,4.52-14.86,7.53-22.03c6.05-14.43,11.67-29.03,16.86-43.79c0.66-1.89,1.25-4.19-0.05-5.71c-0.94-1.1-2.52-1.34-3.96-1.5
		c-11.04-1.23-24.42-1.46-30.63,7.75c-0.97-4.54-7.71-2.05-12.26-1.17c-8.18,1.58-15.81-8.8-11.85-16.13
		c-9.47,0.49-18.94,0.97-28.41,1.46c-5.38,0.28-11.45,0.07-14.63,5.19c-3.45,5.54-4.7,13.12-6.47,19.3
		c-2.51,8.76-4.8,17.59-6.86,26.47C194.41,148.79,192.37,158.9,190.63,169.05z"/>
	<path class="st6" d="M151.66,93.18c-3.25-1.2-6.47-2.85-9.94-2.86c-3.83-0.01-7.36,1.97-10.64,3.95
		c-13.54,8.16-26.53,17.25-38.85,27.17c-3.07,2.47-6.36,5.53-6.38,9.47c-0.01,2.14,0.99,4.2,0.95,6.34
		c-0.07,3.54-2.88,6.37-4.03,9.72c-1.14,3.35,1.38,8.39,4.63,6.98c-3.8,3.41-7.57,9.81-3.43,12.79c-4.88,1.02-4.72,9.79,0.2,10.63
		c-2.12,1.18-4.34,2.7-4.99,5.04c-0.65,2.34,1.4,5.37,3.72,4.68c-1.74,0.97-2.81,3.04-2.58,5.02c0.53,4.7,6.55,6.17,11.26,6.48
		c19.42,1.28,38.84,2.56,58.26,3.84c14.13,0.93,29,1.73,41.77-4.4c-6.19-3.59-10.42-10.36-10.92-17.5c1.86-1.31,2.63-3.98,1.74-6.07
		c-0.9-2.11-3.17-3.48-3.79-5.69c-0.54-1.95,0.36-3.97,1.22-5.79c7.11-15.19,12.73-31.08,16.76-47.37
		c1.37-5.55,4.95-14.13,0.84-19.31c-4.25-5.36-12.79-1.67-18.28-0.96C170,96.53,160.45,96.44,151.66,93.18z"/>
	<path class="st2" d="M844.42,206.02c16.13,0.22,32.46,0.41,48.14-3.38c1.4-3.64-3.9-5.97-7.79-6.27
		c-14.56-1.13-29.12-2.25-43.68-3.38c15.31-0.77,30.62-1.54,45.92-2.3c3.33-0.17,7.83-1.69,7.24-4.97
		c-17.75-0.27-35.51-0.54-53.26-0.8c18.73-2.45,37.47-4.9,56.2-7.35c-18.27-0.61-36.48-2.91-54.33-6.85
		c15.03,0.78,30.05,1.55,45.08,2.33c3.81,0.2,8.34,0.06,10.47-3.1c2.46-3.64-0.01-8.48-2.45-12.13
		c-6.59-9.88-13.18-19.75-19.77-29.63c-13.33,9.4-28.35,16.4-44.13,20.57c4.8-8.97,9.6-17.93,14.4-26.9
		c-8.48,4.48-16.96,8.96-25.45,13.44c-1.21,0.64-2.59,1.29-3.88,0.84c-2.33-0.82-2.14-4.25-0.92-6.4c1.21-2.15,3.05-4.32,2.56-6.74
		c-5.71,2.26-12.72,0.74-16.98-3.68c5.51-2.15,5.52-10.8,1.17-14.8s-10.89-4.39-16.79-3.87c-0.89,0.08-1.88,0.22-2.45,0.91
		c-0.51,0.61-0.55,1.46-0.56,2.25c-0.22,12.45-0.01,24.9,0.63,37.33c4.54-3,9.82-4.86,15.23-5.39c-3.21,5.36-7.9,9.83-13.4,12.79
		c9.09-1.87,18.58-1.77,27.63,0.28c-11.33,2.94-22.65,5.88-33.98,8.83c19.33-0.06,38.66-0.12,58-0.18
		c-21.24,8.54-47.42-0.77-67.15,10.84c14.94,3.31,30.47,3.95,45.63,1.88c-11,11.05-32.7,0.67-44.11,11.3
		c18.65,4.05,37.88,4.43,56.96,4.78c-4.05-0.08-8.73,1.57-12.78,2.09c-4.43,0.57-8.88,0.98-13.34,1.23
		c-8.96,0.5-17.78-0.38-26.7-0.36c0.49,2.15,1.27,3.98,1.25,6.28c-0.01,1.8-0.45,3.6-0.39,5.4c0.16,4.65,4.61,4.28,8.27,4.33
		c12.66,0.18,25.33,0.34,37.99,0.51C830.08,205.83,837.25,205.93,844.42,206.02z"/>
	<path class="st7" d="M670.02,98.18c2.56,8.62,3.05,17.84,1.4,26.68c17.82-2.86,27.02-25.07,44.55-29.36
		c-6.39,9.47-10.84,20.25-12.99,31.47c13.14-3.58,26.29-7.15,39.43-10.73c-2.76,2.95,0.09,8.09,3.89,9.45s8.01,0.48,12.04,0.76
		s8.63,2.57,8.91,6.61c-15.69,6.77-32.65,10.58-49.72,11.17c15.29,0.84,30.58,1.69,45.87,2.53c-21.47,3.01-42.93,6.02-64.4,9.03
		c21.33-0.33,42.66-0.66,64-0.99c-3.21,5.4-10.55,6.41-16.82,6.19c-6.28-0.22-13.17-0.92-18.26,2.76c8.43-0.3,16.91,1.15,24.76,4.23
		c-18.17,0.82-36.19,4.71-53.08,11.46c15.5-0.86,31.01-1.73,46.51-2.59c4.85-0.27,10.27-0.35,13.87,2.91
		c-13.52,12.14-37.02,0.76-52.3,10.6c16.15,0.23,32.27,2.15,48.02,5.72c-9.6,8.29-27.59-1.37-35.94,8.18
		c14.53-2.25,29.63-0.79,43.46,4.2c-10.43,7.8-24.73,7-37.71,5.85c-24.2-2.15-48.5-4.31-72.18-9.76
		c18.14-4.69,37.06-6.31,55.73-4.78c-8.41-1.94-17.17,0.04-25.79,0.28c-8.63,0.24-18.4-2.02-22.77-9.46
		c15.22-1.32,30.47-2.33,45.73-3.03c-11.19-0.2-22.37-0.4-33.56-0.6c-6.69-0.12-15.47-2.1-15.9-8.78c14.55-2.13,29.33-2.7,44-1.72
		c-15.12,2.49-31.06-0.36-44.38-7.94c14.62-3.08,29.6-4.43,44.53-4.03c-14.15,2.32-28.95,0.48-42.1-5.22
		c11.09-3.66,22.79-5.44,34.46-5.24c-6.84-0.89-13.59-2.54-20.07-4.93c6.53-1.04,13.06-2.08,19.59-3.12
		c-10.36,2.08-21.44,0.35-30.67-4.79c5.91-3.13,12.66-4.66,19.34-4.41c-4.66,0.74-9.48,0.37-13.99-0.99
		c-2.26-0.68-4.44-1.61-6.49-2.77c-2.32-1.31-4.14-2.09-4-4.92c0.17-3.48,1.54-6.06,2.73-9.23c1.63-4.35,0.46-8.82,1.28-13.26
		C661.72,101.81,665.42,96.22,670.02,98.18z"/>
	<path class="st8" d="M553.58,119.38c7.75-1.48,15.4,2.4,22.35,6.12c14.73,7.9,30.29,15.9,47,15.79c9.43-0.06,20.72-2.03,26.69,5.27
		c-3.14,3.25-6.89,5.9-10.99,7.78c3.53,0.06,7.05,0.82,10.3,2.22c-1.45,5.81-6.62,10.52-12.54,11.41c3.82-0.35,6.21,4.73,4.84,8.31
		c-1.37,3.58-4.9,5.78-8.21,7.72c3.49-1.5,8,0.57,9.32,4.13s-0.59,7.94-4.02,9.59c2.31-2.58,7.21-0.45,7.8,2.96
		c0.59,3.41-2.03,6.72-5.19,8.14c-3.16,1.42-6.75,1.42-10.21,1.5c-30.07,0.73-62.01,9.29-89.03-3.94c-1.3-0.64-2.77-1.64-2.69-3.08
		c0.11-1.88,2.58-2.47,4.47-2.52c24.59-0.69,49.2-0.68,73.79,0.05c-22.06-8.74-48.3,0.41-70.14-8.89c-1.54-0.66-3.15-1.51-3.85-3.03
		c-1.94-4.26,4.45-7.26,9.12-7.57c20.15-1.32,40.38-1.34,60.53-0.07c-24.6-6.41-51.46-0.93-75.43-9.38
		c24.43-3.03,49.14-3.71,73.7-2.02c-26.72-4.69-53.84-7.09-80.97-7.17c6.18-5.1,14.34-7.74,22.34-7.22
		c-4.29,0.38-9.31,0.08-11.86-3.39c-2.19-3.05,0.71-9.93,4.94-7.83c-1.57-4.65-3.62-9.02-2.76-14.1
		C543.79,124.97,548.45,120.36,553.58,119.38z"/>
	<path class="st2" d="M437.97,128.27c3.8,4.13,0.65,12.36,5.35,15.44c1.81,1.19,4.16,1.05,6.3,0.7
		c10.86-1.76,20.91-8.04,27.25-17.02c2.79-3.95,5.01-8.51,8.97-11.27c3.97-2.76,10.55-2.6,12.59,1.78c1.13,2.42,0.52,5.25-0.08,7.85
		c-1.47,6.34-2.52,13.79,1.79,18.67c3.49,3.95,9.22,4.7,14.19,6.46s10.14,6.2,8.86,11.31c-16.15,6.11-32.85,10.77-49.83,13.92
		c18.06-0.96,36.29-1.91,54.12,1.13c-16.39,3.2-32.56,7.47-48.4,12.77c17.62-1.77,36.47-3.3,52.02,5.16
		c-14.5,2.1-28.99,4.2-43.49,6.3c13.44-0.85,26.98-0.09,40.24,2.24c-4.47,6.62-13.78,7.32-21.77,7.25
		c-29.73-0.26-59.45-2.06-88.99-5.38c6.51-6.6,16.7-7.64,25.97-7.48s19.01,1.01,27.36-3.03c-16.67,0.25-33.37-1.63-49.56-5.59
		c2.6-4.95,9.06-6.08,14.62-6.64c10.18-1.02,20.35-2.04,30.53-3.06c-15-0.09-30-0.98-44.9-2.68c-1.9-0.22,1.33-10.16,1.67-11.04
		c-5.3-4.37-2.15-7.33-0.15-12.41c2.43-6.14,3.97-11.97,7.94-17.44C432.71,133.28,435.19,130.6,437.97,128.27z"/>
	<path class="st8" d="M308.9,142.83c4.68,3.67,9.36,7.34,14.03,11.01c3.99,3.13,9.24,6.43,13.77,4.13
		c6.27-3.19,3.99-12.43,2.15-19.23c-2.78-10.27-2.21-21.41,1.6-31.34c7.69,12.92,15.98,25.48,24.86,37.61
		c2.93,4,8.55,8.28,12.11,4.83c4.22-4.09-2.17-12.29,1.58-16.81c4.18,5.63,10.98,9.23,17.99,9.54c1.53,0.07,3.12,0,4.49,0.68
		c3.7,1.85,2.96,7.6,0.25,10.74s-6.67,5.11-8.87,8.61c-2.64,4.2-2.77,10.5-7.29,12.56c-3.13,1.43-6.75-0.08-9.85-1.57
		c-6.9-3.32-13.8-6.63-20.69-9.95c-4.74,3.68-2.39,11.94,2.75,15.04s11.55,2.71,17.55,2.59c9.71-0.2,19.44,0.56,29,2.28
		c1.78,0.32,3.84,0.91,4.43,2.62c1.04,3.01-3.3,4.81-6.48,5.02c-18.27,1.2-36.54,2.4-54.81,3.59c2.43,2.34,6.19,2.4,9.57,2.33
		c13.85-0.31,27.69-0.61,41.54-0.92c4.38-0.1,10.33,1.23,10.28,5.62c-0.05,4.12-5.44,5.57-9.56,5.73
		c-36.35,1.47-72.85-0.81-108.74-6.81c14.26-8.31,33.36,2.08,48.61-4.24c-16.6-1.81-33.12-4.26-49.53-7.34
		c7.88-2.61,16.13-4.07,24.43-4.33c-5.77-0.61-17.94-2.01-19.68-9.05c-0.67-2.71,0.82-5.59,1.87-8c1.7-3.89,3.13-7.89,4.93-11.73
		C301.75,154.87,308.58,142.58,308.9,142.83z"/>
	<path class="st7" d="M220.37,102.81c-0.61,0.31-1.23,0.61-1.84,0.92c-0.09,7.76-0.08,13.66-0.18,21.42
		c-0.03,2.65-0.12,5.47-1.63,7.65c-2.23,3.21-6.63,3.84-10.06,5.72c-9.81,5.39-9.78,19.24-8.43,30.35
		c14.61-0.32,23.4-19.44,38-20.02c-6.03,9.28-12.06,18.56-18.1,27.84c7.51-3.46,15.02-6.92,22.52-10.38c1.1-0.51,2.4-1.01,3.47-0.45
		c1.29,0.68,1.43,2.43,2.03,3.76c1.68,3.74,6.93,3.97,10.88,2.91c3.96-1.06,8.25-2.8,11.96-1.06c1.93,0.91,3.38,2.66,5.33,3.52
		s4.92,0.17,5.12-1.95c1.7,1.78-0.98,4.37-3.27,5.26c-19.41,7.56-40.63,8.73-61.43,9.82c-8.47,0.44-16.94,0.89-25.41,1.33
		c0.44,3.57,5.13,4.5,8.73,4.53c19.21,0.12,38.41,0.24,57.62,0.36c-20.1,1.1-40.21,2.2-60.31,3.29c1.54,4.32,7.21,5.12,11.79,5.19
		c14.06,0.22,28.11,0.44,42.17,0.67c-15.51,4.11-31.74,5.51-47.72,4.12c-2.33-0.2-5.56,0.26-5.66,2.6
		c-0.09,2.25,2.91,3.06,5.16,3.13c8.08,0.24,16.16,0.47,24.24,0.71c18.93,0.55,37.85,1.11,56.78,1.66c3.33,0.1,6.78,0.18,9.86-1.09
		s5.72-4.27,5.46-7.59c-13.29-3.25-26.92-5.11-40.6-5.55c9.41-4.14,19.64-5.98,29.77-7.78c-8.42-2.04-17.01-3.34-25.65-3.88
		c5.38-1.29,10.88-2.62,15.55-5.58c4.68-2.96,8.47-7.9,8.56-13.43c0.11-6.3-4.45-11.95-4.47-18.25c-0.03-10.52,12.4-19.6,8.71-29.45
		c-7.36,3.58-11.06,11.73-14.88,18.97c-3.82,7.24-9.45,14.87-17.6,15.6c-5.28-3.44-6.64-10.91-4.84-16.94
		c1.81-6.04,6.07-10.98,10.22-15.72c6.93-7.91,13.85-15.83,20.78-23.74c-12.83,4.12-25.06,10.1-36.19,17.68
		c-2.14-6.13-8.09-9.97-13.64-13.33c-3.01-1.83-6.03-3.65-9.04-5.48c-2.25-1.36-4.63-2.76-7.26-2.81
		C214.27,97.3,220.38,100.19,220.37,102.81z"/>
	<path class="st9" d="M102.06,127.06c3.55-0.1,7.14-0.19,10.64,0.45c3.57,0.66,7,2.09,10.62,2.39c4.51,0.38,8.96-1,13.28-2.37
		c12.52-3.96,25.05-7.93,37.57-11.89c1.47,5.5-3.59,10.49-8.47,13.42c-4.88,2.93-10.67,5.9-12.03,11.42
		c-0.24,0.98-0.3,2.11,0.29,2.93c0.58,0.81,1.63,1.12,2.61,1.3c4.26,0.81,8.69,0.31,12.95,1.11c4.26,0.8,8.7,3.47,9.47,7.74
		c-20.36,3.77-42.08-5.54-61.7,1.06c12.24,5.43,25.89,7.64,39.22,6.36c3.72-0.36,7.49-0.98,11.16-0.29
		c3.67,0.69,7.32,3.06,8.25,6.67c-17.72,1.82-35.44,3.63-53.15,5.45c13.44,0.46,26.89,0.91,40.33,1.37
		c6.54,0.22,13.48,0.57,18.87,4.28c-14.6,11.58-36.52,2.5-54.4,7.78c14.28,1.21,28.57,2.41,42.85,3.62c3.3,0.28,7.52,1.44,7.72,4.74
		c-14.73,6.84-32.45-4.79-48.02-0.19c14.3,2.45,28.59,4.9,42.89,7.35c3.34,0.57,7.43,1.89,7.84,5.26
		c-35.39,7.35-73.55,0.28-103.96-19.26c13.38-1.77,26.95-0.89,40.41-0.01c-11.23-2.07-22.46-4.13-33.69-6.2
		c-2.76-0.51-6.27-1.97-5.91-4.75c14.31,0.39,28.62,0.79,42.94,1.18c-14.19,0.05-28.38-2.47-41.69-7.39
		c12.19-5.99,26.66-3.33,39.95-0.54c-13.4-2.09-26.46-6.36-38.5-12.59c11.3-0.84,22.7-0.25,33.84,1.76
		c-7.05-8.67-24.01-4.68-29.04-14.65c10.21,3.86,21.44,4.97,32.21,3.18c-0.87,0.14-3.92-2.13-4.82-2.55
		c-1.77-0.82-3.59-1.54-5.44-2.16c-3.8-1.27-7.65-1.93-11.6-2.5c-2.62-0.38-6.11-1.05-7.65-3.49c-1.7-2.7,0.3-5.85,2.6-7.45
		C93.8,127.3,98.17,127.17,102.06,127.06z"/>
	<g class="st10">
		<path class="st11" d="M721.12,211.82c10.73,0.42,21.57,0.83,32.14-1.05c1.49-0.26,3.11-0.66,4.02-1.87
			c1.44-1.91,0.17-4.86-1.92-6.03c-2.08-1.17-4.62-1.08-7.01-0.97c-13.45,0.62-26.92,0.73-40.38,0.32c-6.77-0.2-13.53-0.54-20.28-1
			c-5.61-0.39-11.45-1.51-17.07-1.06c-3.92,0.31-7.83,1.32-11.51,2.67c-2.08,0.76-6.55,2.03-7.74,4.15
			c-1.23,2.18,1.44,2.14,3.17,2.25c6.88,0.41,13.79,0.54,20.68,0.81C690.51,210.62,705.82,211.22,721.12,211.82z"/>
		<path class="st11" d="M553.32,204.84c3.58-0.83,7.32-1.34,10.98-1.08c2.64,0.18,5.18,0.85,7.84,0.92
			c3.69,0.09,7.41-0.37,11.08-0.64c10.52-0.77,21.03-1.53,31.55-2.3c5.33-0.39,10.67-0.78,16-1.16c1.6-0.12,15.08-2.02,15.55-1.13
			c1.06,2,0.04,4.61-1.73,6.03s-4.07,1.95-6.29,2.4c-29.24,5.86-59.25,4.72-88.86,3.23c-1.24-0.06-8.02,0.57-6.77-2.03
			c1.01-2.11,6.66-3.2,8.6-3.72C551.95,205.18,552.63,205,553.32,204.84z"/>
		<path class="st11" d="M517.03,212.32c4.09-0.73,8.26-1.74,11.61-4.2c2.01-1.47,3.7-4.4,2.08-6.29c-0.83-0.96-2.2-1.2-3.46-1.34
			c-14.83-1.65-29.64,2.17-44.36,4.62c-11.24,1.88-22.63,2.97-34.03,3.15c-5.4,0.09-10.9-0.59-16.27-0.31
			c-2.86,0.15-6.94,1.32-8.96,3.5c-2.85,3.1,2.69,3.23,4.81,3.24c5.55,0.02,11.14-0.9,16.7-1.07c11.33-0.33,22.65,0.29,33.97,0.6
			C491.77,214.58,504.52,214.54,517.03,212.32z"/>
		<path class="st11" d="M403.56,208.39c2.06-0.02,4.25-0.07,5.99-1.19c1.74-1.11,2.7-3.7,1.39-5.3c-0.94-1.16-2.61-1.36-4.1-1.46
			c-13.44-0.94-26.94-1.31-40.4-0.6c-13.74,0.73-27.4,2.57-41.13,3.37c-8.89,0.51-18.75-0.27-27.35,2.53
			c-2.1,0.68-3.61,1.69-0.97,2.97c2.54,1.23,6.09,0.57,8.82,0.55c3.52-0.03,7.04-0.06,10.55-0.09c13.77-0.12,27.53-0.24,41.3-0.36
			C372.97,208.66,388.27,208.53,403.56,208.39z"/>
	</g>
	<g class="st12">
		<path class="st11" d="M785.13,209.27c22.14,0.03,44.31-3.73,66.34-1.57c7.11,0.7,14.2,2.02,21.34,1.71
			c7.14-0.3,14.54-2.45,19.47-7.62c-1.67-3.01-5.65-3.67-9.08-3.96c-17.67-1.5-35.41-2.23-53.14-2.21
			c-8.91,0.01-17.81,0.21-26.71,0.6c-4.49,0.2-8.97,0.44-13.45,0.74c-3.56,0.23-7.59,0.05-10.95,1.44c-2.72,1.12-4.33,3.3-3.46,6.29
			C776.7,208.89,781.46,209.27,785.13,209.27z"/>
		<path class="st11" d="M785.5,189.52c32.17,0.32,64.35,0.63,96.52,0.95c2.57,0.03,5.28,0.02,7.51-1.25
			c2.23-1.27,3.7-4.27,2.41-6.49c-1.18-2.04-3.91-2.44-6.26-2.62c-19.22-1.42-38.48-2.23-57.75-2.41
			c-9.6-0.09-19.19-0.03-28.79,0.19c-4.35,0.1-8.74,0.44-13.08,0.26c-2.29-0.09-5.1-0.73-7.22,0.44c-2.6,1.43-4.12,5.45-2.25,7.94
			C778.47,189.01,782.61,189.52,785.5,189.52z"/>
		<path class="st11" d="M883.99,172.64c6.24,0.22,14.01-0.39,16.45-6.13c-1.55-2.58-4.77-3.52-7.71-4.17
			c-16.11-3.59-32.64-4.93-49.12-4.95c-8.25-0.01-16.5,0.31-24.73,0.83c-7.71,0.49-15.78,0.62-23.39,2.04
			c-2.94,0.55-24.84,8.52-16.24,13.2c6.1,3.32,15.93,0.79,22.48,0.37c8.44-0.54,16.89-0.95,25.34-1.23
			c16.98-0.57,33.98-0.61,50.97-0.14C880.03,172.51,882.01,172.57,883.99,172.64z"/>
		<path class="st11" d="M691.3,140.52c-8.03,0.09-16.6,0.2-23.27,4.68c6.28,1.83,12.87,2.34,19.39,2.83
			c14.76,1.12,29.57,2.24,44.35,1.42c10.57-0.58,21.09-2.16,31.38-4.7c2.07-0.51,4.77-1.23,5.9-3.23c0.99-1.76,0.6-4.05-1.24-4.99
			c-1.77-0.91-4.35-0.32-6.21-0.13c-3.18,0.33-6.37,0.66-9.56,0.95c-12.91,1.2-25.84,2.07-38.79,2.59
			C705.94,140.25,698.62,140.44,691.3,140.52z"/>
		<path class="st11" d="M670.97,163.46c-2.36-0.19-4.71-0.4-7.07-0.63c-2.29-0.22-4.67-0.5-6.58-1.78c-2.86-1.9-3.48-5.91-0.29-7.74
			c2.34-1.34,4.82-1.27,7.34-0.75c6.58,1.36,13.56,0.46,20.24,0.26c7.73-0.23,15.46-0.45,23.18-0.68
			c15.46-0.45,30.91-0.9,46.37-1.35c4.67-0.14,10.04,0.02,13.03,3.62c-1.46,4.34-6.8,5.73-11.34,6.37
			c-16.02,2.29-32.19,3.57-48.37,3.83c-8.96,0.14-17.89-0.41-26.84-0.39c-3.88,0.01-7.65,0.39-11.41,1.32
			c-4.34,1.07-9.27,1.77-13.43,3.32c-2.31,0.86-3.17,2.96-1.75,5.15c1.47,2.27,4.54,2.48,6.98,2.62
			c33.57,1.93,67.7,3.82,100.42-3.97c1.46-0.35,3-0.76,4.01-1.87c1.01-1.11,1.13-3.14-0.14-3.94c-0.52-0.33-1.16-0.39-1.77-0.44
			c-34.06-2.73-68.21,8.27-102.2,4.79c-1.77,0.06,0.15,10.89-1.62,10.95c-1.28,2.82,0.42,6.29,3.03,7.97
			c2.61,1.67,5.85,1.96,8.95,2.05c14.75,0.44,29.58-2.44,44.22-0.53c8.21,1.07,16.23,3.64,24.5,3.89
			c8.27,0.25,17.33-2.41,21.81-9.37c0.88-1.37,1.57-3.1,0.91-4.6c-0.79-1.8-3.06-2.33-5.02-2.51c-13.58-1.27-27.05,2.59-40.54,4.63
			c-20.16,3.05-40.94,2-60.69-3.07"/>
		<path class="st11" d="M632.26,151.68c6.07-0.08,12.77-0.42,17.14-4.64c-0.47-1.8-2.77-2.27-4.63-2.39
			c-28.41-1.94-56.86-3.28-85.32-4.34c-5.46-0.2-10.65-0.85-15.36,2.48c-3,2.12-5.33,5.99-1,8.08c2.68,1.29,5.92,1.1,8.82,1.11
			c3.67,0.01,7.35,0.01,11.02,0.01c7.04,0.01,14.08,0.01,21.12,0C600.13,151.97,616.19,151.89,632.26,151.68z"/>
		<path class="st11" d="M531.73,165.51c4.78,5.65,11.84,4.02,19.25,4.2c7.18,0.17,14.32,1.4,21.48,1.84
			c7.57,0.47,15.15,0.56,22.73,0.44c15.19-0.24,30.36-1.33,45.53-2.03c2.55-0.12,6.05,0.65,5.96,3.2
			c-22.1,5.69-44.64,11.43-67.43,10.17c-7.57-0.42-15.14-1.61-22.71-1.08c-5.21,0.37-11.64,1.71-15.71-2.51
			c-2.61-2.7-2.27-5.86,0.4-8.35c3.06-2.86,7.62-4.26,11.67-4.85c7.12-1.03,14.61-0.17,21.77-0.09c14.07,0.15,28.15,0.44,42.22,0.44
			c10.84,0.11,23.08-0.35,30.38-8.36c0.49-0.53,0.96-1.14,1.07-1.85c0.31-2.15-2.55-3.16-4.72-3.29
			c-27.23-1.64-54.2,8.14-81.42,6.42c-0.14-0.01-0.27-0.02-0.41-0.03c-7.34-0.51-14.5-2.27-21.77-3.33c-3.2-0.47-6.7-0.54-9.63,1.13
			c-2.44,1.39-1.52,3.33-0.36,5.45C530.56,163.98,531.13,164.8,531.73,165.51z"/>
		<path class="st11" d="M552.73,198.32c18.22-5.52,37.38-8.13,56.38-6.99c11.83,0.71,24.56,2.67,34.82-3.25
			c2.01-1.16,4.08-3.32,3.23-5.47c-0.86-2.18-3.86-2.3-6.2-2.04c-17.98,2-35.99,3.67-54.02,5.13c-9.05,0.73-18.11,1.4-27.17,2.01
			c-5.97,0.4-13.97,0.09-19.08,3.83c-2.14,1.57-2.5,3.58-0.73,5.65C543.28,201.06,548.55,199.59,552.73,198.32z"/>
		<path class="st11" d="M419.74,174.07c0.87,1.7,3.05,2.16,4.96,2.31c7.24,0.59,14.5-0.34,21.68-1.46
			c18.79-2.92,37.36-7.09,55.92-11.25c9.56-2.15,19.12-4.29,28.68-6.44c-0.28-2.85-4.07-3.59-6.93-3.49
			c-27.01,0.99-53.18,9.24-79.95,12.92c-4.99,0.69-10.01,1.21-14.92,2.32C427.24,169.41,417.92,170.5,419.74,174.07z"/>
		<path class="st11" d="M513.79,182.4c4.71-0.46,9.65-1,13.57-3.66c0.78-0.53,1.58-1.27,1.61-2.21c0.05-1.7-2.15-2.38-3.84-2.51
			c-3.38-0.25-6.78-0.36-10.17-0.37c-14.72-0.02-29.34,2.07-43.83,4.5c-7.27,1.22-14.52,2.52-21.79,3.7
			c-3.62,0.59-7.25,1.14-10.89,1.64c-2.95,0.41-7,0.31-9.69,1.65c-3.35,1.67-2.86,6.4-0.93,8.99c3.19,4.29,11.27,2.73,15.86,2.5
			c14.72-0.75,29.13-4.17,43.66-6.35c10.34-1.56,20.78-2.47,31.24-2.72c4.34-0.11,9.02,0,12.53,2.56c-2.57,3.88-8.05,4.1-12.71,4.15
			c-23.3,0.25-45.98,6.39-69.13,8.27c-3.38,0.27-32.85,2.3-29.54-4.72c1.44-3.06,7.08-4.7,9.93-5.69
			c10.84-3.74,22.69-3.71,33.96-4.82C480.36,185.67,497.08,184.04,513.79,182.4z"/>
		<path class="st11" d="M376.82,194.02c13.24,0.51,27.5,1.24,38.63-5.96c-0.31-3.84-5.45-4.8-9.3-4.69
			c-17.75,0.52-35.5,1.03-53.25,1.55c-8.88,0.26-17.75,0.52-26.62,0.77c-7.19,0.21-15-0.43-21.99,1.6c-1.46,0.42-5.1,1.36-4.54,3.51
			c0.4,1.52,7.95,2.97,4.89,5.07c18.75-1.44,37.45-2.44,56.26-2.25C366.2,193.68,371.51,193.81,376.82,194.02z"/>
		<path class="st11" d="M247.5,183.04c3.62,0.54,7.21,1.36,10.87,1.42c6.94,0.12,13.63-2.49,19.9-5.47c0.16-1.2-1.53-1.62-2.74-1.56
			c-18.23,0.97-36.47,1.93-54.7,2.9c-4.5,0.24-9,0.47-13.5,0.72c-2.37,0.13-6.41,0.29-8.26,2.1c-2.36,2.29,3.67,1.32,5.04,1.21
			c4.41-0.33,8.8-0.87,13.2-1.27C227.34,182.16,237.5,181.54,247.5,183.04z"/>
		<path class="st11" d="M199.79,195.14c-2.12-0.23-7.59-0.98-5.02-3.34c2.21-2.03,6.96-1.69,9.66-1.59
			c5.05,0.19,10.11,0.01,15.16-0.33c10.31-0.7,20.58-2.08,30.92-2.41c10.9-0.34,21.8,0.5,32.68,1.35c1.23,0.1,2.57,0.24,3.46,1.1
			c1.74,1.68,0.33,4.9-1.91,5.79c-2.24,0.89-4.77,0.26-7.12-0.28c-10.78-2.44-21.91-2.5-32.9-1.92c-5.96,0.32-11.91,0.82-17.86,1.24
			c-4.03,0.28-8.42-0.05-12.37,0.77c-1.73,0.36-3.35,1.12-4.81,2.1c-1.35,0.9-5.55,3.97-4.21,6.08c0.79,1.23,3.53,0.82,4.67,0.87
			c3.04,0.14,6.07,0.27,9.11,0.41c6.07,0.27,12.14,0.54,18.21,0.82c19.13,0.86,38.26,1.71,57.41,1.68c0.53-1.73-1.15-3.3-2.72-4.19
			c-8.8-4.96-19.58-4.03-29.65-3.21c-23.8,1.93-47.72,2.44-71.58,1.52c-1.42-1.46,3.18,8.74,4.15,10.53
			c0.97,1.79,3.32,2.19,5.35,2.26c7.89,0.28,15.76-1.4,23.65-1.14c9.17,0.3,18.03,3.2,27.1,4.6c14.66,2.26,29.92,0.5,43.69-5.03
			c-6.28-2.29-13.21-1.21-19.89-0.86c-13.05,0.68-26.05-1.58-39.1-2.35c-14.32-0.85-28.68,0.11-42.99,1.06"/>
		<path class="st11" d="M156.72,153.51c8.66,2.74,18.39,7.06,26.25,2.51c-2.19-2.69-5.69-3.9-9.05-4.8
			c-16.05-4.31-32.78-4.5-49.19-6.5c-4.09-0.5-8.17-1.11-12.22-1.93c-1.39-0.28-6.54-1-4.95,2.48c0.89,1.96,8.12,1.91,10.1,2.15
			c4.1,0.5,8.2,0.89,12.31,1.32C138.98,149.68,148.05,150.77,156.72,153.51z"/>
		<path class="st11" d="M141.44,166.78c10.79,2.79,22.25,5.58,32.89,2.29c0.67-3.33-2.72-6.04-5.89-7.28
			c-9.31-3.65-19.72-2.32-29.67-3.26c-5.93-0.56-11.74-1.94-17.54-3.32c-6.52-1.55-13.04-3.13-19.57-4.65
			c-2.85-0.66-8.98-1.39-11.33,1.07c-2.56,2.67,7.64,3.92,9.4,4.37c6.51,1.68,13.01,3.37,19.52,5.05
			C126.66,162.95,134.05,164.86,141.44,166.78z"/>
		<path class="st11" d="M103.15,171.78c11.9,2.83,23.13,8,34.94,11.19c11.81,3.19,24.86,4.26,35.92-0.98
			c0.13-0.64,0.26-1.29,0.39-1.93c-16.89-5.77-35.79-1.62-52.95-6.51c-8.68-2.47-16.54-7.09-25.09-9.92
			c-3.24-1.07-6.92-2.38-10.22-0.69c-3.83,1.96,0.43,3.97,2.67,4.95C93.37,169.88,98.34,170.64,103.15,171.78z"/>
		<path class="st11" d="M124.95,191.94c7.57,1.85,15.2,3.7,22.98,4.02c12.39,0.51,24.7-2.89,37.08-2.24
			c-2.92-5.29-10.4-5.12-16.42-4.61c-16.2,1.37-32.63-0.01-48.39-4c-4.04-1.02-8.04-2.22-11.98-3.58c-1.94-0.67-3.86-1.38-5.77-2.13
			c-1.66-0.65-3.79-2.06-5.55-2.25c-4.29-0.46-4.65,6.49-0.9,7.74C105.3,188,115.42,189.62,124.95,191.94z"/>
		<path class="st11" d="M132.94,208.31c15.6,3.39,31.83-0.16,47.2-4.48c-19.95-7.12-41.58-2.84-62.11-6.37
			c-5.3-0.91-10.34-2.49-15.36-4.4c-3.9-1.49-6.86-2.59-11.01-1.45c-1.19,0.33-5.44,1.51-4.57,3.34c0.51,1.08,4.5,1.06,5.46,1.19
			c2.58,0.35,5.15,0.66,7.69,1.24C111.49,199.94,121.66,205.86,132.94,208.31z"/>
	</g>
	<path class="st13" d="M322.12,112.66c0.78,1.75,0.02,3.76-0.31,5.65c-0.33,1.89,0.19,4.36,2.07,4.77
		c6.17-2.34,9.97-8.37,13.92-13.66c3.95-5.29,9.42-10.58,16.01-10.18c1.97,4.19-0.75,8.97-3.2,12.9
		c-8.86,14.25-15.34,29.98-19.08,46.34c5.36-10.14,11.94-19.63,19.54-28.22c-0.95,3.75-1.9,7.49-2.85,11.24
		c0.82-2.65,2.09-5.15,3.75-7.37c-0.44,2.81-0.07,5.74,1.07,8.34c7.5-7.74,13.5-16.93,17.56-26.92c0.76-1.86,0.97-4.74-0.99-5.18
		c-4.75,13.24-7.29,27.28-7.5,41.34c2.94-1.58,3.92-5.21,5.35-8.22c1.43-3.01,4.67-6.02,7.71-4.65c-0.75,0.95-0.67,2.45,0.17,3.31
		c1.61-1.86,3.47-3.71,5.87-4.28c2.4-0.56,5.38,0.76,5.73,3.19c2.43-4.19,5.17-8.65,9.66-10.46c4.49-1.81,10.94,0.95,10.78,5.78
		c-5.84,2.92-11.69,5.84-17.53,8.76c-2.25,1.12-5.06,2.22-7.11,0.78c-1.18-0.83-1.92-2.41-3.35-2.64c-2.75-0.43-5.97,4.26-7.29,1.81
		c-2.36,8.19-6.58,15.83-12.25,22.19c-4.24-7.16-4.86-16.34-1.61-24.01c-1.69,1.95-4.48,2.87-7,2.3c-0.14,1.44-0.77,2.83-1.76,3.89
		c-0.32-1.99-1.24-3.88-2.62-5.34c-6.09,4.69-10.92,10.98-13.88,18.07c-1.3,3.1-3.69,7.12-6.84,5.93
		c-1.1-10.89,0.13-22.01,3.58-32.4c-3.47,2.89-6.94,5.78-10.41,8.67c-0.07-2.72-0.13-5.43-0.2-8.15
		c-3.99,5.09-2.82,12.44-4.96,18.55c-1.84,5.26-6.34,9.51-11.7,11.05c-1.4,0.4-2.96,0.61-4.26-0.04c-2.36-1.17-2.66-4.41-2.24-7.01
		c1.45-9.03,8.04-17.06,16.62-20.24c-2.43,2.74-3.62,6.55-3.16,10.18c4.29-8.9,6.58-18.76,6.66-28.64
		c-4.03-0.29-5.76,4.93-6.27,8.93c-0.51,4-2.66,9.19-6.63,8.47c0.75,0.14,3.9-9.65,4.22-10.64c0.92-2.92,1.35-6.12,2.6-8.93
		C311.45,114.59,319.08,105.83,322.12,112.66z"/>
</g>
</svg>
